<svg xmlns="http://www.w3.org/2000/svg" width="57" height="57" fill="none" viewBox="0 0 57 57">
    <path fill="#21BF73" d="M28.068 30.156c3.36 0 6.085-2.725 6.085-6.086 0-3.36-2.724-6.085-6.085-6.085-3.362 0-6.086 2.725-6.086 6.085.005 3.36 2.726 6.081 6.086 6.086zm0-9.805c2.06 0 3.73 1.67 3.73 3.731 0 2.06-1.67 3.731-3.73 3.731-2.061 0-3.732-1.67-3.732-3.73 0-2.061 1.671-3.731 3.732-3.732zM28.068 32.404c-2.49-.019-4.879.98-6.615 2.766-1.765 1.8-2.73 4.249-2.73 6.91.002.648.527 1.174 1.177 1.176h16.337c.65-.002 1.175-.528 1.177-1.177 0-2.66-.965-5.108-2.731-6.91-1.736-1.784-4.125-2.784-6.615-2.765zm-6.909 8.498c.201-1.539.895-2.971 1.978-4.084 1.302-1.318 3.078-2.06 4.931-2.06 1.853 0 3.63.742 4.932 2.06 1.08 1.114 1.773 2.546 1.977 4.084H21.16z"/>
    <path fill="#21BF73" d="M42.194 1.79h-28.25c-3.249 0-5.883 2.635-5.884 5.884v41.668c0 3.25 2.635 5.883 5.885 5.885h28.249c3.25-.002 5.883-2.636 5.885-5.885V7.674c-.002-3.25-2.636-5.883-5.885-5.885zm3.53 47.552c-.005 1.947-1.583 3.525-3.53 3.53h-28.25c-1.947-.005-3.525-1.583-3.53-3.53V7.674c.005-1.947 1.583-3.525 3.53-3.53h28.25c1.947.005 3.525 1.583 3.53 3.53v41.668z"/>
    <path fill="#21BF73" d="M23.16 9.687h9.416c.65 0 1.177-.527 1.177-1.177s-.527-1.177-1.177-1.177H23.16c-.65 0-1.178.527-1.178 1.177s.527 1.177 1.178 1.177z"/>
</svg>
