<svg width="97" height="33" viewBox="0 0 97 33" fill="none" xmlns="http://www.w3.org/2000/svg">
<g clip-path="url(#clip0)">
<path fill-rule="evenodd" clip-rule="evenodd" d="M23.3406 0C23.9817 0.113908 24.6278 0.203824 25.2627 0.346461C26.7802 0.687487 28.1917 1.28483 29.451 2.23499C31.0636 3.45196 32.124 5.05622 32.6424 7.0318C33.239 9.30546 33.1684 11.5797 32.5604 13.8369C31.6609 17.1758 29.9333 20.046 27.747 22.6499C26.1937 24.4997 24.3736 26.0511 22.5016 27.5412C20.7377 28.9452 18.9076 30.2511 16.9112 31.2913C15.3339 32.1131 13.7188 32.8263 11.9182 32.948C11.8851 32.9502 11.8539 32.982 11.8219 33C11.5945 33 11.3672 33 11.1398 33C11.0827 32.9799 11.0262 32.9445 10.9683 32.9419C9.8583 32.8937 9.0382 32.3106 8.40679 31.432C7.60222 30.3122 7.52288 29.0284 7.91277 27.7705C8.26106 26.6466 8.73432 25.5453 9.28972 24.5115C10.0344 23.1254 11.0303 21.932 12.5169 21.3102C13.7782 20.7826 15.032 20.8161 16.2189 21.5428C16.889 21.9532 17.1399 22.6333 16.7919 23.3406C16.4853 23.964 16.0696 24.553 15.6093 25.0705C14.548 26.2633 13.4109 27.3853 12.3437 28.5728C11.8075 29.1695 11.3563 29.85 11.172 30.6642C11.0347 31.2709 11.2954 31.7318 11.8808 31.7976C12.2681 31.8413 12.6898 31.7773 13.0673 31.6621C14.6049 31.1927 15.9721 30.3595 17.3003 29.4638C20.0202 27.6297 22.4869 25.4876 24.6381 22.9792C26.1644 21.1995 27.4435 19.2642 28.0774 16.9441C28.471 15.5038 28.6438 14.0592 28.199 12.5996C27.826 11.3755 27.2017 10.3538 25.9184 9.96716C25.0189 9.69618 24.1177 9.84029 23.2354 10.0966C21.5594 10.5834 20.036 11.4166 18.5576 12.3335C15.4823 14.2407 12.5008 16.2904 9.65104 18.5403C8.48045 19.4645 7.24181 20.2797 5.80954 20.7404C3.87477 21.3627 1.72175 20.6233 0.684305 18.8642C0.344274 18.2877 0.221887 17.5766 0 16.9271C0 16.7459 0 16.5647 0 16.3835C0.19544 15.6164 0.30555 14.8127 0.601779 14.0887C1.60323 11.6414 3.29277 9.70441 5.18912 7.95642C7.69968 5.64238 10.5246 3.80696 13.588 2.35573C15.4463 1.47545 17.3619 0.763736 19.3714 0.341569C20.0084 0.207784 20.6533 0.112744 21.2945 0C21.9766 0 22.6586 0 23.3406 0Z" fill="#E20010"/>
<path fill-rule="evenodd" clip-rule="evenodd" d="M97.0008 26.8657C96.0719 26.9959 95.1448 27.0335 94.2159 26.8525C92.37 26.4928 91.1985 25.1558 91.0286 23.1854C90.991 22.748 90.9715 22.3075 90.9711 21.8685C90.9669 17.5105 90.9728 13.1525 90.9609 8.79456C90.9599 8.41952 91.0355 8.26035 91.4347 8.20646C92.396 8.07663 93.3484 7.87832 94.3049 7.71061C94.4021 7.6936 94.5028 7.6971 94.6454 7.68848C94.6454 7.85946 94.6454 8.01157 94.6454 8.16368C94.6454 12.832 94.6454 17.5003 94.6454 22.1686C94.6454 22.2074 94.6454 22.2462 94.6454 22.285C94.647 23.9778 95.3362 24.6138 97.0007 24.4586C97.0008 25.261 97.0008 26.0634 97.0008 26.8657Z" fill="#E20010"/>
<path fill-rule="evenodd" clip-rule="evenodd" d="M40.4908 15.2909C40.1726 14.563 39.8597 13.8472 39.5347 13.1038C40.6274 12.4996 41.7378 12.0213 42.9288 11.7711C44.4486 11.4519 45.962 11.4129 47.4274 12.0467C48.9845 12.7203 49.8239 13.9633 50.0777 15.6437C50.1391 16.0504 50.1562 16.4675 50.1573 16.8799C50.1643 19.376 50.1553 21.8723 50.1684 24.3683C50.17 24.6599 50.0745 24.8468 49.8707 25.028C48.5476 26.204 46.9884 26.7997 45.2717 27.0142C44.1068 27.1597 42.9575 27.1376 41.8402 26.7031C39.1345 25.6513 37.7812 22.616 38.8773 20.0062C39.5882 18.3133 40.9625 17.5052 42.6474 17.1801C43.2507 17.0637 43.8753 17.048 44.4915 17.0231C45.121 16.9977 45.7521 17.0175 46.4395 17.0175C46.4505 16.3173 46.5247 15.6369 46.1698 15.0107C45.8988 14.5324 45.4481 14.3427 44.941 14.2794C43.5492 14.1056 42.2732 14.5333 41.0241 15.0905C40.8855 15.1523 40.7494 15.2196 40.6109 15.2817C40.5895 15.2913 40.5616 15.2861 40.4908 15.2909ZM46.4462 19.5609C45.8437 19.5609 45.3015 19.549 44.7599 19.5632C43.4209 19.5984 42.5339 20.4358 42.3814 21.7927C42.2404 23.048 42.868 24.1584 43.9089 24.4109C44.7069 24.6044 45.4929 24.4791 46.2291 24.1148C46.3379 24.061 46.43 23.8585 46.4363 23.7205C46.4602 23.1911 46.4461 22.6598 46.4461 22.1293C46.4463 21.2907 46.4462 20.4521 46.4462 19.5609Z" fill="#E20010"/>
<path fill-rule="evenodd" clip-rule="evenodd" d="M88.673 19.773C88.4726 19.773 88.3241 19.773 88.1754 19.773C85.8264 19.773 83.4773 19.7782 81.1284 19.7667C80.8252 19.7651 80.6725 19.839 80.7156 20.1703C80.8168 20.949 80.8377 21.7497 81.0345 22.5021C81.368 23.7768 82.2865 24.4298 83.5819 24.4642C85.0806 24.5041 86.4399 24.0495 87.7339 23.2106C88.0741 23.9254 88.4085 24.628 88.7838 25.4161C88.1082 25.7645 87.4638 26.1412 86.7859 26.4374C85.2384 27.1135 83.6194 27.3032 81.9647 26.9937C79.5596 26.5438 78.1429 24.9366 77.409 22.6641C76.5632 20.0453 76.7609 17.4426 77.9118 14.9635C79.3141 11.9425 82.7008 10.7723 85.6598 12.2073C86.5861 12.6564 87.261 13.373 87.7137 14.3034C88.5423 16.0075 88.6699 17.8433 88.673 19.773ZM80.8466 17.3813C82.2176 17.3813 83.5301 17.3813 84.9485 17.3813C84.803 16.7247 84.7449 16.0967 84.5234 15.5366C84.0238 14.2734 82.4516 14.0587 81.5877 15.1026C81.0503 15.7518 80.8974 16.5394 80.8466 17.3813Z" fill="#E20010"/>
<path fill-rule="evenodd" clip-rule="evenodd" d="M75.6059 24.5091C75.6059 25.2426 75.6136 25.9264 75.596 26.6096C75.5939 26.6929 75.465 26.8322 75.3804 26.845C74.1392 27.0325 72.9107 27.0005 71.7356 26.4949C70.419 25.9286 69.725 24.8604 69.5044 23.4499C69.4388 23.0311 69.4206 22.6007 69.42 22.1757C69.4143 17.6879 69.4164 13.2001 69.4164 8.71236C69.4164 8.58447 69.4164 8.45643 69.4164 8.29501C70.6665 8.08932 71.893 7.88744 73.1703 7.67725C73.1703 9.0735 73.1703 10.424 73.1703 11.8102C73.9916 11.8102 74.7693 11.8102 75.576 11.8102C75.576 12.7422 75.576 13.6384 75.576 14.5723C74.7871 14.5723 74.0104 14.5723 73.1936 14.5723C73.1851 14.7433 73.1723 14.8795 73.1723 15.0156C73.171 17.447 73.1714 19.8785 73.1715 22.3098C73.1715 22.3616 73.1713 22.4133 73.1724 22.465C73.2029 23.8782 73.7267 24.4263 75.1005 24.4839C75.2498 24.4901 75.399 24.4987 75.6059 24.5091Z" fill="#E20010"/>
<path fill-rule="evenodd" clip-rule="evenodd" d="M59.5776 26.8179C59.5776 26.6523 59.5776 26.5136 59.5776 26.3749C59.5782 22.5449 59.5812 18.7149 59.5742 14.8849C59.5737 14.6188 59.6414 14.4262 59.8313 14.24C62.0546 12.0616 64.6474 11.1487 67.7027 11.8079C67.9201 11.8548 68.1294 11.9411 68.3901 12.0243C68.0564 12.7939 67.7513 13.5264 67.411 14.2412C67.3735 14.32 67.1282 14.3363 66.9884 14.316C65.8549 14.151 64.7779 14.287 63.7664 14.8715C63.4494 15.0547 63.3158 15.2766 63.3177 15.6718C63.3346 19.2429 63.3234 22.8141 63.3342 26.3854C63.3352 26.7267 63.2672 26.8585 62.9014 26.8481C61.9298 26.8206 60.9569 26.8394 59.9846 26.8379C59.8615 26.8377 59.7384 26.8261 59.5776 26.8179Z" fill="#E20010"/>
<path fill-rule="evenodd" clip-rule="evenodd" d="M56.5868 26.818C55.4177 26.818 54.2953 26.8225 53.173 26.8076C53.1 26.8066 53.0171 26.6642 52.9618 26.573C52.9334 26.5261 52.9553 26.4467 52.9553 26.3821C52.9552 21.868 52.9552 17.3539 52.9552 12.8398C52.9552 12.7243 52.9552 12.6088 52.9552 12.4338C54.1659 12.2296 55.3652 12.0274 56.5868 11.8213C56.5868 16.8178 56.5868 21.7912 56.5868 26.818Z" fill="#E20010"/>
<path fill-rule="evenodd" clip-rule="evenodd" d="M54.7856 10.5771C53.4748 10.5779 52.4503 9.5341 52.4512 8.19895C52.4521 6.89029 53.5029 5.82552 54.7991 5.81985C56.101 5.81418 57.1151 6.83702 57.1188 8.15935C57.1228 9.53177 56.1148 10.5764 54.7856 10.5771Z" fill="#E20010"/>
</g>
<defs>
<clipPath id="clip0">
<rect width="97" height="33" fill="white"/>
</clipPath>
</defs>
</svg>
