<svg width="46" height="46" viewBox="0 0 46 46" fill="none" xmlns="http://www.w3.org/2000/svg">
<path d="M30.8968 37.0648C38.8556 32.5123 41.617 22.3699 37.0645 14.411C32.512 6.45221 22.3696 3.69082 14.4107 8.24332C6.45191 12.7958 3.69052 22.9382 8.24301 30.8971C12.7955 38.8559 22.9379 41.6173 30.8968 37.0648Z" fill="#F89F36"/>
<path d="M29.1933 22.9606C28.9378 22.1944 28.427 21.6835 27.6607 21.4281C27.3032 21.326 26.9456 21.2749 26.5369 21.1727C26.588 21.1216 26.588 21.1216 26.6391 21.0705C28.1716 19.8445 27.4564 17.2393 26.0261 16.6262C25.4641 16.3708 24.8511 16.2687 24.2381 16.2176C23.7784 16.2176 23.3697 16.2176 22.9099 16.2687C22.7567 15.5024 22.5524 14.4296 22.348 13.6123L20.7644 13.9188C20.9177 14.7361 21.122 15.7578 21.2753 16.5241C20.8155 16.6262 20.4068 16.6773 19.9982 16.7795C19.8449 16.0132 19.6406 14.9916 19.4873 14.1742L17.9037 14.4807C18.057 15.3492 18.2613 16.3708 18.4146 17.1371C17.3418 17.3414 16.269 17.5458 15.1963 17.8012C15.2985 18.3631 15.4006 18.925 15.5539 19.4869C15.8093 19.4359 16.0136 19.3848 16.1669 19.3848C16.3712 19.3337 16.5756 19.2826 16.7799 19.2826C17.3418 19.2315 17.6994 19.4359 17.8016 19.9978C18.2613 22.2966 18.7211 24.5953 19.1808 26.843C19.283 27.3539 19.1297 27.5582 18.6189 27.6604C18.2613 27.7114 17.9037 27.8136 17.5461 27.8647C17.5461 28.5288 17.5972 29.1418 17.5972 29.8059C18.67 29.6015 19.7427 29.3972 20.8155 29.1929C20.9688 30.0102 21.1731 31.0319 21.3774 31.9003L22.961 31.5938C22.8078 30.7254 22.6034 29.7037 22.4502 28.9374C22.9099 28.8353 23.3186 28.7842 23.7273 28.7331C23.8805 29.5505 24.0849 30.5721 24.2892 31.3895L25.8728 31.083C25.7196 30.2145 25.5152 29.1929 25.362 28.4266C25.4131 28.4266 25.4641 28.3755 25.5152 28.3755C26.2304 28.069 26.9967 27.8647 27.7118 27.5582C28.6313 27.0984 29.2954 26.3833 29.4998 25.3616C29.5508 24.5442 29.4487 23.778 29.1933 22.9606ZM20.4068 18.7207C21.3774 18.5163 22.348 18.2098 23.3186 18.4653C23.9827 18.6185 24.3914 19.0272 24.4425 19.6402C24.5446 20.2532 24.2892 20.8151 23.6762 21.1216C22.8589 21.5814 21.9394 21.7857 21.0198 21.939C20.8155 20.8662 20.6112 19.8445 20.4068 18.7207ZM25.5152 25.9746C24.6979 26.5365 23.7784 26.7408 22.8589 26.9452C22.6034 26.9963 22.348 27.0473 22.0415 27.0984C21.7861 25.9235 21.5818 24.7486 21.3263 23.5736C22.5524 23.3182 23.7273 22.9606 24.9533 23.2671C25.6174 23.4204 26.0261 23.778 26.1793 24.4421C26.3326 25.0551 26.0771 25.5659 25.5152 25.9746Z" fill="white"/>
</svg>
