<svg xmlns="http://www.w3.org/2000/svg" width="58" height="58" fill="none" viewBox="0 0 58 58">
    <path fill="#BABABC" d="M17.819 29.68h-4.372c-3.776.009-6.834 3.067-6.843 6.843v2.191c0 .414.335.75.749.75h16.566c.413-.003.747-.341.743-.755v-2.186c-.009-3.776-3.067-6.835-6.843-6.844zm5.345 8.28H8.102v-1.437c.016-2.946 2.4-5.33 5.345-5.345h4.372c2.945.015 5.33 2.4 5.345 5.345v1.436zM50.656 36.392H30.578c-.377.023-.678.324-.702.702-.025.413.29.769.702.794h20.078c.378-.023.679-.324.702-.702.026-.413-.288-.769-.702-.794zM19.156 27.202l.045-.043.002-.002c1.97-1.971 1.97-5.167-.002-7.138-.945-.95-2.23-1.482-3.569-1.482-1.319 0-2.585.516-3.526 1.44l-.046.042-.001.002c-1.971 1.971-1.97 5.168.002 7.138 1.953 1.958 5.118 1.977 7.095.043zm-6.03-6.12l.037-.037c1.394-1.343 3.607-1.327 4.98.037l.009-.003c1.387 1.388 1.387 3.638 0 5.026l-.037.036c-1.394 1.35-3.613 1.335-4.988-.034-1.387-1.388-1.387-3.637 0-5.025z"/>
    <path fill="#BABABC" d="M53.009 8.113H4.99C2.238 8.121.008 10.351 0 13.105v31.79c.008 2.754 2.238 4.984 4.991 4.992H53.01c2.753-.008 4.983-2.238 4.991-4.991V13.105c-.008-2.754-2.238-4.984-4.991-4.992zm3.495 36.783c-.006 1.927-1.567 3.489-3.495 3.495H4.99c-1.928-.006-3.489-1.568-3.495-3.495V13.105c.006-1.928 1.567-3.49 3.495-3.496H53.01c1.928.006 3.489 1.568 3.495 3.495v31.792z"/>
    <path fill="#BABABC" d="M50.656 20.115H30.578c-.378.023-.68.324-.703.702-.025.413.29.769.703.794h20.078c.377-.023.678-.324.702-.702.025-.413-.29-.769-.702-.794zM50.656 28.253H30.578c-.378.023-.68.325-.703.702-.025.413.29.769.703.794h20.078c.377-.023.678-.324.702-.702.025-.413-.29-.768-.702-.794zM50.656 24.184H30.578c-.378.023-.68.324-.703.702-.025.413.29.769.703.794h20.078c.377-.023.678-.324.702-.702.025-.413-.29-.769-.702-.794zM50.656 32.323H30.578c-.377.023-.678.324-.702.702-.025.413.29.769.702.794h20.078c.378-.023.679-.324.702-.702.026-.413-.288-.769-.702-.794z"/>
</svg>
