<svg width="89" height="89" viewBox="0 0 89 89" fill="none" xmlns="http://www.w3.org/2000/svg">
<path d="M60.6358 72.5562C76.2158 63.6444 81.6214 43.7899 72.7096 28.21C63.7978 12.63 43.9433 7.22441 28.3633 16.1362C12.7834 25.048 7.37776 44.9025 16.2896 60.4825C25.2014 76.0624 45.0559 81.468 60.6358 72.5562Z" fill="#6D75B6"/>
<path d="M45.0005 53.4477V62.3477L56.0005 46.8477L45.0005 53.4477Z" fill="white"/>
<path d="M55.6005 43.9477L45.0005 26.3477V39.1477L55.6005 43.9477Z" fill="white"/>
<path d="M45.0005 40.1475V51.1475L55.5005 44.9475L45.0005 40.1475Z" fill="white"/>
<path d="M33.4004 43.9477L44.0004 26.3477V39.1477L33.4004 43.9477Z" fill="white"/>
<path d="M44.0005 40.1475V51.1475L33.5005 44.9475L44.0005 40.1475Z" fill="white"/>
<path d="M44.0005 53.4477V62.3477L33.0005 46.8477L44.0005 53.4477Z" fill="white"/>
</svg>
