<svg width="97" height="26" viewBox="0 0 97 26" fill="none" xmlns="http://www.w3.org/2000/svg">
<g clip-path="url(#clip0)">
<path d="M96.9807 4.50577C96.9699 4.46902 96.959 4.43226 96.9446 4.39551C88.3807 4.39918 79.8205 4.39551 71.2602 4.39918C71.2386 4.42491 71.2241 4.45064 71.2205 4.48372C71.2205 11.2355 71.2205 17.9836 71.2168 24.7354C71.271 25.0956 71.4662 25.4227 71.7266 25.669C71.7374 25.6727 71.7627 25.6762 71.7736 25.68C71.9073 25.8232 72.0989 25.8932 72.2797 25.9593C72.4134 25.952 72.5436 26.0108 72.6773 25.996H83.3053C83.4065 25.9924 83.5113 26.0108 83.6089 25.9704C83.6126 25.9557 83.6161 25.9299 83.6197 25.9152C83.6234 25.8969 83.627 25.8564 83.6306 25.8344C83.8584 24.5407 84.0788 23.2432 84.3211 21.9495L84.3428 21.7841C83.3596 21.7804 82.3727 21.7841 81.3894 21.7804C81.1508 21.773 80.905 21.7804 80.6664 21.7509C80.258 21.7325 79.8459 21.7472 79.4374 21.7068C78.9313 21.7068 78.4288 21.659 77.9227 21.659C77.5251 21.6186 77.1238 21.6333 76.7225 21.615C76.4623 21.582 76.1947 21.5966 75.9309 21.5855C75.5007 21.5378 75.0633 21.5709 74.6332 21.5231C74.1777 21.5268 73.7222 21.4863 73.2667 21.4753C73.2703 21.4716 73.2739 21.4569 73.2739 21.4532C73.4258 21.4569 73.574 21.4459 73.7258 21.4422C74.062 21.3981 74.4018 21.4275 74.738 21.3797C75.0886 21.3797 75.4357 21.332 75.7863 21.332C76.0972 21.2878 76.4117 21.3136 76.7225 21.2694C77.0877 21.2694 77.4455 21.2217 77.8107 21.218C78.1108 21.1775 78.4144 21.1996 78.7145 21.1592C79.0651 21.1628 79.4121 21.1077 79.7628 21.1114C80.1062 21.0709 80.4568 21.0819 80.8002 21.0452C80.7678 20.9093 80.7424 20.7732 80.7135 20.6372C80.6882 20.5527 80.587 20.5711 80.5219 20.56C79.7375 20.446 78.9567 20.3322 78.1758 20.2219C78.2264 20.1814 78.2951 20.1998 78.353 20.1925C78.9603 20.1446 79.564 20.0895 80.1713 20.0454C80.3087 20.0381 80.4424 20.0124 80.5798 20.0087C80.5183 19.8176 80.4822 19.6081 80.399 19.4317C79.1013 19.2295 77.8035 19.0494 76.5093 18.8325C76.8455 18.7774 77.1853 18.7517 77.5215 18.715L77.5504 18.7039C78.6241 18.5899 79.7013 18.4612 80.775 18.3547C82.1378 18.3474 83.4971 18.351 84.8599 18.3547C84.9032 18.3474 84.9792 18.3694 84.9864 18.3069C85.0985 17.7115 85.2069 17.1161 85.3189 16.5206C85.4744 15.6937 85.7202 14.8778 86.0998 14.1243C86.6962 12.9114 87.6397 11.8823 88.7892 11.1987C89.8629 10.5592 91.1065 10.2504 92.3428 10.1916C92.7441 10.1549 93.1489 10.1659 93.5466 10.2173C93.8069 10.2798 94.0744 10.3533 94.2804 10.5334C94.4503 10.6731 94.5515 10.8789 94.6275 11.0847C94.7938 11.5736 94.8877 12.0808 94.9673 12.5917C94.9709 12.7975 95.007 13.029 94.8986 13.2165C94.7974 13.4003 94.595 13.4885 94.4034 13.5436C93.7056 13.7274 92.9755 13.5546 92.2777 13.7274C91.703 13.8523 91.168 14.1758 90.8028 14.6426C90.3727 15.1865 90.1449 15.8627 90.0184 16.5391C89.9208 17.1419 89.7979 17.7446 89.7003 18.3511C90.3871 18.3548 91.0776 18.3474 91.768 18.3548C92.0428 18.3548 92.3247 18.5091 92.4368 18.7737C92.5814 19.1119 92.5489 19.4942 92.5019 19.8507C92.444 20.2513 92.35 20.6482 92.1729 21.0158C92.0246 21.3282 91.7789 21.6149 91.4427 21.7251C91.2692 21.795 91.0812 21.7803 90.8968 21.7803C90.2894 21.7803 89.6821 21.7876 89.0749 21.7803C88.9773 22.2324 88.9122 22.6955 88.8254 23.1549C88.6665 24.048 88.511 24.9448 88.3519 25.8416C88.3483 25.8711 88.3446 25.9335 88.3446 25.9666C88.6302 25.9813 88.9158 25.9666 89.2014 25.9739C91.3198 25.9739 93.4417 25.9702 95.5637 25.9739C95.7915 25.9813 96.0228 25.9262 96.2217 25.8122C96.341 25.7681 96.4132 25.6615 96.5181 25.6027C96.6193 25.5439 96.6482 25.4227 96.735 25.3455C96.829 25.1764 96.9266 25 96.9338 24.8015C96.9447 24.8015 96.9736 24.7978 96.988 24.7941C96.977 18.0314 96.988 11.2686 96.9807 4.50577Z" fill="url(#paint0_linear)" stroke="#FCD109" stroke-width="0.094"/>
<path d="M74.5901 0.0586008C74.8974 -0.0406361 75.2191 0.0255218 75.5337 0.00346919C81.437 0.00714464 87.3402 0.00346919 93.2434 0.00346919C93.594 -0.0112326 93.9013 0.190917 94.2266 0.293829C94.4869 0.400417 94.758 0.484952 95.0183 0.598891C95.0725 0.620943 95.1123 0.668724 95.152 0.709154C95.1484 1.19431 95.152 1.68315 95.152 2.17198C95.1557 2.30062 95.1339 2.43294 95.1773 2.5579C95.2533 2.56893 95.293 2.62773 95.3437 2.67552C95.5823 2.78578 95.7846 2.96587 96.0015 3.11289C96.3269 3.34812 96.674 3.55395 96.992 3.79652C97.0064 3.89209 96.9956 3.99132 96.9667 4.07953C96.9343 4.18245 96.9559 4.29271 96.945 4.39562C88.3812 4.3993 79.8209 4.39562 71.2607 4.3993C71.2426 4.27801 71.2751 4.15672 71.2245 4.04278C71.2173 3.94722 71.1848 3.82225 71.2751 3.75609C71.6366 3.49881 72.0198 3.26726 72.374 2.99528C72.5946 2.85194 72.8078 2.70492 73.0211 2.5579C73.0645 2.48439 73.05 2.39251 73.05 2.31165C73.05 1.77871 73.05 1.24577 73.0536 0.712829C73.1765 0.55111 73.3899 0.532733 73.5597 0.451873C73.9033 0.319557 74.2503 0.190917 74.5901 0.0586008ZM74.6118 0.121083C74.1491 0.30118 73.6828 0.473926 73.2201 0.654022C73.1586 0.665049 73.126 0.72018 73.0935 0.767961C73.0971 0.797365 73.1008 0.848821 73.1008 0.878224C73.0971 1.31928 73.1008 1.76033 73.0971 2.20138C73.1008 2.31165 73.0862 2.42191 73.126 2.52115C73.079 2.56893 73.0285 2.61671 72.9705 2.65346C72.4464 2.99895 71.9403 3.37385 71.4161 3.71567C71.3257 3.7708 71.2245 3.84431 71.2534 3.96559C71.2354 4.03175 71.2679 4.08688 71.3366 4.06851C72.4717 4.06116 73.6032 4.07586 74.7383 4.05748C76.4265 4.05748 78.1111 4.06116 79.7993 4.05748L79.8246 4.04645C79.9005 4.06483 79.9764 4.05748 80.0559 4.05748C83.1142 4.05748 86.1724 4.06116 89.2343 4.05748C90.1959 4.06116 91.1611 4.05748 92.1262 4.05748C93.7168 4.05748 95.3111 4.07218 96.9016 4.06483C96.9486 4.05381 96.9631 4.02073 96.945 3.96192C96.9413 3.90311 96.9631 3.82225 96.9016 3.7855C96.6486 3.66421 96.4317 3.47676 96.1895 3.32974C96.1028 3.25623 95.9907 3.21581 95.9256 3.11657C95.6762 2.97323 95.4448 2.7968 95.199 2.63876C95.1519 2.60936 95.1158 2.56158 95.0761 2.52115C95.0978 2.44396 95.105 2.35943 95.105 2.27857C95.1014 1.81179 95.105 1.34501 95.1014 0.878224C95.1122 0.804715 95.1086 0.72018 95.0435 0.6724C94.6097 0.514356 94.1796 0.345285 93.7493 0.183566C93.6156 0.117408 93.4674 0.0806535 93.3228 0.0586008H74.8466C74.7673 0.0622763 74.6913 0.102706 74.6118 0.121083Z" fill="#F8F3B5" stroke="#F8F3B5" stroke-width="0.094"/>
<path d="M73.1013 0.87793C73.4195 1.01392 73.7592 1.09111 74.081 1.22342C74.2545 1.29325 74.3087 1.48438 74.3847 1.63875C74.3087 1.71593 74.2183 1.77841 74.1279 1.83722C73.7953 2.0651 73.4555 2.28562 73.1266 2.52085C73.0868 2.42162 73.1013 2.31135 73.0977 2.20109C73.1013 1.76004 73.0977 1.31898 73.1013 0.87793ZM94.1223 1.22342C94.4441 1.09478 94.7803 1.00657 95.1021 0.87793C95.1057 1.34471 95.1021 1.81149 95.1057 2.27827C95.1057 2.35913 95.0984 2.44367 95.0768 2.52085C94.7948 2.32238 94.5092 2.13493 94.2272 1.94013C94.0899 1.83722 93.938 1.76004 93.8151 1.63507C93.8911 1.4807 93.9489 1.29325 94.1223 1.22342Z" fill="#F7B402" stroke="#F7B402" stroke-width="0.094"/>
<path d="M78.6167 1.37394C79.0144 1.27838 79.459 1.63857 79.4265 2.06124C79.4301 2.47657 78.9999 2.81471 78.6059 2.71915C78.4468 2.66402 78.2949 2.57948 78.1974 2.43614C78.0709 2.24134 78.0419 1.98039 78.1432 1.76721C78.2155 1.56139 78.4107 1.42172 78.6167 1.37394ZM88.9302 1.60549C89.0965 1.41804 89.3604 1.31146 89.6062 1.37761C89.7906 1.43274 89.9713 1.55403 90.0509 1.73781C90.2099 2.05389 90.087 2.48025 89.7761 2.64564C89.5013 2.80001 89.1544 2.7265 88.9447 2.5023C88.7314 2.25604 88.7169 1.85174 88.9302 1.60549Z" fill="#BDA727" stroke="#BDA727" stroke-width="0.094"/>
<path d="M74.127 1.8374C74.2174 1.7786 74.3077 1.71611 74.3837 1.63893L74.409 1.66466C74.4343 1.85578 74.4162 2.05058 74.4234 2.2417C74.4126 2.81507 74.4343 3.39211 74.409 3.96548C73.357 3.96548 72.3051 3.95813 71.2531 3.96548C71.2242 3.84419 71.3254 3.77068 71.4158 3.71555C71.9399 3.37374 72.446 2.99884 72.9702 2.65335C73.0281 2.6166 73.0786 2.56882 73.1256 2.52103C73.4546 2.28581 73.7944 2.06528 74.127 1.8374ZM93.7779 1.76389C93.7779 1.71611 93.7888 1.67568 93.8141 1.63525C93.937 1.76022 94.0889 1.8374 94.2262 1.94032C94.5081 2.13511 94.7937 2.32256 95.0757 2.52103C95.1154 2.56146 95.1516 2.60925 95.1986 2.63865C95.4444 2.79669 95.6757 2.97311 95.9252 3.11646C95.9903 3.21569 96.1023 3.25612 96.1891 3.32963C96.4313 3.47665 96.6482 3.6641 96.9012 3.78539C96.9627 3.82214 96.941 3.903 96.9446 3.96181C95.8926 3.96548 94.8442 3.95813 93.7924 3.96548C93.7743 3.81846 93.7851 3.67145 93.7815 3.52811C93.7816 2.94003 93.7744 2.35196 93.7779 1.76389Z" fill="#F7E62D" stroke="#F7E62D" stroke-width="0.094"/>
<path d="M96.9447 3.96191C95.8927 3.96559 94.8443 3.95824 93.7924 3.96559C93.7744 3.81857 93.7852 3.67155 93.7816 3.52821C93.7816 2.94014 93.7744 2.35207 93.7779 1.764C93.7779 1.71622 93.7888 1.67579 93.8141 1.63536C93.89 1.48099 93.9478 1.29354 94.1213 1.22371C94.4431 1.09507 94.7793 1.00686 95.1011 0.878217C95.1119 0.804709 95.1083 0.720173 95.0431 0.672393C94.6093 0.514349 94.1792 0.345278 93.749 0.183559C93.6152 0.117401 93.467 0.0806464 93.3224 0.0585938H74.8463C74.7668 0.0622692 74.6909 0.102699 74.6114 0.121076C74.1486 0.301173 73.6823 0.473919 73.2196 0.654015C73.1581 0.665042 73.1255 0.720173 73.0931 0.767954C73.0967 0.797358 73.1003 0.848814 73.1003 0.878217C73.4184 1.01421 73.7581 1.09139 74.08 1.22371C74.2535 1.29354 74.3077 1.48467 74.3836 1.63903L74.4088 1.66476C74.4341 1.85588 74.4161 2.05068 74.4233 2.24181C74.4125 2.81518 74.4341 3.39222 74.4088 3.96559C73.3569 3.96559 72.305 3.95824 71.253 3.96559C71.2349 4.03175 71.2674 4.08688 71.3361 4.0685C72.4712 4.06115 73.6027 4.07585 74.7379 4.05747C76.4261 4.05747 78.1106 4.06115 79.7988 4.05747L79.8241 4.04645C79.9 4.06483 79.9759 4.05747 80.0554 4.05747C83.1137 4.05747 86.1719 4.06115 89.2338 4.05747C90.1954 4.06115 91.1606 4.05747 92.1258 4.05747C93.7163 4.05747 95.3106 4.07218 96.9012 4.06483C96.9483 4.0538 96.9628 4.02072 96.9447 3.96191ZM78.1432 1.76767C78.2155 1.56185 78.4107 1.42218 78.6168 1.3744C79.0145 1.27884 79.4591 1.63903 79.4266 2.06171C79.4302 2.47703 78.9999 2.81518 78.606 2.71961C78.4469 2.66448 78.295 2.57995 78.1975 2.4366C78.0709 2.24181 78.042 1.98085 78.1432 1.76767ZM88.9303 1.60595C89.0966 1.41851 89.3605 1.31192 89.6063 1.37808C89.7907 1.43321 89.9714 1.5545 90.0509 1.73827C90.21 2.05436 90.0871 2.48071 89.7762 2.6461C89.5014 2.80047 89.1544 2.72696 88.9448 2.50276C88.7315 2.25651 88.7169 1.85221 88.9303 1.60595Z" fill="url(#paint1_radial)" stroke="#FCD109" stroke-width="0.094"/>
<path d="M89.8526 5.57689C89.9031 5.58791 89.5891 5.27014 89.6506 5.25543C89.7084 5.26278 89.9277 5.08971 90.1928 5.23092C90.4579 5.37213 90.3922 5.70259 90.3621 5.82513C90.3263 5.97097 90.235 6.06403 90.1627 6.13754C90.1229 6.17062 90.0338 6.22208 89.9795 6.2184C90.0121 6.0383 89.9072 6.0089 89.9 5.82513L89.8526 5.57689Z" fill="url(#paint2_linear)" stroke="#FCD109" stroke-width="0.094"/>
<path d="M78.2965 5.77583C78.2893 5.95961 78.1844 5.98901 78.217 6.16911C78.1628 6.17278 78.0735 6.12133 78.0338 6.08825C77.9615 6.01474 77.8703 5.92168 77.8344 5.77583C77.8044 5.65333 77.7386 5.32287 78.0037 5.18162C78.2688 5.04038 78.4881 5.21345 78.5459 5.20614C78.6074 5.22084 78.2934 5.53862 78.3439 5.52759L78.2965 5.77583Z" fill="url(#paint3_linear)" stroke="#FCD109" stroke-width="0.094"/>
<path d="M89.3792 7.9313C89.4335 7.8833 89.4697 7.8833 89.542 7.8833C89.1082 8.83891 88.6021 9.79453 87.8412 10.5385C87.7598 10.6124 87.6738 10.6809 87.5838 10.7436C87.4967 10.8084 87.4113 10.8692 87.3264 10.9311C87.2433 10.9898 87.1606 11.0488 87.0801 11.1104C86.8741 11.2243 86.6933 11.3824 86.4656 11.4522C86.0499 11.6543 85.6017 11.7903 85.1498 11.8859C84.9727 11.9153 84.7919 11.9594 84.6112 11.9631C84.3871 12.0293 84.1485 11.9815 83.9207 11.9962C83.7942 12.0182 83.6821 11.9447 83.5592 11.9594C83.4526 11.9441 83.3462 11.9257 83.2405 11.9042C83.1332 11.8819 83.0266 11.8562 82.9209 11.8271C81.2637 11.3015 79.637 10.0151 79.163 8.27529C79.1417 8.15812 79.1309 8.03922 79.1309 7.92006C79.1814 8.02297 79.2339 8.12515 79.2881 8.22637C79.9623 9.72102 81.2998 10.8972 82.88 11.2518C83.0083 11.3113 83.1471 11.2904 83.27 11.3419C83.3821 11.3419 83.4906 11.3382 83.599 11.375C83.9713 11.3823 84.3437 11.3786 84.716 11.3786C84.7666 11.3823 84.8136 11.3566 84.8642 11.3456C85.4848 11.3242 86.0928 11.1521 86.659 10.8911C86.7723 10.8389 86.8838 10.7832 86.9935 10.7244C87.0894 10.673 87.1831 10.6174 87.2743 10.5576C87.3638 10.4989 87.4508 10.4364 87.5352 10.3703C88.2044 9.83128 88.7828 9.13295 89.1756 8.3299C89.2504 8.18539 89.3188 8.05156 89.3792 7.9313Z" fill="#BDA727" stroke="#BDA727" stroke-width="0.094"/>
<path d="M88.7893 11.1986C89.8629 10.5591 91.1066 10.2504 92.3429 10.1916C92.7441 10.1548 93.149 10.1658 93.5467 10.2173C93.8069 10.2798 94.0745 10.3533 94.2805 10.5334C94.1757 10.5407 94.0745 10.493 93.9696 10.4782C93.6732 10.4194 93.3659 10.4415 93.0659 10.4341C92.1946 10.4341 91.3162 10.504 90.4739 10.7466C90.0329 10.8825 89.5919 11.0406 89.1906 11.2758C88.4965 11.6654 87.8712 12.18 87.3651 12.7975C86.4613 13.8523 85.9299 15.1902 85.6733 16.5538C85.5503 17.2851 85.4093 18.0128 85.2973 18.7479C85.1165 18.7663 84.9322 18.7553 84.7514 18.7553C83.9561 18.7516 83.1608 18.7479 82.3656 18.7407C82.1956 18.7479 82.0293 18.7076 81.8595 18.7186C80.4135 18.7259 78.9675 18.7149 77.5215 18.7149L77.5504 18.7038C78.6241 18.5898 79.7013 18.4612 80.775 18.3547C82.1377 18.3473 83.497 18.3509 84.8599 18.3547C84.9032 18.3473 84.9792 18.3693 84.9864 18.3068C85.0985 17.7114 85.2069 17.1161 85.3189 16.5206C85.4744 15.6937 85.7202 14.8777 86.0998 14.1243C86.6963 12.9114 87.6398 11.8822 88.7893 11.1986Z" fill="#0D69B3" stroke="#0D69B3" stroke-width="0.094"/>
<path d="M90.4746 10.7465C91.3169 10.5039 92.1953 10.4341 93.0665 10.4341C93.3666 10.4414 93.6738 10.4194 93.9703 10.4782C94.075 10.4929 94.1762 10.5407 94.2812 10.5333C94.4511 10.673 94.5523 10.8788 94.6282 11.0846C94.7946 11.5735 94.8885 12.0807 94.968 12.5916C94.9716 12.7974 95.0078 13.0289 94.8993 13.2164C94.7981 13.4002 94.5957 13.4884 94.4041 13.5435C93.7064 13.7273 92.9762 13.5545 92.2785 13.7273C91.7038 13.8522 91.1687 14.1756 90.8036 14.6425C90.3734 15.1864 90.1456 15.8626 90.0191 16.539C89.9215 17.1418 89.7986 17.7445 89.701 18.3509C89.6576 18.487 89.6323 18.634 89.607 18.7774C90.2902 18.7884 90.9735 18.7774 91.6567 18.7847C91.9169 18.7774 92.1772 18.792 92.4375 18.7736C92.5821 19.1118 92.5496 19.4941 92.5026 19.8506C92.4447 20.2512 92.3508 20.6481 92.1736 21.0156C92.0253 21.3281 91.7796 21.6148 91.4434 21.725C91.2699 21.7949 91.0819 21.7802 90.8975 21.7802C90.2902 21.7802 89.6828 21.7875 89.0756 21.7802C88.978 22.2323 88.9129 22.6954 88.8262 23.1548C88.6672 24.0479 88.5117 24.9447 88.3526 25.8415C88.349 25.871 88.3454 25.9334 88.3454 25.9665V25.9702C86.7656 25.9702 85.1895 25.9739 83.6098 25.9702C83.6134 25.9555 83.617 25.9297 83.6206 25.915C83.6243 25.8967 83.6279 25.8562 83.6315 25.8342C83.6352 25.8637 83.6387 25.9188 83.6424 25.9445C83.74 25.9555 83.9171 26.0069 83.9424 25.8637C84.1882 24.5111 84.416 23.1511 84.669 21.7985C84.5715 21.7765 84.4702 21.7765 84.369 21.7949C84.3546 21.8463 84.3401 21.8977 84.322 21.9492L84.3437 21.7838C83.3605 21.7801 82.3735 21.7838 81.3903 21.7801C81.1517 21.7728 80.9059 21.7801 80.6673 21.7507C80.2588 21.7323 79.8467 21.747 79.4383 21.7065C78.9322 21.7065 78.4297 21.6588 77.9236 21.6588C77.5259 21.6184 77.1247 21.633 76.7234 21.6147C76.4632 21.5817 76.1956 21.5963 75.9318 21.5853C75.5016 21.5375 75.0642 21.5707 74.634 21.5228C74.1785 21.5265 73.7231 21.486 73.2676 21.475C73.2712 21.4714 73.2748 21.4567 73.2748 21.453C73.4266 21.4567 73.5749 21.4456 73.7267 21.4419C74.0629 21.3978 74.4027 21.4272 74.7389 21.3795C75.0895 21.3795 75.4366 21.3317 75.7872 21.3317C76.0981 21.2876 76.4126 21.3133 76.7234 21.2692C77.0886 21.2692 77.4464 21.2214 77.8116 21.2178C78.1116 21.1773 78.4153 21.1994 78.7153 21.1589C79.066 21.1626 79.413 21.1075 79.7637 21.1111C80.1071 21.0706 80.4577 21.0817 80.8011 21.0449C80.7686 20.909 80.7433 20.773 80.7144 20.637C80.6891 20.5524 80.5879 20.5708 80.5228 20.5598C79.7384 20.4458 78.9575 20.3319 78.1767 20.2216C78.2273 20.1811 78.296 20.1995 78.3538 20.1922C78.9611 20.1443 79.5648 20.0892 80.1722 20.0452C80.3095 20.0378 80.4433 20.0121 80.5807 20.0085C80.5192 19.8173 80.483 19.6078 80.3999 19.4314C79.1022 19.2292 77.8044 19.0491 76.5102 18.8323C76.8464 18.7772 77.1862 18.7514 77.5224 18.7147C78.9684 18.7147 80.4144 18.7257 81.8604 18.7183C82.0302 18.7074 82.1965 18.7478 82.3664 18.7405C83.1617 18.7478 83.957 18.7515 84.7523 18.7551C84.9331 18.7551 85.1174 18.7662 85.2982 18.7478C85.4102 18.0127 85.5512 17.2849 85.6741 16.5536C85.9308 15.1899 86.4622 13.8521 87.3659 12.7973C87.872 12.1798 88.4974 11.6652 89.1915 11.2756C89.5925 11.0405 90.0336 10.8825 90.4746 10.7465Z" fill="#107BD4" stroke="#107BD4" stroke-width="0.094"/>
<path d="M89.7004 18.3511C90.3873 18.3548 91.0778 18.3474 91.7682 18.3548C92.0429 18.3548 92.3249 18.5092 92.4369 18.7737C92.1767 18.7921 91.9164 18.7775 91.6561 18.7848C90.9729 18.7775 90.2896 18.7886 89.6064 18.7775C89.6317 18.6341 89.657 18.4871 89.7004 18.3511ZM84.3683 21.795C84.4695 21.7766 84.5708 21.7766 84.6684 21.7987C84.4153 23.1513 84.1876 24.5112 83.9417 25.8638C83.9164 26.0071 83.7393 25.9557 83.6417 25.9446C83.638 25.9189 83.6345 25.8638 83.6309 25.8343C83.8586 24.5406 84.079 23.2432 84.3213 21.9494C84.3394 21.8979 84.3539 21.8465 84.3683 21.795Z" fill="#0D69B3" stroke="#0D69B3" stroke-width="0.094"/>
<path d="M90.0165 5.67991C89.9875 5.62478 89.984 5.55862 89.984 5.49614L89.955 5.49982C89.9117 5.3381 89.7779 5.18373 89.6044 5.17638C89.4742 5.16535 89.3115 5.16903 89.2357 5.29399C89.0911 5.49247 89.1597 5.74607 89.1525 5.97027C89.1525 5.98498 89.1562 6.0107 89.1562 6.02541C89.1562 6.1761 89.1381 6.32312 89.1128 6.47013C89.0911 6.51424 89.0803 6.56202 89.0803 6.61348C89.0189 6.95897 88.8959 7.30078 88.7297 7.6132C88.6971 7.6573 88.6718 7.70508 88.661 7.75654C88.5525 7.94766 88.4224 8.12408 88.2887 8.3005C88.2669 8.31888 88.2489 8.34093 88.2308 8.36299C88.1368 8.4806 88.0356 8.57984 87.9307 8.68275C87.9054 8.69745 87.8874 8.71583 87.8656 8.73053C87.7428 8.85182 87.6054 8.96576 87.4571 9.05765C87.4391 9.06867 87.421 9.08337 87.3993 9.09807C86.4738 9.71922 85.3496 9.97651 84.2542 9.98753C83.3252 10.0169 82.3889 9.81479 81.5502 9.40681C81.5358 9.39946 81.4997 9.38476 81.4851 9.37741C81.3442 9.30022 81.1996 9.23407 81.0694 9.1385C81.0405 9.1238 81.0116 9.10543 80.979 9.09072C80.8453 9.00986 80.7188 8.92165 80.5995 8.81874C80.5597 8.78199 80.5163 8.75258 80.4729 8.7195C80.3428 8.61292 80.2091 8.49898 80.0971 8.37034C80.0681 8.33726 80.0391 8.30785 80.0103 8.27845C79.6163 7.86313 79.3091 7.35592 79.1464 6.8046C78.9909 6.36722 79.0126 5.88941 78.9946 5.42998C78.8644 5.22783 78.5897 5.1139 78.3728 5.23886C78.2824 5.30502 78.2716 5.42631 78.2029 5.51084C78.0908 6.72374 78.6005 7.93296 79.4139 8.80771C79.4139 8.83712 79.4284 8.8555 79.4537 8.86652C79.5983 9.00251 79.7393 9.14218 79.8838 9.2745C79.9092 9.30022 79.9381 9.32595 79.9706 9.348C80.1152 9.46929 80.2707 9.57956 80.4225 9.6935C80.4514 9.71555 80.4803 9.73393 80.5129 9.7523C80.7117 9.86992 80.8996 10.0096 81.1129 10.0904C81.1274 10.1015 81.1527 10.1198 81.1672 10.1272C81.854 10.4617 82.5951 10.6895 83.3542 10.763C83.4374 10.763 83.5205 10.7704 83.6037 10.7888C83.9651 10.8108 84.3266 10.7998 84.6881 10.7925C85.8051 10.6932 86.9583 10.4176 87.891 9.74863L87.9019 9.76333C87.9308 9.7376 87.9561 9.71555 87.985 9.6935C88.1333 9.58323 88.2779 9.46562 88.4225 9.34433C88.4549 9.3186 88.4911 9.2892 88.5237 9.25612C88.6827 9.0797 88.8671 8.91798 89.0009 8.71583L89.0226 8.72686C89.0334 8.70848 89.0515 8.67172 89.0624 8.65335C89.1852 8.48428 89.2974 8.30785 89.4058 8.13143C89.413 8.12041 89.4311 8.10203 89.4383 8.091L89.4239 8.0763C89.4347 8.0616 89.46 8.0322 89.4709 8.01749C89.6697 7.60585 89.8468 7.17582 89.9083 6.72006C89.9336 6.70904 89.9481 6.68698 89.9481 6.66126C89.9518 6.51424 90.0023 6.37457 89.9879 6.22755C90.02 6.04746 90.0237 5.86369 90.0165 5.67991Z" fill="white" stroke="white" stroke-width="0.094"/>
<path d="M90.0961 5.48219C89.5291 5.5167 88.9971 5.31944 88.4815 5.13916M77.9258 5.5557C78.2188 5.64916 78.892 5.41401 79.0826 5.62921L77.9258 5.5557ZM78.0945 6.46228C78.3753 6.36293 78.9774 6.12771 79.2272 6.26627L78.0945 6.46228ZM78.3837 7.3689C78.5194 7.4136 78.787 7.17113 78.9199 7.10008C79.1177 6.99434 79.3205 6.91329 79.5405 6.87886L78.3837 7.3689ZM78.8175 8.32452C78.9575 8.12222 79.1251 7.95422 79.3273 7.81051C79.5278 7.66812 80.0763 7.28767 80.3117 7.4179L78.8175 8.32452ZM79.2272 9.01061C79.3861 8.88215 79.4508 8.65494 79.6177 8.51998C79.8195 8.35671 80.1288 8.32742 80.3358 8.22649L79.2272 9.01061ZM79.908 9.519C79.9555 9.16366 80.3104 8.73484 80.649 8.76553L79.908 9.519ZM80.4321 10.0152C80.6111 9.99699 80.7625 9.58975 80.8835 9.45174C81.0648 9.24499 81.2526 9.18141 81.4925 9.1086L80.4321 10.0152ZM81.4684 10.4563C81.4568 10.1991 81.7182 9.46188 82.0227 9.50066L81.4684 10.4563ZM82.2396 10.7013C82.2269 10.3974 82.3815 9.48338 82.7457 9.45166L82.2396 10.7013ZM83.0349 11.1914C82.9658 10.7664 82.9703 10.1517 83.3 9.84369L83.0349 11.1914ZM84.023 11.2894C83.9863 10.9351 83.6401 10.2191 84.023 9.94171V11.2894ZM85.0834 11.0443C84.9181 10.8495 84.822 10.081 84.8906 9.8682L85.0834 11.0443ZM86.0956 10.8728C85.9681 10.6375 85.8101 10.4165 85.7618 10.1433C85.733 9.98001 85.7836 9.74743 85.7581 9.62316L86.0956 10.8728ZM86.9391 10.5053C86.6626 10.3214 86.5858 9.64554 86.674 9.35364L86.9391 10.5053ZM87.7585 10.1377C87.5618 9.70876 87.3521 9.37617 87.3487 8.88807L87.7585 10.1377ZM88.5537 9.35364C88.2481 9.14462 87.8582 8.76465 87.9031 8.34903L88.5537 9.35364ZM89.3973 8.69206C88.9329 8.58746 88.3757 8.16504 88.0959 7.78544L89.3973 8.69206ZM89.7828 7.88346C89.4479 7.81043 88.3411 7.3714 88.4092 6.92785L89.7828 7.88346ZM90.1443 7.02587C89.6776 6.85191 88.9987 6.69552 88.626 6.36429L90.1443 7.02587ZM90.3853 6.24175C90.0913 6.26734 89.6702 6.12263 89.3714 6.07022C89.0396 6.01204 88.732 5.89836 88.4092 5.82518L90.3853 6.24175Z" stroke="#D1D1D1" stroke-width="2"/>
<path d="M17.5451 7.24942C18.069 7.16904 18.6719 7.1188 19.1166 7.4504C19.3934 7.66137 19.4922 8.04321 19.4724 8.38495C19.4922 8.94766 19.2352 9.55062 18.7411 9.84208C18.3062 10.0833 17.7824 10.1033 17.298 10.0531C16.9719 10.0129 16.6458 9.83208 16.4777 9.53059C16.1021 8.65631 16.5666 7.42026 17.5451 7.24942ZM1.86953 7.88252C1.89914 7.58102 2.16603 7.3097 2.4724 7.31981C4.75562 7.31981 7.02886 7.32981 9.30213 7.31981C9.54922 7.2997 9.81611 7.41019 9.93464 7.63127C10.1026 7.93276 9.95442 8.26436 9.93464 8.57593C9.86552 8.9979 9.88523 9.56072 9.401 9.72145C7.7405 9.77169 6.08 9.72145 4.4195 9.74156C4.26138 10.8067 4.11313 11.8618 3.95494 12.917C3.95494 12.9572 3.96488 13.0477 3.96488 13.0878C5.18056 13.0778 6.39624 13.0878 7.61192 13.0778C7.948 13.0577 8.30375 13.3492 8.27411 13.7109C8.2445 14.0827 8.1654 14.4445 8.11602 14.8163C8.0764 15.0675 7.87877 15.2986 7.62178 15.3489C6.26769 15.379 4.89382 15.3187 3.53987 15.379C3.32236 16.8964 3.06537 18.4138 2.83802 19.9312C2.80845 20.2327 2.57116 20.494 2.27466 20.5039C1.71135 20.5141 1.14791 20.5141 0.584594 20.5039C0.218903 20.5141 -0.0776351 20.1019 0.0211621 19.7503C0.624248 15.7911 1.24689 11.8419 1.86953 7.88252ZM11.9113 7.3398C12.4254 7.29967 12.9491 7.32981 13.4631 7.31981C13.7795 7.2997 14.0957 7.55088 14.1253 7.88252C14.1253 8.14373 14.0561 8.40506 14.0265 8.66631C13.6114 11.3595 13.1864 14.0527 12.7712 16.7458C12.7119 17.1779 12.6032 17.6401 12.7317 18.0823C12.88 18.5244 13.5421 18.3335 13.7003 18.7957C13.7991 19.1676 13.6903 19.5594 13.6607 19.9413C13.6311 20.4438 13.0677 20.5543 12.6823 20.665C11.8422 20.8257 10.8241 20.7051 10.2212 20.0016C9.78632 19.4892 9.75664 18.7656 9.84568 18.1225C10.3695 14.7059 10.8933 11.2892 11.4271 7.86241C11.4568 7.61116 11.6544 7.38005 11.9113 7.3398ZM31.5306 7.88252C31.5601 7.58102 31.8271 7.31981 32.1236 7.31981H33.6259C34.0015 7.3097 34.3079 7.72175 34.2189 8.08345C33.873 10.3144 33.5172 12.5453 33.1713 14.7761C33.6951 14.6957 34.2882 14.5952 34.6539 14.1631C35.2666 13.4596 35.7708 12.6458 36.1463 11.7916C36.2747 11.46 36.344 10.9776 36.769 10.9173C37.3324 10.8972 37.9056 10.9073 38.4689 10.9173C38.8544 10.9073 39.141 11.3494 39.0126 11.7112C38.8643 12.2439 38.6172 12.7362 38.3603 13.2085C37.787 14.1532 37.1545 15.0877 36.3242 15.8313C36.6899 16.9467 37.1545 18.032 37.5597 19.1274C37.6782 19.4892 37.965 19.9112 37.6981 20.263C37.3916 20.685 36.8184 20.4739 36.3934 20.5241C35.9486 20.4739 35.3062 20.705 35.0591 20.1926C34.5945 19.0972 34.2091 17.9718 33.7346 16.8764C33.4579 16.8864 33.1713 16.8965 32.8945 16.8664C32.8748 16.9066 32.8352 16.9869 32.8154 17.0272C32.6671 18.032 32.5091 19.037 32.3509 20.0418C32.2915 20.283 32.1037 20.4941 31.8468 20.5142C31.323 20.5343 30.7893 20.5241 30.2556 20.5241C30.0282 20.5241 29.8207 20.3734 29.7218 20.1725C29.623 19.9714 29.6822 19.7404 29.712 19.5193C30.3247 15.6403 30.9276 11.7614 31.5306 7.88252ZM58.9974 8.97787C59.0666 8.69641 59.3334 8.50554 59.6102 8.51554C60.0056 8.52565 60.4108 8.50554 60.816 8.52565C61.1422 8.53564 61.3991 8.86728 61.3596 9.18884C61.3003 9.76166 61.1619 10.3345 61.1224 10.9072C61.5078 10.9072 61.9031 10.8972 62.2886 10.9072C62.6346 10.9072 62.9213 11.269 62.8619 11.6106C62.8125 11.9222 62.7433 12.2237 62.6938 12.5351C62.6444 12.7965 62.4271 13.0075 62.18 13.0477C61.7055 13.0778 61.241 13.0275 60.7765 13.0778C60.5788 14.4243 60.3614 15.7708 60.1538 17.1175C60.1241 17.429 60.1044 17.7807 60.2823 18.0521C60.5492 18.3837 61.0136 18.263 61.3893 18.3033C61.6858 18.3937 61.8735 18.7254 61.8241 19.0269C61.7747 19.3685 61.7648 19.7102 61.6858 20.0418C61.5672 20.4135 61.1422 20.4839 60.8159 20.5743C59.9165 20.8156 58.8787 20.8156 58.0783 20.2829C57.337 19.7704 57.2183 18.7756 57.2974 17.9314C57.5049 16.3035 57.8312 14.6856 58.009 13.0476C57.7323 13.0576 57.3962 13.0979 57.1887 12.8466C56.9515 12.5954 57.0701 12.2236 57.1096 11.912C57.169 11.5804 57.159 11.1483 57.5149 10.9674C57.8014 10.8568 58.1277 10.9373 58.4341 10.897C58.6218 10.254 58.7997 9.61093 58.9974 8.97787ZM53.4131 12.2337C54.0358 11.6006 54.7869 11.0781 55.6468 10.8168C56.0223 10.646 56.5067 10.9676 56.4968 11.3896C56.4277 11.9423 56.2991 12.4849 56.2102 13.0275C56.1706 13.2989 55.9433 13.5301 55.6764 13.5602C54.7078 13.731 53.8677 14.3238 53.1956 15.0273C53.0276 15.2384 52.7805 15.4393 52.7509 15.7307C52.5434 17.1376 52.3259 18.5445 52.1085 19.9513C52.0788 20.2527 51.8217 20.5443 51.5154 20.5242H50.013C49.6671 20.5443 49.3608 20.1926 49.4003 19.8408C49.8352 17.0572 50.2701 14.2837 50.6951 11.5001C50.7148 11.2188 50.9125 10.9474 51.1991 10.9173C51.5648 10.8972 51.9305 10.9072 52.3061 10.9072C52.6026 10.9072 52.8793 11.1785 52.8793 11.4901C52.8793 11.9222 52.8398 12.3643 52.8299 12.8064C53.0672 12.6558 53.2154 12.4146 53.4131 12.2337ZM16.4678 10.9575C17.0015 10.847 17.555 10.9374 18.0887 10.9072C18.3951 10.8671 18.7213 11.068 18.7706 11.3796C18.8103 11.6609 18.7311 11.9323 18.7014 12.2036C18.2963 14.7863 17.8909 17.3688 17.4956 19.9514C17.466 20.243 17.2289 20.5343 16.9224 20.5242C16.3887 20.5242 15.855 20.5343 15.3114 20.5142C14.9753 20.474 14.7282 20.0821 14.8172 19.7504C15.2422 17.0674 15.6475 14.3943 16.0725 11.7112C16.0922 11.4198 16.1713 11.0781 16.4678 10.9575ZM48.4514 11.0882C46.9787 10.8067 45.4765 10.6058 43.984 10.7565C42.6497 10.9274 41.3055 11.5404 40.4852 12.6558C39.3486 14.1229 38.9631 16.0926 39.22 17.9216C39.3584 18.7958 39.734 19.6801 40.4358 20.2227C41.0881 20.7353 41.9677 20.8056 42.7585 20.6749C43.8653 20.4538 44.8043 19.7304 45.5753 18.9264C45.6148 19.2681 45.5357 19.6098 45.5555 19.9414C45.5753 20.2528 45.852 20.5443 46.1584 20.5242H47.1666C47.4631 20.5242 47.7102 20.2429 47.73 19.9514C48.155 17.2281 48.5799 14.5148 48.9951 11.8016C49.0543 11.4599 48.7876 11.1283 48.4514 11.0882ZM45.6742 15.8212C45.2788 16.5749 44.7253 17.2583 44.1026 17.841C43.7468 18.1425 43.2921 18.4541 42.8079 18.3536C42.3335 18.2531 42.1061 17.7507 41.9974 17.3185C41.7504 16.1931 41.9777 14.967 42.6003 13.9924C42.877 13.5401 43.3218 13.1985 43.8358 13.0577C44.5572 12.8768 45.3184 12.9673 46.0201 13.1682L46.0596 13.2085C45.9707 14.0827 45.8026 14.947 45.6742 15.8212ZM29.0498 14.3139C29.0398 13.309 28.773 12.2539 28.0812 11.5001C27.6068 10.9676 26.8951 10.6963 26.2033 10.7062C25.0567 10.6661 23.9794 11.2389 23.1393 12.0026C22.9515 12.1534 22.823 12.3745 22.6155 12.495C22.6155 12.1633 22.6451 11.8317 22.6352 11.4901C22.6451 11.1785 22.3585 10.9072 22.062 10.9072H21.0538C20.7376 10.9072 20.4806 11.1887 20.4608 11.5001C19.8381 15.5198 19.2056 19.5394 18.5829 23.559C18.494 23.9308 18.8103 24.3127 19.1859 24.3026C19.7393 24.2926 20.3027 24.3428 20.8463 24.2623C21.2812 24.1417 21.2713 23.6292 21.3405 23.2575C21.4986 22.3731 21.6074 21.4888 21.7062 20.5944C23.6533 20.9763 25.9167 20.7151 27.3696 19.2177C28.5556 17.9014 29.109 16.0825 29.0498 14.3139ZM26.2823 15.3288C26.2231 16.2533 25.8969 17.1879 25.2644 17.8611C24.4441 18.6551 23.1986 18.5445 22.1905 18.2732C22.1708 18.243 22.1411 18.1827 22.1312 18.1527C22.2893 17.2784 22.3684 16.394 22.5661 15.5298C23.1196 14.6054 23.7916 13.6707 24.7503 13.1583C25.1062 12.9875 25.5905 13.0277 25.8475 13.3593C26.2823 13.912 26.3219 14.6556 26.2823 15.3288Z" fill="#107BD4" stroke="#107BD4" stroke-width="0.101"/>
</g>
<defs>
<linearGradient id="paint0_linear" x1="84.1024" y1="4.39547" x2="84.1024" y2="25.9984" gradientUnits="userSpaceOnUse">
<stop stop-color="#F7E830"/>
<stop offset="1" stop-color="#FDCB06"/>
</linearGradient>
<radialGradient id="paint1_radial" cx="0" cy="0" r="1" gradientUnits="userSpaceOnUse" gradientTransform="translate(83.9917 14.2487) scale(17.2824 17.5716)">
<stop offset="0.596" stop-color="#F29405"/>
<stop offset="0.736" stop-color="#F7D01E"/>
<stop offset="1" stop-color="#FDCB06"/>
</radialGradient>
<linearGradient id="paint2_linear" x1="90.0157" y1="5.17501" x2="90.0219" y2="6.198" gradientUnits="userSpaceOnUse">
<stop stop-color="#FADA1C"/>
<stop offset="1" stop-color="#FDCB06"/>
</linearGradient>
<linearGradient id="paint3_linear" x1="78.1808" y1="5.12572" x2="78.1746" y2="6.14871" gradientUnits="userSpaceOnUse">
<stop stop-color="#FADA1C"/>
<stop offset="1" stop-color="#FDCB06"/>
</linearGradient>
<clipPath id="clip0">
<rect width="97" height="26" fill="white"/>
</clipPath>
</defs>
</svg>
