<svg width="88" height="52" viewBox="0 0 88 52" fill="none" xmlns="http://www.w3.org/2000/svg">
<g clip-path="url(#clip0)">
<path d="M18.9646 43.5284H20.9446C21.2086 43.5284 21.2966 43.5934 21.3406 43.8534C21.6486 46.3234 20.1966 48.3817 17.7766 48.9234C17.0891 49.0742 16.3776 49.0856 15.6855 48.957C14.9933 48.8284 14.3349 48.5625 13.7505 48.1753C13.166 47.7882 12.6676 47.288 12.2856 46.7052C11.9037 46.1223 11.6461 45.469 11.5286 44.785C11.0446 42.0767 13.0686 39.4117 15.9506 39.0217C16.6271 38.9227 17.317 38.9641 17.9763 39.1432C18.6355 39.3223 19.2494 39.6352 19.7786 40.0617C20.0866 40.2784 20.0866 40.4517 19.8006 40.69C19.5146 40.9284 19.4046 41.1884 19.1626 41.2534C18.9206 41.3184 18.7226 40.9934 18.4806 40.8417C16.2366 39.4984 13.2666 40.9934 13.0246 43.5934C12.8926 45.0017 13.3546 46.1934 14.5426 47.0384C15.7306 47.8834 16.9626 47.9267 18.2606 47.3634C18.6913 47.1877 19.0691 46.9063 19.358 46.5459C19.6468 46.1856 19.8371 45.7584 19.9106 45.305C19.9546 45.0234 19.9106 44.9584 19.6246 44.9584H16.9846C16.6766 44.9584 16.5886 44.8717 16.5886 44.5684C16.5886 43.5717 16.5886 43.5717 17.6006 43.5717H18.9646V43.5284Z" fill="#808285"/>
<path d="M73.4146 46.8217C73.8986 45.6084 74.3826 44.4167 74.8446 43.2034C74.9766 42.8567 75.1306 42.7267 75.5046 42.7484C75.8786 42.7701 76.2086 42.7484 76.5606 42.7484C76.5702 42.9406 76.5161 43.1307 76.4066 43.2901L72.8426 51.4367C72.8119 51.5417 72.7439 51.6323 72.651 51.692C72.5581 51.7516 72.4465 51.7764 72.3366 51.7617H71.2806C71.26 51.6088 71.2993 51.4538 71.3906 51.3284C71.5697 50.8275 71.7905 50.3419 72.0506 49.8767C72.6666 48.9451 72.5346 48.1001 72.0506 47.1684C71.3686 45.8684 70.8406 44.4817 70.2246 43.1384C70.0926 42.8567 70.0926 42.7484 70.4666 42.7484C71.6106 42.7484 71.6106 42.7484 72.0506 43.7884L73.3046 46.8217H73.4146Z" fill="#808285"/>
<path d="M62.0845 44.0487C62.0845 42.597 62.0845 41.167 62.0845 39.7154C62.0845 39.3904 62.1945 39.3037 62.5025 39.3037C63.5365 39.3037 63.5365 39.3037 63.5365 40.322C63.5365 43.0087 63.5365 45.6954 63.5365 48.382C63.5365 48.7504 63.4705 48.9237 63.0305 48.902C62.0625 48.8804 62.0625 48.902 62.0625 47.9487C62.0772 46.6487 62.0845 45.3487 62.0845 44.0487Z" fill="#808285"/>
<path d="M44.8577 44.1351C44.8577 45.5867 44.8577 47.0384 44.8577 48.5117C44.8577 48.8151 44.7697 48.9017 44.4617 48.9017C43.4277 48.9017 43.4277 48.9234 43.4277 47.9051C43.4277 45.1967 43.4277 42.4884 43.4277 39.7801C43.4277 39.4334 43.5157 39.3034 43.8897 39.3251C44.8577 39.3467 44.8577 39.3251 44.8577 40.3001C44.8577 41.2751 44.8577 42.8567 44.8577 44.1351Z" fill="#808285"/>
<path d="M42.4372 43.6148C42.4372 42.7698 42.4372 42.7698 41.6012 42.7481C41.2272 42.7264 40.9852 42.7698 41.0732 43.2898C40.7713 42.9968 40.4012 42.7811 39.9952 42.6614C38.7192 42.3798 37.7072 42.8131 36.9152 43.7664C36.4128 44.3857 36.154 45.1626 36.1863 45.9546C36.2186 46.7466 36.5399 47.5006 37.0912 48.0781C38.2352 49.2481 39.6432 49.3564 41.0512 48.3598C41.0512 48.6414 41.0732 48.8798 41.0512 49.0964C40.9852 49.8548 40.5672 50.4181 39.9292 50.6131C39.5944 50.7293 39.2316 50.7417 38.8894 50.6488C38.5472 50.5558 38.2421 50.3619 38.0152 50.0931C37.5532 49.5948 37.5752 49.5731 36.9152 49.8548L36.7832 49.8981C36.4092 49.9848 36.4312 50.1581 36.6072 50.4614C36.954 51.0473 37.4852 51.5059 38.1204 51.7678C38.7555 52.0298 39.46 52.0808 40.1272 51.9131C41.4692 51.6098 42.3052 50.5698 42.3712 49.1181C42.4812 47.2764 42.4152 45.4564 42.4372 43.6148ZM38.8072 47.6881C37.8392 47.3198 37.3552 46.1498 37.7292 45.0664C37.8014 44.8502 37.9162 44.6501 38.0669 44.4775C38.2177 44.3049 38.4015 44.1633 38.6078 44.0607C38.8141 43.9581 39.039 43.8965 39.2695 43.8795C39.5 43.8624 39.7316 43.8903 39.9512 43.9614C40.6992 44.2214 41.1392 44.9364 41.1392 45.8464C41.1392 47.2331 39.9952 48.1214 38.8072 47.6881Z" fill="#808285"/>
<path d="M58.4314 39.3469C57.2874 39.2602 56.1434 39.3252 54.9994 39.3036C54.6914 39.3036 54.6914 39.4769 54.6914 39.6936C54.6914 41.1669 54.6914 42.6402 54.6914 44.1136V47.8836C54.6914 48.9019 54.6914 48.8802 55.7254 48.9019C56.0774 48.9019 56.1434 48.7936 56.1434 48.4686C56.1214 47.5152 56.1434 46.5619 56.1214 45.6086C56.1214 45.3269 56.2094 45.2402 56.4954 45.2402H58.2114C59.8834 45.1969 61.2474 43.9619 61.2914 42.4452C61.3354 40.9286 60.1914 39.4986 58.4314 39.3469ZM58.4094 43.8969C57.7494 43.9836 57.0894 43.9186 56.4294 43.9402C56.2314 43.9402 56.1434 43.8752 56.1434 43.6586C56.1434 42.7486 56.1434 41.8386 56.1434 40.9286C56.1434 40.7336 56.2094 40.6469 56.4294 40.6469H58.2774C58.6842 40.6704 59.0678 40.8414 59.3542 41.1268C59.6407 41.4123 59.8097 41.792 59.8289 42.1929C59.848 42.5937 59.7158 42.9874 59.4578 43.298C59.1998 43.6087 58.8342 43.8143 58.4314 43.8752L58.4094 43.8969Z" fill="#808285"/>
<path d="M69.9809 45.1967C69.9589 43.9401 69.2989 43.0734 68.1549 42.7051C67.0109 42.3367 65.4929 42.6401 64.8109 43.4851C64.4589 43.9401 64.4589 43.9834 64.9869 44.2001L65.5589 44.4384C65.6144 44.4699 65.6803 44.4784 65.7421 44.4622C65.804 44.4459 65.8568 44.4062 65.8889 44.3517C66.3069 43.8101 66.8789 43.7884 67.4729 43.8751C68.0669 43.9617 68.6169 44.5251 68.5289 45.0884C67.3849 44.6767 66.4609 44.6767 65.5809 45.0884C64.7009 45.5001 64.2609 46.1934 64.3489 47.1251C64.389 47.5298 64.5538 47.9127 64.8212 48.2226C65.0886 48.5324 65.4458 48.7543 65.8449 48.8584C66.8789 49.1617 67.8029 49.0101 68.5729 48.0567C68.5949 48.7934 68.5949 48.7934 69.2549 48.7934H69.6509C69.9149 48.8151 70.0029 48.7067 70.0029 48.4467C69.9809 47.4067 70.0029 46.3017 69.9809 45.1967ZM68.3309 46.9951C68.1241 47.3141 67.8133 47.5544 67.4495 47.6764C67.0857 47.7985 66.6905 47.7951 66.3289 47.6667C66.0429 47.5584 65.8009 47.3634 65.7789 47.0167C65.762 46.8576 65.7924 46.697 65.8667 46.5546C65.9409 46.4122 66.0557 46.2942 66.1969 46.2151C66.5464 46.0234 66.9411 45.9262 67.3409 45.9334L67.9349 46.0417C68.6389 46.2151 68.7269 46.3884 68.3309 46.9951Z" fill="#808285"/>
<path d="M25.1012 42.5749C24.4486 42.5707 23.8093 42.7571 23.2642 43.1106C22.7191 43.4642 22.2927 43.969 22.039 44.5612C21.7852 45.1534 21.7154 45.8064 21.8385 46.4377C21.9616 47.0689 22.2719 47.65 22.7303 48.1076C23.1888 48.5651 23.7747 48.8785 24.4139 49.0081C25.0532 49.1377 25.7171 49.0777 26.3218 48.8357C26.9264 48.5937 27.4446 48.1805 27.8108 47.6485C28.1771 47.1164 28.3749 46.4894 28.3792 45.8466C28.3943 45.4166 28.3201 44.9881 28.1613 44.5874C28.0025 44.1866 27.7623 43.8219 27.4555 43.5157C27.1486 43.2095 26.7816 42.9681 26.3768 42.8063C25.972 42.6446 25.538 42.5658 25.1012 42.5749ZM25.1012 47.7966C24.0672 47.7966 23.2532 46.9516 23.2752 45.8249C23.2972 44.6983 24.0672 43.8749 25.1232 43.8749C26.1792 43.8749 26.9712 44.7199 26.9712 45.8466C26.9712 46.9733 26.1572 47.7966 25.1012 47.7966Z" fill="#808285"/>
<path d="M32.2737 42.575C31.6192 42.5664 30.9769 42.7497 30.4285 43.1015C29.88 43.4534 29.4502 43.9579 29.1937 44.551C28.9372 45.144 28.8655 45.7988 28.9878 46.4321C29.1101 47.0653 29.4209 47.6485 29.8806 48.1073C30.3403 48.5662 30.9282 48.8801 31.5695 49.009C32.2108 49.138 32.8766 49.0762 33.4822 48.8315C34.0877 48.5869 34.6057 48.1704 34.9703 47.635C35.3349 47.0997 35.5296 46.4696 35.5297 45.825C35.5385 45.3995 35.4607 44.9765 35.3007 44.5811C35.1408 44.1857 34.902 43.8259 34.5984 43.5229C34.2949 43.22 33.9328 42.98 33.5335 42.8172C33.1342 42.6544 32.7058 42.572 32.2737 42.575ZM32.2517 47.7967C31.2177 47.7967 30.4037 46.9083 30.4037 45.825C30.4037 44.7417 31.2177 43.875 32.2517 43.875C33.2857 43.875 34.0777 44.72 34.0777 45.8467C34.0777 46.9733 33.3077 47.7967 32.2517 47.7967Z" fill="#808285"/>
<path d="M47.6077 46.6481L51.2157 45.1531C51.3477 45.0881 51.6117 45.0881 51.5017 44.8064C50.9957 43.4198 49.9397 42.5314 48.5977 42.5748C47.2557 42.6181 45.8477 43.6581 45.5617 45.3264C45.4659 45.9634 45.5605 46.614 45.834 47.1988C46.1075 47.7837 46.548 48.2774 47.1017 48.6198C47.6738 48.9486 48.334 49.0978 48.9944 49.0475C49.6548 48.9972 50.2839 48.7497 50.7977 48.3381C51.5677 47.7314 51.5677 47.6881 50.7757 47.1681H50.7317C50.4897 46.9081 50.3137 46.9514 50.0717 47.2114C49.9081 47.3972 49.7063 47.5466 49.4795 47.6497C49.2528 47.7527 49.0064 47.8071 48.7567 47.8091C48.507 47.8112 48.2597 47.7609 48.0313 47.6616C47.8028 47.5622 47.5984 47.4162 47.4317 47.2331C47.1677 46.8648 47.1677 46.8214 47.6077 46.6481ZM47.1897 45.6514C47.0137 45.7164 46.9477 45.6948 46.9697 45.4998C46.9917 44.6331 47.8717 43.8098 48.7297 43.8531C48.9204 43.8477 49.1099 43.8837 49.2848 43.9586C49.4597 44.0335 49.6157 44.1454 49.7417 44.2864C49.8737 44.4381 49.8737 44.5464 49.6537 44.6331L47.1897 45.6514Z" fill="#808285"/>
<path d="M27.3896 38.1991H27.0596C26.5536 38.0907 26.2676 37.7224 26.0696 37.2891C25.9495 37.0148 25.8824 36.7209 25.8716 36.4224C25.8742 36.3065 25.8668 36.1905 25.8496 36.0757C25.8496 24.7946 25.8496 13.5063 25.8496 2.21075C25.8496 2.10241 25.8716 1.99408 25.8716 1.86408C25.8776 1.48139 26.0005 1.10934 26.2241 0.796336C26.4478 0.483332 26.7619 0.243862 27.1256 0.10908C27.1867 0.0779518 27.2549 0.0630175 27.3236 0.0657466C27.393 0.0928251 27.4538 0.137713 27.4996 0.195747C29.8316 2.49241 32.1856 4.74575 34.4956 7.04241L46.4636 18.8507C46.5296 18.9157 46.6176 18.9807 46.6396 19.0891C46.6381 19.1291 46.6226 19.1674 46.5956 19.1974L46.4856 19.3057L35.6396 30.0524L30.7336 34.9274L29.0176 36.6174C28.5336 37.0941 28.0936 37.5707 27.6096 38.0474C27.5444 38.1085 27.4702 38.1596 27.3896 38.1991Z" fill="#00E0FF"/>
<path d="M52.6667 25.0249C52.4247 25.1982 52.1387 25.3282 51.8747 25.4582L48.3987 27.3432L39.4007 32.1965L30.4687 37.0065L28.9287 37.8299C28.6555 37.974 28.368 38.0902 28.0707 38.1765L28.0047 38.2199H27.3887C27.4107 38.1549 27.4547 38.1332 27.4987 38.0899L30.2267 35.3815C33.1967 32.4565 36.1447 29.5099 39.1147 26.5849L46.5287 19.2399L46.6607 19.1099H46.7047C46.7706 19.1516 46.8299 19.2027 46.8807 19.2615L52.5347 24.8299C52.5787 24.8732 52.6667 24.9165 52.6667 25.0249Z" fill="#FF4E54"/>
<path d="M62.2158 18.8716H62.2378V19.1316H62.2158C62.1971 19.1153 62.1821 19.0953 62.1718 19.0729C62.1616 19.0505 62.1562 19.0262 62.1562 19.0016C62.1562 18.977 62.1616 18.9527 62.1718 18.9303C62.1821 18.9079 62.1971 18.8878 62.2158 18.8716Z" fill="#FFFAD4"/>
<path d="M28.0059 38.1981L28.0719 38.1548V38.1981H28.0059Z" fill="#FFA1A5"/>
<path d="M27.5217 0.0648203H27.9397C28.3274 0.11508 28.7012 0.240252 29.0397 0.433154L39.0497 5.80649L48.0037 10.6165L52.4917 12.9998L52.6677 13.1082C52.6897 13.1732 52.6237 13.2165 52.5797 13.2598L52.3817 13.4548C51.0397 14.7548 49.7637 16.0982 48.4217 17.3765C47.8937 17.8965 47.3877 18.4382 46.8377 18.9365C46.7717 18.9798 46.7497 19.0665 46.6617 19.0665H46.6397C46.5959 19.009 46.5441 18.9579 46.4857 18.9148L39.3797 11.9382L30.5137 3.20649L27.4777 0.238154L27.3457 0.086487C27.4025 0.0686492 27.4622 0.0613037 27.5217 0.0648203Z" fill="#00F085"/>
<path d="M46.6621 19.0879L46.7501 18.9796L48.0481 17.7012C49.5661 16.2279 51.0401 14.7329 52.5361 13.2596L52.6681 13.1079C52.7393 13.1236 52.8066 13.153 52.8661 13.1946L56.8701 15.3396L61.0281 17.5712C61.2894 17.6997 61.5333 17.8598 61.7541 18.0479C62.0153 18.2523 62.1882 18.5464 62.2381 18.8712V19.1312C62.1889 19.4635 62.0259 19.7693 61.7761 19.9979C61.5781 20.1998 61.3477 20.3681 61.0941 20.4962L57.2221 22.5762L52.8001 24.9596L52.6681 25.0246L52.5361 24.8729L48.3341 20.7346L46.7941 19.2396L46.6621 19.0879Z" fill="#FFE300"/>
</g>
<defs>
<clipPath id="clip0">
<rect width="88" height="52" fill="white"/>
</clipPath>
</defs>
</svg>
