<svg width="48" height="48" viewBox="0 0 48 48" fill="none" xmlns="http://www.w3.org/2000/svg">
<g clip-path="url(#clip0)">
<path d="M5.446 18.01H0.548004C0.271004 18.01 0.0460038 18.177 0.0450038 18.512L3.78991e-06 30.519C-0.00099621 30.819 0.196004 30.969 0.465004 30.969C1.2 30.969 1.8 30.969 2.535 30.969C2.79 30.969 3 30.844 3 30.594C3 29.483 3 28.111 3 27L5.126 27.009C6.525 26.917 7.461 26.267 7.851 24.957C7.968 24.564 7.991 24.224 7.991 23.82L8.101 20.958C7.999 18.946 6.949 18.181 5.446 18.01ZM4.995 23.465C4.995 23.759 4.754 24 4.461 24H3V21H4.461C4.754 21 4.995 21.24 4.995 21.535V23.465ZM13.938 18H10.515C10.255 18 10.032 18.08 10.032 18.351C10.032 19.057 10.032 19.846 10.032 20.552C10.06 20.846 10.263 21 10.552 21H13.407C14.001 21 13.939 21.972 13.407 22H11.84C10.101 22 9 23.562 9 25.137C9 25.557 9.005 26.543 9 27C8.992 27.651 8.986 28.311 9.112 28.899C9.336 29.939 10.235 31 11.597 31H15.825C16.366 31 16.998 30.526 16.998 29.899V21.625C17.026 19.443 15.942 18.117 13.938 18ZM14 27.55C14 27.798 13.798 28 13.552 28H12.447C12.201 28 12 27.798 12 27.55V25.449C12 25.202 12.201 25 12.447 25H13.552C13.798 25 14 25.202 14 25.449V27.55ZM18 18.594V24.202C18.124 25.802 19.608 27 21.171 27H22.585C23.182 27 23.146 27.969 22.585 27.969H19.49C19.151 27.969 19.028 28.146 19.028 28.445V30.597C19.028 30.823 19.211 30.993 19.45 30.993H22.409C24.825 30.993 26.001 29.834 26 27.236V18.396C26 18.12 25.825 18.013 25.658 18.013H23.356C23.132 18.013 23.001 18.256 23.001 18.435V23.653C23.001 23.852 22.89 23.969 22.711 23.969H21.41C21.146 23.969 21.001 23.826 21.001 23.573V18.515C21 18.218 20.88 18 20.552 18C19.774 18 19.11 18 18.332 18C18.067 18 18 18.263 18 18.594Z" fill="#0D47A1"/>
<path d="M27.0383 20.5691V18.4311C27.0383 18.1941 27.2323 18.0001 27.4683 18.0001H28.0003C29.3683 17.7151 29.8513 17.3801 30.6883 16.4781C31.2023 15.9211 31.6543 15.7741 31.9863 16.3651L32.0003 18.0001H33.5693C33.8073 18.0001 34.0003 18.1941 34.0003 18.4311V20.5691C34.0003 20.8051 33.8063 21.0001 33.5693 21.0001H32.0003V30.5691C32.0003 30.8071 31.8063 31.0001 31.5703 31.0001H29.4303C29.1933 31.0001 29.0003 30.8071 29.0003 30.5691V21.0001H27.4693C27.2343 21.0001 27.0383 20.8061 27.0383 20.5691ZM42.9913 30.4651C42.9913 30.7591 42.7473 31.0001 42.4523 31.0001H40.5423C40.2453 31.0001 40.0023 30.7591 40.0023 30.4651V23.8421V21.9711C40.0023 20.6871 38.0003 20.6871 38.0003 21.9711V30.4651C38.0003 30.7591 37.7583 31.0001 37.4613 31.0001H35.5403C35.2433 31.0001 35.0003 30.7591 35.0003 30.4651V18.5371C35.0003 18.2411 35.2433 18.0001 35.5403 18.0001H37.5163C37.8133 18.0001 38.0553 18.2411 38.0553 18.5371V18.8291C39.3753 17.5631 41.3573 17.8561 42.4713 19.0571C44.5683 16.6521 48.1613 18.7951 47.9943 21.4321C47.9943 24.3481 47.9683 27.5251 47.9683 30.4651C47.9683 30.7591 47.7243 31.0001 47.4303 31.0001H45.5393C45.2423 31.0001 45.0003 30.7591 45.0003 30.4651C45.0003 27.6791 45.0003 24.7641 45.0003 22.0251C45.0003 20.7181 43.0003 20.6551 43.0003 22.0251V30.4651H42.9913Z" fill="#00ADEE"/>
</g>
<defs>
<clipPath id="clip0">
<rect width="48" height="48" fill="white"/>
</clipPath>
</defs>
</svg>
