<svg xmlns="http://www.w3.org/2000/svg" width="263" height="206" fill="none" viewBox="0 0 263 206">
    <g opacity=".5">
        <path fill="#F7F7F7" d="M169.665 186.009H76.624V51.789h103.273v125.476c0 4.839-4.585 8.744-10.232 8.744z"/>
        <path fill="#474EBB" d="M179.691 51.79H76.586v6.24H179.69v-6.24z"/>
        <path fill="#F7F7F7" d="M153.841 125.605c1.398 0 1.398-1.569 0-1.569h-51.757c-1.398 0-1.398 1.569 0 1.569h51.757z"/>
        <path fill="#EED5D5" d="M125.904 62.345c-8.294 0-15.712 3.68-20.744 9.491l20.744 18.03 20.744-18.011c-5.032-5.83-12.45-9.51-20.744-9.51z"/>
        <path fill="#5D66D3" d="M155.054 85.83l-27.174 3.923v27.52c15.171 0 27.454-12.312 27.454-27.52 0-1.327-.112-2.634-.28-3.924z"/>
        <path fill="#DDDAE8" d="M105.178 71.93c-9.785 11.62-8.313 28.977 3.299 38.767 1.006.86 2.069 1.626 3.168 2.317l14.519-23.354-20.986-17.73z"/>
        <path fill="#8CABEF" d="M126.126 117.217c-5.144 0-10.307-1.439-14.836-4.372l14.836-23.148v27.52z"/>
        <path fill="#3B3387" d="M156.432 84.317c-.764-5.362-3.057-10.201-6.43-14.106l-20.744 18.01 27.174-3.904z"/>
        <path fill="#D67086" d="M98.84 155.63H88.759v24.344H98.84V155.63z"/>
        <path fill="#EED5D5" d="M98.84 146.195H88.759v11.434H98.84v-11.434z"/>
        <path fill="#D67086" d="M165.232 156.732h-10.084v24.344h10.084v-24.344z"/>
        <path fill="#EED5D5" d="M165.306 136.181h-10.158v22.569h10.158v-22.569z"/>
        <path fill="#D67086" d="M143.106 154.808h-10.084v25.727h10.084v-25.727z"/>
        <path fill="#EED5D5" d="M143.106 152.51h-10.084v17.076h10.084V152.51z"/>
        <path fill="#D67086" d="M120.966 145.84h-10.083v34.545h10.083V145.84z"/>
        <path fill="#EED5D5" d="M120.966 132.463h-10.083v27.632h10.083v-27.632z"/>
        <path fill="#fff" d="M80.534 56.665c-.727 0-1.323-.598-1.323-1.327 0-.728.596-1.326 1.323-1.326s1.323.598 1.323 1.326c0 .729-.596 1.327-1.323 1.327zm0-2.43c-.615 0-1.1.505-1.1 1.103s.504 1.102 1.1 1.102c.615 0 1.1-.504 1.1-1.102 0-.598-.503-1.102-1.1-1.102zM84.617 56.665c-.727 0-1.323-.598-1.323-1.327 0-.728.596-1.326 1.323-1.326s1.323.598 1.323 1.326c0 .729-.596 1.327-1.323 1.327zm0-2.43c-.615 0-1.1.505-1.1 1.103s.504 1.102 1.1 1.102c.615 0 1.1-.504 1.1-1.102 0-.598-.485-1.102-1.1-1.102zM88.697 56.665c-.727 0-1.323-.598-1.323-1.327 0-.728.596-1.326 1.323-1.326s1.324.598 1.324 1.326c0 .729-.578 1.327-1.324 1.327zm0-2.43c-.615 0-1.1.505-1.1 1.103s.504 1.102 1.1 1.102c.615 0 1.1-.504 1.1-1.102 0-.598-.485-1.102-1.1-1.102z"/>
        <path fill="#F7F7F7" d="M230.868 112.192l-6.225 9.995-35.319-22.307 6.225-9.996 35.319 22.308z"/>
        <path fill="#292949" d="M243.04 126.671l-.074.112c-1.957 3.158-5.461 4.522-7.828 3.027l-27.118-16.684 7.119-12.013 27.174 17.169c2.367 1.476 2.684 5.232.727 8.389z"/>
        <path fill="#BBBCBF" d="M191.785 101.355l1.715 1.252 15.488-4.017-12.897-8.258-4.306 11.023z" opacity=".2"/>
        <path fill="#353A85" d="M184.592 47.605c-16.57-10.37-38.395-5.306-48.757 11.303-10.344 16.61-5.293 38.487 11.276 48.875 16.569 10.369 38.394 5.306 48.757-11.303 10.362-16.628 5.311-38.506-11.276-48.875zm7.082 46.24c-8.909 14.293-27.677 18.646-41.935 9.716-14.258-8.93-18.601-27.745-9.692-42.037 8.909-14.293 27.677-18.646 41.935-9.716 14.258 8.931 18.601 27.745 9.692 42.038z"/>
        <path fill="#D1E7F5" d="M187.376 99.262c11.886-11.915 11.886-31.232 0-43.147-11.886-11.914-31.157-11.914-43.042 0-11.886 11.915-11.886 31.232 0 43.147 11.885 11.915 31.156 11.915 43.042 0z" opacity=".5"/>
        <path fill="#fff" d="M143.921 76.451c-.149-9.734 6.151-18.533 15.526-21.224 9.337-2.69 19.514 1.439 24.434 9.846 1.379 2.373 5.144.393 3.765-1.98-5.647-9.678-16.867-14.685-27.808-12.35-10.773 2.298-18.731 11.584-20.017 22.439-.13 1.046-.149 2.11-.149 3.157.037 2.728 4.305 2.877 4.249.112z" opacity=".22"/>
        <path fill="#fff" d="M189.114 74.396c1.53-.203 2.607-1.611 2.405-3.146-.202-1.534-1.607-2.614-3.138-2.41-1.531.202-2.608 1.61-2.405 3.144.202 1.535 1.607 2.615 3.138 2.412z" opacity=".31"/>
        <path fill="#353A85" d="M208.393 112.733l6.785-11.434c.223-.392.13-.897-.243-1.177l-.111-.093c-.429-.318-1.025-.187-1.305.261l-6.672 11.509c-.243.43-.094.99.335 1.233h.019c.41.262.932.112 1.192-.299z"/>
        <path fill="#DDDAE8" d="M195.549 77.909c-.019 7.342-2.684 14.442-7.511 19.953-4.771 5.437-11.407 8.95-18.545 9.977-7.306 1.046-14.836-.822-20.93-4.914-5.946-3.998-10.27-10.163-12.171-17.057-1.975-7.156-1.155-14.947 2.162-21.56 3.206-6.372 8.704-11.51 15.265-14.256 6.858-2.877 14.63-3.045 21.638-.616 6.747 2.335 12.469 7.211 16.066 13.377 2.665 4.558 4.007 9.808 4.026 15.096 0 1.046 1.621 1.046 1.621 0-.018-7.343-2.553-14.424-7.156-20.122-4.492-5.568-10.941-9.472-17.912-10.986-7.231-1.569-14.891-.467-21.433 2.952-6.3 3.288-11.369 8.8-14.258 15.283-3.001 6.782-3.504 14.536-1.473 21.691 1.957 6.894 6.319 12.929 12.115 17.114 5.946 4.297 13.382 6.315 20.67 5.81 7.231-.504 14.108-3.568 19.42-8.5 6.412-5.96 10.027-14.498 10.065-23.242-.038-1.047-1.659-1.047-1.659 0z"/>
    </g>
</svg>
