<svg xmlns="http://www.w3.org/2000/svg" width="570" height="427" fill="none" viewBox="0 0 570 427">
    <g opacity=".8">
        <path fill="#F3EDF3" d="M312.228 98.286c0 3.587-4.484 6.49-10.032 6.49-5.529 0-10.032-2.903-10.032-6.49s4.484-4.403 10.032-4.403c5.529-.02 10.032.816 10.032 4.403zM151.258 203.1c0-3.018 9.424-5.447 21.052-5.447s21.052 2.448 21.052 5.447c0 2.998-9.424 3.701-21.052 3.701s-21.052-.684-21.052-3.701zM231.457 161.007c22.068 0 39.957-17.868 39.957-39.91 0-22.042-17.889-39.91-39.957-39.91S191.5 99.054 191.5 121.096c0 22.042 17.889 39.91 39.957 39.91zM336.129 88.038c0-6.7 11.153-12.127 24.89-12.127s24.89 5.428 24.89 12.127c0 6.7-11.153 8.255-24.89 8.255s-24.89-1.556-24.89-8.255zM388.723 210.141c0-4.023 6.707-7.306 14.972-7.306s14.972 3.264 14.972 7.306c0 4.024-6.707 4.954-14.972 4.954-8.265.019-14.972-.93-14.972-4.954zM100.777 98.172c0-4.024 6.707-7.307 14.972-7.307s14.972 3.264 14.972 7.307c0 4.023-6.707 4.953-14.972 4.953-8.265.019-14.972-.93-14.972-4.953zM44.574 162.336h138.491s3.458-36.172-19.532-36.191c-17.765-.019-22.819 20.06-33.459 20.382-10.659.323-4.199-15.77-16.644-15.694-12.426.076-16.416 18.218-25.935 18.199-9.519-.019-6.612-8.065-16.625-8.027-10.013.038-26.296 21.331-26.296 21.331zM363.527 169.415h159.619s-4.712-36.324-28.348-34.009c-18.088 1.765-19.228 16.113-33.212 16.549-12.844.399-5.909-15.695-20.387-14.784-14.478.93-20.824 17.251-31.16 17.612-7.505.265-7.657-6.775-22.154-5.523-14.497 1.272-24.358 20.155-24.358 20.155zM155.172 108.686c2.161 0 3.914-1.75 3.914-3.909 0-2.16-1.753-3.91-3.914-3.91-2.162 0-3.914 1.75-3.914 3.91 0 2.159 1.752 3.909 3.914 3.909zM129.883 230.637c2.161 0 3.914-1.75 3.914-3.909s-1.753-3.91-3.914-3.91c-2.162 0-3.914 1.751-3.914 3.91 0 2.159 1.752 3.909 3.914 3.909z"/>
        <path fill="#fff" d="M231.458 152.866c17.566 0 31.806-14.223 31.806-31.769 0-17.545-14.24-31.769-31.806-31.769-17.566 0-31.806 14.224-31.806 31.769 0 17.546 14.24 31.769 31.806 31.769z"/>
        <path stroke="#5FAEF2" stroke-linecap="round" stroke-linejoin="round" stroke-miterlimit="10" stroke-width="7" d="M76.494 290.113l-31.92-36.418s33.06 11.311 47.88 29.833c1.767-7.193-8.265-56.801-8.265-56.801s16.815 30.63 18.24 53.688M430.464 270.737s0-38.848 18.81-68.813c-2.85 19.566-7.125 75.911-7.125 75.911s17.955-36.438 50.16-46.667c-15.39 20.8-27.645 31.864-33.915 44.541 12.274-9.47 31.35-21.35 31.35-21.35l-18.525 21.35"/>
        <path fill="#C9CEEF" d="M542.109 323.268c-.342 9.09-8.246 17.706-17.081 21.312-10.716 4.365-22.686 4.042-33.896 6.813-9.804 2.429-18.943 7.192-28.842 9.223-32.832 6.737-65.322-17.574-98.648-14.006-25.137 2.695-47.576 21.028-72.808 19.604-11.457-.645-22.23-5.37-33.041-9.318-17.727-6.471-36.898-10.969-55.385-7.249-18.924 3.795-36.936 16.055-55.936 12.582-12.312-2.239-22.591-10.836-34.58-14.442-16.7-5.01-34.542.114-51.965.266-13.11.113-37.79-6.073-39.824-22.622-.095-.721-.133-1.442-.114-2.144h522.12v-.019z"/>
        <path stroke="#4598E0" stroke-linecap="round" stroke-linejoin="round" stroke-miterlimit="10" stroke-width="9.941" d="M545.888 323.268H17.84"/>
        <path fill="#C9CEEF" d="M219.829 366.271c3.767 0 6.821-1.649 6.821-3.682s-3.054-3.682-6.821-3.682-6.821 1.649-6.821 3.682 3.054 3.682 6.821 3.682zM98.704 354.6c-.228 1.176-2.584 2.41-4.788 1.955-2.185-.456-3.401-2.392-3.154-3.587.247-1.196 2.204-1.784 4.408-1.329 2.204.456 3.762 1.784 3.534 2.961zM503.804 354.619c.475 1.1-.779 3.473-2.831 4.365-2.052.892-4.142-.019-4.617-1.12-.475-1.101.817-2.733 2.869-3.625 2.052-.892 4.104-.721 4.579.38zM240.482 359.268c-.228 1.177-2.584 2.411-4.788 1.955-2.204-.455-3.401-2.391-3.154-3.587.247-1.195 2.204-1.784 4.408-1.328 2.204.455 3.781 1.765 3.534 2.96z"/>
        <path fill="#173F80" d="M78.414 286.147s17.594-19.737 52.421-40.499c32.623-19.452 76.437-35.014 145.483-29.453 99.94 8.046 114.703 23.191 130.226 29.453 15.523 6.244 44.308 16.15 48.108 47.919-65.873 0-376.238-7.42-376.238-7.42z"/>
        <path fill="#1A1B16" d="M189.961 229.669s33.041-32.945 87.609-25.791c54.568 7.155 61.978 30.213 61.978 30.213l-10.127 20.135-76.456 41.429-63.004-65.986z"/>
        <path fill="#F8934F" d="M317.891 199.38s-.038.133-.095.418c-.95 4.289-9.139 41.239-14.554 56.231-4.18 11.576-16.986 17.384-16.986 17.384l-1.615 5.636-1.805 6.301-28.785 11.386-42.75-23.627 17.841-60.122c-4.769-1.935-8.037-7.553-8.037-13.588 0-7.686 5.529-13.91 12.369-13.91 1.273 0 2.489.208 3.648.626l3.838-12.905 76.931 26.17z"/>
        <path fill="#F77C2D" d="M317.794 199.798c-.95 4.289-9.139 41.239-14.554 56.232-4.18 11.576-16.986 17.383-16.986 17.383l-1.615 5.637c-2.071.246-4.18.265-6.27.265-3.458 0-6.954-.095-10.355-.778-5.396-1.1-10.336-3.7-15.2-6.281-1.653-.873-3.572-2.335-3.116-4.138 7.41-1.024 14.459 4.289 21.926 3.815 3.553-.228 6.878-1.765 10.07-3.34 2.85-1.423 5.7-2.942 8.113-5.029 6.992-6.054 9.177-15.809 10.982-24.88 2.242-11.235 3.306-24.14 7.619-34.805.874-2.183 1.957-4.327 3.439-6.111l5.947 2.03zM229.35 223.994c-.399 2.733.817 5.542.323 8.275-.627 3.454-3.838 6.054-4.294 9.545-.228 1.841.342 3.682.684 5.504 1.007 5.447-.361 11.52-4.408 15.315-.475.456-1.045.892-1.71.873-.627 0-1.178-.417-1.653-.835-1.102-.949-2.09-2.012-2.983-3.15l13.794-46.534c-2.831-1.138-5.111-3.587-6.517-6.623.057.057.133.133.19.209 2.299 2.41 4.313 4.422 7.923 4.46 1.33.019 2.888-.171 3.781.835 1.083 1.233.19 3.169-.798 4.497-1.767 2.354-3.914 4.688-4.332 7.629z"/>
        <path fill="#F77C2D" d="M271.117 248.711c.311-.559-.762-1.745-2.395-2.65-1.634-.905-3.209-1.185-3.52-.626-.31.56.762 1.746 2.396 2.651 1.633.904 3.209 1.185 3.519.625zM275.253 234.129c1.045 1.252 7.923-1.215 6.859-3.606-.798-1.822-9.386.588-6.859 3.606zM249.413 184.787s23.313 25.487 43.567 28.182c7.467-6.927 9.88-11.862 9.88-11.862l-51.927-18.977-1.52 2.657z"/>
        <path fill="#F52A21" d="M256.156 232.914c-.361-3.018-.38-8.711 3.762-8.407 3.895.284 3.458 6.737 3.61 12.506"/>
        <path stroke="#BF3028" stroke-linecap="round" stroke-linejoin="round" stroke-miterlimit="10" stroke-width="5" d="M259.424 227.676s-.741 3.549.798 7.496"/>
        <path fill="#1A1B16" d="M267.655 219.193c-.551 1.082-1.33 1.689-2.128 1.272-.798-.418-1.026-1.632-.475-2.714s1.653-1.632 2.47-1.215c.817.418.684 1.575.133 2.657z"/>
        <path stroke="#1A1B16" stroke-linecap="round" stroke-linejoin="round" stroke-miterlimit="10" stroke-width="5" d="M264.594 207.048s6.403 3.169 10.754 9.356"/>
        <path stroke="#BF3028" stroke-linecap="round" stroke-linejoin="round" stroke-miterlimit="10" stroke-width="5" d="M283.555 216.916s-2.375 4.65-1.805 9.774c.57 5.124 1.33 6.3-5.035 7.799M255.36 232.478l26.733 14.803"/>
        <path fill="#F77C2D" d="M236.189 204.865s-4.921 1.215-6.46-2.884c-1.539-4.1 1.9-6.927 1.9-6.927 1.007 1.025 1.938 2.106 2.717 3.302 1.235 1.936 2.033 4.232 1.843 6.509z"/>
        <path stroke="#BF3028" stroke-linecap="round" stroke-linejoin="round" stroke-miterlimit="10" stroke-width="5" d="M231.629 195.035s-3.439 2.827-1.9 6.927c1.539 4.118 6.46 2.884 6.46 2.884.19-2.296-.608-4.573-1.843-6.528-1.235-1.955-2.907-3.568-4.617-5.105M229.14 212.969c1.102.379 3.268.91 5.928.341"/>
        <path fill="#BF3028" d="M286.256 273.394l-3.42 11.956-14.212 5.617c-24.377-12.544-29.431-33.135-29.507-33.495 3.553 5.332 8.968 10.324 17.195 13.531 20.52 7.97 29.944 2.391 29.944 2.391z"/>
        <path fill="#1A1B16" d="M230.852 185.793c2.603-.304 7.923-1.025 10.697 5.181 2.47 5.484-.608 17.933-1.368 20.742-.095.323.095.645.418.759l4.427 1.386c.247.076.494-.057.551-.304l7.695-29.245s12.103 16.985 29.716 17.612c-2.033-2.79-3.8-6.965-3.8-6.965s17.48 15.334 36.271 14.67c1.938-8.218 4.351-17.764 4.351-17.764L236.97 168.2c.019 0-5.928 12.165-6.118 17.593z"/>
        <path fill="#0064C8" d="M372.774 199.738c3.048-9.919-33.695-29.982-82.067-44.81-48.373-14.829-90.058-18.808-93.106-8.888-3.048 9.92 33.695 29.982 82.068 44.811 48.373 14.828 90.057 18.807 93.105 8.887z"/>
        <path fill="#173F80" d="M327.372 179.15s3.401-20.572-4.959-34.767c-.988-1.67-2.584-2.904-4.465-3.454l-6.46-1.898s-16.644-4.877-30.457-8.92l-6.46-1.897c-1.862-.551-3.876-.38-5.624.493-14.725 7.439-22.99 26.569-22.99 26.569 15.238 11.937 28.614 17.592 38.266 20.249 9.557 2.999 23.864 5.466 43.149 3.625z"/>
        <path fill="#1A1B16" d="M327.352 179.15c-19.285 1.822-33.592-.645-43.149-3.606-9.652-2.657-23.028-8.312-38.266-20.249 0 0 2.261-5.219 6.498-11.254 14.155 10.59 26.581 15.771 35.663 18.276 9.006 2.789 22.23 5.143 39.862 3.871.323 7.363-.608 12.962-.608 12.962z"/>
        <path fill="#0064C8" d="M325.224 150.55c-24.567 6.719-56.278-21.824-56.278-21.824 1.729-.873 3.743-1.044 5.624-.493l6.46 1.897c13.813 4.043 30.457 8.92 30.457 8.92l6.46 1.898c1.862.55 3.477 1.765 4.465 3.454 1.14 1.935 2.071 4.023 2.812 6.148z"/>
        <path fill="#0055A8" d="M280.192 163.911c-.133.949-.38 2.087-1.273 2.6-1.14.645-2.584.095-3.534 1.176-.684.759-.323 1.537.152 2.316.399.645.969 1.271 1.387 1.954l-9.177-4.251c-1.387-.645-2.679-1.499-3.724-2.638-.418-.455-.608-.93-.342-1.575 1.064-2.543 6.422.892 7.277-1.992.399-1.348-.779-3.075-2.261-4.574-.19-.19.038-.494.285-.38 3.325 1.727 6.669 3.227 10.013 4.536.494.19.855.588 1.007 1.082.19.626.266 1.214.19 1.746z"/>
        <path fill="#FACC73" d="M320.245 140.417s-4.769-27.177 5.947-26c10.716 1.177 3.192 17.687 3.192 17.687s6.27-5.94 9.747-2.808c3.477 3.131-2.641 13.55-14.402 16.055-3.895-4.099-4.484-4.934-4.484-4.934z"/>
        <path stroke="#F77C2D" stroke-linecap="round" stroke-linejoin="round" stroke-miterlimit="10" stroke-width="4" d="M324.348 144.231c2.166-3.568 5.719-6.452 9.424-8.046M323.609 143.016c-.912-4.934-1.273-9.982-1.045-15.011M323.61 143.017c.456-5.01 1.463-9.964 3.04-14.727"/>
        <path fill="#1A1B16" d="M316.047 134.666c-2.869 1.613 1.615 5.257 2.356 6.13.741.873 3.553 3.359 5.016 5.94.893 1.575 3.173 2.638 4.313 1.195 1.425-1.821-.285-3.985-1.748-5.294-3.116-2.828-6.194-5.504-6.631-6.263-.456-.74-1.121-2.923-3.306-1.708zM310.708 130.073c1.007.209 1.767.608 1.634 1.196s-1.046.607-2.034.399c-1.007-.209-1.71-.608-1.577-1.177.114-.588.969-.645 1.977-.418zM315.799 126.051c.038 1.025-.171 1.86-.76 1.879-.589.018-.855-.854-.893-1.879-.038-1.025.171-1.803.76-1.822.589-.019.855.797.893 1.822z"/>
        <path stroke="#1A1B16" stroke-linecap="round" stroke-linejoin="round" stroke-miterlimit="10" stroke-width="4" d="M311.469 131.137s3.021.417 5.396 5.048M315.078 127.625s.323 3.208 2.698 7.819"/>
        <path fill="#0064C8" d="M501.467 341.144c-37.335.57-105.165.323-128.535-8.388-1.52-3.226-2.812-5.238-3.857-6.49-1.71-2.05-2.698-2.05-2.698-2.05h-87.533l-51.661-32.3-23.712 15.922c-19.551 21.54-20.254 33.458-20.254 33.458s-83.942-2.467-114.437-2.6c-30.495-.133-28.31-31.598-14.535-42.852 20.197-16.491 48.811-17.061 86.146-38.771 26.372-15.334 45.752-16.53 54.359-15.714-1.862-7.325-4.674-11.576-4.75-11.69.38.285 48.488 36.418 66.291 66.194l56.658-32.964 35.511-20.648s4.237 1.518 35.017 13.133c28.348 10.684 74.461-2.069 111.663 23.399 32.699 22.375 43.662 61.792 6.327 62.361z"/>
        <path fill="#1A1B16" d="M189.147 326.475l9.842 4.744s-3.002 6.889-8.93 8.559c-5.928 1.689-6.84 1.537-6.84 1.537s3.743-13.664 5.928-14.84zM367.633 321.104l17.043-.474s-6.327 13.189-9.937 13.057c-3.61-.133-7.106-12.583-7.106-12.583zM226.233 291.328l10.108 2.828s.532-2.6-1.216-3.853c-1.748-1.252-3.667-1.727-3.667-1.727"/>
        <path stroke="#1A1B16" stroke-linecap="round" stroke-linejoin="round" stroke-miterlimit="10" stroke-width="5" d="M140.389 257.092c-15.238 8.862-31.521 15.543-46.15 20.192M193.876 241.284c-9.025-.646-27.987.968-53.485 15.789M436.124 261.551c-19.779-1.347-38.437-.816-52.649-6.167-30.78-11.615-35.017-13.133-35.017-13.133l-92.169 53.612"/>
        <path fill="#0055A8" d="M477.185 280.814l-1.615.057c-2.451-.094-14.402-.569-36.29-2.068-4.389-.304-8.721-1.48-13.433-2.885-.019-.095 0-.209.057-.303.323-.608 6.004-.076 6.878-.076h31.35c3.724 0 7.638.057 10.849 1.935 1.216.684 2.394 1.917 2.204 3.34zM206.416 284.458c-30.514-2.771-77.235-3.018-81.681-3.036.285-.418 2.622-.741 3.268-.854.988-.171 1.919-.722 2.85-1.082 4.028-1.575 8.417-2.809 12.768-2.088 1.311.209 2.584.608 3.895.721 6.156.513 11.362-5.029 17.537-5.408 4.94-.304 9.652 2.751 14.592 2.391 2.717-.19 5.244-1.404 7.904-1.879 4.009-.702 8.227.342 11.628 2.562 3.192 2.107 5.662 5.2 7.239 8.673zM302.956 324.217h-24.111l-43.149-26.968c-.513-1.233.665-1.84.646-3.093-.038-3.644-.38-3.435 2.413-2.581 5.035 1.518 10.45.911 15.428 2.638.494.171.969.361 1.444.569.475.209.931.437 1.387.665 3.99 2.087 7.486 5.237 11.761 6.718 3.496 1.214 7.296 1.233 10.906 2.049 4.218.968 8.189 3.056 11.362 5.997 1.71 1.594 3.211 3.435 4.997 4.934 1.596 1.348 3.439 2.411 4.902 3.929 1.292 1.385 2.261 3.302 2.014 5.143zM369.073 326.266c-1.71-2.049-2.698-2.049-2.698-2.049h-10.108c-1.368-1.101-2.717-2.24-4.047-3.379-1.501-1.29-3.002-2.618-4.123-4.232-1.349-1.954-2.109-4.27-3.667-6.053-2.926-3.378-8.227-4.365-10.393-8.275-1.748-3.15-.874-7.135-2.147-10.513-1.178-3.113-4.028-5.257-5.757-8.104-1.957-3.264-2.299-7.439-.893-10.969.741-1.841 1.919-3.549 2.185-5.523.627-4.725-3.135-8.274 3.857-9.394 1.957-.303 4.085.057 5.586 1.329.836.721 1.425 1.67 2.014 2.6 9.785 15.694 19.589 31.389 29.374 47.084 1.577 2.524 3.173 5.143 3.496 8.084.399 3.321-6.023 1.784-2.679 9.394z"/>
        <path fill="#F77C2D" d="M382.47 273.09l-14.782-10.874c-3.781-2.79-8.664-3.587-13.148-2.183-10.887 3.454-29.849 10.552-27.303 17.479 3.553 9.622 27.74-1.006 35.093 2.031 7.353 3.036 22.8-2.145 20.14-6.453z"/>
        <path fill="#F3EDF3" d="M373.007 297.705l-11.989 8.217-28.633-41.732-2.964-4.346 11.97-8.198 3.477 5.048 28.139 41.011z"/>
        <path fill="#C9CEEF" d="M344.868 256.693c-3.553 3.321-7.79 5.883-12.483 7.477l-2.983-4.346 11.989-8.198 3.477 5.067z"/>
        <path fill="#F3EDF3" d="M319.828 262.273c19.13 0 34.637-15.489 34.637-34.596 0-19.108-15.507-34.597-34.637-34.597-19.129 0-34.637 15.489-34.637 34.597 0 19.107 15.508 34.596 34.637 34.596z"/>
        <path stroke="#C9CEEF" stroke-linecap="round" stroke-linejoin="round" stroke-miterlimit="10" stroke-width="5" d="M345.973 204.96c5.301 6.073 8.493 14.025 8.493 22.697"/>
        <path fill="#F9AF79" d="M347.492 227.677c0 15.258-12.388 27.631-27.664 27.631-7.03 0-13.452-2.619-18.335-6.946-5.719-5.067-9.329-12.449-9.329-20.685 0-15.259 12.388-27.632 27.664-27.632 8.246 0 15.637 3.606 20.71 9.318 4.332 4.858 6.954 11.273 6.954 18.314z"/>
        <path fill="#F8934F" d="M347.491 227.676c0 15.258-12.388 27.632-27.664 27.632-7.03 0-13.452-2.619-18.335-6.946-4.332-4.877-6.954-11.292-6.954-18.332 0-15.259 12.388-27.632 27.664-27.632 7.03 0 13.452 2.619 18.335 6.946 4.332 4.877 6.954 11.292 6.954 18.332z"/>
        <path fill="#F77C2D" d="M300.316 232.251c-1.976 1.518 3.515 8.786 12.635 11.728 10.393 3.34 15.466 1.594 15.789.038.342-1.556-9.101-1.215-13.889-3.644-4.769-2.448-12.654-9.546-14.535-8.122zM336.13 223.445c-2.489-3.416-6.327-7.401-11.495-9.147-5.187-1.746-10.697-.854-14.744.379 0 0 6.783-6.262 16.093-3.093 10.222 3.492 10.146 11.861 10.146 11.861z"/>
        <path fill="#F3EDF3" d="M337.782 233.883s-11.153 6.604-21.071 3.283c-9.918-3.321-14.82-15.315-14.82-15.315s11.305-7.022 21.204-3.681c9.918 3.321 14.687 15.713 14.687 15.713z"/>
        <path stroke="#BF3028" stroke-linecap="round" stroke-linejoin="round" stroke-miterlimit="10" stroke-width="5.333" d="M309.891 214.696c4.066-1.233 9.557-2.125 14.744-.379 5.168 1.727 8.987 5.712 11.476 9.147"/>
        <path fill="#1A1B16" d="M319.621 234.395c4.019 0 7.277-3.254 7.277-7.268 0-4.014-3.258-7.269-7.277-7.269s-7.277 3.255-7.277 7.269 3.258 7.268 7.277 7.268z"/>
        <path fill="#F3EDF3" d="M314.928 225.571c1.427 0 2.584-1.155 2.584-2.581 0-1.425-1.157-2.581-2.584-2.581s-2.584 1.156-2.584 2.581c0 1.426 1.157 2.581 2.584 2.581z"/>
        <path fill="#0064C8" d="M316.428 230.334c.266-1.746 2.242-.399 3.667-2.031 1.425-1.613 3.021-3.378 4.465-2.22 1.444 1.157-1.007 5.162-4.066 5.845-3.059.664-4.218-.626-4.066-1.594z"/>
        <path stroke="#BF3028" stroke-linecap="round" stroke-linejoin="round" stroke-miterlimit="10" stroke-width="5.333" d="M305.504 233.579s6.612 9.015 21.527 8.616M329.004 242.062l1.197-.266"/>
        <path fill="#F8934F" d="M391.269 295.56c-2.318 15.523-7.201 26.606-7.201 26.606s-17.499 2.411-25.232-3.776c-7.733-6.206-3.667-11.52-3.667-11.52s-2.793 0-8.113-3.283c-5.32-3.283-3.04-7.724-3.04-7.724s-7.98.873-9.367-6.452c-.323-1.67-.399-3.208-.266-4.631 1.596-17.934 36.271-16.928 50.996-15.676 3.99.342 6.517.703 6.517.703.285 9.564.532 18.01-.627 25.753z"/>
        <path fill="#F9AF79" d="M385.378 269.105c-.285.189-.608.341-.893.455-4.522 1.936-9.443 2.999-14.364 3.094-3.078.056-6.194-.247-9.253.151-3.401.437-6.631 1.746-9.88 2.809-3.496 1.158-7.087 2.069-10.355 3.739-2.717 1.404-4.37 3.226-6.27 5.446 1.615-17.953 36.29-16.947 51.015-15.694z"/>
        <path stroke="#BF3028" stroke-linecap="round" stroke-linejoin="round" stroke-miterlimit="10" stroke-width="5" d="M378.613 268.516c-5.472-.398-17.67-.797-26.277 1.746-6.859 2.031-14.079 5.636-16.188 9.109M352.015 294.724s-3.42 1.006-7.98 1.139M362.008 306.244s-2.337.626-6.84.626"/>
        <path fill="#F77C2D" d="M391.27 295.559c-2.318 15.524-7.201 26.607-7.201 26.607s-4.18.569-9.348.436c-.019-.284-.019-.588 0-.873.171-4.251 2.641-8.027 5.187-11.443 1.026-1.385 2.071-2.771 2.641-4.384 1.444-4.099-.475-8.844 1.045-12.924.893-2.391 2.888-4.251 3.8-6.623 1.083-2.828.513-5.997.475-9.015-.019-2.353.57-6.794 3.306-7.648.475.057.741.095.741.095.266 9.584.513 18.029-.646 25.772z"/>
        <path fill="#F8934F" d="M282.777 327.879c-1.767 4.612-8.778 4.878-8.778 4.878.399 1.195.418 2.524-.342 3.909 0 .019-.019.019-.019.038-.019.057-.057.095-.076.152l-.114.171c-.076.113-.152.227-.247.341 0 .019-.019.019-.019.038-.057.076-.114.133-.152.209-.076.095-.152.19-.247.284l-.114.114-.171.171c-.038.019-.057.057-.095.076l-.057.057c-.038.038-.076.057-.114.095-.076.057-.171.133-.247.19-.171.114-.361.227-.551.322-.038.019-.076.038-.133.057-.019 0-.019.019-.038.019-.038.019-.095.038-.133.057-.095.038-.209.076-.304.114-.057.019-.095.038-.152.057-.019 0-.019 0-.038.019-.095.038-.19.057-.304.076-.038.019-.076.019-.114.038-.038.019-.076.019-.114.019-.038 0-.057.019-.095.019-.057.019-.114.019-.171.038-.057 0-.114.019-.171.038-.114.019-.228.038-.361.057-.057 0-.114.019-.171.019-.057 0-.114.019-.19.019-.057 0-.114.019-.19.019h-1.064c-.19 0-.361-.019-.551-.038-.095 0-.19-.019-.285-.019-.076 0-.152-.019-.247-.019h-.057c-.076-.019-.171-.019-.247-.038-.19-.019-.38-.057-.57-.076l-.285-.057c-.684-.114-1.387-.266-2.128-.456-.095-.019-.19-.038-.285-.076-.114-.038-.228-.057-.361-.094-.19-.057-.38-.095-.57-.152l-.399-.114c-.304-.095-.608-.171-.931-.266l-.399-.114c-.076-.019-.171-.057-.266-.076-.494-.151-.969-.303-1.482-.474-.209-.057-.399-.133-.608-.19-.513-.171-1.026-.341-1.558-.512-.209-.076-.437-.152-.646-.209-.247-.076-.475-.171-.722-.247-.342-.114-.665-.227-1.007-.341-.266-.095-.532-.171-.798-.266-.38-.133-.76-.247-1.14-.361-.836-.265-1.672-.531-2.527-.778-.152-.038-.304-.095-.456-.133-.741-.227-1.501-.417-2.242-.607-.817-.209-1.615-.398-2.413-.55-.057-.019-.133-.019-.19-.038-11.59-2.277-9.5 0-31.35 0-17.556 0-22.876-4.118-24.377-5.902.646-1.348 1.349-2.638 2.09-3.91 1.14-1.954 2.375-3.814 3.686-5.598 0-.019.019-.019.019-.038.019-.038.038-.057.076-.095 11.666-15.77 28.785-24.462 31.768-26.379 13.357 1.708 37.373 12.867 47.481 17.441 10.393 4.687 10.127 6.832 10.317 9.488.19 2.657-2.47 3.17-2.47 3.17s3.002 1.784 1.216 6.414z"/>
        <path fill="#F77C2D" d="M279.983 331.03c-1.729 1.043-3.743 1.461-4.94 1.613-.361.057-.627.076-.817.095-.855-.968-1.501-2.619-2.318-3.511-2.204-2.429-5.32-3.758-8.379-4.954-5.89-2.277-11.894-4.27-17.974-5.94-1.691-.455-6.536-.74-7.182-2.6-.988-2.789 3.591-2.77 5.092-2.675 2.47.151 4.864.911 7.22 1.708 8.645 2.941 17.081 6.509 25.213 10.665 1.216.626 2.47 1.291 3.325 2.372.703.892.969 2.145.76 3.227zM283.613 320.098c-.494.741-1.273 1.101-1.71 1.234-1.672-2.012-4.085-3.378-6.46-4.574-1.235-.626-2.508-1.214-3.762-1.822-1.178-.55-2.356-1.119-3.553-1.651-4.066-1.821-8.246-3.34-12.426-4.896-1.254-.474-10.317-3.15-9.576-4.991.209-.531.855-.721 1.406-.797 2.071-.266 4.161.228 6.156.854 8.531 2.619 16.283 7.287 23.921 11.899 1.311.797 2.603 1.575 3.914 2.372.646.399 1.33.816 1.748 1.461.19.266.285.589.342.911z"/>
        <path stroke="#BF3028" stroke-linecap="round" stroke-linejoin="round" stroke-miterlimit="10" stroke-width="5" d="M235.98 315.695s36.898 8.217 38.019 17.061M246.238 304.973s32.243 10.666 35.34 16.454"/>
        <path fill="#F77C2D" d="M273.657 336.666c0 .019-.019.019-.019.038-.019.057-.057.095-.076.152l-.114.171c-.076.113-.152.227-.247.341 0 .019-.019.019-.019.038-.057.076-.114.133-.152.209-.076.095-.152.19-.247.285l-.114.113-.171.171c-.038.019-.057.057-.095.076l-.057.057c-.038.038-.076.057-.114.095-.076.057-.171.133-.247.19-.171.114-.361.227-.551.322-.038.019-.076.038-.133.057-.019 0-.019.019-.038.019-.038.019-.095.038-.133.057-.095.038-.209.076-.304.114-.057.019-.095.038-.152.057-.019 0-.019 0-.038.019-.095.038-.19.057-.304.076-.038.019-.076.019-.114.038-.038.019-.076.019-.114.019-.038 0-.057.019-.095.019-.057.019-.114.019-.171.038-.057 0-.114.019-.171.038-.114.019-.228.038-.361.057-.057 0-.114.019-.171.019-.057 0-.114.019-.19.019-.057 0-.114.019-.19.019h-1.064c-.19 0-.361-.019-.551-.038-.095 0-.19-.019-.285-.019-.076 0-.152-.019-.247-.019h-.057c-.076-.019-.171-.019-.247-.038-.19-.019-.38-.057-.57-.076l-.285-.057c-.684-.114-1.387-.266-2.128-.456-.095-.019-.19-.038-.285-.076-.114-.037-.228-.056-.361-.094-.19-.057-.38-.095-.57-.152l-.399-.114c-.304-.095-.608-.171-.931-.266l-.399-.114c-.076-.019-.171-.057-.266-.076-.494-.151-.969-.303-1.482-.474-.209-.057-.399-.133-.608-.19-.513-.171-1.026-.341-1.558-.512-.209-.076-.437-.152-.646-.209-.247-.076-.475-.171-.722-.247-.342-.114-.665-.227-1.007-.341-.266-.095-.532-.171-.798-.266-.38-.133-.76-.247-1.14-.361-.836-.265-1.672-.531-2.527-.778-.152-.038-.304-.095-.456-.132-.741-.209-1.501-.418-2.242-.608-.38-.095-.741-.19-1.121-.265-.285-.057-.57-.133-.855-.19-.152-.038-.285-.057-.437-.095-.057-.019-.133-.019-.19-.038-11.59-2.277-9.5 0-31.35 0-17.556 0-22.876-4.118-24.377-5.902.646-1.348 1.349-2.638 2.09-3.91 1.121-1.859 2.375-3.795 3.686-5.598 0-.019.019-.019.019-.038.019-.038.038-.057.076-.095.228 0 .437.019.665.057 1.463.304 3.021 2.126 4.408 2.828 1.767.911 3.667 1.556 5.624 1.898 5.947 1.043 12.217-.684 18.05.929 1.482.418 2.907 1.025 4.427 1.367 3.724.816 7.581-.152 11.4-.342 3.629-.171 7.277.38 10.678 1.613 3.116 1.139 6.004 2.828 9.177 3.777 2.47.74 5.073.987 7.562 1.651 2.508.645 4.997 1.784 6.574 3.834.285.36.551.816.627 1.309z"/>
        <path stroke="#1A1B16" stroke-linecap="round" stroke-linejoin="round" stroke-miterlimit="10" stroke-width="5" d="M206.415 284.477l-11.514-18.446s5.491-1.443 8.531-2.088c-2.394-4.592-13.471-34.255-13.471-34.255M189.961 229.669s48.64 36.779 66.329 66.194l58.995-33.4"/>
        <path stroke="#5FAEF2" stroke-linecap="round" stroke-linejoin="round" stroke-miterlimit="10" stroke-width="5" d="M224.085 209.647c-20.862 8.351-34.124 20.022-34.124 20.022"/>
        <path stroke="#1A1B16" stroke-linecap="round" stroke-linejoin="round" stroke-miterlimit="10" stroke-width="5" d="M124.375 281.364s96.653.266 109.193 7.8c1.007.607 3.173 2.505 3.04 4.118M476.045 280.871s-12.065-.399-36.765-2.088c-12.787-.873-25.213-9.223-47.367-8.976M391.913 269.807s2.66 33.268-8.284 53.233c-2.299 4.194-5.472 11.083-8.835 10.361-4.408-.93-6.688-10.893-6.688-10.893"/>
        <path stroke="#1A1B16" stroke-linecap="round" stroke-linejoin="round" stroke-miterlimit="10" stroke-width="5" d="M198.549 332.433c-2.622 4.859-9.519 9.185-15.295 8.445 0 0 5.871-30.744 42.978-49.57 1.881-.948 3.819-1.878 5.871-2.751"/>
        <path stroke="#5FAEF2" stroke-linecap="round" stroke-linejoin="round" stroke-miterlimit="10" stroke-width="7" d="M118.675 345.699l-7.695-27.973 13.395 20.572v-15.41l4.275 16.681s2.565-19.718 7.98-23.874c0 15.486-1.995 30.004-1.995 30.004h-15.96zM443.993 347.217l-4.712-20.059 10.412 12.658s-2.052-11.425-1.805-16.112c3.629 1.271 6.783 13.038 6.783 13.038s1.862-15.353 7.277-19.51c0 15.486-1.995 30.004-1.995 30.004h-15.96v-.019z"/>
        <path fill="#4598E0" d="M370.842 361.356c-1.254 1.101-2.888 2.201-4.959 3.321-7.638 4.137-19.494 9.318-36.214 1.955-16.701-7.345-19-16.814-15.2-23.324 2.413-4.156 7.315-7.116 12.559-7.572 13.186-1.158 3.344 8.73 22.572 9.128 17.176.342 31.084 7.876 21.242 16.492zM351.538 385.458c-.076.056-.152.094-.228.132-2.679 1.538-4.845.019-6.099-2.296-.855-1.575-.912-3.587-.19-5.01.304-.607.76-1.12 1.349-1.442 1.957-1.044 4.788.284 6.08 2.448 1.254 2.144 1.539 4.611-.912 6.168zM368.238 382.46c-.114.075-.228.151-.342.208-3.268 1.936-6.213.038-8.075-2.884-1.14-1.803-1.482-4.043-.95-5.751.304-.967.874-1.765 1.748-2.239 2.356-1.271 6.08.342 7.961 3.018 1.9 2.656 2.546 5.712-.342 7.648zM385.339 377.62c-.228.247-.475.455-.722.626-2.337 1.594-5.719.114-8.588-2.391-2.223-1.936-3.648-4.593-3.61-6.566.019-.759.266-1.424.76-1.898 1.767-1.67 6.194-.531 9.253 1.936 3.154 2.562 5.225 5.769 2.907 8.293zM402.249 368.321c-.285.531-.627.968-1.045 1.31-2.584 2.258-7.41 1.347-11.932-.854-4.161-2.012-7.239-5.428-7.201-8.009 0-.531.152-1.044.456-1.48 1.691-2.486 7.828-2.373 12.711-.266 5.092 2.22 9.063 5.523 7.011 9.299z"/>
        <path fill="#5FAEF2" d="M370.842 361.356c-1.254 1.101-2.888 2.202-4.959 3.321-7.638 4.137-19.494 9.318-36.214 1.955-16.701-7.344-19-16.814-15.2-23.324 2.622-2.391 6.156-3.966 9.88-4.289 13.186-1.157 3.344 8.73 22.572 9.129 14.953.303 27.436 6.034 23.921 13.208zM351.538 385.458c-.076.057-.152.095-.228.133-2.679 1.537-4.845.019-6.099-2.297-.855-1.575-.912-3.586-.19-5.01 1.957-.949 4.712.361 5.985 2.486.893 1.556 1.292 3.264.532 4.688zM368.238 382.46c-.114.076-.228.151-.342.208-3.268 1.936-6.213.038-8.075-2.884-1.14-1.803-1.482-4.042-.95-5.75 2.356-1.215 6.061.398 7.923 3.036 1.273 1.784 1.976 3.72 1.444 5.39zM384.617 378.246c-2.337 1.594-5.719.114-8.588-2.391-2.223-1.936-3.648-4.593-3.61-6.566 2.09-.779 5.719.36 8.341 2.486 2.451 1.973 4.237 4.346 3.857 6.471zM401.204 369.631c-2.584 2.258-7.41 1.347-11.932-.854-4.161-2.012-7.239-5.428-7.201-8.009 2.451-1.48 7.524-1.12 11.685.664 4.598 1.993 8.284 4.896 7.448 8.199z"/>
        <path fill="#fff" d="M113.772 211.489c1.091 0 1.976-.884 1.976-1.974 0-1.09-.885-1.974-1.976-1.974s-1.976.884-1.976 1.974c0 1.09.885 1.974 1.976 1.974zM503.901 237.147c1.091 0 1.976-.884 1.976-1.974 0-1.09-.885-1.974-1.976-1.974s-1.976.884-1.976 1.974c0 1.09.885 1.974 1.976 1.974zM368.411 141.707c1.091 0 1.976-.884 1.976-1.974 0-1.09-.885-1.974-1.976-1.974-1.092 0-1.976.884-1.976 1.974 0 1.09.884 1.974 1.976 1.974zM171.609 83.16c1.091 0 1.976-.883 1.976-1.973s-.885-1.974-1.976-1.974c-1.092 0-1.976.884-1.976 1.974 0 1.09.884 1.973 1.976 1.973z"/>
        <path stroke="#fff" stroke-miterlimit="10" stroke-width="8" d="M476.045 203.195c1.742 0 3.154-1.41 3.154-3.15s-1.412-3.15-3.154-3.15-3.154 1.41-3.154 3.15 1.412 3.15 3.154 3.15zM66.197 194.2c1.742 0 3.154-1.411 3.154-3.151 0-1.739-1.412-3.15-3.154-3.15s-3.154 1.411-3.154 3.15c0 1.74 1.412 3.151 3.154 3.151zM397.787 122.065c1.742 0 3.154-1.41 3.154-3.15s-1.412-3.15-3.154-3.15-3.154 1.41-3.154 3.15 1.412 3.15 3.154 3.15z"/>
    </g>
</svg>
