<svg width="223" height="197" viewBox="0 0 223 197" fill="none" xmlns="http://www.w3.org/2000/svg">
<g opacity="0.5" clip-path="url(#clip0)">
<path fill-rule="evenodd" clip-rule="evenodd" d="M183.691 83.7942C181.801 83.2196 174.139 80.5553 174.874 84.6301C177.393 86.8764 178.233 89.175 180.332 91.4214C181.172 92.3617 183.218 93.0409 184.163 94.1379L187.837 99.6232C189.989 98.7873 192.141 97.8993 194.292 97.0634C194.292 96.6977 194.24 96.2798 194.24 95.9141C193.61 91.2124 192.928 86.5108 192.298 81.8613C189.359 82.4882 186.525 83.1673 183.691 83.7942Z" fill="#EA7585"/>
<path fill-rule="evenodd" clip-rule="evenodd" d="M142.281 97.7431C142.281 97.7431 100.505 89.1233 92.8949 84.3172C85.2849 79.511 80.0366 71.3092 63.8718 48.0621C63.8718 48.0621 63.242 46.965 61.4051 47.5919C59.5682 48.2711 54.8448 51.5622 54.3724 52.6593C53.9001 53.7563 53.7426 54.7489 54.3724 55.8982C54.9497 57.0475 76.7826 94.1385 81.4536 99.3103C86.1246 104.482 122.705 122.453 129.895 126.632C137.033 130.759 142.281 97.7431 142.281 97.7431Z" fill="#E84A5B"/>
<path fill-rule="evenodd" clip-rule="evenodd" d="M59.3583 48.6367C57.259 49.8905 54.6873 51.8756 54.3724 52.6593C53.9001 53.7563 53.7426 54.7489 54.3724 55.8982C54.9497 57.0475 76.7826 94.1384 81.4536 99.3103C85.4423 103.751 113.101 117.647 125.329 124.125C125.644 117.96 125.539 113.05 124.647 112.475C121.918 110.855 87.909 99.8327 85.3374 97.5863C82.8182 95.34 64.2917 66.0329 60.303 59.0326C56.2618 51.9801 59.3583 48.6367 59.3583 48.6367Z" fill="#D8364B"/>
<path fill-rule="evenodd" clip-rule="evenodd" d="M185.37 140.58L191.668 139.169C191.668 139.169 207.518 154.371 209.092 155.677C210.667 157.036 216.755 153.117 216.755 153.117L208.515 135.408L193.452 107.981L186.84 119.997L185.37 140.58Z" fill="#D8364B"/>
<path fill-rule="evenodd" clip-rule="evenodd" d="M133.202 54.0169C135.878 46.5987 143.961 27.2696 155.874 17.5006C155.874 17.5006 158.656 15.0975 162.907 17.8663C167.158 20.6351 172.459 23.5605 176.395 26.2248C180.332 28.8891 180.227 32.546 180.594 36.5685C180.961 40.591 181.329 47.6435 181.539 52.7109C181.749 57.7783 180.856 58.4574 179.124 59.45C177.445 60.4425 153.145 67.5473 135.354 59.7634C131.89 58.3529 132.362 56.3678 133.202 54.0169Z" fill="#28256C"/>
<path fill-rule="evenodd" clip-rule="evenodd" d="M174.821 25.2842C175.346 25.6499 175.871 25.9633 176.395 26.329C180.332 28.9933 180.227 32.6501 180.594 36.6727C180.856 39.7549 181.171 44.6655 181.381 49.106C177.76 49.1582 171.357 49.0015 169.468 47.8C167.158 46.3372 159.863 39.5459 159.863 39.5459C159.863 39.5459 173.824 34.9487 174.663 29.6202C174.821 28.1052 174.873 26.6424 174.821 25.2842Z" fill="#221758"/>
<path fill-rule="evenodd" clip-rule="evenodd" d="M138.765 41.114C140.707 37.1437 143.121 32.8599 145.85 28.8896C153.67 30.7703 169.572 35.472 178.442 44.0395C190.513 55.6369 150.993 47.6441 148.999 46.1813C147.739 45.1888 142.124 43.2036 138.765 41.114Z" fill="#F9B532"/>
<path fill-rule="evenodd" clip-rule="evenodd" d="M167.211 36.3594C171.409 38.449 175.346 40.9566 178.494 43.9343C181.171 46.4941 181.329 48.1136 179.912 49.0539C176.238 49.0539 171.147 48.7927 169.415 47.7479C167.106 46.2851 159.811 39.4938 159.811 39.4938C159.811 39.4938 163.484 38.2923 167.211 36.3594Z" fill="#F0843E"/>
<path fill-rule="evenodd" clip-rule="evenodd" d="M154.405 70.3685C133.622 64.4131 117.824 51.8231 119.084 42.1585C120.344 32.5462 138.24 29.5685 159.024 35.5239C179.807 41.4794 195.604 54.0694 194.345 63.734C193.085 73.3463 175.241 76.324 154.405 70.3685Z" fill="#28256C"/>
<path fill-rule="evenodd" clip-rule="evenodd" d="M154.404 70.3685C142.228 66.9207 131.732 61.1219 125.434 55.0098C124.646 52.0843 124.594 48.2707 127.743 44.9795C133.988 38.4494 163.589 39.651 177.864 50.1514C192.087 60.5995 184.844 72.197 184.792 72.3015C177.339 74.2866 166.37 73.8164 154.404 70.3685Z" fill="#211655"/>
<path fill-rule="evenodd" clip-rule="evenodd" d="M119.136 44.6656C119.031 43.8297 118.979 43.0461 119.084 42.2103C120.343 32.598 138.24 29.6202 159.023 35.5757C179.806 41.5311 195.604 54.1212 194.344 63.7857C194.187 64.8305 193.872 65.8231 193.347 66.7112C195.919 60.6513 189.148 53.0764 180.279 47.1209C171.409 41.1655 151.99 33.9562 135.511 35.3667C119.451 36.725 119.136 44.2999 119.136 44.6656Z" fill="#4A4193"/>
<path fill-rule="evenodd" clip-rule="evenodd" d="M159.811 106.78L158.026 107.041H156.924H155.822L154.038 106.78L143.384 96.75L120.291 107.982L122.705 148.782C123.545 161.529 120.606 189.582 122.023 195.015C122.128 195.537 122.6 196.269 123.125 197H190.776C191.3 196.269 191.773 195.537 191.878 195.015C193.295 189.582 190.356 161.529 191.195 148.782L193.61 107.982L170.517 96.75L159.811 106.78Z" fill="#E84A5B"/>
<path fill-rule="evenodd" clip-rule="evenodd" d="M120.396 110.751L122.652 148.73C122.705 149.774 122.757 150.976 122.81 152.23C122.81 152.23 127.376 114.094 124.647 112.475C124.122 112.161 122.547 111.586 120.396 110.751ZM171.829 197H190.67C191.195 196.269 191.667 195.537 191.772 195.015C193.189 189.582 190.25 161.529 191.09 148.782L193.504 107.982L171.934 97.4814L171.356 99.0487L172.039 100.459C172.039 100.459 172.931 99.4144 173.456 99.8323C173.981 100.25 183.952 109.183 183.585 113.154C183.218 117.124 181.381 142.617 180.856 166.074C180.593 178.977 175.975 189.791 171.829 197Z" fill="#D8364B"/>
<path fill-rule="evenodd" clip-rule="evenodd" d="M169.31 94.1898C160.912 90.5852 152.83 90.5852 144.433 94.1898L145.902 98.0556H167.84L169.31 94.1898Z" fill="#F2BBC9"/>
<path fill-rule="evenodd" clip-rule="evenodd" d="M159.81 106.781L158.026 107.042H155.769L153.985 106.781L146.847 100.042L145.798 100.355L143.488 103.333C143.488 103.333 148.684 115.348 148.999 115.766C149.314 116.184 149.839 116.393 150.626 115.453C151.413 114.512 153.88 111.43 153.88 111.43C153.88 111.43 154.615 110.699 154.93 111.535C155.244 112.37 158.971 110.072 158.971 110.072L159.233 110.908C159.233 110.908 159.81 110.229 160.335 111.117C160.913 112.005 163.589 115.766 163.799 115.923C164.009 116.08 164.796 116.654 165.374 115.453C165.899 114.356 172.091 100.512 173.194 98.1088L170.465 96.8027L159.81 106.781Z" fill="#D8364B"/>
<path fill-rule="evenodd" clip-rule="evenodd" d="M159.811 106.781L158.026 107.042H155.77L153.985 106.781L153.251 106.102L151.729 108.661C151.729 108.661 155.087 109.758 155.087 112.684C155.087 123.289 155.087 124.752 155.087 135.356C155.087 136.349 155.875 137.133 156.872 137.133C157.869 137.133 158.656 136.349 158.656 135.356C158.656 124.752 158.656 123.289 158.656 112.684C158.656 109.758 162.015 108.661 162.015 108.661L160.493 106.102L159.811 106.781Z" fill="#D8364B"/>
<path fill-rule="evenodd" clip-rule="evenodd" d="M156.872 76.6367C162.068 76.6367 166.319 80.8682 166.319 86.0401V98.4734C166.319 103.645 162.068 107.877 156.872 107.877C151.676 107.877 147.425 103.645 147.425 98.4734V86.0401C147.425 80.8682 151.676 76.6367 156.872 76.6367Z" fill="#EA7585"/>
<path fill-rule="evenodd" clip-rule="evenodd" d="M154.667 105.892L155.769 105.735C155.769 105.735 155.979 105.944 156.031 106.362C156.084 106.728 156.084 107.877 156.084 107.877C155.664 108.034 153.565 108.452 153.617 108.138C153.617 108.086 154.667 105.892 154.667 105.892Z" fill="#D8364B"/>
<path fill-rule="evenodd" clip-rule="evenodd" d="M159.075 105.892L157.973 105.735C157.973 105.735 157.763 105.944 157.711 106.362C157.658 106.728 157.658 107.877 157.658 107.877C158.078 108.191 160.177 108.452 160.125 108.138C160.125 108.086 159.075 105.892 159.075 105.892Z" fill="#D8364B"/>
<path fill-rule="evenodd" clip-rule="evenodd" d="M169.31 94.1902C169.415 94.2947 170.78 96.6455 171.462 97.7425C171.462 97.7425 172.092 98.6829 171.619 100.198C171.147 101.765 165.112 114.46 165.112 114.46C165.112 114.46 164.692 115.139 164.009 114.46C163.327 113.78 158.026 105.683 158.026 105.683L168.051 95.1827C168.47 94.6081 169.153 94.0857 169.31 94.1902Z" fill="white"/>
<path fill-rule="evenodd" clip-rule="evenodd" d="M144.433 94.19C144.328 94.2422 142.964 96.6453 142.281 97.7424C142.281 97.7424 141.652 98.6827 142.124 100.198C142.596 101.765 148.632 114.459 148.632 114.459C148.632 114.459 149.052 115.139 149.734 114.459C150.416 113.78 155.717 105.683 155.717 105.683L145.693 95.1826C145.063 94.399 144.538 94.1378 144.433 94.19Z" fill="white"/>
<path fill-rule="evenodd" clip-rule="evenodd" d="M136.402 65.9806C136.245 65.9806 136.14 66.0328 135.983 66.0328C133.411 66.5552 131.417 68.8538 131.364 71.5703C131.312 74.757 133.831 77.4213 137.085 77.4735C140.286 77.5258 142.963 75.0182 143.015 71.7793C143.068 69.8986 142.228 68.2269 140.863 67.1821C141.021 68.906 140.759 70.9957 138.554 71.2046L138.607 67.8612C138.554 66.5552 137.295 65.9283 136.402 65.9806Z" fill="#EA7585"/>
<path fill-rule="evenodd" clip-rule="evenodd" d="M178.336 65.9806C178.493 65.9806 178.598 66.0328 178.756 66.0328C181.327 66.5552 183.322 68.8538 183.374 71.5703C183.427 74.757 180.855 77.4213 177.654 77.4735C174.452 77.5258 171.776 75.0182 171.723 71.7793C171.671 69.8986 172.51 68.2269 173.875 67.1821C173.717 68.906 173.98 70.9957 176.184 71.2046L176.132 67.8612C176.132 66.5552 177.391 65.9283 178.336 65.9806Z" fill="#EA7585"/>
<path fill-rule="evenodd" clip-rule="evenodd" d="M138.922 50.8827C138.134 53.0245 137.452 54.4873 137.452 56.8903V74.9134C137.452 85.8317 146.427 94.7127 157.343 94.7127C168.312 94.7127 177.234 85.7795 177.234 74.9134V56.8903C177.234 54.4873 177.024 53.0245 176.237 50.8827C172.931 49.9423 165.793 49.3154 157.553 49.3154C149.366 49.3154 142.228 49.9423 138.922 50.8827Z" fill="#F3C6D4"/>
<path fill-rule="evenodd" clip-rule="evenodd" d="M150.889 93.6156C152.936 94.2948 155.087 94.7127 157.397 94.7127C168.366 94.7127 177.288 85.7795 177.288 74.9134V56.8903C177.288 54.4873 177.078 53.0245 176.29 50.8827C172.984 49.9423 165.846 49.3154 157.607 49.3154C150.784 49.3154 144.748 49.7334 140.969 50.4125H140.917H140.864L138.87 54.3828L140.969 57.6217C140.969 57.6217 142.859 54.3828 148.317 54.3828C153.828 54.3828 161.228 54.3828 164.482 54.3828C167.683 54.3828 170.097 55.7933 170.097 61.9577C170.097 68.1221 170.097 74.6522 170.097 79.4584C170.15 84.2645 167.053 96.4889 150.889 93.6156Z" fill="#F2ADBB"/>
<path fill-rule="evenodd" clip-rule="evenodd" d="M159.81 75.9062C159.915 78.7272 157.711 81.1302 154.877 81.2347C152.043 81.3392 149.628 79.1451 149.523 76.3241C149.523 75.8539 149.891 75.436 150.363 75.3838L158.865 75.0703C159.338 75.0703 159.758 75.436 159.81 75.9062Z" fill="#170839"/>
<path fill-rule="evenodd" clip-rule="evenodd" d="M158.025 79.9813C157.186 80.7127 156.083 81.1828 154.824 81.2351C153.827 81.2873 152.882 81.0261 152.095 80.5559C152.462 79.5111 153.564 78.6753 154.981 78.5708C156.293 78.4663 157.448 79.041 158.025 79.9813Z" fill="#E84A5B"/>
<path fill-rule="evenodd" clip-rule="evenodd" d="M150.258 75.4365L158.235 75.123C158.393 76.0111 158.025 76.8992 157.448 77.1082C156.713 77.3694 150.94 77.4739 150.52 77.0037C150.31 76.7947 150.258 76.0634 150.258 75.4365Z" fill="white"/>
<path fill-rule="evenodd" clip-rule="evenodd" d="M165.741 71.5173C164.271 71.4651 163.117 72.6144 163.064 74.0771C163.012 75.5399 164.166 76.6892 165.636 76.7414C167.105 76.7936 168.26 75.6444 168.313 74.1816C168.313 72.7189 167.158 71.5173 165.741 71.5173Z" fill="#EA7585"/>
<path fill-rule="evenodd" clip-rule="evenodd" d="M143.961 71.0994C142.491 71.0471 141.336 72.1964 141.284 73.6592C141.231 75.1219 142.386 76.2712 143.856 76.3234C145.325 76.3757 146.48 75.2264 146.532 73.7636C146.585 72.3009 145.43 71.0994 143.961 71.0994Z" fill="#EA7585"/>
<path fill-rule="evenodd" clip-rule="evenodd" d="M142.858 63.5775C142.491 63.7342 142.071 63.6298 141.914 63.2641C141.756 62.8984 141.861 62.4805 142.229 62.3237C144.118 61.3834 146.585 61.2267 148.422 62.3237C148.736 62.5327 148.841 62.9506 148.684 63.2641C148.474 63.5775 148.054 63.682 147.739 63.5253C146.27 62.6894 144.38 62.8461 142.858 63.5775Z" fill="#170839"/>
<path fill-rule="evenodd" clip-rule="evenodd" d="M166.318 56.8377C164.796 56.1063 162.959 55.8973 161.437 56.7854C161.123 56.9944 160.65 56.8899 160.493 56.5242C160.283 56.2108 160.388 55.7406 160.755 55.5839C162.592 54.4868 165.111 54.5913 166.948 55.5839C167.316 55.7406 167.42 56.1586 167.263 56.5242C167.106 56.8377 166.686 56.9944 166.318 56.8377Z" fill="#170839"/>
<path fill-rule="evenodd" clip-rule="evenodd" d="M147.162 68.3307C147.162 67.8606 146.952 67.3904 146.637 67.0247C146.27 66.659 145.85 66.5023 145.325 66.5023C144.853 66.5023 144.381 66.7113 144.013 67.0247C143.646 67.3904 143.488 67.8083 143.488 68.3307C143.488 68.6964 143.173 69.0621 142.806 69.0621C142.439 69.0621 142.071 68.7486 142.071 68.3307C142.071 67.4426 142.439 66.659 143.016 66.0321C143.646 65.4052 144.433 65.0918 145.325 65.0918C146.217 65.0918 147.005 65.4575 147.634 66.0321C148.264 66.659 148.579 67.4426 148.579 68.3307C148.579 68.6964 148.264 69.0621 147.897 69.0621C147.477 69.0098 147.162 68.6964 147.162 68.3307Z" fill="#170839"/>
<path fill-rule="evenodd" clip-rule="evenodd" d="M137.453 71.5694C137.453 71.5694 140.445 70.3679 140.445 65.3005C140.445 60.2332 140.445 63.1064 140.445 60.4944C140.445 57.8301 142.282 53.2329 147.687 53.2329C154.143 53.2329 160.598 53.2329 167.106 53.2329C172.512 53.2329 174.349 57.8823 174.349 60.4944C174.349 63.1587 174.349 57.6211 174.349 62.6885C174.349 67.7559 177.34 68.6439 177.34 68.6439C177.34 65.9274 178.547 66.0319 178.547 66.0319C178.547 66.0319 178.547 60.6511 178.547 55.9494C178.547 54.4345 178.39 52.815 178.023 51.091C177.393 49.6283 168.418 48.5312 157.397 48.5312C146.375 48.5312 137.401 49.6805 136.771 51.091C136.404 52.815 136.246 54.4345 136.246 55.9494C136.246 60.6511 136.246 66.0319 136.246 66.0319C136.246 66.0319 137.453 67.5469 137.453 71.5694Z" fill="#170839"/>
<path fill-rule="evenodd" clip-rule="evenodd" d="M163.642 63.5771C164.692 63.5771 165.584 64.4652 165.584 65.5101V67.3907C165.584 68.4355 164.692 69.3236 163.642 69.3236C162.592 69.3236 161.7 68.4355 161.7 67.3907V65.5101C161.753 64.413 162.592 63.5771 163.642 63.5771Z" fill="#170839"/>
<path fill-rule="evenodd" clip-rule="evenodd" d="M157.973 60.4425C160.072 58.3529 162.906 57.2559 165.688 57.2559C168.47 57.2559 171.251 58.3007 173.403 60.4425C175.502 62.5322 176.604 65.3532 176.604 68.1219C176.604 70.8907 175.555 73.6595 173.403 75.8013C171.304 77.891 168.47 78.988 165.688 78.988C162.906 78.988 160.125 77.9432 157.973 75.8013C155.874 73.7117 154.771 70.8907 154.771 68.1219C154.824 65.3532 155.874 62.5844 157.973 60.4425ZM165.688 58.8231C163.326 58.8231 160.912 59.7112 159.075 61.5396C157.238 63.368 156.346 65.7189 156.346 68.1219C156.346 70.4728 157.238 72.8759 159.075 74.7043C160.912 76.5327 163.274 77.4208 165.688 77.4208C168.05 77.4208 170.464 76.5327 172.301 74.7043C174.138 72.8759 175.03 70.525 175.03 68.1219C175.03 65.7711 174.138 63.368 172.301 61.5396C170.464 59.7634 168.05 58.8231 165.688 58.8231Z" fill="#170839"/>
<path fill-rule="evenodd" clip-rule="evenodd" d="M172.301 75.7491C171.986 75.4357 171.986 74.9655 172.301 74.6521C172.616 74.3386 173.088 74.3386 173.403 74.6521L175.974 77.2119C176.289 77.5253 176.289 77.9955 175.974 78.3089C175.66 78.6224 175.187 78.6224 174.872 78.3089L172.301 75.7491Z" fill="#170839"/>
<path fill-rule="evenodd" clip-rule="evenodd" d="M174.977 79.51C174.347 78.8831 174.347 77.9428 174.977 77.3159C175.607 76.689 176.552 76.689 177.182 77.3159L189.043 89.1223C189.672 89.7492 189.672 90.6895 189.043 91.3164C188.413 91.9433 187.468 91.9433 186.838 91.3164L174.977 79.51Z" fill="#170839"/>
<path fill-rule="evenodd" clip-rule="evenodd" d="M194.134 95.8615C193.137 96.0705 186.734 99.1527 186.734 99.1527C186.734 99.1527 186.367 99.3617 186.577 100.093C186.786 100.772 203.633 145.229 206.887 152.595C211.506 163.095 226.778 155.364 222.107 141.102C219.746 133.893 195.971 97.0631 195.604 96.5407C195.341 96.0183 194.816 95.6526 194.134 95.8615Z" fill="#E84A5B"/>
<path fill-rule="evenodd" clip-rule="evenodd" d="M151.991 69.8981C151.519 70.5772 150.626 71.7787 150.574 72.2489C150.469 72.8758 151.886 73.2415 152.883 72.9803C153.565 72.7713 153.46 71.2563 153.251 70.2638C153.041 69.1667 152.726 68.8533 151.991 69.8981Z" fill="#F8DDE4"/>
<path fill-rule="evenodd" clip-rule="evenodd" d="M104.179 0H4.14615C1.88939 0 0 1.88067 0 4.12702V67.6518C0 69.9504 1.88939 71.7788 4.14615 71.7788H104.179C106.488 71.7788 108.325 69.8982 108.325 67.6518V4.12702C108.325 1.88067 106.435 0 104.179 0Z" fill="#F2E7E9"/>
<path fill-rule="evenodd" clip-rule="evenodd" d="M88.5908 71.7785H104.178C106.487 71.7785 108.324 69.8978 108.324 67.6514V5.85059H88.5908V71.7785Z" fill="#FAE2E8"/>
<path fill-rule="evenodd" clip-rule="evenodd" d="M62.9273 20.4785H81.2438C82.0836 20.4785 82.7658 21.1576 82.7658 21.9935V29.7774C82.7658 30.6132 82.0836 31.2924 81.2438 31.2924H62.9273C62.0876 31.2924 61.4053 30.6132 61.4053 29.7774V22.0457C61.4053 21.1576 62.0876 20.4785 62.9273 20.4785Z" fill="white"/>
<path fill-rule="evenodd" clip-rule="evenodd" d="M104.179 0H4.14615C1.88939 0 0 1.88067 0 4.12702V8.77645H108.325V4.12702C108.325 1.88067 106.435 0 104.179 0Z" fill="#F5C5D4"/>
<path fill-rule="evenodd" clip-rule="evenodd" d="M103.654 5.69407C104.389 5.69407 104.966 5.11942 104.966 4.38805C104.966 3.65668 104.389 3.08203 103.654 3.08203C102.919 3.08203 102.342 3.65668 102.342 4.38805C102.342 5.11942 102.919 5.69407 103.654 5.69407Z" fill="white"/>
<path fill-rule="evenodd" clip-rule="evenodd" d="M98.8259 5.69407C99.5606 5.69407 100.138 5.11942 100.138 4.38805C100.138 3.65668 99.5606 3.08203 98.8259 3.08203C98.0911 3.08203 97.5138 3.65668 97.5138 4.38805C97.4613 5.11942 98.0911 5.69407 98.8259 5.69407Z" fill="white"/>
<path fill-rule="evenodd" clip-rule="evenodd" d="M93.9449 5.69407C94.6796 5.69407 95.257 5.11942 95.257 4.38805C95.257 3.65668 94.6796 3.08203 93.9449 3.08203C93.2101 3.08203 92.6328 3.65668 92.6328 4.38805C92.6328 5.11942 93.2101 5.69407 93.9449 5.69407Z" fill="white"/>
<path fill-rule="evenodd" clip-rule="evenodd" d="M104.231 25.7549H92.6845C92.3171 25.7549 92.0547 26.0161 92.0547 26.3818C92.0547 26.7475 92.3171 27.0087 92.6845 27.0087H104.231C104.598 27.0087 104.861 26.7475 104.861 26.3818C104.861 26.0161 104.546 25.7549 104.231 25.7549Z" fill="white"/>
<path fill-rule="evenodd" clip-rule="evenodd" d="M104.231 28.4717H97.6708C97.3034 28.4717 97.041 28.7329 97.041 29.0986C97.041 29.4643 97.3034 29.7255 97.6708 29.7255H104.231C104.599 29.7255 104.861 29.4643 104.861 29.0986C104.861 28.7851 104.546 28.4717 104.231 28.4717Z" fill="white"/>
<path fill-rule="evenodd" clip-rule="evenodd" d="M104.231 33.9561H92.6845C92.3171 33.9561 92.0547 34.2173 92.0547 34.5829C92.0547 34.9486 92.3171 35.2098 92.6845 35.2098H104.231C104.598 35.2098 104.861 34.9486 104.861 34.5829C104.861 34.2695 104.546 33.9561 104.231 33.9561Z" fill="white"/>
<path fill-rule="evenodd" clip-rule="evenodd" d="M104.231 36.7256H97.6708C97.3034 36.7256 97.041 36.9868 97.041 37.3525C97.041 37.7182 97.3034 37.9794 97.6708 37.9794H104.231C104.599 37.9794 104.861 37.7182 104.861 37.3525C104.861 36.9868 104.546 36.7256 104.231 36.7256Z" fill="white"/>
<path fill-rule="evenodd" clip-rule="evenodd" d="M95.4661 36.7256H94.5214C94.154 36.7256 93.8916 36.9868 93.8916 37.3525C93.8916 37.7182 94.154 37.9794 94.5214 37.9794H95.4661C95.8335 37.9794 96.0959 37.7182 96.0959 37.3525C96.0959 36.9868 95.781 36.7256 95.4661 36.7256Z" fill="white"/>
<path fill-rule="evenodd" clip-rule="evenodd" d="M104.231 44.2479H98.3525C97.9851 44.2479 97.7227 43.9867 97.7227 43.621C97.7227 43.2553 97.9851 42.9941 98.3525 42.9941H104.231C104.598 42.9941 104.86 43.2553 104.86 43.621C104.86 43.9345 104.545 44.2479 104.231 44.2479Z" fill="white"/>
<path fill-rule="evenodd" clip-rule="evenodd" d="M104.23 41.5321H96.0956C95.7282 41.5321 95.4658 41.2709 95.4658 40.9052C95.4658 40.5395 95.7282 40.2783 96.0956 40.2783H104.23C104.598 40.2783 104.86 40.5395 104.86 40.9052C104.86 41.2187 104.545 41.5321 104.23 41.5321Z" fill="white"/>
<path fill-rule="evenodd" clip-rule="evenodd" d="M93.6826 41.5321H92.2655C91.8982 41.5321 91.6357 41.2709 91.6357 40.9052C91.6357 40.5395 91.8982 40.2783 92.2655 40.2783H93.6826C94.05 40.2783 94.3124 40.5395 94.3124 40.9052C94.3124 41.2187 94.05 41.5321 93.6826 41.5321Z" fill="white"/>
<path fill-rule="evenodd" clip-rule="evenodd" d="M104.231 47.0692H100.348C99.9802 47.0692 99.7178 46.808 99.7178 46.4423C99.7178 46.0766 99.9802 45.8154 100.348 45.8154H104.231C104.599 45.8154 104.861 46.0766 104.861 46.4423C104.861 46.808 104.546 47.0692 104.231 47.0692Z" fill="white"/>
<path fill-rule="evenodd" clip-rule="evenodd" d="M104.231 49.8378H95.6239C95.2566 49.8378 94.9941 49.5766 94.9941 49.2109C94.9941 48.8452 95.2566 48.584 95.6239 48.584H104.231C104.599 48.584 104.861 48.8452 104.861 49.2109C104.861 49.5243 104.546 49.8378 104.231 49.8378Z" fill="white"/>
<path fill-rule="evenodd" clip-rule="evenodd" d="M81.5587 11.6494H30.6502C29.9679 11.6494 29.3906 12.2241 29.3906 12.9032C29.3906 13.5823 29.9679 14.157 30.6502 14.157H81.5587C82.2409 14.157 82.8183 13.5823 82.8183 12.9032C82.8183 12.2241 82.2409 11.6494 81.5587 11.6494Z" fill="white"/>
<path fill-rule="evenodd" clip-rule="evenodd" d="M25.0348 11.6494H7.87287C7.19059 11.6494 6.61328 12.2241 6.61328 12.9032C6.61328 13.5823 7.19059 14.157 7.87287 14.157H25.0348C25.7171 14.157 26.2944 13.5823 26.2944 12.9032C26.2944 12.2241 25.7171 11.6494 25.0348 11.6494Z" fill="white"/>
<path fill-rule="evenodd" clip-rule="evenodd" d="M104.073 22.2549H94.4689C94.049 22.2549 93.6816 21.8892 93.6816 21.4713V14.2621C93.6816 13.8441 94.049 13.4785 94.4689 13.4785H94.8363V13.0605C94.8363 12.956 94.9412 12.8516 95.0462 12.8516H97.9328C98.0377 12.8516 98.1427 12.956 98.1427 13.0605V13.4262H104.021C104.441 13.4262 104.808 13.7919 104.808 14.2098V21.4713C104.861 21.9415 104.493 22.2549 104.073 22.2549Z" fill="#F9B532"/>
<path fill-rule="evenodd" clip-rule="evenodd" d="M97.3564 22.2541H103.392C103.759 22.2541 104.022 21.9407 104.022 21.6272V15.4628C104.022 15.0971 103.707 14.8359 103.392 14.8359H97.3564C96.989 14.8359 96.7266 15.1494 96.7266 15.4628V21.6272C96.7266 21.9929 96.989 22.2541 97.3564 22.2541Z" fill="white"/>
<path fill-rule="evenodd" clip-rule="evenodd" d="M103.077 22.254H94.2071C93.7872 22.254 93.2624 21.8883 93.0524 21.4704L90.2708 15.2538C90.0609 14.8358 90.2708 14.4701 90.6907 14.4701H91.163L91.0056 14.1045C90.9531 13.9477 91.0056 13.791 91.163 13.791H94.417C94.5744 13.791 94.7844 13.8955 94.8369 14.1045L94.9943 14.4701H99.5603C99.9802 14.4701 100.505 14.8358 100.715 15.2538L103.497 21.4704C103.759 21.9406 103.549 22.254 103.077 22.254Z" fill="#FCC749"/>
<path fill-rule="evenodd" clip-rule="evenodd" d="M45.3458 19.0157C45.6082 19.1724 45.6607 19.4859 45.5557 19.6949C45.4507 19.9038 45.0834 20.0083 44.8734 19.9038C44.0862 19.4336 43.4564 18.8068 42.984 18.0231C42.5642 17.2918 42.3018 16.4037 42.3018 15.4633C42.3018 14.0528 42.8791 12.7468 43.8238 11.8587C44.7685 10.9184 46.028 10.3438 47.4451 10.3438C48.8621 10.3438 50.1742 10.9184 51.0664 11.8587C52.0111 12.7991 52.5884 14.0528 52.5884 15.4633C52.5884 15.7246 52.3785 15.9858 52.0636 15.9858C51.8012 15.9858 51.5388 15.7768 51.5388 15.4633C51.5388 14.3141 51.0664 13.3215 50.3317 12.5901C49.5969 11.8587 48.5472 11.3886 47.4451 11.3886C46.2905 11.3886 45.2933 11.8587 44.5585 12.5901C43.8238 13.3215 43.3514 14.3663 43.3514 15.4633C43.3514 16.1947 43.5613 16.9261 43.8762 17.5007C44.1911 18.1276 44.716 18.65 45.3458 19.0157Z" fill="#F3C6D4"/>
<path fill-rule="evenodd" clip-rule="evenodd" d="M53.4278 9.97826C53.2179 9.7693 53.2704 9.45585 53.4803 9.24689C53.6902 9.03793 54.0051 9.09017 54.2151 9.29913C55.0023 10.135 55.5796 11.1276 55.9995 12.1724C56.4193 13.2172 56.6293 14.3142 56.6293 15.5158C56.6293 16.2994 56.5243 17.083 56.3669 17.7621C56.1569 18.4935 55.8945 19.2249 55.5271 19.904C55.3697 20.1652 55.0548 20.2175 54.8448 20.113C54.5824 19.9562 54.5299 19.6428 54.6349 19.4338C54.9498 18.8592 55.2122 18.2323 55.3697 17.5532C55.5271 16.9263 55.6321 16.2472 55.6321 15.5158C55.6321 14.471 55.4222 13.4784 55.0548 12.5381C54.6349 11.5455 54.1101 10.7096 53.4278 9.97826ZM45.3454 23.4041C45.6079 23.4564 45.7653 23.7698 45.7128 24.031C45.6603 24.2922 45.3454 24.449 45.083 24.3967C43.0887 23.8743 41.3043 22.725 40.0971 21.1055C38.89 19.5383 38.1553 17.6054 38.1553 15.4635C38.1553 14.053 38.4702 12.747 38.995 11.5977C39.5723 10.3962 40.412 9.29913 41.4092 8.46328C41.6191 8.30655 41.934 8.30655 42.144 8.51552C42.3014 8.72448 42.3014 9.03793 42.0915 9.24689C41.1993 10.0305 40.412 10.9708 39.9397 12.0679C39.4673 13.1127 39.1524 14.262 39.1524 15.5158C39.1524 17.3965 39.7822 19.1204 40.8844 20.5309C41.9865 21.8892 43.561 22.934 45.3454 23.4041Z" fill="#F3C6D4"/>
<path fill-rule="evenodd" clip-rule="evenodd" d="M8.13529 20.4785H26.4518C27.2916 20.4785 27.9738 21.1576 27.9738 21.9935V29.7774C27.9738 30.6132 27.2916 31.2924 26.4518 31.2924H8.13529C7.29556 31.2924 6.61328 30.6132 6.61328 29.7774V22.0457C6.61328 21.1576 7.29556 20.4785 8.13529 20.4785Z" fill="white"/>
<path fill-rule="evenodd" clip-rule="evenodd" d="M9.07998 36.0459H38.1555C39.5201 36.0459 40.6222 37.143 40.6222 38.5012V50.83C40.6222 52.1883 39.5201 53.2854 38.1555 53.2854H9.07998C7.71542 53.2854 6.61328 52.1883 6.61328 50.83V38.449C6.61328 37.143 7.71542 36.0459 9.07998 36.0459Z" fill="white"/>
<path fill-rule="evenodd" clip-rule="evenodd" d="M69.2251 36.0459H81.2437C82.0835 36.0459 82.7657 36.725 82.7657 37.5609V45.3448C82.7657 46.1806 82.0835 46.8597 81.2437 46.8597H69.2251C68.3854 46.8597 67.7031 46.1806 67.7031 45.3448V37.5609C67.7031 36.725 68.3854 36.0459 69.2251 36.0459Z" fill="white"/>
<path fill-rule="evenodd" clip-rule="evenodd" d="M8.13529 67.7567H51.0139C51.8536 67.7567 52.5359 67.0776 52.5359 66.2417V58.5101C52.5359 57.6742 51.8536 56.9951 51.0139 56.9951H8.13529C7.29556 56.9951 6.61328 57.6742 6.61328 58.5101V66.1895C6.61328 67.0776 7.29556 67.7567 8.13529 67.7567Z" fill="white"/>
<path fill-rule="evenodd" clip-rule="evenodd" d="M76.3104 51.4043H81.7161C82.2935 51.4043 82.7658 51.8745 82.7658 52.4491V61.1733C82.7658 61.748 82.2935 62.2181 81.7161 62.2181H76.3104C75.7331 62.2181 75.2607 61.748 75.2607 61.1733V52.4491C75.2607 51.8745 75.7331 51.4043 76.3104 51.4043Z" fill="white"/>
<path fill-rule="evenodd" clip-rule="evenodd" d="M160.755 117.646C161.49 117.646 162.12 117.019 162.12 116.288C162.12 115.557 161.49 114.93 160.755 114.93C160.02 114.93 159.391 115.557 159.391 116.288C159.391 117.019 159.968 117.646 160.755 117.646Z" fill="white"/>
<path fill-rule="evenodd" clip-rule="evenodd" d="M160.756 116.915C161.071 116.915 161.386 116.654 161.386 116.288C161.386 115.975 161.123 115.661 160.756 115.661C160.441 115.661 160.126 115.922 160.126 116.288C160.126 116.601 160.388 116.915 160.756 116.915Z" fill="#DC4987"/>
<path fill-rule="evenodd" clip-rule="evenodd" d="M160.755 125.117C161.49 125.117 162.12 124.49 162.12 123.759C162.12 123.027 161.49 122.4 160.755 122.4C160.02 122.4 159.391 123.027 159.391 123.759C159.391 124.542 159.968 125.117 160.755 125.117Z" fill="white"/>
<path fill-rule="evenodd" clip-rule="evenodd" d="M160.756 124.386C161.071 124.386 161.386 124.124 161.386 123.759C161.386 123.445 161.123 123.132 160.756 123.132C160.441 123.132 160.126 123.393 160.126 123.759C160.126 124.124 160.388 124.386 160.756 124.386Z" fill="#DC4987"/>
<path fill-rule="evenodd" clip-rule="evenodd" d="M160.755 132.639C161.49 132.639 162.12 132.013 162.12 131.281C162.12 130.55 161.49 129.923 160.755 129.923C160.02 129.923 159.391 130.55 159.391 131.281C159.391 132.013 159.968 132.639 160.755 132.639Z" fill="white"/>
<path fill-rule="evenodd" clip-rule="evenodd" d="M160.756 131.908C161.071 131.908 161.386 131.647 161.386 131.281C161.386 130.968 161.123 130.654 160.756 130.654C160.441 130.654 160.126 130.915 160.126 131.281C160.126 131.595 160.388 131.908 160.756 131.908Z" fill="#DC4987"/>
<path fill-rule="evenodd" clip-rule="evenodd" d="M171.042 62.7406C170.832 62.5317 170.832 62.2182 171.042 62.0093C171.252 61.8003 171.567 61.8003 171.777 62.0093C172.617 62.8451 173.247 63.7854 173.666 64.778C174.086 65.8228 174.296 66.9721 174.296 68.0692C174.296 68.8528 174.191 69.6887 173.981 70.4723C173.929 70.7335 173.614 70.8902 173.351 70.838C173.089 70.7857 172.932 70.4723 172.984 70.2111C173.194 69.5319 173.299 68.8006 173.299 68.1214C173.299 67.1289 173.089 66.1363 172.722 65.196C172.354 64.3079 171.777 63.472 171.042 62.7406ZM172.092 72.1962C172.249 71.935 172.564 71.8828 172.827 72.0395C173.089 72.1962 173.142 72.5097 172.984 72.7709C172.827 73.0321 172.617 73.2933 172.459 73.5022C172.249 73.7634 172.039 73.9724 171.829 74.1814C171.62 74.3903 171.305 74.3903 171.095 74.1814C170.885 73.9724 170.885 73.659 171.095 73.45C171.305 73.241 171.462 73.0321 171.62 72.8231C171.777 72.6664 171.934 72.4052 172.092 72.1962ZM160.336 73.45C160.546 73.659 160.546 73.9724 160.336 74.1814C160.126 74.3903 159.811 74.3903 159.601 74.1814C158.761 73.3455 158.131 72.4052 157.712 71.4126C157.292 70.3678 157.029 69.2185 157.029 68.1214C157.029 67.599 157.082 67.0766 157.187 66.5542C157.292 66.0318 157.449 65.5094 157.607 65.0392C157.712 64.778 158.026 64.6213 158.289 64.7258C158.551 64.8303 158.709 65.1437 158.604 65.4049C158.446 65.8228 158.289 66.293 158.236 66.7632C158.131 67.2333 158.131 67.7035 158.131 68.1737C158.131 69.1662 158.341 70.1588 158.709 71.0992C159.024 71.8828 159.601 72.7186 160.336 73.45ZM159.496 63.681C159.339 63.8899 159.024 63.9422 158.761 63.7854C158.551 63.6287 158.499 63.3153 158.656 63.0541C158.814 62.8451 158.919 62.6884 159.076 62.5317V62.4794C159.234 62.3227 159.391 62.1137 159.548 62.0093C159.758 61.8003 160.073 61.8003 160.283 62.0093C160.493 62.2182 160.493 62.5317 160.283 62.7406C160.126 62.8974 160.021 63.0541 159.863 63.1586V63.2108C159.758 63.3675 159.653 63.5242 159.496 63.681Z" fill="white"/>
<path fill-rule="evenodd" clip-rule="evenodd" d="M178.705 76.0105C175.923 78.727 173.719 80.3987 174.244 82.5406C174.769 84.6302 176.815 83.6899 176.815 83.6899C176.815 85.1526 177.235 85.8318 178.023 85.9885C179.335 86.2497 180.017 85.3616 179.702 86.4587C179.282 87.7647 179.964 88.705 180.909 89.0707C181.591 89.3319 183.061 87.9736 182.798 88.705C182.326 90.1155 183.166 91.6827 184.425 91.6827C185.685 91.6827 186.525 91.0036 186.21 90.8991C185.895 90.8469 185.633 89.9588 185.633 89.9588C185.633 89.9588 187.522 87.9214 188.257 88.3916C189.044 88.8617 189.201 89.3841 189.201 89.3841L191.196 92.3096C194.397 92.6753 193.348 83.4287 193.295 83.3765C192.508 82.7496 185.108 76.115 185.108 76.115C185.108 76.115 182.431 72.3014 178.705 76.0105Z" fill="#F2AAB8"/>
<path fill-rule="evenodd" clip-rule="evenodd" d="M59.9357 30.0385C59.7782 29.6728 58.3087 29.725 57.4165 29.4638C56.4718 29.1504 55.9995 28.4713 55.7896 27.9489C53.7952 23.0905 50.8562 15.8812 49.5966 14.9931C48.0746 13.8961 46.1327 15.62 46.9724 19.1202C47.8646 22.5681 49.8065 27.3742 49.8065 27.3742L51.8533 37.2477L57.7314 31.5012L59.9357 30.0385Z" fill="#DDBCC2"/>
<path fill-rule="evenodd" clip-rule="evenodd" d="M63.4519 71.7788H80.6663C75.8379 66.3457 69.5924 56.3677 59.5682 41.897C61.8774 34.949 60.5129 30.6653 62.2448 26.2248C63.6618 22.6202 62.0874 20.9485 59.7781 22.8814C56.5242 25.6502 56.4717 28.4189 52.6404 31.4489C52.6404 31.4489 38.8899 31.6578 40.8842 36.255C44.663 44.9792 47.9694 43.3598 50.1737 47.6435C50.5936 48.4271 56.9965 61.1739 63.4519 71.7788Z" fill="#DDBCC2"/>
<path fill-rule="evenodd" clip-rule="evenodd" d="M38.89 33.9048C36.3708 36.6736 44.2957 42.629 45.083 40.226C45.9752 37.5617 42.0914 30.4569 38.89 33.9048Z" fill="#DDBCC2"/>
<path fill-rule="evenodd" clip-rule="evenodd" d="M45.1355 29.3073C44.4533 28.6281 42.8788 28.8371 42.144 29.1506C37.8929 31.1357 45.6604 39.7554 47.3923 38.5539C48.9143 37.5091 47.8647 35.0538 46.92 32.9119C46.0802 30.979 46.2377 29.2028 45.1355 29.3073Z" fill="#DDBCC2"/>
<path fill-rule="evenodd" clip-rule="evenodd" d="M47.3919 35.5765C49.7537 38.2408 52.2728 36.5169 51.9055 34.3228C51.5906 32.5466 50.8033 29.3076 49.9111 27.6882C48.0217 24.397 41.4089 28.8375 47.3919 35.5765Z" fill="#DDBCC2"/>
</g>
<defs>
<clipPath id="clip0">
<rect width="223" height="197" fill="white"/>
</clipPath>
</defs>
</svg>
