<svg width="294" height="271" viewBox="0 0 294 271" fill="none" xmlns="http://www.w3.org/2000/svg">
<g clip-path="url(#clip0)">
<path d="M144.487 182.993C144.487 182.993 142.985 176.339 136.782 176.665C130.645 176.992 129.143 176.992 126.467 176.665C123.79 176.339 119.676 173.142 118.501 174.121C117.326 175.1 117.979 177.252 120.133 179.21C122.288 181.102 126.009 182.472 126.009 182.472L118.109 183.842C118.109 183.842 110.993 180.058 109.361 180.71C107.728 181.362 107.859 183.189 107.859 183.189C107.859 183.189 104.921 181.884 104.072 183.059C103.223 184.233 103.027 185.016 103.876 185.668C103.876 185.668 103.354 185.146 101.787 185.603C100.481 185.994 100.612 188.408 101.787 189.061L102.179 189.322C102.179 189.322 113.343 195.715 113.67 195.78C115.628 196.041 127.642 195.519 133.844 195.258C136.129 195.128 138.284 196.302 139.459 198.194L149.449 213.982L160.678 201.064L144.487 182.993Z" fill="#FFBE9D"/>
<path d="M124.246 186.647C124.246 186.712 123.594 186.842 122.418 187.038C121.243 187.234 119.611 187.56 117.783 187.886H117.717H117.652C116.869 187.495 116.02 187.168 115.106 186.712C112.821 185.668 110.731 184.689 109.099 183.907C108.381 183.58 107.793 183.254 107.271 183.058C106.814 182.863 106.618 182.732 106.618 182.667C106.618 182.667 106.879 182.732 107.336 182.928C107.859 183.124 108.446 183.385 109.164 183.711C109.948 184.037 110.862 184.428 111.907 184.885C112.951 185.342 114.061 185.864 115.236 186.386C116.085 186.777 116.934 187.168 117.783 187.56H117.717C119.611 187.234 121.243 187.038 122.418 186.842C123.528 186.712 124.246 186.581 124.246 186.647Z" fill="#EB996E"/>
<path d="M121.505 189.583C121.505 189.713 120.264 190.039 118.958 191.018C117.718 191.996 117.065 193.171 117 193.171C116.934 193.171 117.391 191.801 118.763 190.757C120.068 189.713 121.505 189.517 121.505 189.583Z" fill="#EB996E"/>
<path d="M134.236 180.318C134.302 180.318 134.302 180.71 134.497 181.362C134.693 182.015 135.15 182.928 135.999 183.711L136.195 183.906L135.869 183.972C134.954 184.167 133.91 184.428 132.8 184.885C130.972 185.668 129.47 186.646 128.491 187.495C127.511 188.343 126.989 188.93 126.924 188.93C126.924 188.93 127.054 188.734 127.25 188.473C127.511 188.212 127.838 187.821 128.295 187.364C129.274 186.451 130.776 185.342 132.604 184.624C133.714 184.167 134.759 183.906 135.738 183.711L135.673 183.972C134.759 183.124 134.367 182.145 134.171 181.493C134.171 180.71 134.236 180.318 134.236 180.318Z" fill="#EB996E"/>
<path d="M126.858 182.21C126.858 182.276 124.965 182.928 122.549 183.385C121.374 183.58 120.264 183.776 119.415 183.841C118.632 183.907 118.109 183.907 118.109 183.907C118.109 183.776 120.068 183.515 122.484 183.058C123.594 182.863 124.638 182.667 125.552 182.471C126.401 182.276 126.858 182.145 126.858 182.21Z" fill="#EB996E"/>
<path d="M116.412 190.887C116.412 190.952 115.693 190.626 114.518 190.17C113.408 189.713 111.776 189.061 110.013 188.473C108.25 187.821 106.618 187.234 105.508 186.777C104.333 186.32 103.68 185.929 103.68 185.864C103.68 185.799 104.398 186.125 105.574 186.516C106.814 186.973 108.381 187.495 110.144 188.147C111.907 188.8 113.539 189.452 114.649 189.974C115.759 190.431 116.412 190.822 116.412 190.887Z" fill="#EB996E"/>
<path d="M119.22 190.627C119.22 190.692 118.24 191.148 116.869 191.279C115.498 191.409 114.388 191.214 114.453 191.148C114.453 191.018 115.563 191.083 116.869 190.953C118.175 190.822 119.22 190.561 119.22 190.627Z" fill="#EB996E"/>
<path d="M181.31 152.527C181.31 152.527 171.386 158.268 169.297 175.752C168.187 184.886 164.269 201.848 164.269 201.848L156.043 192.584L143.638 206.74C143.638 206.74 156.957 235.184 164.53 242.948C172.104 250.711 187.055 253.125 187.055 253.125L190.059 205.566L181.31 152.527Z" fill="#7BB499"/>
<path d="M256.785 144.634L233.803 140.589L204.488 142.024C204.488 142.024 180.07 152.071 181.31 152.462L176.544 199.564L188.361 222.332L185.423 270.805H266.317L262.074 237.076L256.785 196.433L266.84 227.878L268.341 270.739H290.866C293.217 252.081 294 226.116 294 226.116L275.589 166.097C273.042 157.747 267.558 150.57 259.984 146.134C258.744 145.482 257.634 144.96 256.785 144.634Z" fill="#7BB499"/>
<path d="M181.049 176.274C181.049 176.274 181.049 176.34 181.114 176.535C181.179 176.731 181.179 176.927 181.245 177.253C181.375 177.905 181.506 178.819 181.702 179.993C182.093 182.342 182.681 185.799 183.334 190.04C183.987 194.28 184.705 199.369 185.423 204.979C186.141 210.59 186.794 216.853 187.186 223.376C187.251 223.964 187.251 224.616 187.317 225.138C186.99 237.859 186.598 249.276 186.207 257.496C186.011 261.606 185.88 264.933 185.75 267.217C185.684 268.326 185.619 269.239 185.554 269.826C185.554 270.087 185.489 270.348 185.489 270.544C185.489 270.674 185.489 270.805 185.489 270.805C185.489 270.805 185.489 270.74 185.489 270.544C185.489 270.348 185.489 270.152 185.489 269.826C185.489 269.174 185.554 268.326 185.619 267.151C185.684 264.803 185.815 261.541 186.011 257.431C186.337 249.211 186.664 237.794 186.99 225.073C186.99 224.486 186.925 223.898 186.86 223.311C186.468 216.787 185.815 210.525 185.162 204.914C184.444 199.304 183.791 194.215 183.138 189.974C182.485 185.734 181.963 182.276 181.636 179.928C181.441 178.753 181.31 177.84 181.245 177.188C181.179 176.862 181.179 176.666 181.114 176.47C181.049 176.34 181.049 176.274 181.049 176.274Z" fill="#263238"/>
<path d="M251.627 178.818C251.627 178.818 251.562 178.688 251.562 178.492C251.497 178.231 251.497 177.97 251.431 177.644C251.431 177.448 251.366 177.253 251.366 176.992C251.366 176.731 251.301 176.535 251.301 176.209C251.301 175.687 251.235 175.035 251.235 174.382C251.235 174.056 251.235 173.665 251.235 173.273C251.235 172.882 251.301 172.49 251.366 172.099C251.431 171.316 251.627 170.468 251.758 169.555C252.149 167.793 252.737 165.836 253.651 163.944C254.565 162.052 255.61 160.356 256.72 158.921C257.307 158.203 257.83 157.551 258.417 156.964C258.678 156.703 258.94 156.376 259.266 156.115C259.527 155.854 259.788 155.659 260.049 155.398C260.572 154.941 261.094 154.615 261.486 154.224C261.682 154.093 261.878 153.897 262.073 153.767C262.269 153.636 262.465 153.506 262.596 153.441C262.922 153.245 263.118 153.114 263.379 152.984C263.575 152.854 263.64 152.854 263.64 152.854C263.64 152.854 263.575 152.919 263.379 153.049C263.183 153.18 262.922 153.375 262.661 153.571C262.53 153.702 262.335 153.767 262.139 153.897C261.943 154.028 261.747 154.224 261.551 154.354C261.159 154.68 260.637 155.072 260.115 155.528C259.854 155.789 259.592 155.985 259.331 156.246C259.07 156.507 258.809 156.768 258.548 157.094C257.96 157.681 257.438 158.334 256.916 159.051C255.806 160.486 254.761 162.183 253.847 164.009C252.998 165.901 252.411 167.793 251.954 169.555C251.758 170.468 251.627 171.251 251.562 172.099C251.497 172.49 251.431 172.882 251.431 173.273C251.431 173.665 251.431 173.991 251.366 174.317C251.301 174.969 251.366 175.622 251.366 176.144C251.366 176.405 251.366 176.666 251.366 176.926C251.366 177.122 251.431 177.383 251.431 177.579C251.431 177.905 251.497 178.231 251.497 178.427C251.627 178.753 251.627 178.818 251.627 178.818Z" fill="#263238"/>
<path d="M266.84 227.943C266.84 227.943 266.774 227.813 266.709 227.552C266.644 227.291 266.513 226.9 266.317 226.443C265.991 225.399 265.534 224.029 265.012 222.268C263.902 218.745 262.4 213.852 260.637 208.502C258.874 203.153 257.242 198.26 255.936 194.868C255.283 193.171 254.565 191.801 254.174 190.823C253.978 190.366 253.847 189.975 253.717 189.714C253.651 189.453 253.586 189.322 253.586 189.322C253.586 189.322 253.651 189.453 253.782 189.714C253.912 189.975 254.108 190.366 254.304 190.757C254.761 191.671 255.414 193.041 256.132 194.737C257.503 198.195 259.136 203.022 260.898 208.372C262.661 213.721 264.163 218.614 265.208 222.202C265.73 223.964 266.122 225.399 266.448 226.443C266.579 226.9 266.644 227.291 266.774 227.617C266.84 227.813 266.84 227.943 266.84 227.943Z" fill="#263238"/>
<path d="M283.815 226.443C283.815 226.508 282.966 226.247 281.53 226.051C280.093 225.856 278.134 225.66 275.98 225.921C273.825 226.182 271.932 226.704 270.561 227.226C269.255 227.747 268.472 228.204 268.406 228.139C268.406 228.139 268.602 228.008 268.929 227.813C269.255 227.617 269.777 227.356 270.43 227.03C271.736 226.443 273.695 225.856 275.915 225.595C278.134 225.334 280.158 225.529 281.595 225.856C282.313 225.986 282.901 226.116 283.227 226.247C283.619 226.377 283.815 226.443 283.815 226.443Z" fill="#263238"/>
<path d="M181.963 223.116C181.963 223.116 181.767 222.789 181.375 222.202C180.984 221.615 180.396 220.767 179.613 219.854C178.046 217.896 175.76 215.287 173.214 212.416C170.668 209.546 168.383 206.936 166.75 205.045C165.967 204.066 165.314 203.283 164.857 202.761C164.4 202.239 164.204 201.913 164.204 201.913C164.204 201.913 164.465 202.174 164.988 202.696C165.51 203.283 166.163 204.001 166.946 204.914C168.644 206.806 170.929 209.415 173.475 212.221C176.022 215.091 178.307 217.766 179.808 219.723C180.592 220.702 181.114 221.55 181.506 222.202C181.702 222.528 181.832 222.724 181.898 222.92C181.963 223.05 181.963 223.116 181.963 223.116Z" fill="#263238"/>
<g opacity="0.3">
<path opacity="0.3" d="M186.468 253.125C186.859 239.947 187.512 227.812 186.337 214.765C185.815 226.312 181.571 239.816 177.327 250.581L186.468 253.125Z" fill="#191A1F"/>
</g>
<g opacity="0.3">
<path opacity="0.3" d="M256.785 196.498C256.785 196.498 252.998 188.082 253.259 188.082C252.868 203.804 256.067 221.81 261.943 236.358L256.785 196.498Z" fill="#191A1F"/>
</g>
<path d="M246.469 240.99C246.469 240.99 246.339 241.121 246.012 241.251C245.686 241.447 245.229 241.708 244.706 242.034C243.597 242.686 241.899 243.665 239.875 244.905C237.851 246.144 235.435 247.645 232.693 249.145C229.951 250.646 226.882 252.276 223.487 253.516C220.092 254.69 216.632 255.538 213.498 255.538C211.931 255.538 210.429 255.343 209.058 254.886C207.687 254.495 206.512 253.842 205.598 253.059C203.704 251.559 202.79 249.732 202.464 248.427C202.333 247.775 202.268 247.253 202.268 246.927C202.268 246.601 202.268 246.405 202.268 246.405C202.333 246.405 202.203 247.123 202.595 248.427C202.921 249.667 203.9 251.428 205.728 252.929C206.642 253.646 207.818 254.234 209.123 254.69C210.429 255.082 211.931 255.277 213.498 255.277C216.632 255.277 220.027 254.429 223.357 253.255C226.752 252.016 229.82 250.45 232.563 248.949C235.305 247.449 237.72 245.948 239.744 244.774C241.768 243.535 243.466 242.621 244.641 241.969C245.229 241.643 245.686 241.447 246.012 241.251C246.339 241.121 246.469 240.99 246.469 240.99Z" fill="#263238"/>
<path d="M246.404 221.941C246.404 221.941 246.339 222.333 246.143 223.05C246.077 223.442 245.947 223.833 245.751 224.355C245.555 224.877 245.424 225.464 245.163 226.051C244.902 226.704 244.641 227.356 244.315 228.074C243.988 228.791 243.596 229.509 243.139 230.292C242.225 231.858 241.181 233.489 239.875 235.054C238.569 236.62 237.198 237.99 235.827 239.164C235.109 239.751 234.521 240.273 233.868 240.73C233.215 241.187 232.628 241.578 232.04 241.97C231.452 242.361 230.93 242.622 230.473 242.883C230.016 243.144 229.624 243.34 229.233 243.535C228.58 243.861 228.188 244.057 228.188 243.992C228.188 243.992 228.514 243.731 229.167 243.405C229.494 243.209 229.886 243.013 230.343 242.752C230.8 242.491 231.322 242.165 231.844 241.774C232.367 241.382 233.019 240.991 233.607 240.534C234.26 240.078 234.848 239.556 235.566 238.969C236.872 237.794 238.243 236.424 239.548 234.859C240.854 233.293 241.899 231.662 242.813 230.161C243.205 229.379 243.662 228.661 243.988 227.943C244.315 227.226 244.641 226.573 244.902 225.986C245.163 225.399 245.359 224.812 245.555 224.29C245.751 223.768 245.882 223.377 246.012 222.985C246.208 222.333 246.339 221.941 246.404 221.941Z" fill="#263238"/>
<path d="M182.159 191.8C182.159 191.866 178.763 191.213 174.585 190.3C170.406 189.387 167.011 188.538 167.077 188.473C167.077 188.408 170.472 189.06 174.65 189.974C178.829 190.887 182.224 191.735 182.159 191.8Z" fill="#FAFAFA"/>
<path d="M182.159 188.017C182.159 188.082 181.31 187.952 180.004 187.756C178.699 187.56 176.87 187.234 174.846 186.843C172.888 186.451 171.125 186.125 169.754 185.864C168.448 185.603 167.665 185.408 167.665 185.408C167.665 185.342 168.513 185.473 169.819 185.669C171.125 185.864 172.953 186.19 174.977 186.582C176.936 186.973 178.699 187.299 180.07 187.56C181.375 187.821 182.224 187.952 182.159 188.017Z" fill="#FAFAFA"/>
<path d="M251.692 188.474C251.692 188.539 237.002 188.539 218.852 188.409C200.701 188.278 186.011 188.083 186.011 188.017C186.011 187.952 200.701 187.952 218.852 188.083C237.002 188.213 251.692 188.409 251.692 188.474Z" fill="#FAFAFA"/>
<path d="M252.802 191.801C252.802 191.866 237.655 191.997 219.047 191.997C200.374 191.997 185.292 191.932 185.292 191.801C185.292 191.736 200.44 191.605 219.047 191.605C237.655 191.671 252.802 191.736 252.802 191.801Z" fill="#FAFAFA"/>
<path d="M280.354 184.103C280.354 184.103 280.354 184.103 280.42 184.103C280.354 184.169 280.354 184.103 280.354 184.103H280.289V184.038L280.354 184.103L280.55 184.038L280.354 184.103C279.179 184.56 274.087 186.321 268.145 188.54C264.75 189.844 261.681 191.019 259.331 191.932C258.221 192.323 257.372 192.715 256.654 192.976C256.001 193.237 255.675 193.302 255.675 193.302C255.675 193.302 256.001 193.106 256.589 192.845C257.176 192.584 258.091 192.193 259.2 191.736C261.42 190.823 264.489 189.583 267.949 188.279C273.956 185.93 279.049 184.364 280.354 184.103H280.289V184.038L280.354 184.103C280.354 184.103 280.42 184.038 280.42 184.103C280.354 184.103 280.354 184.103 280.354 184.103Z" fill="#FAFAFA"/>
<path d="M279.767 179.862C279.767 179.927 274.087 181.95 266.97 184.363C259.854 186.777 254.108 188.604 254.043 188.539C254.043 188.474 259.723 186.451 266.84 184.037C273.956 181.623 279.767 179.797 279.767 179.862Z" fill="#FAFAFA"/>
<path d="M236.153 141.111C236.153 141.111 236.153 141.307 236.218 141.633C236.284 141.959 236.284 142.481 236.284 143.134C236.218 144.438 235.957 146.396 235.109 148.614C234.26 150.832 232.693 153.311 230.277 155.268C227.861 157.29 224.532 158.66 220.875 158.921C217.219 159.117 213.759 158.204 211.082 156.442C208.405 154.746 206.577 152.463 205.467 150.375C204.357 148.288 203.835 146.396 203.639 145.091C203.574 144.438 203.508 143.917 203.508 143.59C203.508 143.264 203.508 143.068 203.508 143.068C203.508 143.068 203.574 143.264 203.574 143.59C203.574 143.917 203.639 144.438 203.769 145.091C204.031 146.396 204.553 148.222 205.663 150.245C206.838 152.267 208.601 154.485 211.212 156.116C213.824 157.812 217.219 158.726 220.81 158.53C224.336 158.269 227.666 156.964 230.016 155.007C232.432 153.05 233.933 150.636 234.847 148.483C235.696 146.33 236.023 144.438 236.088 143.134C236.088 142.481 236.153 141.959 236.088 141.633C236.088 141.307 236.088 141.111 236.153 141.111Z" fill="#FAFAFA"/>
<path d="M156.565 193.954C156.565 193.954 156.435 194.215 156.239 194.606C155.978 194.998 155.651 195.585 155.194 196.237C154.28 197.607 152.909 199.434 151.277 201.326C149.644 203.218 148.077 204.914 146.837 206.023C146.249 206.61 145.727 207.067 145.401 207.328C145.074 207.654 144.878 207.785 144.813 207.785C144.813 207.785 144.944 207.589 145.27 207.263C145.662 206.871 146.119 206.415 146.641 205.893C147.816 204.718 149.318 203.087 150.95 201.13C152.582 199.238 153.954 197.412 154.933 196.107C155.39 195.52 155.782 194.998 156.108 194.541C156.435 194.15 156.565 193.954 156.565 193.954Z" fill="#FAFAFA"/>
<g opacity="0.3">
<path opacity="0.3" d="M230.343 242.883C227.013 244.775 222.573 245.036 218.656 245.166C217.938 245.166 217.154 245.166 216.436 244.905C215.783 244.579 215.196 243.926 215.261 243.144C215.326 242.23 216.24 241.643 217.089 241.317C220.288 240.012 223.879 240.077 227.274 239.229C233.02 237.794 238.896 233.684 243.335 229.835C239.875 235.511 236.088 239.425 230.343 242.883Z" fill="#191A1F"/>
</g>
<path d="M218.003 156.572C210.299 155.985 204.357 149.461 204.423 141.763C204.423 138.11 204.488 135.174 204.488 135.174C204.488 135.174 192.67 133.347 192.54 121.539C192.409 109.731 194.433 82.592 194.433 82.592C208.144 76.7206 223.879 78.6777 235.696 87.7459L237.459 89.1159L233.868 142.872C233.346 151.027 226.164 157.225 218.003 156.572Z" fill="#FFBE9D"/>
<path d="M204.488 134.978C204.488 134.978 211.931 135.566 219.896 130.607C219.896 130.607 216.24 139.088 204.488 138.045V134.978Z" fill="#EB996E"/>
<path d="M236.023 101.316C236.219 101.25 244.119 98.9017 243.858 106.991C243.597 115.081 235.566 113.124 235.566 112.928C235.566 112.667 236.023 101.316 236.023 101.316Z" fill="#FFBE9D"/>
<path d="M238.112 109.927C238.178 109.927 238.243 110.057 238.504 110.122C238.765 110.253 239.157 110.318 239.549 110.188C240.397 109.927 241.181 108.557 241.246 107.121C241.311 106.404 241.181 105.686 240.92 105.099C240.724 104.512 240.332 104.055 239.875 103.99C239.483 103.86 239.157 104.121 239.026 104.381C238.896 104.577 238.961 104.773 238.896 104.773C238.896 104.773 238.7 104.642 238.83 104.316C238.896 104.186 238.961 103.99 239.157 103.794C239.353 103.664 239.614 103.599 239.94 103.599C240.593 103.664 241.116 104.251 241.377 104.903C241.703 105.556 241.834 106.339 241.769 107.187C241.638 108.818 240.789 110.318 239.614 110.579C239.026 110.71 238.569 110.514 238.308 110.318C238.112 110.122 238.112 109.927 238.112 109.927Z" fill="#EB996E"/>
<path d="M198.742 101.511C198.742 102.425 199.46 103.142 200.374 103.208C201.289 103.273 202.072 102.555 202.137 101.707C202.137 100.794 201.419 100.076 200.505 100.011C199.526 99.9456 198.742 100.598 198.742 101.511Z" fill="#263238"/>
<path d="M196.653 99.1628C196.849 99.3585 198.155 98.4452 199.983 98.4452C201.811 98.4452 203.117 99.3585 203.313 99.1628C203.378 99.0323 203.182 98.6409 202.595 98.2495C202.007 97.858 201.028 97.4014 199.918 97.4014C198.808 97.4014 197.828 97.7928 197.306 98.2495C196.784 98.7061 196.588 99.0976 196.653 99.1628Z" fill="#263238"/>
<path d="M216.175 101.903C216.175 102.816 216.893 103.534 217.807 103.599C218.721 103.664 219.505 102.947 219.57 102.099C219.57 101.185 218.852 100.468 217.938 100.402C216.958 100.337 216.175 100.99 216.175 101.903Z" fill="#263238"/>
<path d="M214.543 99.489C214.738 99.6847 216.044 98.7713 217.872 98.7713C219.7 98.7713 221.006 99.6847 221.202 99.489C221.267 99.3585 221.072 98.9671 220.484 98.5756C219.896 98.1842 218.917 97.7275 217.807 97.7275C216.697 97.7275 215.718 98.119 215.195 98.5756C214.608 99.0323 214.412 99.4237 214.543 99.489Z" fill="#263238"/>
<path d="M207.948 112.993C207.948 112.863 206.838 112.667 205.01 112.471C204.553 112.406 204.096 112.341 204.031 112.015C203.9 111.688 204.096 111.167 204.357 110.645C204.814 109.536 205.272 108.361 205.729 107.122C207.622 102.098 208.993 97.9884 208.797 97.9232C208.601 97.8579 206.904 101.837 205.01 106.861C204.553 108.1 204.096 109.275 203.705 110.384C203.509 110.906 203.248 111.493 203.443 112.21C203.574 112.537 203.9 112.797 204.227 112.863C204.553 112.928 204.814 112.928 205.01 112.993C206.773 113.058 207.948 113.058 207.948 112.993Z" fill="#263238"/>
<path d="M214.086 92.3779C214.282 92.8998 216.11 92.6388 218.199 92.8998C220.353 93.0955 222.051 93.7479 222.312 93.2912C222.443 93.0955 222.116 92.6388 221.463 92.1169C220.745 91.6602 219.701 91.2036 218.395 91.0731C217.089 90.9426 215.914 91.1383 215.196 91.4645C214.412 91.7907 214.02 92.1821 214.086 92.3779Z" fill="#263238"/>
<path d="M197.371 93.9437C197.698 94.3351 198.938 93.9437 200.44 93.8785C201.942 93.8132 203.247 94.1394 203.509 93.748C203.639 93.5523 203.443 93.0956 202.856 92.7042C202.333 92.3128 201.419 91.9866 200.375 92.0518C199.33 92.117 198.416 92.4432 197.894 92.8999C197.371 93.2913 197.241 93.748 197.371 93.9437Z" fill="#263238"/>
<path d="M188.687 75.0896C188.557 73.6543 189.079 72.0234 190.32 71.1753C191.495 70.3272 193.388 70.3924 194.302 71.5015C193.715 69.5443 195.347 67.261 197.436 67.1305C199.395 67 201.027 68.4353 202.855 68.9572C204.684 69.4791 206.642 69.0224 208.405 68.3048C210.168 67.5872 211.8 66.6086 213.563 65.9562C217.284 64.5862 221.463 64.7819 225.054 66.4129C228.645 68.0438 231.518 71.11 232.889 74.8286C235.5 74.0457 238.438 75.3505 240.005 77.5034C241.572 79.7215 242.029 82.592 241.703 85.2667C241.507 87.0934 240.985 88.8549 240.332 90.5511C240.332 90.6815 240.332 90.8772 240.332 91.0077C240.201 97.5315 239.483 105.099 236.675 105.164C231.844 105.23 233.019 96.1615 233.019 96.1615C227.078 93.8782 229.298 85.0058 227.796 83.6358C226.294 82.2658 223.226 79.1343 210.821 85.5277C205.989 88.0068 199.591 87.9415 196.065 87.0934C195.935 87.0934 195.869 87.0282 195.739 87.0282H195.674C195.608 87.0282 195.608 87.0282 195.543 86.9629C194.433 86.702 193.323 86.2453 192.344 85.5929C191.234 84.8753 190.189 83.8967 189.732 82.6572C189.275 81.4177 189.406 79.852 190.385 78.9386C189.536 77.9601 188.818 76.59 188.687 75.0896Z" fill="#263238"/>
<path d="M206.381 118.538C206.642 119.256 206.968 119.974 207.425 120.626C207.882 121.213 208.601 121.735 209.384 121.735C210.233 121.8 211.016 121.278 211.473 120.626C211.93 119.908 212.061 119.06 212.061 118.278C211.996 117.56 211.669 116.647 210.951 116.581C210.625 116.516 210.363 116.647 210.037 116.777C208.731 117.299 207.425 117.821 206.12 118.343" fill="#EB996E"/>
<path d="M207.948 121.735C207.948 121.604 208.797 121.931 210.037 121.474C210.625 121.213 211.278 120.756 211.604 120.039C211.931 119.321 211.996 118.342 211.669 117.494C211.604 117.299 211.474 117.103 211.343 116.907C211.212 116.777 211.212 116.777 211.017 116.777C210.886 116.842 210.625 116.972 210.364 117.038C210.168 117.103 209.907 117.233 209.711 117.299C208.862 117.625 208.144 117.951 207.491 118.147C206.185 118.603 205.402 118.864 205.336 118.799C205.271 118.734 206.054 118.277 207.295 117.69C207.883 117.364 208.666 117.038 209.45 116.711C209.645 116.646 209.841 116.516 210.102 116.451C210.298 116.385 210.494 116.255 210.821 116.19C210.951 116.124 211.212 116.124 211.408 116.19C211.604 116.255 211.735 116.385 211.865 116.516C212.061 116.777 212.192 116.972 212.322 117.233C212.779 118.277 212.649 119.451 212.192 120.365C211.735 121.278 210.886 121.735 210.233 121.996C209.515 122.191 208.927 122.191 208.536 122.061C208.144 121.931 207.948 121.8 207.948 121.735Z" fill="#263238"/>
<path d="M228.188 82.5922C228.122 82.5922 228.318 82.0703 228.188 81.157C228.057 80.2436 227.535 78.9389 226.36 77.8298C225.184 76.7208 223.226 76.0031 221.071 76.0684C218.917 76.0684 216.566 76.786 214.15 77.6341C212.975 78.0255 211.735 78.417 210.559 78.6779C209.384 78.9389 208.209 79.0693 207.099 79.0693C204.879 79.1346 202.855 78.7431 201.288 78.2865C199.656 77.8298 198.481 77.1774 197.632 76.7208C197.24 76.525 196.914 76.2641 196.718 76.1336C196.522 76.0031 196.392 75.9379 196.392 75.9379C196.392 75.9379 196.849 76.1988 197.697 76.5903C198.546 76.9817 199.721 77.5689 201.354 78.0255C202.921 78.4822 204.879 78.8084 207.099 78.6779C208.209 78.6127 209.319 78.4822 210.494 78.2212C211.669 77.9603 212.845 77.5689 214.02 77.1774C216.436 76.3946 218.786 75.6117 221.006 75.6117C223.226 75.5465 225.315 76.3293 226.49 77.5036C227.731 78.6779 228.253 80.0479 228.318 80.9612C228.384 82.1355 228.188 82.5922 228.188 82.5922Z" fill="#455A64"/>
<path d="M237.394 102.555C237.394 102.555 237.329 102.49 237.263 102.294C237.198 102.098 237.067 101.903 236.872 101.511C236.545 100.859 236.219 99.8801 235.957 98.5753C235.696 97.2706 235.5 95.7049 235.631 94.0087C235.762 92.2472 236.284 90.4206 236.676 88.5286C237.067 86.6367 237.198 84.6796 236.676 83.1139C236.415 82.331 236.023 81.6134 235.566 81.0262C235.043 80.5043 234.456 80.1129 233.868 79.9172C232.693 79.5258 231.583 79.6562 230.93 79.9824C230.277 80.3086 230.081 80.6348 230.016 80.6348C230.016 80.6348 230.212 80.2434 230.865 79.8519C231.518 79.4605 232.628 79.2648 233.933 79.6562C234.586 79.8519 235.239 80.2434 235.762 80.8305C236.284 81.4177 236.741 82.1353 237.002 82.9834C237.524 84.6796 237.459 86.6367 237.002 88.5939C236.61 90.551 236.023 92.3125 235.957 94.0087C235.827 95.7049 235.957 97.2053 236.153 98.5101C236.415 99.7496 236.741 100.793 237.002 101.446C237.263 102.163 237.394 102.555 237.394 102.555Z" fill="#455A64"/>
<path d="M229.298 81.6784C229.298 81.6784 229.298 81.4827 229.298 81.2218C229.298 80.8956 229.298 80.4389 229.363 79.8518C229.363 78.6775 229.428 76.9813 228.841 74.9589C228.514 73.9803 228.057 72.9365 227.274 71.9579C226.49 71.0446 225.446 70.1965 224.075 69.8703C222.769 69.5441 221.267 69.6093 219.831 70.066C218.394 70.4574 217.023 71.1751 215.587 71.9579C214.216 72.7408 212.845 73.5236 211.408 74.1108C209.972 74.6327 208.47 74.9589 207.099 74.9589C205.663 74.9589 204.357 74.8284 203.117 74.5022C201.941 74.176 200.831 73.7194 199.917 73.1974C198.089 72.1536 196.849 70.9141 196.131 69.9355C195.739 69.4789 195.543 69.0874 195.347 68.8265C195.217 68.5655 195.086 68.4351 195.086 68.4351C195.086 68.4351 195.217 68.5655 195.347 68.8265C195.543 69.0874 195.804 69.4789 196.196 69.8703C196.914 70.7836 198.155 71.9579 199.983 73.0017C200.897 73.5236 201.941 73.9151 203.182 74.2413C204.357 74.5675 205.663 74.6979 207.034 74.6979C208.405 74.6327 209.841 74.3717 211.213 73.8498C212.584 73.2627 213.955 72.4798 215.391 71.697C216.762 70.9141 218.199 70.1965 219.7 69.7398C221.202 69.3484 222.704 69.2179 224.075 69.6093C225.446 70.0008 226.621 70.8489 227.404 71.8274C228.188 72.806 228.71 73.9151 228.971 74.8936C229.559 76.9813 229.494 78.6775 229.428 79.8518C229.363 80.4389 229.363 80.8956 229.298 81.2218C229.363 81.4827 229.363 81.6784 229.298 81.6784Z" fill="#455A64"/>
<path d="M116.02 244.056C117.261 245.818 119.677 245.231 120.852 244.122C121.962 243.013 122.419 241.447 122.876 239.946C123.855 236.489 124.834 232.901 124.051 229.378C123.855 228.334 123.398 227.29 122.68 226.507C121.962 225.725 120.786 225.268 119.742 225.529C118.501 225.855 117.783 227.095 117.196 228.204C115.629 231.596 114.78 235.315 114.78 239.033C114.845 240.795 115.041 242.621 116.02 244.056Z" fill="#7BB499"/>
<g opacity="0.2">
<g opacity="0.2">
<g opacity="0.2">
<path opacity="0.2" d="M116.02 244.056C117.261 245.818 119.677 245.231 120.852 244.122C121.962 243.013 122.419 241.447 122.876 239.946C123.855 236.489 124.834 232.901 124.051 229.378C123.855 228.334 123.398 227.29 122.68 226.507C121.962 225.725 120.786 225.268 119.742 225.529C118.501 225.855 117.783 227.095 117.196 228.204C115.629 231.596 114.78 235.315 114.78 239.033C114.845 240.795 115.041 242.621 116.02 244.056Z" fill="#191A1F"/>
</g>
</g>
</g>
<path d="M120.786 253.059C122.81 252.016 125.226 251.82 127.511 252.211C128.751 252.407 129.992 252.733 130.841 253.647C131.689 254.56 131.82 256.191 130.906 256.974C130.318 257.43 129.535 257.496 128.817 257.496C127.054 257.496 125.095 257.17 123.659 258.279C122.875 258.866 122.288 259.91 121.374 260.236C120.46 260.562 119.35 259.975 118.827 259.127C118.305 258.279 118.305 257.235 118.501 256.256C118.501 256.256 118.697 254.169 120.786 253.059Z" fill="#7BB499"/>
<path d="M112.625 246.666C113.996 245.035 114.192 242.687 113.604 240.664C113.017 238.642 111.646 236.946 110.013 235.576C108.185 233.945 105.965 232.705 103.68 231.857C102.766 231.531 101.787 231.27 100.808 231.401C99.8282 231.531 98.8489 231.988 98.3919 232.836C97.739 234.141 98.3919 235.641 99.1101 236.881C100.351 239.099 101.722 241.186 103.289 243.209C104.529 244.84 105.965 246.405 107.924 247.123C109.818 247.841 111.776 247.71 112.821 246.405" fill="#7BB499"/>
<path d="M116.085 271C116.085 271 116.151 270.739 116.216 270.217C116.281 269.63 116.347 268.912 116.412 267.999C116.477 267.085 116.608 265.976 116.869 264.737C117.13 263.562 117.522 262.192 118.044 260.888C118.566 259.583 119.219 258.343 120.003 257.43C120.786 256.451 121.635 255.734 122.484 255.342C123.333 254.951 124.051 254.755 124.573 254.69C125.095 254.625 125.357 254.56 125.357 254.56C125.357 254.56 125.095 254.56 124.508 254.56C123.986 254.625 123.202 254.755 122.353 255.147C121.505 255.538 120.525 256.256 119.742 257.234C118.958 258.213 118.24 259.452 117.718 260.757C117.195 262.127 116.804 263.432 116.542 264.672C116.281 265.911 116.216 267.02 116.151 267.933C116.085 268.847 116.085 269.63 116.085 270.152C116.085 270.673 116.085 271 116.085 271Z" fill="#263238"/>
<path d="M116.216 269.304C116.216 269.304 116.216 269.173 116.216 268.912C116.216 268.651 116.216 268.26 116.216 267.869C116.216 266.955 116.216 265.585 116.216 263.889C116.281 260.562 116.543 255.93 117.065 250.907C117.587 245.818 118.305 241.251 118.958 237.989C119.089 237.141 119.285 236.424 119.415 235.771C119.546 235.119 119.676 234.597 119.807 234.14C119.938 233.684 120.003 233.357 120.068 233.096C120.133 232.836 120.133 232.705 120.133 232.705C120.133 232.705 120.068 232.836 120.003 233.031C119.938 233.292 119.807 233.618 119.676 234.075C119.546 234.532 119.415 235.054 119.219 235.706C119.024 236.358 118.893 237.076 118.697 237.924C117.979 241.186 117.195 245.753 116.673 250.841C116.151 255.93 115.89 260.562 115.89 263.889C115.89 265.585 115.955 266.89 115.955 267.869C115.955 268.325 116.02 268.651 116.02 268.912C116.216 269.173 116.216 269.304 116.216 269.304Z" fill="#263238"/>
<path d="M116.216 260.366C116.216 260.366 116.216 259.974 116.216 259.257C116.151 258.539 116.085 257.495 115.824 256.191C115.628 254.886 115.302 253.385 114.779 251.754C114.322 250.123 113.67 248.297 112.886 246.535C111.319 242.882 109.23 239.946 107.402 238.054C106.945 237.598 106.488 237.206 106.096 236.88C105.9 236.684 105.704 236.554 105.574 236.423C105.378 236.293 105.247 236.162 105.051 236.097C104.464 235.706 104.137 235.445 104.072 235.51C104.007 235.575 105.443 236.423 107.206 238.25C108.969 240.142 110.993 243.078 112.56 246.666C113.343 248.492 113.996 250.254 114.453 251.885C114.975 253.516 115.302 255.016 115.563 256.256C115.824 257.495 115.955 258.539 116.02 259.257C116.151 259.974 116.216 260.366 116.216 260.366Z" fill="#263238"/>
<path d="M128.686 169.228L100.938 168.054V140.393H128.686V169.228Z" fill="#7BB499"/>
<path d="M139.655 132.499H111.972V160.16H139.655V132.499Z" fill="#7BB499"/>
<path d="M128.686 168.054L139.655 160.16V132.499L128.686 140.393V168.054Z" fill="#7BB499"/>
<path d="M100.938 140.393L111.972 132.499H139.655L128.686 140.393H100.938Z" fill="#7BB499"/>
<path d="M128.686 169.228L139.655 160.16V132.499L128.686 140.393V169.228Z" fill="#7BB499"/>
<path opacity="0.3" d="M100.938 140.393L111.972 132.499H139.655L128.686 140.393H100.938Z" fill="white"/>
<path opacity="0.4" d="M128.686 169.228L139.655 160.16V132.499L128.686 140.393V169.228Z" fill="#191A1F"/>
<path d="M143.507 161.204C143.572 161.204 143.703 161.922 143.703 162.835C143.572 163.096 143.638 162.9 143.638 162.966H143.572L143.507 163.031L143.376 163.096C143.311 163.161 143.246 163.226 143.115 163.292C142.985 163.422 142.789 163.487 142.658 163.553C142.397 163.683 142.201 163.814 142.201 163.748C142.201 163.683 142.266 163.553 142.528 163.357C142.658 163.226 142.789 163.161 142.919 163.031C142.985 162.966 143.05 162.9 143.181 162.835L143.311 162.705L143.376 162.639H143.442C143.442 162.705 143.507 162.509 143.376 162.77C143.376 161.922 143.442 161.204 143.507 161.204Z" fill="#7BB499"/>
<path d="M143.507 154.224C143.572 154.224 143.703 155.007 143.703 155.985C143.703 156.964 143.637 157.747 143.507 157.747C143.376 157.747 143.311 156.964 143.311 155.985C143.376 155.007 143.442 154.224 143.507 154.224Z" fill="#7BB499"/>
<path d="M143.507 147.243C143.572 147.243 143.703 148.026 143.703 149.005C143.703 149.983 143.637 150.766 143.507 150.766C143.376 150.766 143.311 149.983 143.311 149.005C143.376 148.026 143.442 147.243 143.507 147.243Z" fill="#7BB499"/>
<path d="M143.507 140.263C143.572 140.263 143.703 141.046 143.703 142.024C143.703 143.003 143.637 143.786 143.507 143.786C143.376 143.786 143.311 143.003 143.311 142.024C143.376 141.046 143.442 140.263 143.507 140.263Z" fill="#7BB499"/>
<path d="M143.507 133.217C143.572 133.217 143.703 134 143.703 134.978C143.703 135.957 143.637 136.74 143.507 136.74C143.376 136.74 143.311 135.957 143.311 134.978C143.376 134 143.442 133.217 143.507 133.217Z" fill="#7BB499"/>
<path d="M141.875 128.128C141.875 128.063 142.593 127.933 143.507 127.933C143.834 128.259 143.573 127.998 143.703 128.128V128.194V128.259V128.389C143.703 128.455 143.703 128.585 143.703 128.715C143.703 128.911 143.703 129.107 143.638 129.237C143.638 129.564 143.573 129.694 143.507 129.694C143.442 129.694 143.442 129.498 143.377 129.237C143.377 129.107 143.377 128.911 143.311 128.715C143.311 128.585 143.311 128.52 143.311 128.389V128.259V128.194V128.128C143.377 128.194 143.116 127.933 143.507 128.324C142.593 128.259 141.875 128.194 141.875 128.128Z" fill="#7BB499"/>
<path d="M135.607 128.128C135.607 128.063 136.325 127.933 137.174 127.933C138.023 127.933 138.741 127.998 138.741 128.128C138.741 128.194 138.023 128.324 137.174 128.324C136.325 128.259 135.607 128.194 135.607 128.128Z" fill="#7BB499"/>
<path d="M129.339 128.128C129.339 128.063 130.058 127.933 130.906 127.933C131.755 127.933 132.473 127.998 132.473 128.128C132.473 128.194 131.755 128.324 130.906 128.324C130.058 128.259 129.339 128.194 129.339 128.128Z" fill="#7BB499"/>
<path d="M123.137 128.128C123.137 128.063 123.855 127.933 124.704 127.933C125.552 127.933 126.271 127.998 126.271 128.128C126.271 128.194 125.552 128.324 124.704 128.324C123.79 128.259 123.137 128.194 123.137 128.128Z" fill="#7BB499"/>
<path d="M116.869 128.128C116.869 128.063 117.587 127.933 118.436 127.933C119.284 127.933 120.003 127.998 120.003 128.128C120.003 128.194 119.284 128.324 118.436 128.324C117.522 128.259 116.869 128.194 116.869 128.128Z" fill="#7BB499"/>
<path d="M110.732 128.455C110.666 128.389 110.862 128.259 111.058 127.998H111.123C111.384 127.998 111.711 127.933 112.103 127.933C112.951 127.933 113.67 127.998 113.67 128.128C113.67 128.194 112.951 128.324 112.103 128.324C111.711 128.324 111.384 128.324 111.123 128.259H111.189C110.927 128.389 110.732 128.52 110.732 128.455Z" fill="#7BB499"/>
<path d="M105.9 132.499C105.835 132.434 106.357 131.912 107.01 131.39C107.663 130.868 108.25 130.477 108.316 130.542C108.381 130.608 107.859 131.129 107.206 131.651C106.553 132.173 105.965 132.565 105.9 132.499Z" fill="#7BB499"/>
<path d="M101.069 136.479C101.003 136.414 101.526 135.892 102.178 135.37C102.831 134.848 103.419 134.457 103.484 134.522C103.55 134.587 103.027 135.109 102.374 135.631C101.721 136.153 101.134 136.544 101.069 136.479Z" fill="#7BB499"/>
<path d="M97.4123 141.11C97.347 141.11 97.2817 140.393 97.2817 139.479C97.4123 139.218 97.347 139.414 97.347 139.349L97.4123 139.284L97.5429 139.153C97.6082 139.088 97.6735 139.023 97.8041 138.958C97.9346 138.827 98.1305 138.762 98.1958 138.631C98.457 138.436 98.5875 138.37 98.6528 138.436C98.6528 138.501 98.5875 138.631 98.3917 138.827C98.2611 138.958 98.1305 139.023 97.9999 139.218C97.9346 139.284 97.8693 139.349 97.7388 139.414L97.6082 139.545L97.5429 139.61C97.5429 139.545 97.4776 139.74 97.6082 139.479C97.5429 140.393 97.4776 141.11 97.4123 141.11Z" fill="#7BB499"/>
<path d="M97.3474 147.635C97.2821 147.635 97.2168 146.917 97.2168 146.004C97.2168 145.091 97.2821 144.373 97.4127 144.373C97.478 144.373 97.5432 145.091 97.5432 146.004C97.5432 146.917 97.4127 147.635 97.3474 147.635Z" fill="#7BB499"/>
<path d="M97.2819 154.093C97.2167 154.093 97.1514 153.375 97.1514 152.462C97.1514 151.549 97.2167 150.831 97.3472 150.831C97.4125 150.831 97.4778 151.549 97.4778 152.462C97.4778 153.375 97.3472 154.093 97.2819 154.093Z" fill="#7BB499"/>
<path d="M97.2165 160.552C97.1512 160.552 97.0859 159.834 97.0859 158.921C97.0859 158.008 97.1512 157.29 97.2818 157.29C97.3471 157.29 97.4124 158.008 97.4124 158.921C97.4124 159.834 97.2818 160.552 97.2165 160.552Z" fill="#7BB499"/>
<path d="M97.1511 167.01C97.0858 167.01 97.0205 166.292 97.0205 165.379C97.0205 164.466 97.0858 163.748 97.2164 163.748C97.2817 163.748 97.347 164.466 97.347 165.379C97.347 166.292 97.2164 167.01 97.1511 167.01Z" fill="#7BB499"/>
<path d="M98.7183 171.903C98.7183 171.969 98.0001 172.034 97.086 172.034C96.7596 171.708 97.0207 171.969 96.8901 171.838V171.773V171.708V171.577C96.8901 171.512 96.8901 171.381 96.8901 171.251C96.8901 171.055 96.8901 170.86 96.9554 170.729C97.0207 170.403 97.0207 170.272 97.086 170.272C97.1513 170.272 97.1513 170.468 97.2166 170.729C97.2166 170.86 97.2166 171.055 97.2166 171.251C97.2166 171.381 97.2166 171.447 97.2166 171.577V171.708V171.773V171.838C97.1513 171.773 97.4125 172.034 97.0207 171.642C98.0001 171.708 98.7183 171.838 98.7183 171.903Z" fill="#7BB499"/>
<path d="M104.921 172.034C104.921 172.099 104.203 172.164 103.354 172.164C102.505 172.164 101.787 172.034 101.787 171.968C101.787 171.903 102.505 171.838 103.354 171.838C104.203 171.838 104.921 171.903 104.921 172.034Z" fill="#7BB499"/>
<path d="M111.123 172.099C111.123 172.164 110.405 172.23 109.556 172.23C108.707 172.23 107.989 172.099 107.989 172.034C107.989 171.969 108.707 171.903 109.556 171.903C110.405 171.969 111.123 172.034 111.123 172.099Z" fill="#7BB499"/>
<path d="M117.26 172.23C117.26 172.295 116.542 172.36 115.693 172.36C114.845 172.36 114.126 172.23 114.126 172.165C114.126 172.099 114.845 172.034 115.693 172.034C116.607 172.034 117.26 172.099 117.26 172.23Z" fill="#7BB499"/>
<path d="M123.463 172.294C123.463 172.36 122.745 172.425 121.896 172.425C121.047 172.425 120.329 172.294 120.329 172.229C120.329 172.164 121.047 172.099 121.896 172.099C122.81 172.164 123.463 172.229 123.463 172.294Z" fill="#7BB499"/>
<path d="M129.666 172.425C129.666 172.49 128.947 172.556 128.099 172.556C127.25 172.556 126.532 172.425 126.532 172.36C126.532 172.295 127.25 172.229 128.099 172.229C128.947 172.229 129.666 172.36 129.666 172.425Z" fill="#7BB499"/>
<path d="M134.824 169.424C134.889 169.49 134.367 169.946 133.714 170.468C133.061 170.99 132.408 171.316 132.408 171.251C132.343 171.186 132.865 170.729 133.518 170.207C134.171 169.685 134.758 169.359 134.824 169.424Z" fill="#7BB499"/>
<path d="M139.786 165.706C139.851 165.771 139.328 166.227 138.676 166.749C138.023 167.271 137.37 167.597 137.37 167.532C137.304 167.467 137.827 167.01 138.48 166.488C139.133 165.966 139.72 165.64 139.786 165.706Z" fill="#7BB499"/>
<path d="M135.998 125.845C136.064 125.845 136.064 126.236 135.998 126.693C135.868 127.149 135.737 127.476 135.672 127.476C135.607 127.476 135.607 127.084 135.672 126.628C135.737 126.171 135.933 125.845 135.998 125.845Z" fill="#7BB499"/>
<path d="M137.5 119.256C137.565 119.256 137.5 120.038 137.304 120.952C137.108 121.865 136.847 122.583 136.782 122.583C136.717 122.583 136.782 121.8 136.978 120.887C137.174 119.908 137.435 119.19 137.5 119.256Z" fill="#7BB499"/>
<path d="M139.002 112.602C139.067 112.602 139.002 113.384 138.806 114.298C138.61 115.211 138.349 115.929 138.284 115.929C138.218 115.929 138.284 115.146 138.48 114.233C138.676 113.319 138.937 112.602 139.002 112.602Z" fill="#7BB499"/>
<path d="M140.503 105.947C140.569 105.947 140.503 106.73 140.308 107.643C140.112 108.557 139.851 109.274 139.785 109.274C139.72 109.274 139.785 108.492 139.981 107.578C140.177 106.665 140.438 105.947 140.503 105.947Z" fill="#7BB499"/>
<path d="M142.005 99.3581C142.07 99.3581 142.005 100.141 141.809 101.054C141.613 101.968 141.352 102.685 141.287 102.685C141.221 102.685 141.287 101.902 141.483 100.989C141.678 100.011 141.874 99.2929 142.005 99.3581Z" fill="#7BB499"/>
<path d="M143.507 92.7036C143.572 92.7036 143.507 93.4865 143.311 94.3998C143.115 95.3131 142.854 96.0308 142.789 96.0308C142.723 96.0308 142.789 95.2479 142.985 94.3346C143.18 93.4212 143.376 92.7036 143.507 92.7036Z" fill="#7BB499"/>
<path d="M144.617 87.8109C144.682 87.8109 144.682 88.2023 144.617 88.6589C144.486 89.1156 144.355 89.4418 144.29 89.4418C144.225 89.4418 144.225 89.0504 144.29 88.5937C144.355 88.137 144.486 87.7456 144.617 87.8109Z" fill="#7BB499"/>
<path d="M110.405 126.627C110.471 126.562 110.732 126.888 110.928 127.28C111.124 127.671 111.254 128.063 111.124 128.063C111.058 128.128 110.797 127.802 110.601 127.41C110.405 127.084 110.34 126.693 110.405 126.627Z" fill="#7BB499"/>
<path d="M107.532 120.952C107.598 120.887 107.989 121.539 108.381 122.322C108.773 123.105 109.034 123.758 108.969 123.823C108.904 123.888 108.512 123.236 108.12 122.453C107.728 121.67 107.467 121.017 107.532 120.952Z" fill="#7BB499"/>
<path d="M104.725 115.276C104.79 115.211 105.182 115.863 105.574 116.646C105.966 117.429 106.227 118.081 106.161 118.146C106.096 118.212 105.704 117.559 105.313 116.776C104.856 115.994 104.594 115.341 104.725 115.276Z" fill="#7BB499"/>
<path d="M101.852 109.601C101.917 109.535 102.309 110.188 102.701 110.971C103.093 111.754 103.354 112.406 103.288 112.471C103.223 112.536 102.831 111.884 102.44 111.101C101.983 110.318 101.721 109.666 101.852 109.601Z" fill="#7BB499"/>
<path d="M98.9795 103.925C99.0448 103.86 99.4365 104.512 99.8283 105.295C100.22 106.078 100.481 106.73 100.416 106.795C100.351 106.861 99.9589 106.208 99.5671 105.425C99.1101 104.643 98.9142 103.99 98.9795 103.925Z" fill="#7BB499"/>
<path d="M96.1067 98.2491C96.172 98.1839 96.5637 98.8363 96.9555 99.6191C97.3472 100.402 97.6083 101.054 97.5431 101.12C97.4778 101.185 97.086 100.532 96.6943 99.7496C96.3026 98.9667 96.0414 98.3144 96.1067 98.2491Z" fill="#7BB499"/>
<path d="M93.2341 92.5734C93.2994 92.5081 93.6912 93.1605 94.0829 93.9434C94.4746 94.7262 94.7358 95.3786 94.6705 95.4438C94.6052 95.5091 94.2135 94.8567 93.8217 94.0738C93.43 93.291 93.1688 92.6386 93.2341 92.5734Z" fill="#7BB499"/>
<path d="M90.3611 86.8976C90.4264 86.8323 90.8181 87.4847 91.2098 88.2676C91.6016 89.0504 91.8627 89.7028 91.7974 89.768C91.7322 89.8333 91.3404 89.1809 90.9487 88.398C90.5569 87.6152 90.2958 86.9628 90.3611 86.8976Z" fill="#7BB499"/>
<path d="M88.2066 82.5919C88.2719 82.5266 88.5331 82.8528 88.7289 83.2442C88.9248 83.6357 89.0554 84.0271 88.9248 84.0271C88.8595 84.0923 88.5983 83.7661 88.4025 83.3747C88.2066 82.9833 88.1413 82.6571 88.2066 82.5919Z" fill="#7BB499"/>
<path d="M59.2831 136.544C59.2831 136.609 58.8914 136.675 58.4344 136.675C57.9773 136.609 57.6509 136.544 57.6509 136.414C57.6509 136.348 58.0426 136.283 58.4996 136.283C58.9567 136.348 59.2831 136.414 59.2831 136.544Z" fill="#7BB499"/>
<path d="M65.9426 137.066C65.9426 137.131 65.1591 137.197 64.245 137.131C63.331 137.066 62.6128 136.936 62.6128 136.805C62.6128 136.74 63.3963 136.675 64.3103 136.74C65.2244 136.805 65.9426 136.936 65.9426 137.066Z" fill="#7BB499"/>
<path d="M72.5368 137.588C72.5368 137.653 71.7533 137.718 70.8393 137.653C69.9252 137.588 69.207 137.457 69.207 137.327C69.207 137.261 69.9905 137.196 70.9046 137.261C71.8186 137.327 72.6021 137.457 72.5368 137.588Z" fill="#7BB499"/>
<path d="M79.1965 138.11C79.1965 138.175 78.413 138.241 77.4989 138.175C76.5849 138.11 75.8667 137.98 75.8667 137.849C75.8667 137.784 76.6502 137.719 77.5642 137.784C78.4783 137.849 79.1965 137.98 79.1965 138.11Z" fill="#7BB499"/>
<path d="M85.8561 138.632C85.8561 138.697 85.0727 138.762 84.1586 138.697C83.2446 138.632 82.5264 138.501 82.5264 138.371C82.5264 138.305 83.3098 138.24 84.2239 138.305C85.0727 138.371 85.8561 138.501 85.8561 138.632Z" fill="#7BB499"/>
<path d="M92.4504 139.154C92.4504 139.219 91.6669 139.284 90.7529 139.219C89.8388 139.154 89.1206 139.024 89.1206 138.893C89.1206 138.828 89.9041 138.763 90.8181 138.828C91.7322 138.893 92.4504 139.024 92.4504 139.154Z" fill="#7BB499"/>
<path d="M97.4125 139.48C97.4125 139.545 97.0208 139.61 96.5638 139.61C96.1067 139.545 95.7803 139.48 95.7803 139.349C95.7803 139.284 96.172 139.219 96.629 139.219C97.0861 139.284 97.4125 139.414 97.4125 139.48Z" fill="#7BB499"/>
<path d="M102.702 64.8058C106.279 49.3616 96.6499 33.9435 81.1934 30.3686C65.737 26.7937 50.3068 36.4157 46.729 51.86C43.1513 67.3042 52.7809 82.7223 68.2373 86.2972C83.6938 89.8721 99.124 80.2501 102.702 64.8058Z" fill="white"/>
<path d="M103.484 58.3235C103.484 58.3235 103.484 58.1931 103.419 57.8669C103.419 57.5407 103.354 57.084 103.354 56.4969C103.354 56.1707 103.288 55.8445 103.288 55.5183C103.223 55.1269 103.158 54.7354 103.093 54.344C103.027 53.8873 102.962 53.4307 102.897 52.974C102.831 52.4521 102.636 51.9302 102.505 51.4083C101.983 49.1902 100.938 46.5806 99.3058 43.7754C97.6735 41.0354 95.2578 38.0997 91.9933 35.6858C91.6016 35.3596 91.1446 35.0987 90.7528 34.7725C90.2958 34.5115 89.8387 34.2506 89.3817 33.9244C88.9247 33.6634 88.4677 33.3373 88.0106 33.1415C87.4883 32.8806 87.0313 32.6849 86.509 32.4239C86.2478 32.2934 85.9867 32.163 85.7255 32.0977C85.4643 32.0325 85.2032 31.902 84.942 31.8368C84.4197 31.6411 83.8974 31.4453 83.3098 31.2496C82.7875 31.0539 82.1998 30.9234 81.6122 30.793C81.0246 30.6625 80.5023 30.4668 79.8494 30.4015C78.6742 30.2058 77.499 30.0101 76.2585 30.0101C75.6709 30.0101 75.018 29.9449 74.3651 29.9449C73.7122 29.9449 73.1246 30.0101 72.4717 30.0101C72.1452 30.0101 71.8188 30.0101 71.4923 30.0753C71.1659 30.1406 70.8394 30.1406 70.513 30.2058C69.8601 30.3363 69.2072 30.4015 68.6196 30.532C67.3791 30.8582 66.0733 31.1192 64.8328 31.6411C63.527 32.0325 62.3517 32.6849 61.1112 33.272C60.5236 33.5982 59.936 33.9896 59.3484 34.3158C59.0873 34.5115 58.7608 34.642 58.4344 34.903L57.5856 35.5554C56.4104 36.3382 55.431 37.3168 54.3211 38.2954C53.8641 38.8173 53.3418 39.3392 52.8847 39.9263L52.493 40.3178L52.1665 40.7744L51.5136 41.6225L50.8607 42.4706L50.2731 43.384L49.6855 44.2973L49.6202 44.6887L49.3591 45.2106C49.0326 45.863 48.7062 46.5806 48.3797 47.233C48.1186 47.9506 47.8574 48.6683 47.5962 49.3206C46.6822 52.1911 46.1599 55.2573 46.0946 58.3235C46.1599 61.455 46.6169 64.4559 47.5962 67.3264C47.8574 68.044 48.1186 68.7617 48.3797 69.4141C48.7062 70.0664 49.0326 70.7841 49.3591 71.4364L49.6202 71.9583L49.8814 72.415L50.469 73.3936L51.0566 74.3069L51.7095 75.155L52.3624 76.0031L52.6889 76.4598L53.0806 76.8512C53.5376 77.3731 54.0599 77.895 54.517 78.4822C55.5616 79.4608 56.6062 80.4393 57.7815 81.2222L58.6302 81.8746C58.8914 82.0703 59.2178 82.266 59.5443 82.4617C60.1319 82.7879 60.7195 83.1793 61.3071 83.5055C62.5476 84.0927 63.7228 84.7451 65.0286 85.1365C66.2691 85.6584 67.5749 85.9193 68.8154 86.2455C69.4683 86.376 70.1212 86.4412 70.7088 86.5717C71.0353 86.637 71.3617 86.637 71.6882 86.7022C72.0146 86.7674 72.3411 86.7674 72.6675 86.7674C73.3204 86.8327 73.908 86.8327 74.5609 86.8327C75.2138 86.8327 75.8014 86.7674 76.4543 86.7674C77.6948 86.7674 78.8701 86.5065 80.0453 86.376C80.6329 86.3108 81.2205 86.1151 81.8081 85.9846C82.3957 85.8541 82.918 85.7236 83.5056 85.5279C84.028 85.3322 84.6156 85.1365 85.1379 84.9408C85.399 84.8755 85.6602 84.7451 85.9214 84.6798C86.1825 84.5493 86.4437 84.4189 86.7048 84.3536C87.2272 84.0927 87.6842 83.897 88.2065 83.636C88.7288 83.4403 89.1206 83.1141 89.5776 82.8531C90.0346 82.5922 90.4917 82.3312 90.9487 82.005C91.3404 81.6789 91.7974 81.4179 92.1892 81.0917C95.4537 78.6127 97.8041 75.7422 99.5016 73.0022C101.134 70.1969 102.179 67.5874 102.701 65.3693C102.831 64.8474 103.027 64.3255 103.093 63.8036C103.158 63.2817 103.223 62.825 103.288 62.4335C103.354 61.9769 103.419 61.5855 103.484 61.2593C103.484 60.8678 103.55 60.5416 103.55 60.2807C103.615 59.6935 103.615 59.2369 103.615 58.9107C103.419 58.454 103.484 58.3235 103.484 58.3235C103.484 58.3235 103.484 58.454 103.484 58.7802C103.484 59.1064 103.484 59.5631 103.419 60.1502C103.419 60.4764 103.419 60.8026 103.354 61.1288C103.288 61.5202 103.223 61.9116 103.158 62.3031C103.093 62.7597 103.027 63.2164 102.962 63.7383C102.897 64.2602 102.701 64.7821 102.57 65.304C102.113 67.5221 101.069 70.1969 99.4364 73.0022C97.8041 75.8074 95.3884 78.7431 92.1239 81.2222C91.7322 81.5484 91.2751 81.8093 90.8834 82.1355C90.4264 82.3965 89.9693 82.6574 89.5123 82.9836C89.0553 83.2446 88.5982 83.5708 88.0759 83.8317C87.5536 84.0927 87.0966 84.2884 86.5743 84.5493C86.3131 84.6798 86.0519 84.8103 85.7908 84.9408C85.5296 85.006 85.2685 85.1365 85.0073 85.267C84.485 85.4627 83.8974 85.6584 83.3751 85.8541C82.8527 86.0498 82.2651 86.1803 81.6775 86.3108C81.0899 86.4413 80.5023 86.637 79.9147 86.7022C78.7395 86.8979 77.499 87.0936 76.2585 87.1589C75.6056 87.1589 75.018 87.2241 74.3651 87.2241C73.7122 87.2241 73.1246 87.1589 72.4717 87.1589C72.1452 87.1589 71.8188 87.1589 71.4923 87.0936C71.1659 87.0284 70.8394 87.0284 70.513 86.9632C69.8601 86.8327 69.2072 86.7674 68.5543 86.637C67.2485 86.3108 65.9427 86.0498 64.7022 85.5279C63.3964 85.1365 62.1559 84.4841 60.9154 83.897C60.3278 83.5708 59.7402 83.1793 59.0873 82.8531C58.7608 82.6574 58.4996 82.527 58.1732 82.266L57.3244 81.6136C56.1492 80.8308 55.1046 79.7869 54.0599 78.8084C53.6029 78.2865 53.0806 77.7646 52.5583 77.1774L52.1665 76.786L51.8401 76.3293L51.1872 75.416L50.5343 74.5026L49.9467 73.5241L49.3591 72.5455L49.0979 72.0888L48.8368 71.5669C48.5103 70.9145 48.1839 70.1969 47.8574 69.5445C47.5962 68.8269 47.3351 68.1093 47.0739 67.3917C46.1599 64.5212 45.6376 61.3897 45.5723 58.2583C45.6376 55.1269 46.0946 52.0607 47.0739 49.1249C47.3351 48.4073 47.5962 47.6897 47.8574 46.9721C48.1839 46.3197 48.5103 45.6021 48.8368 44.9497L49.0979 44.4278L49.3591 43.9711L49.9467 42.9925L50.5343 42.014L51.1872 41.1006L51.8401 40.1873L52.1665 39.7306L52.5583 39.3392C53.0806 38.8173 53.5376 38.2301 54.0599 37.7082C55.1046 36.7296 56.1492 35.7511 57.3244 34.903L58.1732 34.2506C58.4344 34.0549 58.7608 33.8592 59.0873 33.6634C59.6749 33.3373 60.2625 32.9458 60.9154 32.6196C62.1559 32.0325 63.3964 31.3801 64.7022 30.9887C65.9427 30.4668 67.3138 30.2058 68.5543 29.8796C69.2072 29.7491 69.8601 29.6839 70.513 29.5534C70.8394 29.4882 71.1659 29.4882 71.4923 29.423C71.8188 29.3577 72.1452 29.3577 72.4717 29.3577C73.1246 29.3577 73.7775 29.2925 74.3651 29.2925C75.018 29.2925 75.6056 29.3577 76.2585 29.3577C77.499 29.3577 78.7395 29.6187 79.9147 29.8144C80.5023 29.8796 81.0899 30.0753 81.6775 30.2058C82.2651 30.3363 82.8527 30.4668 83.3751 30.6625C83.8974 30.8582 84.485 31.0539 85.0073 31.2496C85.2685 31.3801 85.5296 31.4453 85.7908 31.5758C86.0519 31.7063 86.3131 31.8368 86.5743 31.9673C87.0966 32.2282 87.5536 32.4239 88.0759 32.6849C88.5982 32.8806 88.99 33.2068 89.5123 33.533C89.9693 33.7939 90.4264 34.0549 90.8834 34.3811C91.2751 34.7073 91.7322 35.0335 92.1239 35.2944C95.3884 37.7735 97.8041 40.7092 99.4364 43.5144C101.069 46.3197 102.113 48.9945 102.57 51.2126C102.701 51.7997 102.897 52.2564 102.962 52.7783C103.027 53.3002 103.093 53.7569 103.158 54.2135C103.223 54.6702 103.288 55.0616 103.354 55.3878C103.354 55.7792 103.354 56.1054 103.419 56.3664C103.419 56.9535 103.484 57.4102 103.484 57.7364C103.484 58.1278 103.484 58.3235 103.484 58.3235Z" fill="#7BB499"/>
<path d="M173.59 81.4242C184.808 70.2143 184.808 52.0396 173.59 40.8297C162.371 29.6199 144.182 29.6199 132.963 40.8297C121.744 52.0396 121.744 70.2143 132.963 81.4242C144.182 92.634 162.371 92.634 173.59 81.4242Z" fill="white"/>
<path d="M182.028 61.1287C182.028 61.1287 182.028 60.9982 181.962 60.672C181.962 60.3458 181.897 59.8892 181.897 59.302C181.897 58.9758 181.832 58.6497 181.832 58.3235C181.767 57.932 181.701 57.5406 181.636 57.1492C181.571 56.6925 181.505 56.2358 181.44 55.7792C181.375 55.2573 181.179 54.7353 181.048 54.2134C180.526 51.9953 179.481 49.3858 177.849 46.5806C176.217 43.8406 173.801 40.9048 170.537 38.491C170.145 38.1648 169.688 37.9039 169.296 37.5777C168.839 37.3167 168.382 37.0558 167.925 36.7296C167.468 36.4686 167.011 36.1424 166.554 35.9467C166.032 35.6858 165.575 35.49 165.052 35.2291C164.791 35.0986 164.53 34.9681 164.269 34.9029C164.008 34.8377 163.747 34.7072 163.485 34.6419C162.963 34.4462 162.441 34.2505 161.853 34.0548C161.331 33.8591 160.743 33.7286 160.156 33.5981C159.568 33.4677 159.046 33.2719 158.393 33.2067C157.218 33.011 156.042 32.8153 154.802 32.8153C154.214 32.8153 153.561 32.75 152.909 32.75C152.256 32.75 151.668 32.8153 151.015 32.8153C150.689 32.8153 150.362 32.8153 150.036 32.8805C149.709 32.9458 149.383 32.9458 149.056 33.011C148.404 33.1415 147.751 33.2067 147.163 33.3372C145.923 33.6634 144.617 33.9243 143.376 34.4462C142.07 34.8377 140.895 35.49 139.655 36.0772C139.067 36.4034 138.479 36.7948 137.892 37.121C137.631 37.3167 137.304 37.4472 136.978 37.7082L136.129 38.3605C134.954 39.1434 133.974 40.122 132.865 41.1005C132.408 41.6224 131.885 42.1444 131.428 42.7315L131.036 43.1229L130.71 43.5796L130.057 44.4277L129.404 45.2758L128.817 46.1891L128.229 47.1025L127.968 47.5591L127.707 48.081C127.38 48.7334 127.054 49.451 126.727 50.1034C126.466 50.8211 126.205 51.5387 125.944 52.1911C125.03 55.0615 124.507 58.1277 124.442 61.1939C124.507 64.3254 124.964 67.3263 125.944 70.1968C126.205 70.9145 126.466 71.6321 126.727 72.2845C127.054 72.9368 127.38 73.6545 127.707 74.3068L127.968 74.8288L128.229 75.2854L128.817 76.264L129.404 77.1773L130.057 78.0254L130.71 78.8735L131.036 79.3302L131.428 79.7216C131.885 80.2435 132.408 80.7654 132.865 81.3526C133.909 82.3312 134.954 83.3097 136.129 84.0926L136.978 84.745C137.239 84.9407 137.565 85.1364 137.892 85.3321C138.479 85.6583 139.067 86.0497 139.655 86.3759C140.895 86.9631 142.07 87.6155 143.376 88.0069C144.617 88.5288 145.923 88.7898 147.163 89.1159C147.816 89.2464 148.469 89.3117 149.056 89.4421C149.383 89.5074 149.709 89.5726 150.036 89.5726C150.362 89.6379 150.689 89.6378 151.015 89.6378C151.668 89.7031 152.256 89.7031 152.909 89.7031C153.561 89.7031 154.149 89.6378 154.802 89.6378C156.042 89.6378 157.218 89.3769 158.393 89.2464C158.98 89.1812 159.568 88.9855 160.156 88.855C160.743 88.7245 161.266 88.594 161.853 88.3983C162.376 88.2026 162.963 88.0069 163.485 87.8112C163.747 87.7459 164.008 87.6155 164.269 87.5502C164.53 87.4197 164.791 87.2893 165.052 87.224C165.575 86.9631 166.032 86.7674 166.554 86.5064C167.076 86.3107 167.468 85.9845 167.925 85.7235C168.382 85.4626 168.839 85.2016 169.296 84.8755C169.688 84.5493 170.145 84.2883 170.537 83.9621C173.801 81.4831 176.152 78.6126 177.849 75.8726C179.481 73.0673 180.526 70.4578 181.048 68.2397C181.179 67.7178 181.375 67.1959 181.44 66.674C181.505 66.1521 181.571 65.6954 181.636 65.304C181.701 64.8473 181.767 64.4559 181.832 64.1297C181.832 63.7382 181.897 63.412 181.897 63.1511C181.962 62.564 181.962 62.1073 181.962 61.7811C182.028 61.3244 182.028 61.1287 182.028 61.1287C182.028 61.1287 182.028 61.2592 182.028 61.5854C182.028 61.9116 182.028 62.3682 181.962 62.9554C181.962 63.2816 181.962 63.6078 181.897 63.934C181.832 64.3254 181.767 64.7168 181.701 65.1082C181.636 65.5649 181.571 66.0216 181.505 66.5435C181.44 67.0654 181.244 67.5873 181.114 68.1092C180.657 70.3273 179.612 73.0021 177.98 75.8073C176.348 78.6126 173.932 81.5483 170.667 84.0274C170.276 84.3535 169.819 84.6145 169.427 84.9407C168.97 85.2016 168.513 85.4626 168.056 85.7888C167.599 86.0497 167.142 86.3759 166.619 86.6369C166.097 86.8978 165.64 87.0936 165.118 87.3545C164.857 87.485 164.595 87.6155 164.334 87.7459C164.073 87.8112 163.812 87.9417 163.551 88.0721C163.028 88.2678 162.441 88.4636 161.919 88.6593C161.396 88.855 160.809 88.9855 160.221 89.1159C159.633 89.2464 159.046 89.4421 158.458 89.5074C157.283 89.7031 156.042 89.8988 154.802 89.964C154.149 89.964 153.561 90.0293 152.909 90.0293C152.256 90.0293 151.668 89.964 151.015 89.964C150.689 89.964 150.362 89.964 150.036 89.8988C149.709 89.8336 149.383 89.8336 149.056 89.7683C148.404 89.6379 147.751 89.5726 147.098 89.4421C145.792 89.1159 144.486 88.855 143.246 88.3331C141.94 87.9417 140.699 87.2893 139.459 86.7021C138.871 86.3759 138.284 85.9845 137.631 85.6583C137.304 85.4626 137.043 85.3321 136.717 85.0712L135.868 84.4188C134.693 83.6359 133.648 82.5921 132.603 81.6135C132.146 81.0916 131.624 80.5697 131.102 79.9826L130.71 79.5912L130.384 79.1345L129.731 78.2211L129.078 77.3078L128.49 76.3292L127.903 75.3507L127.641 74.894L127.38 74.3721C127.054 73.7197 126.727 73.0021 126.401 72.3497C126.14 71.6321 125.879 70.9145 125.617 70.1968C124.703 67.3263 124.181 64.1949 124.116 61.0635C124.181 57.932 124.638 54.8658 125.617 51.9301C125.879 51.2125 126.14 50.4949 126.401 49.7772C126.727 49.1249 127.054 48.4072 127.38 47.7548L127.641 47.2329L127.903 46.7763L128.49 45.7977L129.078 44.8191L129.731 43.9058L130.384 42.9925L130.71 42.5358L131.102 42.1444C131.624 41.6224 132.081 41.0353 132.603 40.5134C133.648 39.5348 134.693 38.5562 135.868 37.7082L136.717 37.0558C136.978 36.8601 137.304 36.6643 137.631 36.4686C138.218 36.1424 138.806 35.751 139.459 35.4248C140.699 34.8377 141.94 34.1853 143.246 33.7939C144.486 33.2719 145.857 33.011 147.098 32.6848C147.751 32.5543 148.404 32.4891 149.056 32.3586C149.383 32.2934 149.709 32.2934 150.036 32.2281C150.362 32.1629 150.689 32.1629 151.015 32.1629C151.668 32.1629 152.321 32.0977 152.909 32.0977C153.561 32.0977 154.149 32.1629 154.802 32.1629C156.042 32.1629 157.283 32.4238 158.458 32.6196C159.046 32.6848 159.633 32.8805 160.221 33.011C160.809 33.1415 161.396 33.2719 161.919 33.4677C162.441 33.6634 163.028 33.8591 163.551 34.0548C163.812 34.1853 164.073 34.2505 164.334 34.381C164.595 34.5115 164.857 34.6419 165.118 34.7724C165.64 35.0334 166.097 35.2291 166.619 35.49C167.142 35.6858 167.533 36.012 168.056 36.3381C168.513 36.5991 168.97 36.8601 169.427 37.1862C169.819 37.5124 170.276 37.8386 170.667 38.0996C173.932 40.5786 176.348 43.5144 177.98 46.3196C179.612 49.1249 180.657 51.7996 181.114 54.0177C181.244 54.6049 181.44 55.0615 181.505 55.5834C181.571 56.1054 181.636 56.562 181.701 57.0187C181.767 57.4754 181.832 57.8668 181.897 58.193C181.897 58.5844 181.897 58.9106 181.962 59.1716C181.962 59.7587 182.028 60.2154 182.028 60.5416C182.028 60.9982 182.028 61.1287 182.028 61.1287Z" fill="#7BB499"/>
<path d="M94.6701 174.056C94.6048 173.991 95.1271 173.469 95.78 172.817C96.4329 172.23 97.0205 171.773 97.0858 171.838C97.1511 171.903 96.6288 172.425 95.9759 173.078C95.323 173.73 94.7354 174.122 94.6701 174.056Z" fill="#7BB499"/>
<path d="M89.8385 178.427C89.7732 178.362 90.2956 177.84 90.9485 177.188C91.6014 176.601 92.189 176.144 92.2543 176.209C92.3195 176.275 91.7972 176.796 91.1443 177.449C90.4914 178.101 89.9038 178.493 89.8385 178.427Z" fill="#7BB499"/>
<path d="M84.942 182.799C84.8768 182.733 85.3991 182.211 86.052 181.559C86.7049 180.972 87.2925 180.515 87.3578 180.58C87.4231 180.646 86.9007 181.168 86.2478 181.82C85.5949 182.407 85.0073 182.864 84.942 182.799Z" fill="#7BB499"/>
<path d="M80.1105 187.17C80.0452 187.104 80.5675 186.583 81.2204 185.93C81.8733 185.343 82.4609 184.886 82.5262 184.952C82.5915 185.017 82.0692 185.539 81.4163 186.191C80.7634 186.778 80.1758 187.235 80.1105 187.17Z" fill="#7BB499"/>
<path d="M75.279 191.541C75.2137 191.475 75.736 190.954 76.3889 190.301C77.0418 189.714 77.6294 189.257 77.6947 189.323C77.76 189.388 77.2376 189.91 76.5848 190.562C75.9319 191.149 75.3442 191.606 75.279 191.541Z" fill="#7BB499"/>
<path d="M85.6396 221.434C89.2951 206.007 79.7427 190.54 64.3037 186.888C48.8647 183.235 33.3856 192.78 29.7301 208.207C26.0747 223.634 35.6271 239.101 51.0661 242.753C66.5051 246.406 81.9842 236.861 85.6396 221.434Z" fill="white"/>
<path d="M86.4433 214.83C86.4433 214.83 86.4433 214.699 86.378 214.373C86.378 214.047 86.3127 213.59 86.3127 213.003C86.3127 212.677 86.2475 212.351 86.2475 212.025C86.1822 211.633 86.1169 211.242 86.0516 210.85C85.9863 210.394 85.921 209.937 85.8557 209.48C85.7904 208.958 85.5945 208.437 85.464 207.915C84.9416 205.697 83.897 203.087 82.2648 200.282C80.6325 197.542 78.2168 194.606 74.9523 192.192C74.5606 191.866 74.1035 191.605 73.7118 191.279C73.2548 191.018 72.7977 190.757 72.3407 190.431C71.8837 190.17 71.4267 189.844 70.9696 189.648C70.4473 189.387 69.9903 189.191 69.468 188.93C69.2068 188.8 68.9456 188.669 68.6845 188.604C68.4233 188.539 68.1622 188.408 67.901 188.343C67.3787 188.147 66.8564 187.952 66.2688 187.756C65.7464 187.56 65.1588 187.43 64.5712 187.299C63.9836 187.169 63.4613 186.973 62.8084 186.908C61.6332 186.712 60.458 186.516 59.2175 186.516C58.6299 186.516 57.977 186.451 57.3241 186.451C56.6712 186.451 56.0836 186.516 55.4307 186.516C55.1042 186.516 54.7778 186.516 54.4513 186.582C54.1249 186.647 53.7984 186.647 53.472 186.712C52.8191 186.843 52.1662 186.908 51.5786 187.038C50.338 187.365 49.0322 187.626 47.7917 188.147C46.4859 188.539 45.3107 189.191 44.0702 189.778C43.4826 190.105 42.895 190.496 42.3074 190.822C42.0462 191.018 41.7198 191.148 41.3933 191.409L40.5446 192.062C39.3694 192.845 38.39 193.823 37.2801 194.802C36.8231 195.324 36.3007 195.846 35.8437 196.433L35.452 196.824L35.1255 197.281L34.4726 198.129L33.8197 198.977L33.2321 199.89L32.6445 200.804L32.3833 201.26L32.1222 201.782C31.7957 202.435 31.4693 203.152 31.1428 203.805C30.8817 204.522 30.6205 205.24 30.3594 205.892C29.4453 208.763 28.923 211.829 28.8577 214.895C28.923 218.027 29.38 221.028 30.3594 223.898C30.6205 224.616 30.8817 225.333 31.1428 225.986C31.4693 226.638 31.7957 227.356 32.1222 228.008L32.3833 228.53L32.6445 228.987L33.2321 229.965L33.8197 230.879L34.4726 231.727L35.1255 232.575L35.452 233.031L35.8437 233.423C36.3007 233.945 36.8231 234.467 37.2801 235.054C38.3247 236.032 39.3694 237.011 40.5446 237.794L41.3933 238.446C41.6545 238.642 41.981 238.838 42.3074 239.033C42.895 239.36 43.4826 239.751 44.0702 240.077C45.3107 240.664 46.4859 241.317 47.7917 241.708C49.0322 242.23 50.338 242.491 51.5786 242.817C52.2315 242.948 52.8844 243.013 53.472 243.143C53.7984 243.209 54.1249 243.209 54.4513 243.274C54.7778 243.339 55.1042 243.339 55.4307 243.339C56.0836 243.404 56.6712 243.404 57.3241 243.404C57.977 243.404 58.5646 243.339 59.2175 243.339C60.458 243.339 61.6332 243.078 62.8084 242.948C63.396 242.882 63.9836 242.687 64.5712 242.556C65.1588 242.426 65.6812 242.295 66.2688 242.1C66.7911 241.904 67.3787 241.708 67.901 241.512C68.1622 241.447 68.4233 241.317 68.6845 241.251C68.9456 241.121 69.2068 240.99 69.468 240.925C69.9903 240.664 70.4473 240.469 70.9696 240.208C71.4919 240.012 71.8837 239.686 72.3407 239.425C72.7977 239.164 73.2548 238.903 73.7118 238.577C74.1035 238.25 74.5606 237.989 74.9523 237.663C78.2168 235.184 80.5672 232.314 82.2648 229.574C83.897 226.769 84.9416 224.159 85.464 221.941C85.5945 221.419 85.7904 220.897 85.8557 220.375C85.921 219.853 85.9863 219.397 86.0516 219.005C86.1169 218.548 86.1822 218.157 86.2475 217.831C86.2475 217.439 86.3127 217.113 86.3127 216.852C86.378 216.265 86.378 215.808 86.378 215.482C86.378 214.96 86.4433 214.83 86.4433 214.83C86.4433 214.83 86.4433 214.96 86.4433 215.287C86.4433 215.613 86.4433 216.069 86.378 216.657C86.378 216.983 86.378 217.309 86.3127 217.635C86.2474 218.027 86.1822 218.418 86.1169 218.809C86.0516 219.266 85.9863 219.723 85.921 220.245C85.8557 220.767 85.6598 221.288 85.5293 221.81C85.0722 224.029 84.0276 226.703 82.3953 229.509C80.7631 232.314 78.3474 235.249 75.0829 237.729C74.6912 238.055 74.2341 238.316 73.8424 238.642C73.3853 238.903 72.9283 239.164 72.4713 239.49C72.0143 239.751 71.5572 240.077 71.0349 240.338C70.5126 240.599 70.0556 240.795 69.5333 241.056C69.2721 241.186 69.0109 241.317 68.7498 241.447C68.4886 241.512 68.2275 241.643 67.9663 241.773C67.444 241.969 66.8564 242.165 66.334 242.36C65.8117 242.556 65.2241 242.687 64.6365 242.817C64.0489 242.948 63.4613 243.143 62.8737 243.209C61.6985 243.404 60.458 243.6 59.2175 243.665C58.5646 243.665 57.977 243.73 57.3241 243.73C56.6712 243.73 56.0836 243.665 55.4307 243.665C55.1042 243.665 54.7778 243.665 54.4513 243.6C54.1249 243.535 53.7984 243.535 53.472 243.47C52.8191 243.339 52.1662 243.274 51.5133 243.143C50.2075 242.817 48.9017 242.556 47.6612 242.034C46.3554 241.643 45.1149 240.99 43.8744 240.403C43.2867 240.077 42.6991 239.686 42.0462 239.36C41.7198 239.164 41.4586 239.033 41.1322 238.772L40.2834 238.12C39.1082 237.337 38.0636 236.293 37.0189 235.315C36.5619 234.793 36.0396 234.271 35.5173 233.684L35.1255 233.292L34.7991 232.836L34.1462 231.922L33.4933 231.009L32.9057 230.03L32.3181 229.052L32.0569 228.595L31.7957 228.073C31.4693 227.421 31.1428 226.703 30.8164 226.051C30.5552 225.333 30.2941 224.616 30.0329 223.898C29.1189 221.028 28.5965 217.896 28.5312 214.765C28.5965 211.633 29.0536 208.567 30.0329 205.631C30.2941 204.914 30.5552 204.196 30.8164 203.478C31.1428 202.826 31.4693 202.108 31.7957 201.456L32.0569 200.934L32.3181 200.477L32.9057 199.499L33.4933 198.52L34.1462 197.607L34.7991 196.694L35.1255 196.237L35.5173 195.846C36.0396 195.324 36.4966 194.736 37.0189 194.215C38.0636 193.236 39.1082 192.257 40.2834 191.409L41.1322 190.757C41.3933 190.561 41.7198 190.366 42.0462 190.17C42.6339 189.844 43.2215 189.452 43.8744 189.126C45.1149 188.539 46.3554 187.886 47.6612 187.495C48.9017 186.973 50.2728 186.712 51.5133 186.386C52.1662 186.256 52.8191 186.19 53.472 186.06C53.7984 185.995 54.1249 185.995 54.4513 185.929C54.7778 185.864 55.1042 185.864 55.4307 185.864C56.0836 185.864 56.7365 185.799 57.3241 185.799C57.977 185.799 58.5646 185.864 59.2175 185.864C60.458 185.864 61.6985 186.125 62.8737 186.321C63.4613 186.386 64.0489 186.582 64.6365 186.712C65.2241 186.843 65.8117 186.973 66.334 187.169C66.8564 187.365 67.444 187.56 67.9663 187.756C68.2275 187.886 68.4886 187.952 68.7498 188.082C69.0109 188.213 69.2721 188.343 69.5333 188.474C70.0556 188.735 70.5126 188.93 71.0349 189.191C71.5572 189.387 71.949 189.713 72.4713 190.039C72.9283 190.3 73.3853 190.561 73.8424 190.887C74.2341 191.214 74.6912 191.54 75.0829 191.801C78.3474 194.28 80.7631 197.216 82.3953 200.021C84.0276 202.826 85.0722 205.501 85.5293 207.719C85.6598 208.306 85.8557 208.763 85.921 209.285C85.9863 209.807 86.0516 210.263 86.1169 210.72C86.1822 211.177 86.2474 211.568 86.3127 211.894C86.3127 212.286 86.3127 212.612 86.378 212.873C86.378 213.46 86.4433 213.917 86.4433 214.243C86.4433 214.634 86.4433 214.83 86.4433 214.83Z" fill="#7BB499"/>
<path d="M72.0799 227.682C72.0799 227.682 71.884 227.682 71.5576 227.747C71.1659 227.747 70.6435 227.747 69.9906 227.813C68.5543 227.813 66.5956 227.878 64.1146 227.878C59.1525 227.878 52.3624 227.878 44.8541 227.943C44.397 227.943 43.94 227.943 43.483 227.943H43.2871V227.747C43.2871 220.571 43.3524 214.112 43.3524 209.415C43.3524 207.132 43.4177 205.24 43.4177 203.87C43.4177 203.218 43.4177 202.761 43.483 202.37C43.483 202.043 43.483 201.848 43.5483 201.848C43.5483 201.848 43.5483 202.043 43.6136 202.37C43.6136 202.761 43.6136 203.218 43.6788 203.87C43.6788 205.175 43.7441 207.067 43.7441 209.415C43.7441 214.112 43.8094 220.571 43.8094 227.747L43.6136 227.552C44.0706 227.552 44.5276 227.552 44.9846 227.552C52.493 227.552 59.2831 227.617 64.2451 227.617C66.6609 227.617 68.6848 227.682 70.1212 227.682C70.7741 227.682 71.2964 227.682 71.6882 227.747C71.884 227.617 72.0799 227.617 72.0799 227.682Z" fill="#263238"/>
<path d="M68.8807 208.045C68.8807 208.045 68.6196 208.371 68.032 208.893C67.4444 209.415 66.5956 210.133 65.6162 211.046C63.5923 212.807 60.7195 215.286 57.5203 217.961L57.0633 218.353L56.9327 218.483L56.8021 218.353C55.5616 217.178 54.3211 216.069 53.2112 215.025H53.407C51.3178 216.787 49.4897 218.287 48.1186 219.396C47.531 219.918 47.0086 220.31 46.6169 220.636C46.2252 220.897 46.0293 221.027 46.0293 221.027C46.0293 221.027 46.2252 220.832 46.5516 220.505C46.9434 220.179 47.4004 219.723 47.988 219.201C49.2938 218.092 51.1219 216.526 53.1459 214.764L53.2765 214.699L53.407 214.83C54.517 215.874 55.7575 216.983 56.998 218.157H56.7368L57.1939 217.765C60.3278 215.091 63.2658 212.677 65.3551 210.981C66.3997 210.133 67.1832 209.48 67.8361 208.958C68.5543 208.306 68.8807 208.045 68.8807 208.045Z" fill="#263238"/>
<path d="M68.881 214.047C68.8157 214.047 68.8157 213.394 68.7504 212.285C68.7504 211.176 68.6851 209.611 68.6851 207.914L68.881 208.11C68.7504 208.11 68.6851 208.11 68.5545 208.11C66.7917 208.11 65.1594 208.11 63.9842 208.045C62.809 207.98 62.0908 207.98 62.0908 207.914C62.0908 207.849 62.809 207.849 63.9842 207.784C65.1594 207.719 66.7917 207.719 68.5545 207.719C68.6851 207.719 68.7504 207.719 68.881 207.719H69.0768V207.914C69.0768 209.611 69.0768 211.176 69.0115 212.285C69.0115 213.394 68.9463 214.047 68.881 214.047Z" fill="#263238"/>
<path d="M56.7708 141.225C60.5738 125.835 51.1706 110.278 35.7681 106.478C20.3656 102.678 4.79643 112.074 0.993409 127.464C-2.80962 142.855 6.59361 158.412 21.9961 162.212C37.3986 166.012 52.9677 156.616 56.7708 141.225Z" fill="white"/>
<path d="M57.6509 134.326C57.6509 134.326 57.6509 134.196 57.5856 133.869C57.5856 133.543 57.5203 133.087 57.5203 132.499C57.5203 132.173 57.455 131.847 57.455 131.521C57.3897 131.129 57.3245 130.738 57.2592 130.347C57.1939 129.89 57.1286 129.433 57.0633 128.977C56.998 128.455 56.8021 127.933 56.6716 127.411C56.1492 125.193 55.1046 122.583 53.4724 119.778C51.8401 117.038 49.4244 114.102 46.1599 111.688C45.7682 111.362 45.3111 111.101 44.9194 110.775C44.4624 110.514 44.0053 110.253 43.5483 109.927C43.0913 109.666 42.6342 109.34 42.1772 109.144C41.6549 108.883 41.1979 108.688 40.6756 108.427C40.4144 108.296 40.1532 108.166 39.8921 108.1C39.6309 108.035 39.3698 107.905 39.1086 107.839C38.5863 107.644 38.064 107.448 37.4764 107.252C36.954 107.057 36.3664 106.926 35.7788 106.796C35.1912 106.665 34.6689 106.469 34.016 106.404C32.8408 106.208 31.6656 106.013 30.4251 106.013C29.8374 106.013 29.1845 105.947 28.5316 105.947C27.8787 105.947 27.2911 106.013 26.6382 106.013C26.3118 106.013 25.9853 106.013 25.6589 106.078C25.3324 106.143 25.006 106.143 24.6795 106.208C24.0267 106.339 23.3738 106.404 22.7861 106.535C21.5456 106.861 20.2398 107.122 18.9993 107.644C17.6935 108.035 16.5183 108.688 15.2778 109.275C14.6902 109.601 14.1026 109.992 13.515 110.318C13.2538 110.514 12.9274 110.645 12.6009 110.906L11.7522 111.558C10.577 112.341 9.5976 113.319 8.48768 114.298C8.03065 114.82 7.50833 115.342 7.0513 115.929L6.65956 116.32L6.33311 116.777L5.68021 117.625L5.02732 118.473L4.43971 119.387L3.8521 120.3L3.78681 120.691L3.52565 121.213C3.1992 121.866 2.87275 122.583 2.5463 123.236C2.28514 123.953 2.02398 124.671 1.76283 125.323C0.848768 128.194 0.326449 131.26 0.261159 134.326C0.326449 137.458 0.783478 140.459 1.76283 143.329C2.02398 144.047 2.28514 144.764 2.5463 145.417C2.87275 146.069 3.1992 146.787 3.52565 147.439L3.78681 147.961L4.04797 148.418L4.63558 149.396L5.22319 150.31L5.87608 151.158L6.52898 152.006L6.85543 152.462L7.24717 152.854C7.7042 153.376 8.22652 153.898 8.68355 154.485C9.72818 155.463 10.7728 156.442 11.948 157.225L12.7968 157.877C13.058 158.073 13.3844 158.269 13.7109 158.464C14.2985 158.791 14.8861 159.182 15.4737 159.508C16.7142 160.095 17.8894 160.748 19.1952 161.139C20.4357 161.661 21.7415 161.922 22.982 162.248C23.6349 162.379 24.2878 162.444 24.8754 162.574C25.2019 162.64 25.5283 162.705 25.8548 162.705C26.1812 162.77 26.5077 162.77 26.8341 162.77C27.487 162.835 28.0746 162.835 28.7275 162.835C29.3804 162.835 29.968 162.77 30.6209 162.77C31.8614 162.77 33.0366 162.509 34.2119 162.379C34.7995 162.313 35.3871 162.118 35.9747 161.987C36.5623 161.857 37.0846 161.726 37.6722 161.531C38.1945 161.335 38.7822 161.139 39.3045 160.943C39.5656 160.878 39.8268 160.748 40.0879 160.682C40.3491 160.552 40.6103 160.421 40.8714 160.356C41.3937 160.095 41.8508 159.9 42.3731 159.639C42.8954 159.443 43.2871 159.117 43.7442 158.856C44.2012 158.595 44.6582 158.334 45.1153 158.008C45.507 157.681 45.964 157.421 46.3558 157.094C49.6203 154.615 51.9707 151.745 53.6682 149.005C55.3005 146.2 56.3451 143.59 56.8674 141.372C56.998 140.85 57.1939 140.328 57.2592 139.806C57.3245 139.284 57.3897 138.828 57.455 138.436C57.5203 137.98 57.5856 137.588 57.6509 137.262C57.6509 136.87 57.7162 136.544 57.7162 136.283C57.7815 135.696 57.7815 135.239 57.7815 134.913C57.6509 134.522 57.6509 134.326 57.6509 134.326C57.6509 134.326 57.6509 134.457 57.6509 134.783C57.6509 135.109 57.6509 135.566 57.5856 136.153C57.5856 136.479 57.5856 136.805 57.5203 137.131C57.455 137.523 57.3897 137.914 57.3245 138.306C57.2592 138.762 57.1939 139.219 57.1286 139.741C57.0633 140.263 56.8674 140.785 56.7368 141.307C56.2798 143.525 55.2352 146.2 53.6029 149.005C51.9707 151.81 49.555 154.746 46.2905 157.225C45.8987 157.551 45.4417 157.812 45.05 158.138C44.5929 158.399 44.1359 158.66 43.6789 158.986C43.2219 159.247 42.7648 159.573 42.2425 159.834C41.7202 160.095 41.2632 160.291 40.7408 160.552C40.4797 160.682 40.2185 160.813 39.9574 160.943C39.6962 161.009 39.435 161.139 39.1739 161.27C38.6516 161.465 38.064 161.661 37.5416 161.857C37.0193 162.052 36.4317 162.183 35.8441 162.313C35.2565 162.444 34.6689 162.64 34.0813 162.705C32.9061 162.901 31.6656 163.096 30.4251 163.161C29.7722 163.161 29.1845 163.227 28.5316 163.227C27.8787 163.227 27.2911 163.161 26.6382 163.161C26.3118 163.161 25.9853 163.161 25.6589 163.096C25.3324 163.031 25.006 163.031 24.6795 162.966C24.0267 162.835 23.3738 162.77 22.7209 162.64C21.4151 162.313 20.1093 162.052 18.8688 161.531C17.563 161.139 16.3225 160.487 15.0819 159.9C14.4943 159.573 13.9067 159.182 13.2538 158.856C12.9274 158.66 12.6662 158.53 12.3398 158.269L11.491 157.616C10.3158 156.833 9.27115 155.79 8.22652 154.811C7.76949 154.289 7.24717 153.767 6.72485 153.18L6.33311 152.789L6.00666 152.332L5.35376 151.419L4.70087 150.505L4.11326 149.527L3.52565 148.548L3.26449 148.091V147.635C2.93804 146.982 2.61159 146.265 2.28514 145.612C2.02398 144.895 1.76282 144.177 1.50167 143.46C0.587608 140.589 0.0652898 137.458 0 134.326C0.0652898 131.195 0.522318 128.129 1.50167 125.193C1.76282 124.475 2.02398 123.758 2.28514 123.04C2.61159 122.388 2.93804 121.67 3.26449 121.018L3.52565 120.496L3.78681 120.039L4.37442 119.06L4.96203 118.082L5.61492 117.168L6.26782 116.255L6.59427 115.798L6.98601 115.407C7.50833 114.885 7.96536 114.298 8.48768 113.776C9.53231 112.798 10.577 111.819 11.7522 110.971L12.6009 110.318C12.8621 110.123 13.1885 109.927 13.515 109.731C14.1026 109.405 14.6902 109.014 15.3431 108.688C16.5836 108.1 17.8241 107.448 19.1299 107.057C20.3704 106.535 21.7415 106.274 22.982 105.947C23.6349 105.817 24.2878 105.752 24.9407 105.621C25.2672 105.556 25.5936 105.556 25.9201 105.491C26.2465 105.426 26.573 105.426 26.8994 105.426C27.5523 105.426 28.2052 105.36 28.7928 105.36C29.4457 105.36 30.0333 105.426 30.6862 105.426C31.9267 105.426 33.1672 105.687 34.3424 105.882C34.93 105.947 35.5177 106.143 36.1053 106.274C36.6929 106.404 37.2805 106.535 37.8028 106.73C38.3251 106.926 38.9127 107.122 39.435 107.318C39.6962 107.448 39.9574 107.513 40.2185 107.644C40.4797 107.774 40.7408 107.905 41.002 108.035C41.5243 108.296 41.9813 108.492 42.5037 108.753C43.026 108.948 43.4177 109.275 43.94 109.601C44.3971 109.862 44.8541 110.123 45.3111 110.449C45.7029 110.775 46.1599 111.101 46.5516 111.362C49.8161 113.841 52.2318 116.777 53.8641 119.582C55.4963 122.388 56.541 125.062 56.998 127.28C57.1286 127.868 57.3245 128.324 57.3897 128.846C57.455 129.368 57.5203 129.825 57.5856 130.281C57.6509 130.738 57.7162 131.129 57.7815 131.456C57.7815 131.847 57.7815 132.173 57.8468 132.434C57.8468 133.021 57.9121 133.478 57.9121 133.804C57.6509 134.196 57.6509 134.326 57.6509 134.326Z" fill="#7BB499"/>
<path d="M29.6419 121.865L32.7759 128.193C32.9064 128.454 33.1023 128.585 33.3635 128.65L40.3495 129.694C41.0024 129.759 41.2635 130.607 40.8065 131.064L35.7792 135.957C35.5833 136.152 35.518 136.413 35.518 136.674L36.6932 143.59C36.8238 144.242 36.1056 144.764 35.518 144.438L29.3155 141.176C29.0543 141.045 28.7932 141.045 28.532 141.176L22.3295 144.438C21.7419 144.764 21.0237 144.242 21.1543 143.59L22.3295 136.674C22.3948 136.413 22.2642 136.152 22.0683 135.957L17.041 131.064C16.584 130.607 16.8451 129.759 17.498 129.694L24.4841 128.65C24.7452 128.585 25.0064 128.454 25.0717 128.193L28.2056 121.865C28.532 121.278 29.3808 121.278 29.6419 121.865Z" fill="#FAFAFA"/>
<path d="M29.6417 121.865C29.6417 121.865 29.5764 121.8 29.5111 121.67C29.4458 121.539 29.2499 121.409 28.9888 121.409C28.7276 121.409 28.4012 121.539 28.2053 121.931C28.0094 122.322 27.8135 122.713 27.6177 123.17C27.1606 124.149 26.573 125.258 25.9201 126.628C25.7243 126.954 25.5937 127.28 25.3978 127.672C25.3325 127.867 25.202 128.063 25.1367 128.193C25.0061 128.389 24.8102 128.585 24.6143 128.65C23.7656 128.781 22.8515 128.911 21.9375 129.042C21.0234 129.172 20.0441 129.303 18.9994 129.498C18.4771 129.563 17.9548 129.629 17.4325 129.759C16.9754 129.824 16.7796 130.477 17.0407 130.803C18.6077 132.369 20.3052 134 22.1333 135.696C22.3945 135.892 22.5251 136.348 22.4598 136.674C22.3945 137.001 22.3292 137.327 22.3292 137.588C22.1986 138.24 22.1333 138.827 22.0028 139.48C21.8069 140.784 21.5457 142.089 21.3499 143.394C21.2846 143.655 21.4151 143.981 21.611 144.112C21.7416 144.177 21.8722 144.242 22.0028 144.177C22.1333 144.177 22.2639 144.112 22.3945 144.046C22.9821 143.72 23.635 143.394 24.2226 143.068C25.4631 142.415 26.7036 141.763 28.0094 141.111L28.4664 140.85C28.6623 140.784 28.8582 140.719 29.1193 140.784C29.3152 140.85 29.5111 140.98 29.6417 141.045L30.0987 141.306C30.7516 141.633 31.3392 141.959 31.9921 142.285C33.2326 142.937 34.4731 143.59 35.6483 144.177C35.9095 144.307 36.2359 144.242 36.3665 144.046C36.4318 143.916 36.4971 143.851 36.4971 143.72C36.4971 143.59 36.4971 143.459 36.4318 143.264C36.3012 142.611 36.2359 141.959 36.1054 141.306C35.9095 140.002 35.6483 138.762 35.4525 137.523C35.3872 137.196 35.3219 136.935 35.3219 136.609C35.2566 136.283 35.3872 135.826 35.6483 135.631C36.1054 135.239 36.4971 134.783 36.9541 134.391C37.8029 133.543 38.6517 132.76 39.4351 131.977C39.8269 131.586 40.2186 131.194 40.6103 130.868C41.0021 130.542 40.9368 129.955 40.5451 129.759C40.3492 129.629 40.088 129.629 39.8269 129.629C39.5657 129.563 39.3046 129.563 39.1087 129.498C38.6517 129.433 38.1293 129.368 37.6723 129.303C36.7583 129.172 35.8442 129.042 34.9954 128.911C34.6037 128.846 34.1467 128.781 33.7549 128.715C33.559 128.65 33.3632 128.65 33.1673 128.585C32.9714 128.52 32.7756 128.389 32.645 128.193C31.9921 126.823 31.4045 125.714 30.9475 124.736C30.4904 123.823 30.164 123.04 29.9028 122.518C29.7722 122.257 29.707 122.061 29.6417 121.931C29.707 121.931 29.6417 121.865 29.6417 121.865C29.6417 121.865 29.7069 121.931 29.7722 122.061C29.8375 122.192 29.9681 122.387 30.0987 122.648C30.3598 123.17 30.7516 123.888 31.2086 124.801C31.6656 125.714 32.2533 126.889 32.9062 128.193C32.9714 128.324 33.102 128.454 33.2979 128.52C33.4285 128.585 33.6896 128.585 33.8855 128.585C34.2772 128.65 34.669 128.715 35.126 128.781C35.9748 128.911 36.8235 129.042 37.8029 129.172C38.2599 129.237 38.7169 129.303 39.2393 129.368C39.5004 129.433 39.7616 129.433 39.9575 129.498C40.2186 129.563 40.4798 129.498 40.7409 129.694C41.0021 129.824 41.198 130.151 41.198 130.412C41.2632 130.738 41.0674 131.064 40.8715 131.26C40.4798 131.651 40.088 132.043 39.6963 132.434C38.9128 133.217 38.064 134 37.2153 134.848C36.8235 135.239 36.3665 135.696 35.9095 136.087C35.7136 136.283 35.583 136.479 35.6483 136.74C35.7136 137.066 35.7789 137.327 35.7789 137.653C35.9748 138.893 36.2359 140.132 36.4318 141.437C36.5624 142.089 36.6277 142.742 36.7582 143.394C36.7582 143.524 36.8235 143.72 36.8235 143.916C36.8235 144.112 36.693 144.307 36.5624 144.438C36.3012 144.764 35.8442 144.829 35.4525 144.699C34.2772 144.046 33.0367 143.459 31.7962 142.807C31.2086 142.481 30.5557 142.154 29.9028 141.828L29.4458 141.567C29.3152 141.502 29.1193 141.372 28.9888 141.372C28.8582 141.372 28.7276 141.372 28.597 141.437L28.14 141.698C26.8995 142.35 25.5937 143.003 24.3532 143.655C23.7656 143.981 23.1127 144.307 22.5251 144.634C22.3945 144.699 22.1986 144.829 22.0028 144.829C21.8069 144.829 21.611 144.764 21.4151 144.699C21.0234 144.503 20.8928 144.046 20.9581 143.655C21.2193 142.35 21.4151 140.98 21.611 139.741C21.7416 139.088 21.8069 138.436 21.9375 137.849C22.0028 137.523 22.068 137.196 22.068 136.935C22.1333 136.674 22.068 136.414 21.8722 136.218C20.1093 134.456 18.4118 132.825 16.7796 131.26C16.5837 130.999 16.5184 130.673 16.649 130.346C16.7796 130.02 17.0407 129.824 17.3019 129.759C17.8242 129.694 18.3465 129.629 18.8688 129.563C19.9135 129.433 20.8928 129.303 21.8069 129.172C22.7209 129.042 23.635 128.911 24.4838 128.781C24.6796 128.715 24.8102 128.585 24.8755 128.454C24.9408 128.259 25.0714 128.063 25.1367 127.933C25.3325 127.606 25.4631 127.215 25.659 126.889C26.3119 125.584 26.8995 124.41 27.3565 123.431C27.6177 122.974 27.8135 122.518 28.0094 122.192C28.2053 121.8 28.597 121.604 28.8582 121.67C29.1193 121.67 29.3152 121.865 29.4458 121.931C29.6417 121.8 29.6417 121.865 29.6417 121.865Z" fill="#263238"/>
<path d="M56.7708 141.225C60.5738 125.835 51.1706 110.278 35.7681 106.478C20.3656 102.678 4.79643 112.074 0.993409 127.464C-2.80962 142.855 6.59361 158.412 21.9961 162.212C37.3986 166.012 52.9677 156.616 56.7708 141.225Z" fill="white"/>
<path d="M57.6509 134.326C57.6509 134.326 57.6509 134.196 57.5856 133.869C57.5856 133.543 57.5203 133.087 57.5203 132.499C57.5203 132.173 57.455 131.847 57.455 131.521C57.3897 131.129 57.3245 130.738 57.2592 130.347C57.1939 129.89 57.1286 129.433 57.0633 128.977C56.998 128.455 56.8021 127.933 56.6716 127.411C56.1492 125.193 55.1046 122.583 53.4724 119.778C51.8401 117.038 49.4244 114.102 46.1599 111.688C45.7682 111.362 45.3111 111.101 44.9194 110.775C44.4624 110.514 44.0053 110.253 43.5483 109.927C43.0913 109.666 42.6342 109.34 42.1772 109.144C41.6549 108.883 41.1979 108.688 40.6756 108.427C40.4144 108.296 40.1532 108.166 39.8921 108.1C39.6309 108.035 39.3698 107.905 39.1086 107.839C38.5863 107.644 38.064 107.448 37.4764 107.252C36.954 107.057 36.3664 106.926 35.7788 106.796C35.1912 106.665 34.6689 106.469 34.016 106.404C32.8408 106.208 31.6656 106.013 30.4251 106.013C29.8374 106.013 29.1845 105.947 28.5316 105.947C27.8787 105.947 27.2911 106.013 26.6382 106.013C26.3118 106.013 25.9853 106.013 25.6589 106.078C25.3324 106.143 25.006 106.143 24.6795 106.208C24.0267 106.339 23.3738 106.404 22.7861 106.535C21.5456 106.861 20.2398 107.122 18.9993 107.644C17.6935 108.035 16.5183 108.688 15.2778 109.275C14.6902 109.601 14.1026 109.992 13.515 110.318C13.2538 110.514 12.9274 110.645 12.6009 110.906L11.7522 111.558C10.577 112.341 9.5976 113.319 8.48768 114.298C8.03065 114.82 7.50833 115.342 7.0513 115.929L6.65956 116.32L6.33311 116.777L5.68021 117.625L5.02732 118.473L4.43971 119.387L3.8521 120.3L3.78681 120.691L3.52565 121.213C3.1992 121.866 2.87275 122.583 2.5463 123.236C2.28514 123.953 2.02398 124.671 1.76283 125.323C0.848768 128.194 0.326449 131.26 0.261159 134.326C0.326449 137.458 0.783478 140.459 1.76283 143.329C2.02398 144.047 2.28514 144.764 2.5463 145.417C2.87275 146.069 3.1992 146.787 3.52565 147.439L3.78681 147.961L4.04797 148.418L4.63558 149.396L5.22319 150.31L5.87608 151.158L6.52898 152.006L6.85543 152.462L7.24717 152.854C7.7042 153.376 8.22652 153.898 8.68355 154.485C9.72818 155.463 10.7728 156.442 11.948 157.225L12.7968 157.877C13.058 158.073 13.3844 158.269 13.7109 158.464C14.2985 158.791 14.8861 159.182 15.4737 159.508C16.7142 160.095 17.8894 160.748 19.1952 161.139C20.4357 161.661 21.7415 161.922 22.982 162.248C23.6349 162.379 24.2878 162.444 24.8754 162.574C25.2019 162.64 25.5283 162.705 25.8548 162.705C26.1812 162.77 26.5077 162.77 26.8341 162.77C27.487 162.835 28.0746 162.835 28.7275 162.835C29.3804 162.835 29.968 162.77 30.6209 162.77C31.8614 162.77 33.0366 162.509 34.2119 162.379C34.7995 162.313 35.3871 162.118 35.9747 161.987C36.5623 161.857 37.0846 161.726 37.6722 161.531C38.1945 161.335 38.7822 161.139 39.3045 160.943C39.5656 160.878 39.8268 160.748 40.0879 160.682C40.3491 160.552 40.6103 160.421 40.8714 160.356C41.3937 160.095 41.8508 159.9 42.3731 159.639C42.8954 159.443 43.2871 159.117 43.7442 158.856C44.2012 158.595 44.6582 158.334 45.1153 158.008C45.507 157.681 45.964 157.421 46.3558 157.094C49.6203 154.615 51.9707 151.745 53.6682 149.005C55.3005 146.2 56.3451 143.59 56.8674 141.372C56.998 140.85 57.1939 140.328 57.2592 139.806C57.3245 139.284 57.3897 138.828 57.455 138.436C57.5203 137.98 57.5856 137.588 57.6509 137.262C57.6509 136.87 57.7162 136.544 57.7162 136.283C57.7815 135.696 57.7815 135.239 57.7815 134.913C57.6509 134.522 57.6509 134.326 57.6509 134.326C57.6509 134.326 57.6509 134.457 57.6509 134.783C57.6509 135.109 57.6509 135.566 57.5856 136.153C57.5856 136.479 57.5856 136.805 57.5203 137.131C57.455 137.523 57.3897 137.914 57.3245 138.306C57.2592 138.762 57.1939 139.219 57.1286 139.741C57.0633 140.263 56.8674 140.785 56.7368 141.307C56.2798 143.525 55.2352 146.2 53.6029 149.005C51.9707 151.81 49.555 154.746 46.2905 157.225C45.8987 157.551 45.4417 157.812 45.05 158.138C44.5929 158.399 44.1359 158.66 43.6789 158.986C43.2219 159.247 42.7648 159.573 42.2425 159.834C41.7202 160.095 41.2632 160.291 40.7408 160.552C40.4797 160.682 40.2185 160.813 39.9574 160.943C39.6962 161.009 39.435 161.139 39.1739 161.27C38.6516 161.465 38.064 161.661 37.5416 161.857C37.0193 162.052 36.4317 162.183 35.8441 162.313C35.2565 162.444 34.6689 162.64 34.0813 162.705C32.9061 162.901 31.6656 163.096 30.4251 163.161C29.7722 163.161 29.1845 163.227 28.5316 163.227C27.8787 163.227 27.2911 163.161 26.6382 163.161C26.3118 163.161 25.9853 163.161 25.6589 163.096C25.3324 163.031 25.006 163.031 24.6795 162.966C24.0267 162.835 23.3738 162.77 22.7209 162.64C21.4151 162.313 20.1093 162.052 18.8688 161.531C17.563 161.139 16.3225 160.487 15.0819 159.9C14.4943 159.573 13.9067 159.182 13.2538 158.856C12.9274 158.66 12.6662 158.53 12.3398 158.269L11.491 157.616C10.3158 156.833 9.27115 155.79 8.22652 154.811C7.76949 154.289 7.24717 153.767 6.72485 153.18L6.33311 152.789L6.00666 152.332L5.35376 151.419L4.70087 150.505L4.11326 149.527L3.52565 148.548L3.26449 148.091V147.635C2.93804 146.982 2.61159 146.265 2.28514 145.612C2.02398 144.895 1.76282 144.177 1.50167 143.46C0.587608 140.589 0.0652898 137.458 0 134.326C0.0652898 131.195 0.522318 128.129 1.50167 125.193C1.76282 124.475 2.02398 123.758 2.28514 123.04C2.61159 122.388 2.93804 121.67 3.26449 121.018L3.52565 120.496L3.78681 120.039L4.37442 119.06L4.96203 118.082L5.61492 117.168L6.26782 116.255L6.59427 115.798L6.98601 115.407C7.50833 114.885 7.96536 114.298 8.48768 113.776C9.53231 112.798 10.577 111.819 11.7522 110.971L12.6009 110.318C12.8621 110.123 13.1885 109.927 13.515 109.731C14.1026 109.405 14.6902 109.014 15.3431 108.688C16.5836 108.1 17.8241 107.448 19.1299 107.057C20.3704 106.535 21.7415 106.274 22.982 105.947C23.6349 105.817 24.2878 105.752 24.9407 105.621C25.2672 105.556 25.5936 105.556 25.9201 105.491C26.2465 105.426 26.573 105.426 26.8994 105.426C27.5523 105.426 28.2052 105.36 28.7928 105.36C29.4457 105.36 30.0333 105.426 30.6862 105.426C31.9267 105.426 33.1672 105.687 34.3424 105.882C34.93 105.947 35.5177 106.143 36.1053 106.274C36.6929 106.404 37.2805 106.535 37.8028 106.73C38.3251 106.926 38.9127 107.122 39.435 107.318C39.6962 107.448 39.9574 107.513 40.2185 107.644C40.4797 107.774 40.7408 107.905 41.002 108.035C41.5243 108.296 41.9813 108.492 42.5037 108.753C43.026 108.948 43.4177 109.275 43.94 109.601C44.3971 109.862 44.8541 110.123 45.3111 110.449C45.7029 110.775 46.1599 111.101 46.5516 111.362C49.8161 113.841 52.2318 116.777 53.8641 119.582C55.4963 122.388 56.541 125.062 56.998 127.28C57.1286 127.868 57.3245 128.324 57.3897 128.846C57.455 129.368 57.5203 129.825 57.5856 130.281C57.6509 130.738 57.7162 131.129 57.7815 131.456C57.7815 131.847 57.7815 132.173 57.8468 132.434C57.8468 133.021 57.9121 133.478 57.9121 133.804C57.6509 134.196 57.6509 134.326 57.6509 134.326Z" fill="#7BB499"/>
<g opacity="0.8">
<path d="M171.276 57.455C170.979 56.0434 170.498 54.6855 169.868 53.4169C168.942 51.5408 167.702 49.8255 166.202 48.3603C165.202 47.3955 164.109 46.5378 162.906 45.8052C162.628 45.6444 162.35 45.4836 162.072 45.3228C160.758 44.6081 159.35 44.0363 157.869 43.6432C157.369 43.5182 156.869 43.3931 156.351 43.3038C155.832 43.2144 155.314 43.1429 154.777 43.0893C154.11 43.0357 153.443 43 152.758 43C152.055 43 151.351 43.0357 150.666 43.1251C150.147 43.1787 149.629 43.2501 149.129 43.3574C141.685 44.7868 135.852 50.433 134.37 57.5979C134.259 58.0804 134.185 58.5807 134.13 59.081C134.037 59.7778 134 60.5104 134 61.2608C134 61.8683 134.037 62.458 134.093 63.0476C134.148 63.5658 134.222 64.066 134.315 64.5663C134.407 65.0666 134.537 65.5491 134.667 66.0315C135.074 67.4609 135.667 68.8189 136.407 70.0875C136.574 70.3555 136.741 70.6235 136.907 70.8915C137.666 72.0529 138.555 73.1071 139.555 74.072C141.074 75.5193 142.833 76.7343 144.796 77.6098C146.11 78.2173 147.518 78.664 148.981 78.9677C150.258 79.2179 151.573 79.3608 152.925 79.343C153.703 79.343 154.48 79.2894 155.24 79.2C156.202 79.0749 157.165 78.8963 158.073 78.6282C164.276 76.8951 169.146 72.1959 170.942 66.2102C171.202 65.3168 171.405 64.4055 171.535 63.4764C171.646 62.6902 171.683 61.9041 171.683 61.0821C171.665 59.8493 171.535 58.6343 171.276 57.455Z" fill="#7BB499"/>
<path d="M166.869 61.1717C166.869 68.3545 161.091 74.2151 153.777 74.6797C153.462 74.6975 153.147 74.7154 152.833 74.7154C145.074 74.7154 138.796 68.6582 138.796 61.1717C138.796 53.6851 145.074 47.6279 152.833 47.6279C153.147 47.6279 153.462 47.6458 153.777 47.6637C161.091 48.1282 166.869 54.0067 166.869 61.1717Z" fill="#7BB499"/>
<path d="M159.823 54.7797V52.1353H145.99V54.7975H149.12C150.49 54.7975 151.62 55.0477 152.323 55.7088C152.527 55.8875 152.675 56.1019 152.805 56.352H145.99V59.0143H153.064C152.675 60.6582 151.286 61.3014 149.36 61.3014H146.861V64.0888L152.008 70.3603L152.508 70.9678H156.693L154.342 68.0911L151.064 64.0709C153.86 63.5706 156.249 61.8374 156.545 58.9965H159.823V56.3342H156.304C156.064 55.6016 155.786 55.0477 155.582 54.8511L155.656 54.7797H159.823Z" fill="white"/>
</g>
<g opacity="0.8">
<path d="M39.4161 151.885C49.0543 146.372 52.3983 134.09 46.8852 124.452C41.3722 114.813 29.0896 111.469 19.4515 116.983C9.81328 122.496 6.46924 134.778 11.9823 144.416C17.4954 154.054 29.7779 157.399 39.4161 151.885Z" fill="#F89F36"/>
<path d="M37.3527 134.806C37.0434 133.878 36.4248 133.259 35.4968 132.95C35.0638 132.826 34.6308 132.764 34.1359 132.641C34.1977 132.579 34.1977 132.579 34.2596 132.517C36.1155 131.032 35.2494 127.877 33.5172 127.135C32.8367 126.825 32.0944 126.702 31.352 126.64C30.7953 126.64 30.3004 126.64 29.7436 126.702C29.558 125.774 29.3106 124.475 29.0631 123.485L27.1454 123.856C27.331 124.846 27.5784 126.083 27.764 127.011C27.2072 127.135 26.7123 127.197 26.2174 127.32C26.0318 126.392 25.7844 125.155 25.5988 124.165L23.6811 124.537C23.8667 125.588 24.1141 126.825 24.2997 127.753C23.0006 128.001 21.7015 128.248 20.4023 128.558C20.5261 129.238 20.6498 129.919 20.8354 130.599C21.1447 130.537 21.3921 130.475 21.5777 130.475C21.8252 130.413 22.0726 130.352 22.3201 130.352C23.0006 130.29 23.4336 130.537 23.5573 131.218C24.1141 134.002 24.6709 136.785 25.2276 139.507C25.3514 140.126 25.1658 140.373 24.5471 140.497C24.1141 140.559 23.6811 140.683 23.248 140.745C23.248 141.549 23.3099 142.291 23.3099 143.095C24.609 142.848 25.9081 142.6 27.2072 142.353C27.3928 143.343 27.6403 144.58 27.8877 145.632L29.8055 145.261C29.6199 144.209 29.3724 142.972 29.1868 142.044C29.7436 141.92 30.2385 141.858 30.7334 141.796C30.919 142.786 31.1664 144.023 31.4139 145.013L33.3316 144.642C33.1461 143.59 32.8986 142.353 32.713 141.425C32.7749 141.425 32.8367 141.363 32.8986 141.363C33.7647 140.992 34.6926 140.745 35.5587 140.373C36.6722 139.817 37.4764 138.951 37.7239 137.713C37.7858 136.723 37.662 135.796 37.3527 134.806ZM26.7123 129.671C27.8877 129.424 29.0631 129.053 30.2385 129.362C31.0427 129.547 31.5376 130.042 31.5995 130.785C31.7232 131.527 31.4139 132.208 30.6715 132.579C29.6817 133.135 28.5682 133.383 27.4547 133.568C27.2072 132.269 26.9598 131.032 26.7123 129.671ZM32.8986 138.456C31.9088 139.136 30.7953 139.384 29.6817 139.631C29.3724 139.693 29.0631 139.755 28.6919 139.817C28.3826 138.394 28.1352 136.971 27.8259 135.548C29.3106 135.239 30.7334 134.806 32.2181 135.177C33.0223 135.362 33.5172 135.796 33.7028 136.6C33.8884 137.342 33.5791 137.961 32.8986 138.456Z" fill="white"/>
</g>
<g opacity="0.8">
<path d="M84.0522 75.249C93.3391 69.9369 96.5612 58.1021 91.2491 48.8153C85.937 39.5284 74.1022 36.3062 64.8153 41.6184C55.5285 46.9305 52.3063 58.7653 57.6184 68.0521C62.9306 77.339 74.7654 80.5612 84.0522 75.249Z" fill="#6D75B6"/>
<path d="M74.7319 63.8589V69.164L81.2888 59.9248L74.7319 63.8589Z" fill="white"/>
<path d="M81.0503 58.196L74.7319 47.7051V55.3349L81.0503 58.196Z" fill="white"/>
<path d="M74.7319 55.9307V62.4875L80.9907 58.7918L74.7319 55.9307Z" fill="white"/>
<path d="M67.8174 58.196L74.1358 47.7051V55.3349L67.8174 58.196Z" fill="white"/>
<path d="M74.1358 55.9307V62.4875L67.877 58.7918L74.1358 55.9307Z" fill="white"/>
<path d="M74.1359 63.8589V69.164L67.5791 59.9248L74.1359 63.8589Z" fill="white"/>
</g>
</g>
<defs>
<clipPath id="clip0">
<rect width="294" height="271" fill="white"/>
</clipPath>
</defs>
</svg>
