<svg width="208" height="231" viewBox="0 0 208 231" fill="none" xmlns="http://www.w3.org/2000/svg">
<g clip-path="url(#clip0)">
<path d="M4.4561 31.9481C2.228 34.8405 1.57267 38.7848 2.09693 42.3346C2.62119 45.8844 4.32503 49.3027 6.42207 52.1951C10.4851 57.98 17.4315 62.1871 23.8537 65.0796C26.475 57.717 23.4605 49.1712 21.4945 44.964C18.6111 38.3903 9.3055 28.0039 4.4561 31.9481Z" fill="#E0E0E0"/>
<path d="M23.4604 78.6213C22.4119 74.677 18.8732 71.6531 14.9412 70.7328C11.0093 69.8125 6.68414 70.8643 3.27645 73.0993C1.70367 74.1511 0.26196 75.5974 -0.000169662 77.5695C-0.131235 79.2786 0.917285 80.9878 2.359 82.0396C3.80071 82.9599 5.63562 83.3543 7.33946 83.4858C13.3685 83.7487 19.2664 82.9599 23.4604 78.6213Z" fill="#E0E0E0"/>
<path d="M41.2855 93.8725C41.2855 93.8725 40.8923 93.4781 40.2369 92.8207C39.4505 92.0319 38.5331 91.1116 37.4846 89.9283C35.1254 87.5618 31.8488 84.1434 27.5236 81.3825C23.1985 78.6215 18.6112 77.3068 15.3346 77.1753C11.9269 76.9124 9.96094 77.7012 9.96094 77.4383C9.96094 77.4383 10.4852 77.1753 11.4027 77.0438C12.3201 76.7809 13.7618 76.6494 15.4657 76.6494C18.8734 76.6494 23.5917 77.9642 28.0479 80.8566C32.5041 83.749 35.6497 87.1673 38.0088 89.6653C39.1884 90.9801 39.9748 92.0319 40.6301 92.6893C41.0233 93.3466 41.4165 93.7411 41.2855 93.8725Z" fill="#EBEBEB"/>
<path d="M10.8784 40.4941C10.8784 40.4941 11.0095 40.6256 11.2716 41.02C11.5337 41.4145 11.7959 41.9404 12.1891 42.5977C12.9755 44.0439 14.024 46.0161 15.3346 48.5141C17.9559 53.5101 21.6257 60.3467 25.8198 67.8407C30.0139 75.3348 33.8148 82.04 36.6982 86.9045C38.0089 89.271 39.1884 91.2431 39.9748 92.6894C40.368 93.3467 40.6302 93.8726 40.8923 94.267C41.0233 94.6615 41.1544 94.7929 41.1544 94.7929C41.1544 94.7929 41.0233 94.6615 40.7612 94.267C40.4991 93.8726 40.1059 93.3467 39.7127 92.6894C38.9263 91.3746 37.6157 89.4025 36.1739 87.036C33.2905 82.1714 29.3586 75.4663 25.1645 67.9722C20.9704 60.6097 17.4317 53.6416 14.8104 48.6455C13.4997 46.1475 12.5823 44.0439 11.9269 42.7292C11.6648 42.0718 11.4027 41.5459 11.1405 41.02C11.0095 40.6256 10.8784 40.4941 10.8784 40.4941Z" fill="#EBEBEB"/>
<path d="M33.5525 77.175C31.1933 68.8921 33.1593 59.5575 38.5329 52.8523C39.9746 51.1431 41.9406 49.5654 44.0376 50.2228C46.1347 50.8802 46.9211 53.3782 47.0521 55.6133C47.5764 64.685 42.0717 73.8882 33.8146 77.7009" fill="#E0E0E0"/>
<path d="M40.2367 59.1631C40.3677 59.2946 39.1881 60.8722 37.8775 63.7647C37.2222 65.2109 36.5668 67.0515 36.0426 69.1551C35.5183 71.2587 35.2562 73.4938 35.1251 75.9918C35.1251 78.4898 35.3873 80.7248 35.7805 82.8284C36.1736 84.932 36.6979 86.7726 37.3532 88.2189C38.5328 91.2428 39.7124 92.9519 39.5813 92.9519C39.5813 92.9519 39.1881 92.5575 38.7949 91.7687C38.5328 91.3742 38.2707 90.9798 38.0086 90.3224C37.7464 89.7965 37.3532 89.1392 37.0911 88.3503C36.4358 86.9041 35.7805 84.932 35.3873 82.8284C34.9941 80.7248 34.7319 78.3583 34.7319 75.8603C34.7319 73.3623 35.1251 70.9958 35.6494 68.8922C36.1736 66.7886 36.829 64.9479 37.6154 63.5017C37.8775 62.7129 38.4018 62.187 38.6639 61.5296C38.926 61.0037 39.3192 60.4778 39.5813 60.0834C39.8435 59.5575 40.2367 59.1631 40.2367 59.1631Z" fill="#EBEBEB"/>
<path d="M169.816 201.393C204.672 166.429 204.672 109.739 169.816 74.7746C134.96 39.8098 78.4474 39.8098 43.5914 74.7746C8.73537 109.739 8.73537 166.429 43.5914 201.393C78.4474 236.358 134.96 236.358 169.816 201.393Z" fill="#E0E0E0"/>
<path d="M190.7 168.156L174.579 143.57L147.448 160.662L172.088 198.658C172.088 198.789 185.588 184.064 190.7 168.156Z" fill="#EB996E"/>
<path d="M89.9112 45.3585C91.2218 43.9123 89.3869 41.5458 87.552 40.8884C85.7171 40.231 83.3579 39.8366 82.4405 38.1275C81.3919 36.0239 83.2268 33.5259 83.62 31.1593C84.0132 28.6613 82.5715 26.1633 82.0473 23.6653C81.523 20.3785 82.7026 16.9601 85.1928 14.8565C87.6831 12.753 91.3529 12.0956 94.3674 13.1474C94.6295 8.15137 98.0372 3.54977 102.756 1.97208C107.474 0.394394 112.979 1.97208 116.124 5.91631C118.614 4.07567 121.105 2.10356 123.857 1.05176C126.74 -0.131502 130.017 -0.394451 132.769 0.788816C135.522 1.97208 137.619 5.12746 137.095 8.15137C139.192 5.65336 143.124 5.12746 146.138 6.57368C149.152 8.01989 151.118 11.0438 152.036 14.1992C153.215 18.6693 152.167 23.9283 148.628 26.8207C145.089 29.7131 139.06 29.4502 136.439 25.6374" fill="#263238"/>
<path d="M107.343 120.956C117.041 120.956 125.167 113.331 125.561 103.733C125.954 95.7132 126.347 87.9562 126.347 87.9562C126.347 87.9562 141.288 86.9044 142.599 72.1793C143.91 57.5857 144.172 23.6654 144.172 23.6654C127.658 14.9881 107.867 15.9084 92.2702 25.9004L90.8285 26.8207L89.1246 102.55C88.9935 112.673 97.1196 120.956 107.343 120.956Z" fill="#FFBE9D"/>
<path d="M115.862 46.1474C117.042 46.5419 117.566 47.7251 117.173 48.9084C116.779 50.0917 115.6 50.6176 114.42 50.2231C113.241 49.8287 112.716 48.6454 113.11 47.4622C113.503 46.4104 114.813 45.753 115.862 46.1474Z" fill="#263238"/>
<path d="M119.925 46.9364C119.663 47.1993 118.352 46.016 116.255 45.8846C114.289 45.7531 112.716 46.6734 112.454 46.4105C112.323 46.279 112.585 45.8846 113.241 45.3587C113.896 44.9642 115.075 44.5698 116.255 44.5698C117.566 44.7013 118.614 45.2272 119.138 45.7531C119.925 46.4105 120.056 46.8049 119.925 46.9364Z" fill="#263238"/>
<path d="M138.143 46.1474C139.322 46.5419 139.847 47.7251 139.453 48.9084C139.06 50.0917 137.881 50.6176 136.701 50.2231C135.521 49.8287 134.997 48.6454 135.39 47.4622C135.784 46.4104 137.094 45.753 138.143 46.1474Z" fill="#263238"/>
<path d="M142.468 46.9364C142.206 47.1993 140.895 46.016 138.798 45.8846C136.832 45.7531 135.259 46.6734 134.997 46.4105C134.866 46.279 135.128 45.8846 135.784 45.3587C136.439 44.9642 137.618 44.5698 138.798 44.5698C140.109 44.7013 141.157 45.2272 141.681 45.7531C142.468 46.4105 142.599 46.9364 142.468 46.9364Z" fill="#263238"/>
<path d="M127.265 62.8447C127.265 62.7133 128.575 62.5818 130.541 62.4503C131.066 62.4503 131.459 62.3189 131.59 62.0559C131.721 61.793 131.59 61.1356 131.328 60.4782C130.934 59.1635 130.541 57.7173 130.017 56.271C128.313 50.2232 127.134 45.3587 127.396 45.2272C127.658 45.0957 129.362 49.9603 131.066 56.0081C131.459 57.4543 131.852 58.9005 132.245 60.2153C132.376 60.8726 132.638 61.53 132.376 62.4503C132.245 62.8447 131.721 63.1077 131.328 63.2392C130.934 63.3706 130.672 63.2392 130.41 63.2392C128.444 63.1077 127.265 62.9762 127.265 62.8447Z" fill="#263238"/>
<path d="M120.449 64.5537C124.512 66.5258 126.347 67.1832 130.148 68.235C130.148 68.235 127.526 71.7848 123.332 69.9441C119.007 67.8406 120.449 64.5537 120.449 64.5537Z" fill="white"/>
<path d="M126.347 87.6932C126.347 87.6932 117.041 87.6932 107.604 80.7251C107.604 80.7251 111.274 91.6374 126.085 91.506L126.347 87.6932Z" fill="#EB996E"/>
<path d="M90.4352 48.3825C90.4352 47.1992 89.5177 46.1474 88.3382 46.1474C85.5858 46.0159 81.1296 47.0677 80.4743 54.5617C79.6879 65.3426 90.1731 62.8446 90.1731 62.5817C90.3041 62.1872 90.4352 52.5896 90.4352 48.3825Z" fill="#FFBE9D"/>
<path d="M87.945 58.2432C87.945 58.2432 87.6829 58.3747 87.4208 58.5062C87.1586 58.6376 86.5033 58.6376 85.979 58.3747C84.9305 57.8488 84.0131 56.0081 84.1441 54.036C84.1441 53.1157 84.4063 52.1954 84.9305 51.4066C85.3237 50.6177 85.848 50.0918 86.5033 50.0918C87.0276 49.9603 87.4208 50.3548 87.5518 50.7492C87.6829 51.0121 87.5518 51.2751 87.6829 51.2751C87.6829 51.2751 87.945 51.1436 87.814 50.6177C87.814 50.3548 87.6829 50.0918 87.4208 49.9603C87.1586 49.6974 86.7654 49.5659 86.3722 49.5659C85.5858 49.5659 84.6684 50.2233 84.2752 51.1436C83.7509 51.9325 83.4888 52.9842 83.3577 54.036C83.2267 56.2711 84.2752 58.3747 85.7169 58.9006C86.5033 59.1635 87.1586 59.0321 87.4208 58.7691C87.945 58.5062 87.945 58.2432 87.945 58.2432Z" fill="#EB996E"/>
<path d="M112.716 40.8886C113.11 41.546 114.813 41.1516 116.91 41.1516C119.008 41.0201 120.58 41.0201 120.973 40.3627C121.367 39.7053 119.401 38.1276 116.779 38.3906C114.027 38.5221 112.192 40.3627 112.716 40.8886Z" fill="#263238"/>
<path d="M136.177 40.6258C136.308 41.4147 137.618 41.6776 139.191 41.8091C140.764 41.9406 142.075 41.8091 142.337 41.1517C142.599 40.4944 141.288 39.3111 139.322 39.1796C137.487 38.9167 136.046 39.837 136.177 40.6258Z" fill="#263238"/>
<path d="M146.269 28.2668C146.269 28.2668 137.356 32.6054 125.954 26.8206C118.352 23.0078 109.571 21.1672 107.605 22.7449C105.639 24.3226 105.246 32.0796 97.7749 34.3146C97.7749 34.3146 98.2991 49.1712 92.4012 48.6453C86.5033 48.1194 90.1731 24.9799 90.1731 24.9799L104.721 17.8803L120.58 14.8564L135.522 16.96L147.055 20.1154L146.269 28.2668Z" fill="#263238"/>
<path d="M47.0527 114.513C62.5184 98.605 89.7799 100.314 89.7799 100.314L125.167 101.629C125.167 101.629 138.667 103.075 151.249 109.78L152.167 110.043V110.175C162.128 115.565 176.152 128.581 189.52 141.071L173.53 155.928L155.837 171.705C155.837 171.705 155.968 171.836 155.837 171.968C155.706 172.888 158.72 191.952 161.472 208.517C145.876 220.613 126.347 227.713 105.114 227.318C91.6148 227.055 78.9015 223.768 67.4989 218.115L66.1882 202.864C65.0086 189.059 64.0912 171.968 64.0912 171.968" fill="#7BB499"/>
<path d="M139.453 104.39C139.453 104.39 139.584 104.653 139.715 105.047C139.847 105.573 140.109 106.23 140.371 107.019C140.895 108.728 141.681 111.095 142.599 114.119C144.434 120.167 146.793 128.449 149.021 137.784C151.249 147.119 152.953 155.665 154.002 161.844C154.526 164.999 154.919 167.497 155.181 169.206C155.312 169.995 155.443 170.653 155.443 171.178C155.443 171.573 155.574 171.836 155.443 171.836C155.312 171.836 155.312 171.573 155.312 171.178C155.181 170.653 155.05 169.995 154.919 169.206C154.526 167.366 154.133 164.868 153.477 161.975C152.298 155.796 150.463 147.382 148.235 138.047C146.007 128.712 143.647 120.429 141.944 114.382C141.026 111.489 140.371 108.991 139.847 107.282C139.584 106.493 139.453 105.836 139.322 105.31C139.453 104.653 139.453 104.39 139.453 104.39Z" fill="#263238"/>
<path d="M154.002 161.45C153.871 161.319 160.686 155.534 169.074 148.697C177.594 141.729 184.54 136.207 184.671 136.47C184.802 136.601 177.987 142.386 169.599 149.223C161.079 156.191 154.133 161.581 154.002 161.45Z" fill="#263238"/>
<path opacity="0.2" d="M67.4991 136.47L53.7373 182.223L58.8488 184.852L63.9604 171.968C63.9604 171.968 69.203 144.753 67.4991 136.47Z" fill="#191A1F"/>
<g opacity="0.2">
<path opacity="0.2" d="M137.88 104.39C145.351 108.334 126.609 117.8 118.221 117.537L124.381 101.234C124.381 101.366 135.39 103.075 137.88 104.39Z" fill="#191A1F"/>
</g>
<path d="M87.5518 101.366V89.2705C87.5518 89.2705 111.143 95.3183 111.93 109.518C111.93 109.518 114.944 93.8721 127.133 93.0833L128.837 115.039L114.682 127.398H100.396L89.1245 117.669L87.6828 102.418" fill="#7BB499"/>
<path d="M117.303 177.358C117.303 177.358 117.303 177.095 117.303 176.701C117.303 176.175 117.303 175.518 117.303 174.729C117.303 173.019 117.434 170.653 117.434 167.629C117.434 161.581 117.303 153.43 116.517 144.227C115.73 135.155 114.551 127.004 113.502 121.087C112.978 118.195 112.585 115.697 112.192 114.119C112.061 113.33 111.93 112.673 111.799 112.278C111.667 111.884 111.667 111.621 111.667 111.621C111.667 111.621 111.799 111.884 111.93 112.278C112.061 112.804 112.192 113.462 112.454 114.119C112.847 115.697 113.371 118.063 113.896 121.087C115.075 127.004 116.255 135.155 117.041 144.358C117.828 153.43 117.959 161.713 117.696 167.761C117.565 170.784 117.565 173.151 117.434 174.86C117.434 175.649 117.303 176.306 117.303 176.832C117.434 177.095 117.434 177.358 117.303 177.358Z" fill="#263238"/>
<path d="M111.013 105.442C111.013 105.442 110.488 105.179 109.571 105.573C109.178 105.705 108.653 106.099 108.26 106.625C107.867 107.151 107.474 107.808 107.212 108.597C105.77 111.752 103.935 116.222 102.755 121.744L102.624 122.139L102.231 121.876C100.79 121.087 99.3478 120.035 97.9061 119.115C95.1537 117.143 92.5324 115.171 90.3043 113.33C89.1247 112.41 88.2073 111.226 87.683 109.912C87.1588 108.597 86.8966 107.414 86.8966 106.23C86.7656 103.995 87.1588 102.155 87.4209 100.971C87.683 99.7882 87.8141 99.1309 87.9452 99.1309C87.9452 99.1309 87.9452 99.7882 87.683 101.103C87.552 102.286 87.2898 104.127 87.4209 106.362C87.552 107.414 87.683 108.597 88.2073 109.78C88.7315 110.964 89.649 112.015 90.6975 112.936C92.9256 114.776 95.5469 116.748 98.2993 118.721C99.741 119.641 101.183 120.561 102.624 121.481L102.1 121.744C103.411 116.222 105.246 111.752 106.819 108.597C107.212 107.808 107.605 107.151 107.998 106.625C108.391 106.099 109.047 105.705 109.44 105.573C110.488 105.047 111.013 105.442 111.013 105.442Z" fill="#263238"/>
<path d="M127.265 93.083C127.265 93.083 127.396 93.7404 127.396 94.9236C127.527 96.2384 127.658 97.9475 127.789 100.051C127.92 102.286 128.182 104.784 128.706 107.677C128.837 109.123 129.362 110.569 128.968 112.278C128.444 113.987 127.265 115.171 125.954 116.222C124.119 117.669 122.153 118.72 120.711 120.167L120.187 120.693V119.904C119.794 114.908 118.221 110.701 116.648 108.071C115.076 105.31 113.896 103.995 114.027 103.864C114.027 103.864 114.42 104.127 114.944 104.784C115.469 105.442 116.255 106.493 117.042 107.808C118.614 110.438 120.449 114.645 120.842 119.772L120.318 119.641C121.76 118.063 123.726 116.88 125.561 115.565C126.871 114.645 128.051 113.461 128.444 112.015C128.837 110.569 128.313 109.123 128.182 107.677C127.789 104.784 127.527 102.155 127.396 100.051C127.265 97.8161 127.265 96.1069 127.265 94.9236C127.134 93.7404 127.134 93.083 127.265 93.083Z" fill="#263238"/>
<path d="M203.151 96.1074C202.234 97.2907 167.501 143.833 167.501 143.833L172.351 146.593L208.001 100.578L203.151 96.1074Z" fill="#263238"/>
<path d="M63.5669 132.92C63.5669 132.92 100.134 185.642 102.231 186.693C106.556 188.797 156.492 145.411 161.341 141.335C161.997 140.414 163.307 138.574 166.06 134.893C166.06 134.893 169.992 116.749 174.186 118.195C178.38 119.642 171.826 127.399 174.579 134.235C177.331 141.072 189.913 124.769 190.307 123.191L193.583 118.984C193.583 118.984 196.991 128.582 196.729 132.658C195.942 145.542 183.753 160.924 183.753 160.924C183.753 160.924 129.099 228.897 91.6148 231C80.8674 231.658 61.6009 200.893 48.8876 177.885C41.1548 163.948 44.9556 146.462 57.8 137.128L63.5669 132.92Z" fill="#FFBE9D"/>
<path d="M190.7 135.023C190.569 135.023 191.748 132.92 193.059 130.29C194.37 127.661 195.287 125.426 195.418 125.557C195.549 125.557 194.763 127.924 193.452 130.553C192.142 133.051 190.831 135.023 190.7 135.023Z" fill="#EB996E"/>
<path d="M57.4066 107.151C57.4066 107.151 18.2182 121.088 47.3146 187.219L92.532 159.872L86.1098 144.359L57.4066 107.151Z" fill="#7BB499"/>
<path d="M54.392 108.335C54.392 108.335 54.523 108.335 54.6541 108.335C54.9162 108.335 55.1784 108.335 55.5715 108.335C56.3579 108.335 57.5375 108.466 59.1103 108.861C60.552 109.255 62.3869 109.913 64.2218 111.096C66.0567 112.279 68.0227 113.857 69.8576 115.829C73.6585 119.773 77.1973 125.295 80.4739 131.737C83.7505 138.18 86.8961 145.542 90.0416 153.168C90.9591 155.534 91.8765 157.769 92.794 159.873L92.925 160.136L92.6629 160.267C79.5564 167.367 68.1538 174.203 60.1588 179.2C56.0958 181.698 52.9502 183.801 50.7221 185.247C49.6736 185.905 48.7562 186.431 48.2319 186.956C47.7076 187.351 47.3145 187.482 47.3145 187.482C47.3145 187.482 47.5766 187.219 48.1008 186.825C48.6251 186.431 49.5426 185.773 50.5911 185.116C52.6881 183.67 55.9647 181.435 59.8967 178.937C67.8916 173.809 79.2943 166.972 92.4008 159.873L92.2697 160.267C91.3523 158.164 90.4348 155.797 89.5174 153.562C86.3718 145.805 83.2262 138.574 79.9496 132.132C76.673 125.69 73.2653 120.168 69.5955 116.223C67.7606 114.251 65.9257 112.674 64.0908 111.49C62.2559 110.307 60.552 109.65 59.1103 109.255C56.0958 108.203 54.392 108.466 54.392 108.335Z" fill="#263238"/>
</g>
<defs>
<clipPath id="clip0">
<rect width="208" height="231" fill="white"/>
</clipPath>
</defs>
</svg>
