<svg width="325" height="224" viewBox="0 0 325 224" fill="none" xmlns="http://www.w3.org/2000/svg">
<g clip-path="url(#clip0)">
<path d="M51.6515 214.548C62.0119 206.071 63.3632 191.743 61.9368 179.14C61.7116 177.039 61.7116 174.789 60.5854 172.989C59.3842 171.188 56.9068 170.138 55.1049 171.188C53.6035 172.088 53.0028 173.964 52.2521 175.539C51.201 177.64 49.6245 179.44 47.5974 180.715C46.3212 181.54 44.6695 182.066 43.2431 181.465C41.2911 180.64 40.9158 178.09 40.7656 175.989C40.4653 172.088 40.165 168.188 39.8647 164.212C39.7146 162.111 39.5644 159.936 38.7386 158.06C37.9128 156.11 36.2611 154.384 34.2341 154.009C32.132 153.634 29.7296 154.985 29.5043 157.085C29.4293 157.985 29.6545 158.81 29.6545 159.711C29.6545 160.611 29.3542 161.586 28.5284 161.886C27.7025 162.186 26.8016 161.661 26.126 161.136C23.7236 159.186 22.0719 156.56 20.4203 154.009C18.7686 151.384 17.192 148.758 15.0149 146.583C12.8377 144.407 9.90975 142.832 6.83168 142.907C3.7536 142.982 0.675519 145.082 0.149993 148.158C-0.375532 151.159 1.65149 154.009 3.7536 156.26C6.90675 159.561 10.5104 162.486 14.4143 164.737C15.0899 165.187 15.9158 165.637 16.2161 166.387C16.8167 167.737 15.5404 169.238 14.189 169.838C12.6125 170.513 10.8857 170.438 9.23408 170.813C7.58243 171.113 5.8557 172.013 5.33017 173.589C4.6545 175.839 6.60645 177.94 8.5584 179.215C12.3872 181.841 16.6665 183.866 21.171 185.066C22.7476 185.516 24.4743 185.891 25.8257 186.867C27.177 187.842 28.0779 189.642 27.4773 191.218C26.8016 192.793 24.9248 193.393 23.2731 193.243C21.6215 193.093 20.0449 192.343 18.4683 191.893C15.4653 191.068 11.7116 191.518 9.98483 194.218C8.8587 195.944 8.93378 198.269 9.7596 200.145C10.5104 202.02 11.9368 203.595 13.4383 205.096C18.5434 210.122 24.9248 214.023 31.9067 215.748C38.8137 217.474 45.12 217.549 51.6515 214.548Z" fill="#EBEBEB"/>
<path d="M52.6272 223.924C51.7263 218.973 50.1497 213.122 47.7473 206.896C45.3449 200.669 42.1167 194.068 38.5131 187.241C37.6122 185.516 36.7113 183.865 35.8104 182.215C34.9095 180.565 34.0086 178.914 33.1077 177.414C31.2308 174.338 29.1287 171.488 27.1017 168.862C25.0746 166.237 22.9725 163.836 21.0957 161.586C19.1437 159.335 17.3419 157.235 15.5401 155.434C12.0116 151.833 8.85842 149.208 6.60617 147.482C5.48004 146.657 4.57914 145.982 3.97854 145.607C3.67824 145.382 3.45301 145.232 3.30286 145.157C3.15271 145.082 3.07764 145.007 3.07764 145.007C3.07764 145.007 3.15271 145.082 3.30286 145.157C3.45301 145.307 3.67824 145.457 3.97854 145.682C4.57914 146.132 5.48004 146.732 6.60617 147.632C8.85842 149.358 12.0116 151.983 15.465 155.584C17.1918 157.385 19.0686 159.485 20.9455 161.736C22.8975 163.986 24.9245 166.387 26.9515 169.087C28.9785 171.713 31.0806 174.563 32.9575 177.639C33.9335 179.214 34.7593 180.79 35.6602 182.44C36.5611 184.091 37.462 185.741 38.3629 187.466C41.9665 194.293 45.1948 200.894 47.5972 207.046C49.9996 213.272 51.6512 219.048 52.5521 223.999" fill="#E0E0E0"/>
<path d="M32.958 177.414C32.958 177.414 33.0331 177.114 33.1082 176.514C33.1832 175.914 33.2583 175.089 33.2583 174.039C33.4085 171.938 33.4835 169.012 33.5586 165.787C33.6337 162.561 33.7838 159.635 33.934 157.535C34.0091 156.485 34.0841 155.66 34.1592 155.059C34.2343 154.459 34.2343 154.159 34.2343 154.159C34.2343 154.159 34.1592 154.459 34.0841 155.059C34.0091 155.66 33.8589 156.485 33.7838 157.535C33.5586 159.635 33.4085 162.561 33.3334 165.787C33.2583 169.012 33.1832 171.863 33.1832 174.039C33.1832 175.089 33.1082 175.914 33.1082 176.514C32.958 177.039 32.958 177.414 32.958 177.414Z" fill="#E0E0E0"/>
<path d="M5.18018 174.639C5.18018 174.639 5.25525 174.639 5.48048 174.639C5.7057 174.639 6.006 174.639 6.3063 174.639C6.98198 174.639 8.03303 174.639 9.3093 174.639C11.8619 174.714 15.3153 174.864 19.1441 175.314C22.973 175.689 26.4264 176.214 28.979 176.665C30.2553 176.89 31.2312 177.115 31.9069 177.19C32.2072 177.265 32.5075 177.265 32.7327 177.34C32.8829 177.34 33.033 177.415 33.033 177.34C33.033 177.34 32.958 177.265 32.7327 177.265C32.5075 177.19 32.2823 177.115 31.9069 177.04C31.2312 176.89 30.2553 176.665 28.979 176.365C26.5015 175.839 23.048 175.314 19.1441 174.939C15.3153 174.564 11.7868 174.414 9.23423 174.414C7.95795 174.414 6.9069 174.414 6.23123 174.489C5.93093 174.489 5.63063 174.564 5.4054 174.564C5.25525 174.564 5.18018 174.564 5.18018 174.639Z" fill="#E0E0E0"/>
<path d="M47.3721 206.446C47.3721 206.446 47.4471 206.296 47.5222 206.071C47.5973 205.771 47.7474 205.471 47.8976 205.021C48.1979 204.121 48.6483 202.845 49.1739 201.27C50.2249 198.044 51.5763 193.618 53.0027 188.667C54.4291 183.716 55.7054 179.215 56.6814 175.989C57.2069 174.414 57.5823 173.139 57.8826 172.164C58.0327 171.713 58.1078 171.413 58.1829 171.113C58.258 170.888 58.258 170.738 58.258 170.738C58.258 170.738 58.1829 170.888 58.1078 171.113C58.0327 171.413 57.8826 171.713 57.7324 172.164C57.4321 173.064 56.9817 174.339 56.4562 175.914C55.4051 179.14 54.0538 183.566 52.6273 188.517C51.2009 193.468 49.9246 197.969 48.9486 201.195C48.4231 202.77 48.0477 204.046 47.7474 205.021C47.5973 205.471 47.5222 205.771 47.4471 206.071C47.3721 206.296 47.3721 206.446 47.3721 206.446Z" fill="#E0E0E0"/>
<path d="M9.98486 197.894C9.98486 197.894 10.135 197.969 10.3602 197.969C10.6605 198.044 11.0359 198.119 11.4113 198.194C12.3873 198.419 13.7386 198.72 15.3903 199.095C18.7686 199.845 23.4233 200.97 28.5284 202.245C33.6335 203.521 38.3632 204.571 41.7416 205.321C43.4683 205.696 44.8197 205.996 45.7957 206.146C46.2461 206.221 46.6215 206.296 46.9218 206.371C47.147 206.446 47.2972 206.446 47.2972 206.446C47.2972 206.446 47.147 206.371 46.9218 206.371C46.6215 206.296 46.2461 206.221 45.8708 206.146C44.8948 205.921 43.5434 205.621 41.8918 205.246C38.5134 204.496 33.8587 203.371 28.7536 202.095C23.6485 200.82 18.9188 199.77 15.5404 199.02C13.8137 198.645 12.4623 198.344 11.4864 198.194C11.0359 198.119 10.6605 198.044 10.3602 197.969C10.135 197.894 9.98486 197.819 9.98486 197.894Z" fill="#E0E0E0"/>
<path d="M308.258 146.207C308.258 146.207 304.73 142.757 297.898 151.458C291.066 160.16 288.063 165.337 288.063 165.337C288.063 165.337 286.337 167.137 285.21 165.487C284.084 163.911 282.883 159.71 280.406 159.935C277.778 160.16 276.427 162.711 276.126 166.837C275.826 170.963 274.7 179.965 274.625 180.79C274.55 181.615 273.874 182.665 272.898 181.69C271.922 180.715 267.042 172.463 263.288 175.014C259.535 177.564 260.436 189.192 260.511 190.467C260.586 191.742 260.285 192.193 259.61 192.418C259.009 192.568 257.583 189.642 256.081 187.392C254.58 185.066 252.478 182.665 250.376 184.391C248.349 186.041 246.171 194.218 251.352 209.146L254.204 215.898L261.562 216.948C277.403 218.223 284.76 214.097 285.811 211.697C286.937 209.296 284.009 207.796 281.457 206.971C278.904 206.146 275.676 205.471 275.676 204.87C275.676 204.195 276.051 203.745 277.327 203.52C278.604 203.295 290.09 201.27 291.592 196.994C293.093 192.718 283.859 190.017 282.733 189.342C281.532 188.667 282.433 187.767 283.183 187.467C283.934 187.166 292.418 183.866 296.321 182.515C300.225 181.165 302.403 179.215 301.952 176.664C301.502 174.189 297.222 174.114 295.421 173.438C293.619 172.763 294.895 170.663 294.895 170.663C294.895 170.663 299.174 166.462 305.931 157.685C312.613 148.833 308.258 146.282 308.258 146.282" fill="#EBEBEB"/>
<path d="M302.102 154.009C302.102 154.009 302.102 154.084 301.952 154.234C301.877 154.384 301.727 154.534 301.577 154.759C301.201 155.209 300.751 155.959 300.075 156.784C298.799 158.585 296.847 161.06 294.444 164.211C289.715 170.437 283.033 178.989 275.601 188.441C268.243 197.894 261.562 206.37 256.682 212.597C254.279 215.673 252.327 218.148 250.976 219.948C250.3 220.774 249.775 221.449 249.399 221.974C249.249 222.199 249.099 222.349 248.949 222.499C248.874 222.649 248.799 222.649 248.799 222.649C248.799 222.649 248.799 222.574 248.949 222.424C249.024 222.274 249.174 222.124 249.324 221.899C249.7 221.449 250.15 220.699 250.826 219.873C252.102 218.073 254.054 215.598 256.456 212.447C261.186 206.22 267.868 197.669 275.3 188.216C282.658 178.764 289.339 170.287 294.219 164.061C296.622 160.985 298.574 158.51 299.925 156.709C300.601 155.884 301.126 155.209 301.502 154.684C301.652 154.459 301.802 154.309 301.952 154.159C302.027 154.084 302.102 154.009 302.102 154.009Z" fill="#E0E0E0"/>
<path d="M281.757 165.861C281.832 165.861 281.907 166.611 282.057 167.812C282.132 169.012 282.282 170.737 282.357 172.613C282.433 174.413 282.433 176.064 282.508 177.414C282.508 178.614 282.583 179.364 282.508 179.364C282.433 179.364 282.357 178.614 282.207 177.414C282.132 176.214 282.057 174.488 281.982 172.613C281.907 170.812 281.832 169.237 281.832 167.812C281.682 166.611 281.682 165.861 281.757 165.861Z" fill="#E0E0E0"/>
<path d="M283.108 179.59C283.108 179.515 286.562 179.14 290.841 178.765C295.12 178.39 298.649 178.24 298.649 178.315C298.649 178.39 295.195 178.765 290.916 179.14C286.562 179.515 283.108 179.665 283.108 179.59Z" fill="#E0E0E0"/>
<path d="M270.646 194.068C270.646 193.993 271.397 194.143 272.673 194.368C273.874 194.593 275.601 194.894 277.478 195.194C279.355 195.494 281.081 195.719 282.283 195.869C283.484 196.019 284.31 196.169 284.31 196.169C284.31 196.244 283.559 196.244 282.283 196.094C281.006 196.019 279.28 195.794 277.403 195.494C275.526 195.194 273.799 194.818 272.598 194.518C271.322 194.293 270.646 194.068 270.646 194.068Z" fill="#E0E0E0"/>
<path d="M266.667 181.84C266.742 181.84 266.967 182.515 267.418 183.565C267.793 184.615 268.319 186.116 268.919 187.841C269.445 189.492 269.97 190.992 270.271 192.117C270.571 193.242 270.796 193.918 270.721 193.918C270.646 193.918 270.421 193.242 269.97 192.192C269.595 191.142 269.069 189.642 268.469 187.916C267.943 186.266 267.418 184.766 267.117 183.64C266.817 182.59 266.667 181.915 266.667 181.84Z" fill="#E0E0E0"/>
<path d="M254.054 193.243C254.13 193.243 254.43 194.068 254.955 195.494C255.481 196.844 256.157 198.794 256.907 200.895C257.658 202.995 258.334 204.946 258.784 206.371C259.235 207.796 259.46 208.622 259.46 208.697C259.385 208.697 259.084 207.871 258.559 206.446C258.033 205.096 257.358 203.145 256.607 201.045C255.856 198.944 255.181 196.994 254.73 195.569C254.28 194.143 253.979 193.243 254.054 193.243Z" fill="#E0E0E0"/>
<path d="M259.385 208.246C259.385 208.171 260.361 208.321 261.937 208.546C263.514 208.771 265.691 209.146 268.018 209.446C270.421 209.746 272.598 209.971 274.175 210.197C275.751 210.347 276.727 210.497 276.727 210.572C276.727 210.647 275.751 210.647 274.175 210.497C272.598 210.422 270.421 210.196 268.018 209.896C265.616 209.596 263.439 209.221 261.937 208.921C260.361 208.546 259.385 208.321 259.385 208.246Z" fill="#E0E0E0"/>
<path d="M325 222.799C325 222.949 253.228 223.024 164.64 223.024C76.0511 223.024 4.2793 222.949 4.2793 222.799C4.2793 222.649 76.0511 222.574 164.64 222.574C253.228 222.574 325 222.649 325 222.799Z" fill="#263238"/>
<path d="M83.6336 175.089L60.9609 152.359L72.3724 131.43C83.7838 116.876 107.883 117.777 107.883 117.777C107.883 117.777 124.324 116.201 143.468 119.952C162.613 123.703 161.111 136.381 161.111 136.381L163.664 183.341L166.441 221.525L95.7958 222.95L83.6336 175.089Z" fill="#7BB499"/>
<path d="M121.697 220.774L58.4082 221.525C43.168 221.675 33.0329 205.921 39.5644 192.193L66.6665 142.007L91.2911 158.661L74.4743 193.543L125.751 194.444L121.697 220.774Z" fill="#7BB499"/>
<path d="M158.858 128.729L209.684 207.121L180.03 209.071C180.03 209.071 162.312 181.165 162.762 181.765C163.438 182.816 158.858 128.729 158.858 128.729Z" fill="#7BB499"/>
<path d="M90.0149 163.161C90.0149 163.161 90.0149 163.011 90.0899 162.786C90.165 162.486 90.2401 162.111 90.3902 161.661C90.6155 160.686 90.9908 159.26 91.2911 157.46C91.6665 155.66 92.0419 153.559 92.2671 151.159C92.4923 148.758 92.6425 146.132 92.2671 143.432C91.8917 140.731 90.8407 138.256 89.6395 136.23C88.4383 134.205 87.0869 132.479 85.8857 131.129C84.6845 129.779 83.5584 128.804 82.8077 128.128C82.0569 127.453 81.6064 127.153 81.6064 127.078C81.6064 127.078 81.7566 127.153 81.9818 127.303C82.207 127.453 82.5074 127.678 82.8827 127.978C83.7086 128.578 84.8347 129.554 86.0359 130.904C87.3122 132.179 88.6635 133.905 89.9398 136.005C91.141 138.106 92.192 140.581 92.6425 143.357C93.0179 146.132 92.8677 148.758 92.5674 151.159C92.2671 153.559 91.8917 155.66 91.5164 157.46C91.141 159.26 90.7656 160.686 90.4653 161.661C90.3152 162.186 90.2401 162.561 90.0899 162.786C90.0899 163.011 90.0149 163.161 90.0149 163.161Z" fill="#263238"/>
<path d="M87.9875 165.862C87.9875 165.862 87.8374 166.312 87.5371 166.988C87.2368 167.738 86.7863 168.713 86.1857 169.988C85.0596 172.539 83.4079 176.065 81.5311 179.89C79.6542 183.716 77.8524 187.167 76.5761 189.643C75.9004 190.843 75.3749 191.893 74.9995 192.568C74.6242 193.243 74.3989 193.618 74.3989 193.618C74.3989 193.618 74.5491 193.243 74.9245 192.493C75.2998 191.743 75.8254 190.768 76.426 189.568C77.7022 187.017 79.429 183.566 81.3058 179.815C83.1827 175.99 84.8344 172.539 86.0356 169.988C86.6362 168.788 87.0866 167.813 87.462 166.988C87.7623 166.237 87.9875 165.862 87.9875 165.862Z" fill="#263238"/>
<path d="M121.696 220.774C121.696 220.774 121.696 220.699 121.696 220.624C121.696 220.549 121.696 220.399 121.696 220.249C121.696 219.874 121.772 219.424 121.847 218.749C121.997 217.399 122.222 215.523 122.447 213.123C122.973 208.247 123.799 201.42 124.699 193.393L124.85 193.618C119.144 193.618 112.838 193.618 106.156 193.618C93.3931 193.618 81.8316 193.543 73.4232 193.543C69.2941 193.543 65.8406 193.468 63.5133 193.468C62.3871 193.468 61.4862 193.468 60.8106 193.468C60.5103 193.468 60.285 193.468 60.1349 193.468C59.9847 193.468 59.9097 193.468 59.9097 193.468C59.9097 193.468 59.9847 193.468 60.1349 193.468C60.285 193.468 60.5103 193.468 60.8106 193.468C61.4862 193.468 62.3871 193.468 63.5133 193.468C65.9157 193.468 69.2941 193.468 73.4232 193.393C81.8316 193.393 93.3931 193.393 106.156 193.318C112.838 193.318 119.144 193.318 124.85 193.318H125.075V193.543C124.099 201.57 123.273 208.397 122.672 213.273C122.372 215.673 122.147 217.549 121.922 218.899C121.847 219.499 121.772 220.024 121.696 220.399C121.696 220.549 121.621 220.699 121.621 220.774C121.772 220.699 121.696 220.774 121.696 220.774Z" fill="#263238"/>
<path d="M74.9247 194.068C74.8496 194.068 74.4742 193.468 73.6484 192.493C72.8977 191.518 71.6965 190.242 70.27 189.042C68.8436 187.842 67.3421 186.867 66.2911 186.266C65.24 185.666 64.4893 185.366 64.4893 185.291C64.4893 185.216 65.24 185.441 66.3661 186.041C67.4923 186.567 68.9938 187.467 70.4953 188.742C71.9968 190.017 73.1229 191.293 73.8736 192.343C74.6244 193.318 74.9247 194.068 74.9247 194.068Z" fill="#263238"/>
<path d="M164.714 199.019C164.714 199.019 164.639 198.794 164.639 198.344C164.564 197.894 164.489 197.294 164.414 196.469C164.264 194.819 164.039 192.493 163.738 189.567C163.213 183.791 162.612 175.689 162.087 166.837C161.561 157.985 161.186 149.884 160.961 144.032C160.885 141.107 160.81 138.781 160.735 137.131C160.735 136.305 160.735 135.705 160.735 135.255C160.735 134.805 160.735 134.58 160.735 134.58C160.735 134.58 160.735 134.805 160.81 135.255C160.81 135.705 160.885 136.38 160.885 137.131C160.961 138.781 161.111 141.182 161.186 144.032C161.486 149.884 161.861 157.91 162.387 166.762C162.913 175.614 163.438 183.716 163.889 189.492C164.114 192.343 164.264 194.744 164.414 196.394C164.489 197.144 164.489 197.819 164.564 198.269C164.714 198.794 164.714 199.019 164.714 199.019Z" fill="#263238"/>
<path d="M108.183 156.41C108.183 156.41 108.183 156.035 108.258 155.36C108.333 154.61 108.483 153.71 108.634 152.51C108.934 150.034 109.384 146.658 109.91 142.682L110.21 142.832C108.709 143.883 107.057 145.008 105.33 146.208C103.604 147.408 101.952 148.609 100.375 149.659L100 149.884L100.075 149.434C100.676 145.533 101.201 142.157 101.577 139.757C101.802 138.631 101.952 137.656 102.027 136.981C102.177 136.306 102.177 136.006 102.252 136.006C102.252 136.006 102.252 136.381 102.177 137.056C102.102 137.731 101.952 138.706 101.802 139.907C101.426 142.382 100.976 145.758 100.45 149.659L100.15 149.509C101.652 148.459 103.378 147.258 105.105 146.058C106.832 144.858 108.483 143.733 109.985 142.682L110.36 142.457L110.285 142.907C109.685 146.808 109.234 150.184 108.859 152.66C108.709 153.86 108.559 154.76 108.408 155.51C108.333 156.035 108.258 156.41 108.183 156.41Z" fill="#E0E0E0"/>
<path d="M136.486 159.411C136.486 159.411 136.186 159.186 135.736 158.661C135.21 158.136 134.61 157.461 133.784 156.561C132.057 154.76 129.73 152.21 127.102 149.284L127.402 149.209C127.252 151.084 127.102 153.035 126.877 155.135C126.727 157.236 126.502 159.261 126.351 161.137V161.587L126.051 161.287C123.423 158.361 121.171 155.81 119.52 153.935C118.769 153.035 118.093 152.36 117.643 151.759C117.192 151.234 116.967 151.009 117.042 150.934C117.042 150.934 117.342 151.159 117.793 151.684C118.318 152.21 118.919 152.885 119.745 153.785C121.396 155.585 123.724 158.136 126.351 161.062L126.051 161.137C126.201 159.261 126.351 157.236 126.577 155.135C126.727 153.035 126.952 151.084 127.102 149.209V148.759L127.402 149.059C130.03 151.985 132.357 154.535 134.009 156.41C134.76 157.311 135.435 157.986 135.886 158.586C136.261 159.111 136.486 159.411 136.486 159.411Z" fill="#E0E0E0"/>
<path d="M150.675 158.436C150.675 158.436 150.525 158.736 150.15 159.336C149.774 159.936 149.249 160.761 148.648 161.736C147.297 163.837 145.42 166.687 143.318 170.063L143.168 169.763C144.97 169.463 146.997 169.088 149.024 168.788C151.126 168.413 153.078 168.113 154.955 167.813L155.405 167.738L155.18 168.113C153.003 171.413 151.051 174.189 149.699 176.29C149.024 177.265 148.498 178.015 148.123 178.615C147.747 179.14 147.522 179.44 147.522 179.44C147.522 179.44 147.672 179.14 148.048 178.54C148.423 177.94 148.949 177.115 149.549 176.139C150.901 174.039 152.777 171.188 154.88 167.888L155.03 168.188C153.153 168.488 151.201 168.863 149.099 169.238C147.072 169.613 145.045 169.913 143.243 170.213L142.792 170.288L143.018 169.913C145.195 166.612 147.072 163.762 148.498 161.661C149.174 160.686 149.699 159.861 150.075 159.336C150.45 158.736 150.675 158.436 150.675 158.436Z" fill="#E0E0E0"/>
<path d="M131.756 172.989C131.756 172.989 131.606 173.289 131.231 173.889C130.856 174.489 130.33 175.314 129.729 176.29C128.378 178.39 126.501 181.241 124.399 184.616L124.249 184.316C126.051 184.016 128.078 183.641 130.105 183.341C132.207 182.966 134.159 182.666 136.036 182.366L136.486 182.291L136.261 182.666C134.084 185.967 132.132 188.742 130.78 190.843C130.105 191.818 129.579 192.568 129.204 193.168C128.828 193.693 128.603 193.993 128.603 193.993C128.603 193.993 128.753 193.693 129.129 193.093C129.504 192.493 130.03 191.668 130.63 190.693C131.982 188.592 133.859 185.742 135.961 182.441L136.111 182.741C134.234 183.041 132.282 183.416 130.18 183.791C128.153 184.166 126.126 184.466 124.324 184.766L123.874 184.841L124.099 184.466C126.276 181.166 128.153 178.315 129.579 176.215C130.255 175.239 130.78 174.414 131.156 173.889C131.531 173.214 131.756 172.914 131.756 172.989Z" fill="#E0E0E0"/>
<path d="M172.597 158.211C172.597 158.211 172.447 158.511 172.072 159.111C171.696 159.711 171.171 160.536 170.57 161.512C169.219 163.612 167.342 166.463 165.24 169.839L165.09 169.538C166.892 169.238 168.919 168.863 170.946 168.563C173.048 168.188 175 167.888 176.877 167.588L177.327 167.513L177.102 167.888C174.925 171.189 172.973 173.964 171.621 176.065C170.946 177.04 170.42 177.79 170.045 178.39C169.669 178.916 169.444 179.216 169.444 179.216C169.444 179.216 169.594 178.916 169.97 178.315C170.345 177.715 170.871 176.89 171.471 175.915C172.822 173.814 174.699 170.964 176.801 167.663L176.952 167.963C175.075 168.263 173.123 168.638 171.021 169.013C168.994 169.388 166.967 169.689 165.165 169.989L164.714 170.064L164.94 169.688C167.117 166.388 168.994 163.537 170.42 161.437C171.096 160.461 171.621 159.636 171.997 159.111C172.372 158.511 172.597 158.211 172.597 158.211Z" fill="#E0E0E0"/>
<path d="M76.9517 146.208C76.9517 146.208 76.8016 146.508 76.4262 147.108C76.0508 147.708 75.5253 148.534 74.9247 149.509C73.5734 151.609 71.6965 154.46 69.5944 157.836L69.4442 157.536C71.246 157.235 73.2731 156.86 75.3001 156.56C77.4022 156.185 79.3541 155.885 81.231 155.585L81.6815 155.51L81.4562 155.885C79.2791 159.186 77.3271 161.962 75.9758 164.062C75.3001 165.037 74.7746 165.787 74.3992 166.388C74.0238 166.913 73.7986 167.213 73.7986 167.213C73.7986 167.213 73.9487 166.913 74.3241 166.312C74.6995 165.712 75.225 164.887 75.8256 163.912C77.177 161.811 79.0538 158.961 81.1559 155.66L81.3061 155.96C79.4292 156.26 77.4773 156.635 75.3752 157.01C73.3481 157.386 71.3211 157.686 69.5193 157.986L69.0688 158.061L69.2941 157.686C71.4713 154.385 73.3481 151.534 74.7746 149.434C75.4502 148.459 75.9758 147.633 76.3511 147.108C76.7265 146.508 76.9517 146.208 76.9517 146.208Z" fill="#E0E0E0"/>
<path d="M47.2971 202.32C47.2971 202.32 47.5223 202.546 47.9728 203.071C48.4232 203.596 49.0238 204.346 49.7746 205.246C51.3512 207.197 53.5283 209.822 56.0058 212.898L55.7055 212.973C56.0058 211.172 56.231 209.147 56.5313 207.122C56.8316 205.021 57.1319 202.996 57.4322 201.195L57.5073 200.745L57.8076 201.12C60.21 204.196 62.3121 206.896 63.8887 208.847C64.5644 209.747 65.165 210.572 65.6154 211.097C65.9908 211.623 66.216 211.923 66.216 211.923C66.216 211.923 65.9908 211.698 65.5403 211.172C65.0899 210.647 64.4893 209.897 63.7385 208.997C62.162 207.047 60.0599 204.421 57.5824 201.345L57.8827 201.27C57.5824 203.146 57.2821 205.096 56.9818 207.197C56.6815 209.222 56.3812 211.247 56.0809 213.048L56.0058 213.498L55.7055 213.198C53.228 210.122 51.1259 207.422 49.5494 205.471C48.7986 204.571 48.2731 203.746 47.8226 203.221C47.4473 202.621 47.222 202.32 47.2971 202.32Z" fill="#E0E0E0"/>
<path d="M115.09 166.012C115.09 166.012 114.715 166.087 114.039 166.162C113.288 166.237 112.387 166.312 111.186 166.387C108.709 166.537 105.255 166.838 101.351 167.138L101.501 166.837C102.853 168.113 104.279 169.463 105.856 170.888C107.357 172.314 108.859 173.739 110.21 175.014L110.51 175.314H110.06C106.156 175.539 102.703 175.689 100.225 175.84C99.024 175.915 98.1231 175.915 97.3723 175.99C96.6967 175.99 96.3213 175.99 96.3213 175.99C96.3213 175.99 96.6967 175.915 97.3723 175.84C98.1231 175.764 99.024 175.689 100.225 175.614C102.703 175.464 106.081 175.239 110.06 174.939L109.91 175.239C108.559 173.964 107.057 172.539 105.556 171.113C104.054 169.688 102.553 168.338 101.276 167.063L100.976 166.762H101.426C105.405 166.537 108.784 166.312 111.261 166.162C112.462 166.087 113.363 166.087 114.114 166.012C114.715 165.937 115.09 165.937 115.09 166.012Z" fill="#E0E0E0"/>
<path d="M98.4233 203.821C98.4233 203.821 98.7236 204.046 99.099 204.571C99.5495 205.096 100.225 205.847 100.976 206.747C102.628 208.622 104.805 211.248 107.357 214.323L107.057 214.398C107.282 212.598 107.507 210.573 107.808 208.547C108.108 206.447 108.333 204.421 108.558 202.546L108.634 202.096L108.934 202.396C111.411 205.471 113.588 208.097 115.165 210.047C115.916 210.948 116.516 211.698 116.967 212.298C117.342 212.823 117.567 213.123 117.567 213.123C117.567 213.123 117.342 212.898 116.892 212.373C116.441 211.848 115.841 211.098 115.015 210.198C113.438 208.322 111.261 205.697 108.709 202.696L109.009 202.621C108.784 204.496 108.483 206.522 108.258 208.622C107.958 210.648 107.733 212.673 107.507 214.473L107.432 214.924L107.132 214.624C104.579 211.548 102.402 208.922 100.826 206.972C100.075 206.072 99.4744 205.321 99.0239 204.721C98.6486 204.121 98.4233 203.821 98.4233 203.821Z" fill="#E0E0E0"/>
<path d="M68.6936 176.064C68.6936 176.064 68.3182 176.139 67.6425 176.214C66.8918 176.29 65.9909 176.365 64.7897 176.44C62.3122 176.59 58.8587 176.89 54.9548 177.19L55.105 176.89C56.4563 178.165 57.8828 179.515 59.4593 180.941C60.9608 182.366 62.4623 183.791 63.8137 185.066L64.114 185.367H63.6635C59.7596 185.592 56.3062 185.742 53.8287 185.892C52.6275 185.967 51.7266 185.967 50.9759 186.042C50.3002 186.042 49.9248 186.042 49.9248 186.042C49.9248 186.042 50.3002 185.967 50.9759 185.892C51.7266 185.817 52.6275 185.742 53.8287 185.667C56.3062 185.517 59.6846 185.292 63.6635 184.991L63.5134 185.292C62.162 184.016 60.6605 182.591 59.159 181.166C57.6575 179.74 56.156 178.39 54.8798 177.115L54.5795 176.815H55.0299C59.0089 176.59 62.3873 176.365 64.8647 176.214C66.0659 176.139 66.9668 176.139 67.7176 176.064C68.3182 176.064 68.6936 176.064 68.6936 176.064Z" fill="#E0E0E0"/>
<path d="M94.219 202.921C94.219 202.921 93.8436 202.996 93.1679 203.071C92.4172 203.146 91.5163 203.221 90.3151 203.296C87.8376 203.446 84.3841 203.746 80.4802 204.046L80.6304 203.746C81.9817 205.021 83.4082 206.372 84.9847 207.797C86.4862 209.222 87.9877 210.648 89.3391 211.923L89.6394 212.223H89.1889C85.285 212.448 81.8316 212.598 79.3541 212.748C78.1529 212.823 77.252 212.823 76.5012 212.898C75.8256 212.898 75.4502 212.898 75.4502 212.898C75.4502 212.898 75.8256 212.823 76.5012 212.748C77.252 212.673 78.1529 212.598 79.3541 212.523C81.8316 212.373 85.21 212.148 89.1889 211.848L89.0388 212.148C87.6874 210.873 86.1859 209.447 84.6844 208.022C83.1829 206.597 81.6814 205.246 80.4051 203.971L80.1048 203.671H80.5553C84.5343 203.446 87.9127 203.221 90.3901 203.071C91.5913 202.996 92.4922 202.996 93.243 202.921C93.8436 202.921 94.219 202.921 94.219 202.921Z" fill="#E0E0E0"/>
<path d="M151.877 134.58C151.877 134.58 151.501 134.655 150.826 134.73C150.075 134.805 149.174 134.88 147.973 134.955C145.495 135.105 142.042 135.405 138.138 135.705L138.288 135.405C139.639 136.681 141.066 138.031 142.642 139.456C144.144 140.882 145.645 142.307 146.997 143.582L147.297 143.882H146.847C142.943 144.107 139.489 144.257 137.012 144.407C135.811 144.482 134.91 144.482 134.159 144.557C133.483 144.557 133.108 144.557 133.108 144.557C133.108 144.557 133.483 144.482 134.159 144.407C134.91 144.332 135.811 144.257 137.012 144.182C139.489 144.032 142.868 143.807 146.847 143.507L146.696 143.807C145.345 142.532 143.844 141.107 142.342 139.681C140.841 138.256 139.339 136.906 138.063 135.63L137.763 135.33H138.213C142.192 135.105 145.57 134.88 148.048 134.73C149.249 134.655 150.15 134.655 150.901 134.58C151.501 134.58 151.877 134.505 151.877 134.58Z" fill="#E0E0E0"/>
<path d="M123.874 202.92C123.874 202.92 136.486 199.319 140.691 198.194C142.342 197.744 149.324 201.42 154.129 204.495C154.129 204.495 160.736 208.396 160.21 209.671C159.61 211.022 157.207 210.722 153.303 208.921C153.303 208.921 154.655 212.897 152.027 212.822C152.027 212.822 153.378 217.098 150.826 217.548C148.348 217.998 147.748 212.522 145.495 212.222C143.318 211.922 138.739 211.622 138.739 211.622C138.739 211.622 134.91 217.923 131.982 218.373C129.054 218.823 122.222 217.998 122.222 217.998L123.874 202.92Z" fill="#FFBE9D"/>
<path d="M145.42 203.82C145.495 203.745 147.072 204.645 148.949 205.845C150.826 207.045 152.327 208.096 152.252 208.171C152.177 208.246 150.6 207.346 148.723 206.145C146.847 204.945 145.345 203.895 145.42 203.82Z" fill="#EB996E"/>
<path d="M144.67 206.221C144.745 206.146 146.622 206.896 148.874 207.946C151.126 208.997 152.928 209.897 152.928 210.047C152.853 210.122 150.976 209.372 148.724 208.321C146.396 207.271 144.595 206.371 144.67 206.221Z" fill="#EB996E"/>
<path d="M146.021 212.147C146.021 212.072 147.297 212.147 148.874 212.372C150.45 212.597 151.652 212.822 151.652 212.972C151.652 213.047 150.375 212.972 148.799 212.747C147.222 212.522 146.021 212.222 146.021 212.147Z" fill="#EB996E"/>
<path d="M107.432 72.7664C107.732 73.7416 107.357 74.8669 106.606 75.542C105.856 76.2172 104.654 76.2922 103.754 75.8421C102.027 74.9419 101.802 72.6164 102.177 70.7409C102.477 68.8655 103.153 66.8401 102.327 65.1147C101.726 63.7644 100.375 62.9392 99.3992 61.889C97.5973 60.0886 96.6965 57.388 97.0718 54.8374C97.5223 52.2868 99.3992 50.0363 101.877 49.3612C104.354 48.686 107.507 49.4362 109.384 47.6358C110.735 46.2855 110.811 44.185 111.862 42.6097C113.513 40.1341 116.967 39.759 119.82 40.2091C122.748 40.5842 125.675 41.5594 128.528 40.8093C130.931 40.2091 132.883 38.5588 135.06 37.5085C139.865 35.333 146.096 36.4583 149.775 40.3592C153.453 44.185 154.279 50.4114 151.877 55.1375C150.976 56.8629 149.624 58.3632 147.898 59.1134" fill="#263238"/>
<path d="M121.922 134.73C129.955 134.73 136.486 128.129 136.411 120.102L136.186 106.299C136.186 106.299 147.748 105.174 148.573 93.6961C149.324 82.2185 148.799 55.7376 148.799 55.7376C135.811 49.2862 120.345 50.4114 108.408 58.5882L106.606 59.7885L107.507 120.477C107.507 128.354 113.964 134.73 121.922 134.73Z" fill="#FFBE9D"/>
<path d="M145.72 76.4425C143.693 76.0674 143.693 73.4418 145.72 72.9917C145.796 72.9917 145.946 72.9917 146.021 72.9917C148.048 73.3668 148.048 75.9924 146.021 76.4425C145.871 76.4425 145.796 76.4425 145.72 76.4425Z" fill="#263238"/>
<path d="M147.973 72.7666C147.747 72.9916 146.696 72.0164 145.12 71.9414C143.543 71.7914 142.342 72.6165 142.192 72.3915C142.117 72.3165 142.342 71.9414 142.867 71.5663C143.393 71.1912 144.219 70.8911 145.195 70.9662C146.171 71.0412 146.997 71.4913 147.447 71.8664C147.898 72.3165 148.048 72.6916 147.973 72.7666Z" fill="#263238"/>
<path d="M129.654 73.1412C130.405 73.6663 130.63 74.7165 130.105 75.4667C129.579 76.2169 128.528 76.4419 127.777 75.9168C127.027 75.3917 126.801 74.3414 127.327 73.5913C127.852 72.8411 128.904 72.6161 129.654 73.1412Z" fill="#263238"/>
<path d="M130.706 73.2163C130.48 73.4413 129.429 72.4661 127.853 72.3911C126.276 72.2411 125.075 73.0662 124.925 72.8412C124.85 72.7662 125.075 72.3911 125.6 72.016C126.126 71.6409 126.952 71.3409 127.928 71.4159C128.904 71.4909 129.73 71.941 130.18 72.3161C130.63 72.7662 130.781 73.1413 130.706 73.2163Z" fill="#263238"/>
<path d="M136.336 86.6445C136.336 86.4945 137.312 86.3444 138.889 86.2694C139.339 86.2694 139.64 86.1944 139.715 85.9694C139.79 85.7443 139.64 85.2942 139.489 84.7691C139.114 83.7189 138.814 82.5936 138.438 81.4684C136.937 76.8173 135.961 72.9165 136.186 72.8414C136.411 72.7664 137.838 76.5173 139.264 81.1683C139.64 82.2935 139.94 83.4188 140.24 84.469C140.39 84.9191 140.615 85.5193 140.39 86.1944C140.24 86.4945 139.94 86.7945 139.64 86.7945C139.339 86.8696 139.114 86.8696 138.964 86.8696C137.312 86.8696 136.336 86.7945 136.336 86.6445Z" fill="#263238"/>
<path d="M131.081 88.145C133.108 89.1202 135.51 90.2455 138.739 90.8456C138.739 90.8456 136.712 93.6962 133.483 92.2709C130.105 90.7706 131.081 88.145 131.081 88.145Z" fill="white"/>
<path d="M136.186 106.074C136.186 106.074 128.903 106.299 121.396 100.973C121.396 100.973 124.474 109.45 136.036 108.999L136.186 106.074Z" fill="#EB996E"/>
<path d="M148.799 58.5882C148.799 58.5882 141.892 62.114 132.658 57.763C126.652 54.9124 119.595 53.5621 118.093 54.8374C116.592 56.0376 116.366 62.264 110.51 64.1394C110.51 64.1394 111.111 75.9171 106.456 75.542C101.727 75.2419 104.354 56.9378 104.354 56.9378L115.691 51.0865L128.153 48.4609L140.015 49.8863L149.174 52.2118L148.799 58.5882Z" fill="#263238"/>
<path d="M107.357 71.7159C107.132 71.6409 99.5492 68.9403 99.3991 76.817C99.2489 84.6938 107.132 83.2685 107.207 83.0434C107.207 82.8184 107.357 71.7159 107.357 71.7159Z" fill="#FFBE9D"/>
<path d="M104.805 79.9679C104.805 79.9679 104.654 80.0429 104.429 80.193C104.204 80.268 103.829 80.343 103.378 80.193C102.552 79.8929 101.877 78.5426 101.877 77.1173C101.877 76.3671 102.027 75.692 102.327 75.1668C102.552 74.5667 102.928 74.1916 103.378 74.1166C103.829 74.0416 104.054 74.2666 104.204 74.4917C104.279 74.7167 104.279 74.8668 104.279 74.8668C104.279 74.8668 104.429 74.7167 104.429 74.4167C104.429 74.2666 104.279 74.0416 104.129 73.8916C103.979 73.7415 103.679 73.6665 103.378 73.6665C102.778 73.6665 102.177 74.2666 101.952 74.8668C101.651 75.4669 101.426 76.2171 101.426 77.0423C101.426 78.6176 102.252 80.1179 103.378 80.493C103.904 80.6431 104.429 80.493 104.654 80.343C104.805 80.193 104.88 79.9679 104.805 79.9679Z" fill="#EB996E"/>
<path d="M103.303 47.1105C103.228 47.0355 104.58 46.6604 106.006 47.1855C107.507 47.7106 108.258 48.8359 108.108 48.9109C108.033 48.9859 107.207 48.0857 105.856 47.5606C104.58 47.0355 103.303 47.1855 103.303 47.1105Z" fill="#263238"/>
<path d="M108.033 42.3848C108.183 42.3848 107.958 44.0351 108.258 45.9856C108.559 47.936 109.459 49.3613 109.384 49.4363C109.384 49.4363 109.084 49.1363 108.709 48.5361C108.408 47.936 108.033 47.0358 107.883 46.0606C107.583 43.9601 107.958 42.3848 108.033 42.3848Z" fill="#263238"/>
<path d="M140.39 69.0156C140.315 68.9406 140.691 68.6405 141.291 68.4154C141.892 68.1904 142.868 67.9653 143.919 67.9653C144.97 67.9653 145.946 68.1904 146.547 68.4905C147.147 68.7905 147.523 69.0156 147.447 69.1656C147.372 69.3907 145.871 68.7905 143.919 68.7905C142.042 68.6405 140.465 69.2406 140.39 69.0156Z" fill="#263238"/>
<path d="M122.823 67.3652C122.747 67.2902 123.123 66.9901 123.723 66.765C124.324 66.54 125.3 66.3149 126.351 66.3149C127.402 66.3149 128.378 66.54 128.979 66.8401C129.579 67.1401 129.955 67.3652 129.88 67.5152C129.804 67.7403 128.303 67.1401 126.351 67.1401C124.474 66.9901 122.898 67.5902 122.823 67.3652Z" fill="#263238"/>
<path d="M250.526 80.1928L228.153 72.166L206.006 80.0428C203.153 81.3931 200.676 82.1432 200.676 84.7688V97.8968C200.676 106.974 203.078 115.976 207.958 123.928C212.087 130.604 218.469 137.506 228.303 141.932C237.312 139.006 244.069 131.204 248.198 124.453C253.078 116.501 255.481 107.499 255.481 98.4219V86.6442C255.631 82.9684 253.604 81.093 250.526 80.1928Z" fill="#7BB499"/>
<g opacity="0.3">
<path opacity="0.3" d="M228.379 134.43C220.571 130.979 215.541 125.428 212.237 120.102C208.333 113.8 206.457 106.674 206.457 99.472V90.3199C206.457 88.2195 207.733 86.269 210.21 85.1438L228.153 78.4673V72.3159L206.006 80.1927C203.679 81.2429 200.676 82.2931 200.676 84.9187V98.0467C200.676 107.124 203.078 116.126 207.958 124.077C212.087 130.754 218.469 137.656 228.303 142.081V134.43H228.379Z" fill="#191A1F"/>
</g>
<g opacity="0.4">
<path opacity="0.4" d="M228.378 142.007C229.955 141.481 231.381 140.881 232.733 140.131C236.411 138.106 239.64 135.33 242.042 132.855C244.745 130.079 246.772 127.003 248.499 124.153C253.378 116.201 255.781 107.199 255.556 97.8217V87.0193C255.556 81.6181 252.778 81.243 250.451 80.1928L228.078 72.166V78.3174L246.171 85.1439C248.649 86.3442 249.925 88.2196 249.925 90.3201V99.4721C249.925 106.674 248.048 113.8 244.144 120.102C240.841 125.428 236.036 130.829 228.228 134.355V142.007H228.378Z" fill="#191A1F"/>
</g>
<path opacity="0.5" d="M234.084 98.8716V97.0712C234.084 93.8455 231.457 91.2949 228.304 91.2949C225.075 91.2949 222.523 93.9205 222.523 97.0712V98.8716C220.946 99.0967 219.745 100.447 219.745 102.097V112.525C219.745 114.325 221.172 115.75 222.973 115.75H233.784C235.586 115.75 237.012 114.325 237.012 112.525V102.097C237.087 100.372 235.736 99.0216 234.084 98.8716ZM229.88 109.899H227.027L227.478 107.874C226.952 107.574 226.652 107.048 226.652 106.373C226.652 105.398 227.403 104.648 228.379 104.648C229.355 104.648 230.105 105.398 230.105 106.373C230.105 106.973 229.805 107.499 229.355 107.799C229.58 108.624 229.88 109.899 229.88 109.899ZM232.883 98.8716H223.724V97.1462C223.724 94.6707 225.751 92.5702 228.304 92.5702C230.781 92.5702 232.883 94.5957 232.883 97.1462V98.8716Z" fill="white"/>
<path d="M210.135 98.722C210.06 98.722 209.91 98.0468 209.835 96.9216C209.685 95.7963 209.61 94.221 209.685 92.4956C209.685 91.5954 209.76 90.7702 209.835 90.02C209.91 89.2699 210.06 88.5947 210.36 88.0696C210.661 87.5445 211.036 87.2444 211.336 87.0944C211.637 86.9443 211.862 86.9443 211.862 86.9443C211.937 87.0194 211.111 87.1694 210.661 88.1446C210.435 88.6697 210.36 89.2699 210.285 90.02C210.21 90.7702 210.21 91.5954 210.135 92.4206C210.06 94.1459 210.135 95.7213 210.21 96.8465C210.135 98.0468 210.21 98.722 210.135 98.722Z" fill="white"/>
<path d="M210.436 104.423C210.361 104.423 210.21 103.898 210.21 103.223C210.21 102.548 210.286 102.022 210.361 102.022C210.436 102.022 210.586 102.548 210.586 103.223C210.661 103.898 210.586 104.423 210.436 104.423Z" fill="white"/>
<path d="M186.862 158.436L161.937 220.024H117.042V222.8H250.901L278.228 158.436H186.862Z" fill="#263238"/>
<path d="M225 194.819C224.099 197.894 221.471 199.845 219.144 199.169C216.817 198.494 215.615 195.419 216.516 192.343C217.417 189.267 220.045 187.317 222.372 187.992C224.699 188.592 225.901 191.668 225 194.819Z" fill="#FAFAFA"/>
</g>
<defs>
<clipPath id="clip0">
<rect width="325" height="224" fill="white"/>
</clipPath>
</defs>
</svg>
