<svg xmlns="http://www.w3.org/2000/svg" width="62" height="62" fill="none" viewBox="0 0 62 62">
    <path fill="#21BF73" d="M50.623 0H17.617c-1.755.003-3.176 1.426-3.177 3.18v2.966h-3.064c-1.753.002-3.174 1.422-3.178 3.175v49.503c.003 1.753 1.424 3.174 3.178 3.176H44.38c1.754-.002 3.175-1.423 3.177-3.176v-2.956l3.065.056c1.755-.002 3.177-1.425 3.178-3.18V3.176C53.798 1.423 52.377.002 50.623 0zm-5.136 58.824c0 .61-.495 1.106-1.106 1.107H11.376c-.611-.001-1.106-.496-1.106-1.107V9.32c0-.611.495-1.106 1.106-1.106H44.38c.61 0 1.106.495 1.106 1.106v49.503zm6.243-6.086c.005.608-.482 1.106-1.09 1.115l-3.082-.052V9.32c-.001-1.754-1.423-3.176-3.177-3.178h-27.87V3.176c.003-.61.497-1.103 1.106-1.105h33.006c.611.002 1.106.498 1.107 1.11v49.557z"/>
    <path fill="#21BF73" d="M27.82 14.508c-7.4.025-13.385 6.03-13.385 13.43.018 7.427 6.047 13.437 13.474 13.43 7.417-.024 13.41-6.057 13.386-13.474-.025-7.417-6.058-13.41-13.475-13.386zm-4.3 2.949c-1.607 1.835-2.773 4.015-3.406 6.372H17.29c1.13-2.88 3.377-5.178 6.23-6.372zM16.7 25.9h3.003c-.247 1.718-.203 3.466.131 5.169h-2.878c-.495-1.678-.584-3.45-.256-5.169zm1.084 7.24h2.6c.62 1.876 1.583 3.62 2.84 5.143-2.339-1.055-4.255-2.867-5.44-5.143zm9.078 5.958l-1.13-1.13c-1.374-1.373-2.447-3.018-3.151-4.828h4.281v5.958zm0-8.029h-4.908c-.222-1-.335-2.023-.337-3.048h-.001c.005-.71.064-1.42.177-2.12h5.07v5.168zm0-7.24h-4.604c.678-2.171 1.878-4.145 3.493-5.748l1.111-1.107v6.856zm11.664 0h-3.029c-.676-2.43-1.918-4.666-3.625-6.525 3.045 1.13 5.465 3.503 6.654 6.525zm-9.593-6.589l.974.974c1.574 1.572 2.75 3.497 3.43 5.615h-4.404V17.24zm0 8.66h4.896c.125.748.19 1.504.194 2.262h-.002c-.003.977-.107 1.951-.31 2.907h-4.778V25.9zm0 13.154V33.14H33.1c-.705 1.864-1.8 3.555-3.21 4.962l-.956.952zm3.522-.705c1.264-1.543 2.23-3.31 2.843-5.209h2.735c-1.209 2.324-3.178 4.162-5.578 5.21zm3.365-7.28c.33-1.704.364-3.453.104-5.169h3.197c.327 1.72.238 3.491-.26 5.169h-3.04zM39.3 50.746H16.506c-.572 0-1.035.464-1.035 1.035 0 .572.463 1.036 1.035 1.036H39.3c.571 0 1.035-.464 1.035-1.035 0-.572-.464-1.036-1.035-1.036zM39.3 54.888H16.506c-.572 0-1.035.464-1.035 1.036 0 .572.463 1.036 1.035 1.036H39.3c.571 0 1.035-.464 1.035-1.036 0-.572-.464-1.036-1.035-1.036zM34.112 48.675c1.144 0 2.072-.928 2.072-2.072 0-1.144-.928-2.071-2.072-2.071-1.144 0-2.071.927-2.071 2.071 0 1.144.927 2.072 2.071 2.072zM27.898 48.675c1.144 0 2.072-.928 2.072-2.072 0-1.144-.928-2.071-2.072-2.071-1.143 0-2.07.927-2.07 2.071 0 1.144.927 2.072 2.07 2.072zM21.684 48.675c1.144 0 2.072-.928 2.072-2.072 0-1.144-.928-2.071-2.072-2.071-1.143 0-2.07.927-2.07 2.071 0 1.144.927 2.072 2.07 2.072z"/>
</svg>
