<svg width="42" height="42" viewBox="0 0 42 42" fill="none" xmlns="http://www.w3.org/2000/svg">
<g clip-path="url(#clip0)">
<path d="M4.76525 15.7588H0.479503C0.237128 15.7588 0.0402533 15.9049 0.0393783 16.198L3.31617e-06 26.7041C-0.000871684 26.9666 0.171503 27.0979 0.406878 27.0979C1.05 27.0979 1.575 27.0979 2.21813 27.0979C2.44125 27.0979 2.625 26.9885 2.625 26.7697C2.625 25.7976 2.625 24.5971 2.625 23.625L4.48525 23.6329C5.70938 23.5524 6.52838 22.9836 6.86963 21.8374C6.972 21.4935 6.99213 21.196 6.99213 20.8425L7.08838 18.3383C6.99913 16.5778 6.08038 15.9084 4.76525 15.7588ZM4.37063 20.5319C4.37063 20.7891 4.15975 21 3.90338 21H2.625V18.375H3.90338C4.15975 18.375 4.37063 18.585 4.37063 18.8431V20.5319ZM12.1958 15.75H9.20063C8.97313 15.75 8.778 15.82 8.778 16.0571C8.778 16.6749 8.778 17.3653 8.778 17.983C8.8025 18.2403 8.98013 18.375 9.233 18.375H11.7311C12.2509 18.375 12.1966 19.2255 11.7311 19.25H10.36C8.83838 19.25 7.875 20.6167 7.875 21.9949C7.875 22.3624 7.87938 23.2251 7.875 23.625C7.868 24.1946 7.86275 24.7721 7.973 25.2866C8.169 26.1966 8.95563 27.125 10.1474 27.125H13.8469C14.3203 27.125 14.8733 26.7102 14.8733 26.1616V18.9219C14.8978 17.0126 13.9493 15.8524 12.1958 15.75ZM12.25 24.1062C12.25 24.3232 12.0733 24.5 11.858 24.5H10.8911C10.6759 24.5 10.5 24.3232 10.5 24.1062V22.2679C10.5 22.0517 10.6759 21.875 10.8911 21.875H11.858C12.0733 21.875 12.25 22.0517 12.25 22.2679V24.1062ZM15.75 16.2697V21.1767C15.8585 22.5767 17.157 23.625 18.5246 23.625H19.7619C20.2843 23.625 20.2528 24.4729 19.7619 24.4729H17.0538C16.7571 24.4729 16.6495 24.6277 16.6495 24.8894V26.7724C16.6495 26.9701 16.8096 27.1189 17.0188 27.1189H19.6079C21.7219 27.1189 22.7509 26.1047 22.75 23.8315V16.0965C22.75 15.855 22.5969 15.7614 22.4508 15.7614H20.4365C20.2405 15.7614 20.1259 15.974 20.1259 16.1306V20.6964C20.1259 20.8705 20.0288 20.9729 19.8721 20.9729H18.7338C18.5028 20.9729 18.3759 20.8478 18.3759 20.6264V16.2006C18.375 15.9407 18.27 15.75 17.983 15.75C17.3023 15.75 16.7213 15.75 16.0405 15.75C15.8086 15.75 15.75 15.9801 15.75 16.2697Z" fill="#0D47A1"/>
<path d="M23.6582 17.9978V16.1271C23.6582 15.9197 23.828 15.75 24.0345 15.75H24.5C25.697 15.5006 26.1196 15.2075 26.852 14.4182C27.3017 13.9308 27.6972 13.8022 27.9877 14.3193L28 15.75H29.3728C29.5811 15.75 29.75 15.9197 29.75 16.1271V17.9978C29.75 18.2043 29.5802 18.375 29.3728 18.375H28V26.7478C28 26.9561 27.8302 27.125 27.6237 27.125H25.7512C25.5438 27.125 25.375 26.9561 25.375 26.7478V18.375H24.0353C23.8297 18.375 23.6582 18.2052 23.6582 17.9978ZM37.6171 26.6568C37.6171 26.9141 37.4036 27.125 37.1455 27.125H35.4742C35.2143 27.125 35.0017 26.9141 35.0017 26.6568V20.8617V19.2246C35.0017 18.1011 33.25 18.1011 33.25 19.2246V26.6568C33.25 26.9141 33.0382 27.125 32.7783 27.125H31.0975C30.8376 27.125 30.625 26.9141 30.625 26.6568V16.2198C30.625 15.9608 30.8376 15.75 31.0975 15.75H32.8265C33.0863 15.75 33.2981 15.9608 33.2981 16.2198V16.4753C34.4531 15.3676 36.1873 15.624 37.1621 16.6748C38.997 14.5705 42.1408 16.4456 41.9947 18.753C41.9947 21.3045 41.9719 24.0843 41.9719 26.6568C41.9719 26.9141 41.7585 27.125 41.5012 27.125H39.8466C39.5867 27.125 39.375 26.9141 39.375 26.6568C39.375 24.2191 39.375 21.6685 39.375 19.2718C39.375 18.1282 37.625 18.0731 37.625 19.2718V26.6568H37.6171Z" fill="#00ADEE"/>
</g>
<defs>
<clipPath id="clip0">
<rect width="42" height="42" fill="white"/>
</clipPath>
</defs>
</svg>
