<svg width="32" height="32" viewBox="0 0 32 32" fill="none" xmlns="http://www.w3.org/2000/svg">
<g opacity="0.8" clip-path="url(#clip0)">
<path d="M31.6541 12.275C31.4025 11.0763 30.9936 9.92319 30.459 8.8459C29.6727 7.25273 28.6192 5.79611 27.3455 4.55192C26.4963 3.73257 25.5686 3.00427 24.5464 2.38217C24.3106 2.24561 24.0747 2.10906 23.8388 1.9725C22.7224 1.36558 21.5273 0.880038 20.2693 0.54623C19.8447 0.440019 19.4201 0.333808 18.9799 0.257942C18.5396 0.182077 18.0993 0.121385 17.6432 0.0758653C17.0771 0.0303461 16.5111 0 15.9292 0C15.3317 0 14.7342 0.0303461 14.1523 0.106211C13.712 0.151731 13.2717 0.212423 12.8472 0.303461C6.5258 1.51731 1.57248 6.312 0.314496 12.3964C0.220147 12.8061 0.157248 13.2309 0.110074 13.6558C0.0314496 14.2475 0 14.8696 0 15.5069C0 16.0228 0.0314496 16.5235 0.0786241 17.0242C0.125799 17.4642 0.188698 17.889 0.267322 18.3139C0.345946 18.7387 0.45602 19.1484 0.566093 19.5581C0.912039 20.7719 1.41523 21.9251 2.04423 23.0024C2.18575 23.23 2.32727 23.4576 2.4688 23.6852C3.11351 24.6714 3.8683 25.5666 4.71744 26.386C6.00688 27.615 7.50074 28.6468 9.16757 29.3902C10.284 29.9061 11.4791 30.2854 12.7214 30.5434C13.8064 30.7558 14.9228 30.8772 16.0708 30.862C16.7312 30.862 17.3916 30.8165 18.0364 30.7406C18.8541 30.6344 19.6717 30.4827 20.4423 30.2551C25.7101 28.7833 29.8457 24.7928 31.371 19.7098C31.5912 18.9512 31.7641 18.1773 31.8742 17.3883C31.9685 16.7207 32 16.0531 32 15.3551C31.9843 14.3082 31.8742 13.2764 31.6541 12.275Z" fill="#21BF73"/>
<path d="M27.9121 15.4318C27.9121 21.5314 23.0059 26.5082 16.7946 26.9027C16.5273 26.9179 16.26 26.933 15.9927 26.933C9.40395 26.933 4.07324 21.7894 4.07324 15.4318C4.07324 9.07433 9.40395 3.93066 15.9927 3.93066C16.26 3.93066 16.5273 3.94584 16.7946 3.96101C23.0059 4.35551 27.9121 9.34745 27.9121 15.4318Z" fill="#21BF73"/>
<path d="M21.9281 10.0034V7.75781H10.1816V10.0186H12.8391C14.0028 10.0186 14.962 10.231 15.5595 10.7924C15.7325 10.9442 15.8583 11.1262 15.9684 11.3387H10.1816V13.5994H16.1885C15.8583 14.9954 14.6789 15.5416 13.0436 15.5416H10.9207V17.9086L15.2922 23.2343L15.7168 23.7502H19.2706L17.2735 21.3074L14.4902 17.8934C16.8647 17.4686 18.8932 15.9968 19.1448 13.5843H21.9281V11.3235H18.9404C18.7359 10.7014 18.5001 10.231 18.3271 10.0641L18.39 10.0034H21.9281Z" fill="white"/>
</g>
<defs>
<clipPath id="clip0">
<rect width="32" height="32" fill="white"/>
</clipPath>
</defs>
</svg>
