<svg width="89" height="39" viewBox="0 0 89 39" fill="none" xmlns="http://www.w3.org/2000/svg">
<path d="M69.7292 17.1975H77.9017C77.6491 15.0728 76.0526 13.5125 73.9763 13.5125C71.64 13.5125 70.2361 14.9426 69.7292 17.1975ZM57.2059 24.0905C60.1726 24.057 60.9049 21.101 60.9049 18.9419C60.9049 16.21 59.6918 13.9281 57.2059 13.8946C54.4851 13.8593 53.4647 16.3048 53.4647 18.9419C53.4647 21.326 54.3626 24.0905 57.2059 24.0905ZM88.9875 12.1986C88.9875 9.50757 86.8008 7.33449 84.096 7.33449C82.6978 7.33449 81.4436 7.91379 80.5541 8.84736C78.4843 7.41725 75.9769 6.57944 73.2636 6.57944C70.5233 6.57944 67.9961 7.43677 65.9123 8.8948C64.9743 8.03002 63.7275 7.50466 62.3508 7.50466C61.3295 7.50466 60.3764 7.79849 59.5693 8.30155C57.6576 4.91035 54.0128 2.62104 49.8265 2.62104C45.9975 2.62104 42.6258 4.52911 40.6056 7.43678C38.9203 5.71468 36.5634 4.64441 33.953 4.64441C32.2265 4.64441 30.6169 5.11492 29.2327 5.93133C29.199 2.65545 26.526 0.0128021 23.2244 0.0128021C19.9014 0.0128021 17.2097 2.68986 17.2097 5.9862L17.2237 6.21774C16.5793 6.1229 15.9218 6.06802 15.2503 6.06802C13.2909 6.06802 11.4409 6.4967 9.7761 7.2601C8.83801 6.76263 7.77554 6.47623 6.63824 6.47623C2.98692 6.47623 0.0136719 9.42574 0.0136719 13.0633C0.0136719 14.9909 0.85636 16.714 2.17884 17.92C2.14419 18.3152 2.12368 18.7169 2.12368 19.1186C2.12368 26.325 8.00189 32.1617 15.2503 32.1617C18.0655 32.1617 20.6768 31.2764 22.8129 29.7775C24.7387 32.3941 27.8429 34.1032 31.3502 34.1032C31.439 34.1032 31.5213 34.0966 31.6027 34.0893C32.6174 36.943 35.3372 38.9868 38.5499 38.9868C41.7981 38.9868 44.5581 36.8891 45.5308 33.9805C46.6485 36.0857 48.8604 37.5158 51.4156 37.5158C54.6086 37.5158 57.2742 35.2748 57.9176 32.2918C58.3769 32.3522 58.8492 32.3941 59.3224 32.3941C61.9262 32.3941 64.2897 31.4122 66.0901 29.8119C68.1327 31.1946 70.6056 32.0054 73.2637 32.0054C80.3278 32.0054 86.048 26.311 86.048 19.2887C86.048 18.423 85.9657 17.5722 85.7945 16.7548C87.6576 16.0668 88.9875 14.2898 88.9875 12.1985L88.9875 12.1986ZM82.3143 17.8651C82.3143 19.4524 81.8345 19.8606 80.2661 19.8606H69.7292C69.7292 22.3061 71.3248 24.0905 74.0381 24.0905C77.5528 24.0905 77.5528 21.8021 79.4365 21.8021C80.5541 21.8021 81.3547 22.7561 81.3547 23.6135C81.3547 26.4058 76.8476 27.7067 74.0381 27.7067C68.736 27.7067 66.1181 24.8055 65.3306 21.5501C64.6254 24.9627 62.377 27.7067 58.3834 27.7067C56.2463 27.7067 54.6507 26.8494 53.7874 25.3579H53.7191V31.5498C53.7191 33.0748 52.7932 33.8716 51.3894 33.8716C49.9836 33.8716 49.0596 33.0748 49.0596 31.5498V14.2759L43.8183 29.0429C42.7025 32.2165 41.4202 33.8716 38.4816 33.8716C36.4062 33.8716 35.542 32.8562 35.542 31.7395C35.542 30.4991 36.4399 29.8658 37.6875 29.8658H38.1664C38.7697 29.8658 39.4403 29.8398 39.791 28.4087L34.9397 14.6571C34.7686 14.1596 34.6385 13.7858 34.5432 13.4715C34.4328 13.6147 34.3103 13.744 34.1653 13.8946L30.7197 17.4839L35.5776 23.9612C35.7347 24.1788 36.0564 24.6902 36.0564 25.4527C36.0564 26.6309 35.0978 27.7067 33.851 27.7067C32.6997 27.7067 32.0899 27.1358 31.7411 26.6309L27.335 20.4324L25.7048 21.8625V25.3914C25.7048 26.9107 24.7798 27.7067 23.375 27.7067C21.9637 27.7067 21.0387 26.9107 21.0387 25.3914V23.6813C20.2035 26.4198 17.0862 27.7067 14.0784 27.7067C9.86494 27.7067 6.3511 25.834 6.3511 23.5456C6.3511 22.5311 6.9263 21.6115 8.23475 21.6115C10.2484 21.6115 10.4411 24.4717 13.8866 24.4717C15.5449 24.4717 16.5999 23.7362 16.5999 22.7896C16.5999 21.6115 15.5785 21.4209 13.9212 21.0052L11.1743 20.3441C8.46108 19.6774 6.3511 18.5597 6.3511 15.4465C6.3511 11.6741 10.1193 10.271 13.3451 10.271C16.887 10.271 20.47 11.6741 20.47 13.7988C20.47 14.8812 19.7302 15.8287 18.5181 15.8287C16.6953 15.8287 16.6335 13.7031 13.6949 13.7031C12.0647 13.7031 11.0097 14.1457 11.0097 15.1332C11.0097 16.2099 12.0647 16.4685 13.5032 16.7827L15.4485 17.2319C17.6895 17.7358 20.2858 18.6146 21.0387 20.8211V6.33393C21.0387 4.81549 21.9637 4.0186 23.375 4.0186C24.7798 4.0186 25.7048 4.81549 25.7048 6.33393V16.8767L30.8769 11.1627C31.3567 10.6522 31.9665 10.271 32.6651 10.271C33.4255 10.271 34.2336 10.761 34.6245 11.4695C35.0014 10.747 35.7553 10.271 36.6316 10.271C37.8783 10.271 38.7416 10.9721 39.0222 12.0209L42.03 22.851H42.0918L44.936 12.3417C45.2577 11.1627 45.8946 10.271 47.1759 10.271C48.2786 10.271 48.9155 10.8149 49.2523 11.3738C49.5319 10.6587 50.1557 10.271 51.163 10.271C52.5397 10.271 53.273 11.0399 53.273 12.4636V13.1926H53.3413C54.1092 11.225 55.9928 10.271 58.2534 10.271C61.583 10.271 64.5562 12.3482 65.3587 16.687C66.2622 12.7639 69.2971 10.271 73.8809 10.271C79.2457 10.271 82.3143 14.0508 82.3143 17.8651ZM83.7593 10.6048H84.6712C84.6712 10.6048 84.6779 10.6048 85.3699 12.6133L86.0208 10.6048H86.9243V13.5264H86.322C86.322 13.5264 86.3153 13.5264 86.3153 11.4556L85.5951 13.5264H85.0948C85.0948 13.5264 85.0881 13.5264 84.369 11.476V13.5264H83.7592V10.6048H83.7593ZM81.019 11.1422V10.6048H83.4236V11.1422H82.5472V13.5264H81.8963V11.1422H81.019Z" fill="#00ADEF"/>
</svg>
