<svg width="24" height="24" viewBox="0 0 24 24" fill="none" xmlns="http://www.w3.org/2000/svg">
<path d="M17.6225 2.816C17.5944 2.78798 17.5587 2.7689 17.5199 2.76117C17.481 2.75344 17.4407 2.75741 17.4041 2.77258C17.3675 2.78774 17.3362 2.81343 17.3142 2.84638C17.2922 2.87933 17.2804 2.91807 17.2804 2.9577V6.4799H8.64038C8.57673 6.4799 8.51568 6.50519 8.47068 6.5502C8.42567 6.59521 8.40039 6.65625 8.40039 6.7199V9.5999C8.40039 9.66355 8.42567 9.72459 8.47068 9.7696C8.51568 9.81461 8.57673 9.8399 8.64038 9.8399H17.2804V13.3621C17.2804 13.4017 17.2921 13.4405 17.3142 13.4734C17.3362 13.5064 17.3675 13.5321 17.4041 13.5472C17.4407 13.5624 17.481 13.5664 17.5199 13.5586C17.5587 13.5509 17.5945 13.5318 17.6225 13.5038L22.683 8.44329C22.7202 8.40607 22.7497 8.36189 22.7699 8.31327C22.79 8.26464 22.8004 8.21252 22.8004 8.15989C22.8004 8.10726 22.79 8.05514 22.7699 8.00652C22.7497 7.95789 22.7202 7.91371 22.683 7.8765L17.6225 2.816Z" fill="#21bf73"/>
<path d="M15.3592 14.1601H6.71921V10.6379C6.71921 10.5982 6.70745 10.5595 6.68543 10.5266C6.66341 10.4936 6.63212 10.4679 6.5955 10.4528C6.55889 10.4376 6.5186 10.4336 6.47973 10.4413C6.44086 10.4491 6.40516 10.4682 6.37713 10.4962L1.31661 15.5567C1.27939 15.5939 1.24987 15.6381 1.22973 15.6867C1.20959 15.7353 1.19922 15.7874 1.19922 15.8401C1.19922 15.8927 1.20959 15.9448 1.22973 15.9934C1.24987 16.0421 1.27939 16.0863 1.31661 16.1235L6.37713 21.184C6.40516 21.212 6.44086 21.2311 6.47973 21.2388C6.5186 21.2465 6.55889 21.2426 6.5955 21.2274C6.63212 21.2122 6.66341 21.1865 6.68543 21.1536C6.70745 21.1206 6.71921 21.0819 6.71921 21.0423V17.5201H15.3592C15.4229 17.5201 15.4839 17.4948 15.5289 17.4498C15.5739 17.4048 15.5992 17.3437 15.5992 17.2801V14.4001C15.5992 14.3364 15.5739 14.2754 15.5289 14.2304C15.4839 14.1854 15.4229 14.1601 15.3592 14.1601Z" fill="#21bf73"/>
</svg>
