<svg width="26" height="26" viewBox="0 0 26 26" fill="none" xmlns="http://www.w3.org/2000/svg">
<circle cx="13" cy="13" r="13" fill="#E9F9F1"/>
<g clip-path="url(#clip0)">
<path d="M6.11237 8.78363C6.09135 8.80465 6.07704 8.83143 6.07125 8.86058C6.06545 8.88973 6.06843 8.91995 6.0798 8.94741C6.09117 8.97487 6.11044 8.99834 6.13515 9.01486C6.15986 9.03137 6.18892 9.04019 6.21864 9.04019L8.86029 9.04019L8.86029 15.5202C8.86029 15.5679 8.87926 15.6137 8.91302 15.6475C8.94677 15.6812 8.99255 15.7002 9.04029 15.7002L11.2003 15.7002C11.248 15.7002 11.2938 15.6812 11.3276 15.6475C11.3613 15.6137 11.3803 15.5679 11.3803 15.5202L11.3803 9.04019L14.0219 9.04019C14.0517 9.0402 14.0807 9.03138 14.1054 9.01487C14.1301 8.99835 14.1494 8.97488 14.1608 8.94742C14.1722 8.91995 14.1751 8.88974 14.1693 8.86058C14.1635 8.83143 14.1492 8.80465 14.1282 8.78363L10.3328 4.98824C10.3049 4.96033 10.2718 4.93818 10.2353 4.92308C10.1988 4.90797 10.1598 4.9002 10.1203 4.9002C10.0808 4.9002 10.0417 4.90797 10.0053 4.92308C9.96879 4.93818 9.93565 4.96033 9.90774 4.98824L6.11237 8.78363Z" fill="#21BF73"/>
<path d="M14.6201 10.4801L14.6201 16.9601L11.9784 16.9601C11.9487 16.9601 11.9196 16.9689 11.8949 16.9854C11.8702 17.002 11.8509 17.0254 11.8396 17.0529C11.8282 17.0803 11.8252 17.1106 11.831 17.1397C11.8368 17.1689 11.8511 17.1956 11.8721 17.2167L15.6675 21.0121C15.6954 21.04 15.7286 21.0621 15.765 21.0772C15.8015 21.0923 15.8406 21.1001 15.8801 21.1001C15.9195 21.1001 15.9586 21.0923 15.9951 21.0772C16.0316 21.0621 16.0647 21.04 16.0926 21.0121L19.888 17.2167C19.909 17.1956 19.9233 17.1689 19.9291 17.1397C19.9349 17.1106 19.9319 17.0803 19.9205 17.0529C19.9092 17.0254 19.8899 17.002 19.8652 16.9854C19.8405 16.9689 19.8114 16.9601 19.7817 16.9601L17.1401 16.9601L17.1401 10.4801C17.1401 10.4324 17.1211 10.3866 17.0873 10.3528C17.0536 10.3191 17.0078 10.3001 16.9601 10.3001L14.8001 10.3001C14.7523 10.3001 14.7065 10.3191 14.6728 10.3528C14.639 10.3866 14.6201 10.4324 14.6201 10.4801Z" fill="#21BF73"/>
</g>
<defs>
<clipPath id="clip0">
<rect width="18" height="18" fill="white" transform="translate(4 22) rotate(-90)"/>
</clipPath>
</defs>
</svg>
