<svg width="24" height="24" viewBox="0 0 24 24" fill="none" xmlns="http://www.w3.org/2000/svg">
<path d="M11.6101 7.85085L4.96691 12.4435C4.87296 12.5088 4.79606 12.5965 4.74293 12.6992C4.6898 12.8018 4.66205 12.9162 4.66211 13.0323V20.3923C4.66211 20.581 4.73544 20.762 4.86596 20.8954C4.99649 21.0288 5.17352 21.1038 5.35811 21.1038H9.01091C9.1955 21.1038 9.37253 21.0288 9.50306 20.8954C9.63358 20.762 9.70691 20.581 9.70691 20.3923V15.8463C9.70691 15.6576 9.78024 15.4766 9.91076 15.3432C10.0413 15.2098 10.2183 15.1348 10.4029 15.1348H13.5949C13.7795 15.1348 13.9565 15.2098 14.0871 15.3432C14.2176 15.4766 14.2909 15.6576 14.2909 15.8463V20.3923C14.2909 20.581 14.3642 20.762 14.4948 20.8954C14.6253 21.0288 14.8023 21.1038 14.9869 21.1038H18.6397C18.8243 21.1038 19.0013 21.0288 19.1319 20.8954C19.2624 20.762 19.3357 20.581 19.3357 20.3923V13.0323C19.3358 12.9162 19.308 12.8018 19.2549 12.6992C19.2018 12.5965 19.1249 12.5088 19.0309 12.4435L12.3877 7.85085C12.2728 7.77175 12.1374 7.72949 11.9989 7.72949C11.8604 7.72949 11.725 7.77175 11.6101 7.85085Z" fill="#21bf73"/>
<path d="M11.6107 3.55251L2.07311 10.1103C1.99103 10.1667 1.92166 10.2404 1.86963 10.3264C1.81761 10.4125 1.78412 10.5088 1.7714 10.6091C1.75868 10.7094 1.76703 10.8113 1.79588 10.9081C1.82473 11.0048 1.87342 11.0941 1.93871 11.1701L2.72591 12.0852C2.83752 12.2145 2.99129 12.298 3.1586 12.3201C3.32592 12.3422 3.4954 12.3015 3.63551 12.2054L11.6107 6.72958C11.7254 6.651 11.8603 6.60904 11.9983 6.60904C12.1363 6.60904 12.2713 6.651 12.3859 6.72958L20.3635 12.2079C20.5036 12.3039 20.6731 12.3447 20.8404 12.3226C21.0077 12.3005 21.1615 12.217 21.2731 12.0877L22.0603 11.1726C22.1256 11.0966 22.1743 11.0072 22.2031 10.9105C22.232 10.8138 22.2403 10.7119 22.2276 10.6116C22.2149 10.5113 22.1814 10.4149 22.1294 10.3289C22.0774 10.2429 22.008 10.1692 21.9259 10.1127L12.3883 3.55251C12.2734 3.47341 12.138 3.43115 11.9995 3.43115C11.861 3.43115 11.7256 3.47341 11.6107 3.55251Z" fill="#21bf73"/>
</svg>
