<svg width="123" height="123" viewBox="0 0 123 123" fill="none" xmlns="http://www.w3.org/2000/svg">
<g clip-path="url(#clip0)">
<path d="M78.9604 47.632C78.5984 47.632 78.2384 47.504 77.9504 47.24C73.5364 43.216 67.8724 41 62.0004 41C56.1284 41 50.4644 43.216 46.0504 47.242C45.4364 47.8 44.4884 47.754 43.9304 47.144C43.3724 46.532 43.4164 45.582 44.0284 45.024C48.9984 40.494 55.3804 38 62.0004 38C68.6204 38 75.0024 40.494 79.9724 45.024C80.5844 45.582 80.6284 46.53 80.0704 47.144C79.7744 47.468 79.3684 47.632 78.9604 47.632Z" fill="#BABABC"/>
<path d="M81.4997 57.4341C81.0177 57.4341 80.5417 57.2021 80.2537 56.7701C76.0897 50.5701 69.2657 46.8681 61.9997 46.8681C54.7337 46.8681 47.9097 50.5701 43.7457 56.7701C43.2837 57.4601 42.3497 57.6441 41.6637 57.1801C40.9757 56.7181 40.7917 55.7861 41.2537 55.0981C45.9757 48.0681 53.7317 43.8701 61.9997 43.8701C70.2677 43.8701 78.0237 48.0681 82.7457 55.1001C83.2077 55.7881 83.0257 56.7201 82.3357 57.1821C82.0797 57.3521 81.7897 57.4341 81.4997 57.4341Z" fill="#BABABC"/>
<path d="M57.2616 86.0004C56.8756 86.0004 56.4896 85.8524 56.1956 85.5564C55.8676 85.2264 48.1816 77.3804 48.1816 69.8264C48.1816 61.9864 54.3796 55.6084 61.9996 55.6084C69.6196 55.6084 75.8176 61.9864 75.8176 69.8264C75.8176 70.6544 75.1456 71.3264 74.3176 71.3264C73.4896 71.3264 72.8176 70.6544 72.8176 69.8264C72.8176 63.6404 67.9656 58.6084 61.9996 58.6084C56.0336 58.6084 51.1816 63.6404 51.1816 69.8264C51.1816 76.1604 58.2556 83.3724 58.3276 83.4444C58.9116 84.0324 58.9076 84.9824 58.3176 85.5664C58.0256 85.8564 57.6436 86.0004 57.2616 86.0004Z" fill="#BABABC"/>
<path d="M66.7381 86.0003C63.1301 86.0003 54.7661 79.1363 53.9561 71.4923C53.6701 68.7903 54.5301 66.0263 56.2541 64.0983C57.7541 62.4223 59.7801 61.4923 61.9581 61.4803H62.0001C64.1241 61.4803 66.1321 62.3143 67.6601 63.8323C69.2561 65.4183 70.1341 67.5483 70.1341 69.8283V70.8063C70.1341 73.2163 72.0101 75.1763 74.3181 75.1763C76.6261 75.1763 78.5041 73.2163 78.5041 70.8063V70.4643C78.5041 61.1243 71.7381 53.3543 63.1001 52.7783C58.5961 52.4723 54.2761 54.0283 50.9421 57.1443C47.4821 60.3803 45.4981 65.0043 45.4981 69.8283C45.4981 73.7963 46.8421 77.6623 49.2821 80.7143C49.7981 81.3623 49.6941 82.3043 49.0461 82.8223C48.4001 83.3403 47.4561 83.2343 46.9361 82.5863C44.0741 79.0043 42.4961 74.4723 42.4961 69.8263C42.4961 64.1743 44.8281 58.7523 48.8901 54.9523C52.8361 51.2603 57.9521 49.4243 63.2961 49.7823C73.5041 50.4643 81.5021 59.5483 81.5021 70.4623V70.8043C81.5021 74.8683 78.2781 78.1743 74.3161 78.1743C70.3541 78.1743 67.1321 74.8683 67.1321 70.8043V69.8263C67.1321 68.3503 66.5681 66.9783 65.5441 65.9583C64.5841 65.0023 63.3261 64.4783 62.0001 64.4783C61.9901 64.4783 61.9821 64.4783 61.9721 64.4783C60.2821 64.4863 59.1441 65.3643 58.4881 66.0983C57.3181 67.4043 56.7381 69.3043 56.9361 71.1763C57.5981 77.4123 64.7641 83.0023 66.7361 83.0023C67.5641 83.0023 68.2361 83.6743 68.2361 84.5023C68.2361 85.3303 67.5661 86.0003 66.7381 86.0003Z" fill="#BABABC"/>
<path d="M72.3038 83.0666C66.9358 83.0666 60.3818 76.5066 60.3818 68.8486C60.3818 68.0206 61.0538 67.3486 61.8818 67.3486C62.7098 67.3486 63.3818 68.0206 63.3818 68.8486C63.3818 74.7846 68.3718 80.0666 72.3038 80.0666C73.1318 80.0666 73.8038 80.7386 73.8038 81.5666C73.8038 82.3946 73.1318 83.0666 72.3038 83.0666Z" fill="#BABABC"/>
</g>
<circle cx="61.5" cy="61.5" r="49.25" stroke="#21BF73" stroke-width="0.5"/>
<circle cx="61.5" cy="61.5" r="61.45" stroke="#21BF73" stroke-width="0.1"/>
<circle cx="61.5" cy="61.5" r="38" stroke="#21BF73"/>
<defs>
<clipPath id="clip0">
<rect width="48" height="48" fill="white" transform="translate(38 38)"/>
</clipPath>
</defs>
</svg>
