<svg width="28" height="24" viewBox="0 0 28 24" fill="none" xmlns="http://www.w3.org/2000/svg">
<path d="M28 2.56885V21.6938H0V2.56885H28ZM23.0781 15.2251C23.0781 13.3611 21.6091 11.8501 19.7969 11.8501C20.703 11.8501 21.4375 11.0945 21.4375 10.1626C21.4375 9.23065 20.703 8.4751 19.7969 8.4751C18.8908 8.4751 18.1562 9.23065 18.1562 10.1626C18.1562 11.0945 18.8908 11.8501 19.7969 11.8501C17.9847 11.8501 16.5156 13.3611 16.5156 15.2251H23.0781ZM6.5625 16.3501H12.6875V14.6626H6.5625V16.3501ZM4.92188 12.9751H12.6875V11.2876H4.92188V12.9751ZM4.92188 9.6001H12.6875V7.9126H4.92188V9.6001Z" fill="black"/>
</svg>
