<svg width="18" height="18" viewBox="0 0 18 18" fill="none" xmlns="http://www.w3.org/2000/svg">
<path d="M16.8299 4.74738C16.8299 5.24436 16.4271 5.64738 15.9299 5.64738H2.06992C1.57276 5.64738 1.16992 5.24436 1.16992 4.74738V3.90732C1.16992 3.41034 1.57276 3.00732 2.06992 3.00732H15.9299C16.4271 3.00732 16.8299 3.41034 16.8299 3.90732V4.74738Z" fill="black"/>
<path d="M11.4299 9.38246C11.4299 9.87962 11.0271 10.2825 10.5299 10.2825H2.06992C1.57276 10.2825 1.16992 9.87962 1.16992 9.38246V8.54258C1.16992 8.04542 1.57276 7.64258 2.06992 7.64258H10.5299C11.0271 7.64258 11.4299 8.04542 11.4299 8.54258V9.38246Z" fill="black"/>
<path d="M6.02992 14.0926C6.02992 14.5896 5.62708 14.9926 5.12992 14.9926H2.06992C1.57276 14.9926 1.16992 14.5896 1.16992 14.0926V13.2525C1.16992 12.7556 1.57276 12.3525 2.06992 12.3525H5.12992C5.62708 12.3525 6.02992 12.7556 6.02992 13.2525V14.0926Z" fill="black"/>
</svg>
