<svg width="24" height="24" viewBox="0 0 24 24" fill="none" xmlns="http://www.w3.org/2000/svg">
<g clip-path="url(#clip0)">
<path d="M14.4104 10.5C14.294 10.5 14.1957 10.5854 14.1787 10.7005C14.1114 11.1589 13.9981 11.6059 13.8463 11.998C13.5363 12.7987 13.0665 13.4025 12.4501 13.7927C11.9775 14.0919 11.4329 14.25 10.875 14.25C9.83508 14.25 8.74814 13.6731 8.05514 13.2202C7.99073 13.1781 7.90978 13.1698 7.83895 13.1999C7.665 13.2739 7.48552 13.3347 7.30223 13.3818C7.19822 13.4085 7.125 13.5013 7.125 13.6087V20.0156C7.125 20.145 7.22995 20.25 7.35937 20.25H21.8437C23.0346 20.25 24 19.2846 24 18.0938V10.7344C24 10.605 23.895 10.5 23.7656 10.5H14.4104Z" fill="#21bf73"/>
<path d="M7.30223 6.11822C7.48542 6.16533 7.66481 6.22608 7.83867 6.29995C7.90969 6.33014 7.99083 6.32189 8.05542 6.27966C8.74847 5.82675 9.83527 5.25005 10.875 5.25005C11.4329 5.25005 11.9776 5.40816 12.4502 5.70731C13.0666 6.0975 13.5364 6.7013 13.8464 7.50201C13.9982 7.89408 14.1115 8.34112 14.1788 8.79951C14.1958 8.91459 14.2941 9 14.4105 9H23.7656C23.895 9 24 8.89504 24 8.76562V5.90625C24 4.71539 23.0346 3.75 21.8438 3.75H7.35938C7.22995 3.75 7.125 3.85495 7.125 3.98437V5.89125C7.125 5.99869 7.19822 6.0915 7.30223 6.11822V6.11822Z" fill="#21bf73"/>
<path d="M5.62527 5.89125V3.98437C5.62527 3.85495 5.52032 3.75 5.3909 3.75H4.78152C3.87454 3.75 3.09674 4.31297 2.77879 5.10778C2.72769 5.23551 2.79543 5.38026 2.9271 5.42015C3.6036 5.62514 4.23547 5.97947 4.69461 6.27947C4.75935 6.32179 4.84072 6.33004 4.91193 6.29981C5.08569 6.22598 5.26499 6.16523 5.44808 6.11817C5.55205 6.09145 5.62527 5.99864 5.62527 5.89125V5.89125Z" fill="#21bf73"/>
<path d="M5.44777 13.382C5.26453 13.3348 5.08514 13.2741 4.91128 13.2002C4.84031 13.17 4.75922 13.1782 4.69467 13.2204C4.20666 13.5393 3.52336 13.9194 2.79877 14.1165C2.69639 14.1444 2.625 14.2365 2.625 14.3427V18.0939C2.625 19.2847 3.59039 20.2501 4.78125 20.2501H5.39062C5.52005 20.2501 5.625 20.1452 5.625 20.0157V13.6089C5.625 13.5015 5.55178 13.4087 5.44777 13.382Z" fill="#21bf73"/>
<path d="M12.4476 8.04356C12.0118 6.91805 11.2753 6.75 10.875 6.75C10.0373 6.75 8.94502 7.47928 8.63016 7.70278C8.42564 7.848 8.2095 8.0167 8.00667 8.20322C7.59642 7.77061 7.01691 7.5 6.375 7.5C5.73309 7.5 5.15358 7.77061 4.74328 8.20322C4.54045 8.0167 4.32436 7.848 4.1198 7.70278C3.80498 7.47928 2.7127 6.75 1.875 6.75C1.47473 6.75 0.738187 6.91805 0.302438 8.04356C0.113063 8.53266 0 9.17058 0 9.75C0 10.3294 0.113063 10.9673 0.302438 11.4564C0.738187 12.582 1.47473 12.75 1.875 12.75C2.7127 12.75 3.80498 12.0207 4.11984 11.7972C4.32436 11.652 4.5405 11.4833 4.74333 11.2968C5.15358 11.7294 5.73309 12 6.375 12C7.01691 12 7.59642 11.7294 8.00672 11.2968C8.20955 11.4833 8.42564 11.652 8.6302 11.7972C8.94502 12.0207 10.0373 12.75 10.875 12.75C11.2753 12.75 12.0118 12.582 12.4476 11.4564C12.6369 10.9673 12.75 10.3294 12.75 9.75C12.75 9.17058 12.6369 8.53266 12.4476 8.04356Z" fill="#21bf73"/>
</g>
<defs>
<clipPath id="clip0">
<rect width="24" height="24" fill="white"/>
</clipPath>
</defs>
</svg>
