<svg width="115" height="115" viewBox="0 0 115 115" fill="none" xmlns="http://www.w3.org/2000/svg">
<g clip-path="url(#clip0)">
<path d="M57.4971 0.00390374C61.2056 0.00390357 64.4528 4.22445 67.9589 4.91749C71.572 5.63194 76.1819 2.98826 79.507 4.36655C82.8884 5.77015 84.2726 10.9135 87.2803 12.9322C90.288 14.951 95.5871 14.2949 98.1548 16.853C100.723 19.411 100.047 24.6983 102.076 27.7275C104.104 30.7566 109.23 32.1193 110.641 35.5008C112.02 38.8259 109.376 43.4358 110.09 47.0489C110.783 50.553 115.004 53.8022 115.004 57.5107C115.004 61.2193 110.783 64.4684 110.09 67.9745C109.376 71.5876 112.02 76.1975 110.641 79.5225C109.238 82.904 104.094 84.2882 102.076 87.294C100.057 90.2997 100.713 95.6027 98.1548 98.1704C95.5968 100.738 90.3094 100.063 87.2803 102.091C84.2512 104.12 82.8885 109.245 79.507 110.657C76.1819 112.035 71.572 109.391 67.9589 110.106C64.4528 110.783 61.2056 115.004 57.4971 115.004C53.7885 115.004 50.5394 110.783 47.0333 110.09C43.4202 109.376 38.8103 112.02 35.4852 110.639C32.1037 109.238 30.7196 104.094 27.7138 102.074C24.7081 100.053 19.4051 100.73 16.8374 98.1626C14.2696 95.5949 14.9451 90.3153 12.9166 87.2862C10.8881 84.257 5.76235 82.8963 4.35096 79.5148C2.97266 76.1897 5.61634 71.5798 4.90189 67.9667C4.21663 64.4606 -0.0039086 61.2134 -0.00390876 57.5029C-0.00390893 53.7924 4.21663 50.5472 4.90967 47.0411C5.62413 43.428 2.98045 38.8181 4.36069 35.493C5.76235 32.1116 10.9056 30.7274 12.9264 27.7197C14.9471 24.712 14.2696 19.4188 16.8374 16.8452C19.4051 14.2716 24.6847 14.953 27.7138 12.9244C30.743 10.8959 32.1037 5.77016 35.4852 4.35877C38.8103 2.98047 43.4202 5.62414 47.0333 4.90969C50.5394 4.22444 53.7866 0.0039039 57.4971 0.00390374Z" fill="white"/>
<path d="M103.198 57.5033C103.198 32.2629 82.7371 11.8015 57.4967 11.8015C32.2563 11.8016 11.7949 32.2629 11.7949 57.5033C11.7949 82.7437 32.2563 103.205 57.4967 103.205C82.7371 103.205 103.198 82.7437 103.198 57.5033Z" fill="#21BF73"/>
<path d="M99.9961 57.5039C99.9961 34.0318 80.9682 15.0039 57.4961 15.0039C34.024 15.0039 14.9961 34.0318 14.9961 57.5039C14.9961 80.976 34.024 100.004 57.4961 100.004C80.9682 100.004 99.9961 80.976 99.9961 57.5039Z" fill="white"/>
<path d="M52.0008 66.3992L43.6008 57.9992L40.8008 60.7992L52.0008 71.9992L76.0008 47.9992L73.2008 45.1992L52.0008 66.3992Z" fill="#21BF73"/>
</g>
<defs>
<clipPath id="clip0">
<rect width="115" height="115" fill="white"/>
</clipPath>
</defs>
</svg>
