<svg width="18" height="18" viewBox="0 0 18 18" fill="none" xmlns="http://www.w3.org/2000/svg">
<path d="M9 15.5391C9.58249 15.5391 10.0547 15.0669 10.0547 14.4844C10.0547 13.9019 9.58249 13.4297 9 13.4297C8.41751 13.4297 7.94531 13.9019 7.94531 14.4844C7.94531 15.0669 8.41751 15.5391 9 15.5391Z" fill="#21bf73"/>
<path d="M8.99967 0C7.4703 0 6.02541 0.365379 4.74481 1.01106C4.47478 1.14722 4.37574 1.48331 4.52691 1.74519L5.05714 2.66358C5.1965 2.905 5.49916 2.99521 5.74902 2.8716C6.73054 2.38602 7.83248 2.10938 8.99967 2.10938C10.1669 2.10938 11.2688 2.38602 12.2503 2.8716C12.5001 2.99521 12.8028 2.905 12.9422 2.66358L13.4724 1.74519C13.6236 1.48331 13.5245 1.14718 13.2545 1.01106C11.9739 0.365379 10.529 0 8.99967 0V0Z" fill="#21bf73"/>
<path d="M2.14453 9.31641H0.0351562V12.1289C0.0351562 12.4201 0.271266 12.6562 0.5625 12.6562H2.14453V9.31641Z" fill="#21bf73"/>
<path d="M4.78125 14.6777C3.90892 14.6777 3.19922 13.968 3.19922 13.0957V8.87695C3.19922 8.00462 3.90892 7.29492 4.78125 7.29492C5.07248 7.29492 5.30859 7.53103 5.30859 7.82227V14.1504C5.30859 14.4416 5.07248 14.6777 4.78125 14.6777Z" fill="#21bf73"/>
<path d="M17.9648 9.31641H15.8555V12.6562H17.4375C17.7287 12.6562 17.9648 12.4201 17.9648 12.1289V9.31641Z" fill="#21bf73"/>
<path d="M13.7457 16.0664C13.7457 16.551 13.3514 16.9453 12.8668 16.9453H10.4058C10.0765 16.9453 9.78914 16.7632 9.63864 16.4945C9.43695 16.5588 9.22228 16.5937 8.99957 16.5937C8.83859 16.5937 8.682 16.575 8.53125 16.5407C8.74331 17.3783 9.50325 18 10.4058 18H12.8668C13.9329 18 14.8004 17.1326 14.8004 16.0664V15.2036C14.4936 15.4344 14.1351 15.6 13.7457 15.6793V16.0664Z" fill="#21bf73"/>
<path d="M13.2188 14.6777C12.9275 14.6777 12.6914 14.4416 12.6914 14.1504V7.82227C12.6914 7.53103 12.9275 7.29492 13.2188 7.29492C14.0925 7.29492 14.8008 8.00321 14.8008 8.87695V13.0957C14.8008 13.9694 14.0925 14.6777 13.2188 14.6777Z" fill="#21bf73"/>
<path d="M16.7286 4.94604C16.1229 3.91853 15.3159 3.02197 14.3645 2.31006L13.833 3.23066C15.4285 4.4664 16.4976 6.27386 16.8131 8.26135H17.8803C17.7189 7.09272 17.3289 5.96445 16.7286 4.94604V4.94604Z" fill="#21bf73"/>
<path d="M1.27187 4.94698C0.671578 5.96539 0.28152 7.09366 0.120117 8.26229H1.18739C1.50288 6.2748 2.57195 4.46734 4.16745 3.23164L3.63595 2.31104C2.68455 3.02291 1.87754 3.91947 1.27187 4.94698V4.94698Z" fill="#21bf73"/>
</svg>
