<svg width="18" height="18" viewBox="0 0 18 18" fill="none" xmlns="http://www.w3.org/2000/svg">
<path d="M12.5885 13.1454C12.5885 12.3464 12.8785 11.6444 13.4358 11.0873C13.9925 10.5305 14.6945 10.2398 15.4937 10.2398C16.1122 10.2398 16.6814 10.5199 16.6814 10.5199C16.9402 10.6472 17.1519 10.5156 17.1519 10.2269V2.98888C17.1519 2.70034 16.9157 2.46436 16.6276 2.46436H0.630965C0.342425 2.46436 0.106445 2.70052 0.106445 2.98888V13.8452C0.106445 14.1339 0.342605 14.3697 0.630965 14.3697H12.325C12.6136 14.3697 12.7748 14.1458 12.6838 13.8722C12.6838 13.8724 12.5885 13.5858 12.5885 13.1454ZM10.6436 8.58705C10.5977 8.62179 10.3742 8.79207 10.1323 8.94939L7.46863 10.6815C7.22689 10.8387 7.14445 10.8945 7.11439 10.9087C6.97453 10.9749 6.80893 11.0203 6.69877 10.9512C6.61687 10.8999 6.54019 10.7823 6.54037 10.6333C6.54037 10.6329 6.54055 10.463 6.54055 10.1743V6.65259C6.54055 6.36405 6.49969 5.89552 6.68365 5.81002C6.73729 5.78518 6.86311 5.79436 6.91981 5.81074C6.98317 5.82892 7.22743 5.98749 7.46989 6.14409L10.1314 7.85985C10.3738 8.01609 10.5983 8.18511 10.6427 8.22237C10.7554 8.31669 10.7291 8.52207 10.6436 8.58705ZM17.8748 12.681C17.8381 12.6369 17.794 12.6072 17.7349 12.6L17.2484 12.5262C17.2261 12.4671 17.2043 12.4083 17.1746 12.342C17.2043 12.2978 17.2484 12.2461 17.2923 12.1872C17.3663 12.0915 17.4178 12.0251 17.4475 11.9808C17.4768 11.9367 17.4914 11.8924 17.4914 11.8407C17.4914 11.7673 17.462 11.723 17.4475 11.7083C17.3663 11.5976 17.2041 11.4208 16.9312 11.1701C16.8871 11.1333 16.8356 11.111 16.784 11.111C16.7102 11.111 16.6587 11.1479 16.6439 11.1627L16.2827 11.4429C16.231 11.421 16.1794 11.3987 16.1277 11.3765L16.0543 10.8975C16.0469 10.8385 16.0246 10.787 15.9805 10.7501C15.9362 10.7132 15.8847 10.6985 15.833 10.6985H15.1622C15.0517 10.6985 14.9707 10.7647 14.941 10.8678C14.9188 10.9638 14.8895 11.1335 14.8598 11.3765C14.8083 11.3987 14.7566 11.421 14.705 11.4429L14.3439 11.1627C14.2996 11.126 14.248 11.111 14.1965 11.111C14.1229 11.111 14.0417 11.1553 13.828 11.3619C13.673 11.5092 13.5771 11.6201 13.5182 11.7009C13.4887 11.7453 13.474 11.7894 13.474 11.8337C13.474 11.8706 13.4813 11.9221 13.5328 11.981C13.6433 12.1138 13.7393 12.2319 13.8131 12.335C13.7836 12.3865 13.7614 12.4455 13.7467 12.4972L13.2529 12.5706C13.216 12.5782 13.1645 12.6003 13.1203 12.6518C13.0907 12.6961 13.0762 12.7404 13.0762 12.792V13.4627C13.0762 13.5144 13.0907 13.5659 13.1203 13.6028C13.1424 13.6544 13.1865 13.6839 13.2455 13.6911L13.7245 13.7649C13.7467 13.8238 13.7688 13.8902 13.7983 13.9491C13.7688 13.9934 13.7245 14.045 13.6806 14.1039C13.6066 14.1996 13.5551 14.2661 13.5258 14.3103C13.4963 14.3544 13.4815 14.3985 13.4815 14.4502C13.4815 14.5019 13.4963 14.546 13.5258 14.5901C13.6066 14.7081 13.7765 14.8779 14.0345 15.1135C14.1229 15.2021 14.2705 15.1947 14.3365 15.1283L14.7052 14.8484C14.7568 14.8701 14.8085 14.8923 14.86 14.9144L14.9338 15.3938C14.9411 15.4526 14.9631 15.5041 15.0148 15.541C15.059 15.5779 15.1105 15.5927 15.1622 15.5927H15.833C15.9437 15.5927 16.0246 15.5262 16.0543 15.4231C16.0762 15.3273 16.1059 15.1576 16.1353 14.9144C16.1867 14.8923 16.2384 14.8701 16.2901 14.8484L16.6587 15.1356C16.7028 15.1652 16.7543 15.1801 16.7987 15.1801C16.8724 15.1801 16.9534 15.1356 17.1674 14.9292C17.3146 14.7818 17.4179 14.6712 17.4694 14.5974C17.5065 14.5532 17.5286 14.5091 17.5286 14.45C17.5286 14.3984 17.5065 14.3469 17.4694 14.3028C17.3517 14.1552 17.2558 14.0371 17.1893 13.9487C17.2115 13.8972 17.2336 13.8456 17.2558 13.7867L17.7497 13.7131C17.8012 13.7057 17.8526 13.676 17.8823 13.6319C17.9117 13.5876 17.9264 13.5435 17.9264 13.4919V12.821C17.9264 12.7694 17.9117 12.7179 17.8748 12.681ZM17.0934 13.5583L17.0713 13.6245C17.0345 13.7277 16.9975 13.8162 16.9607 13.8827L16.924 13.9417L16.9681 14.0006C17.0419 14.1037 17.1451 14.2439 17.2923 14.4282C17.2408 14.4945 17.1452 14.605 17.005 14.7377C16.8428 14.9 16.7912 14.9146 16.7912 14.9146L16.3122 14.5386L16.246 14.5755C16.1646 14.6198 16.0762 14.6567 15.9877 14.686L15.914 14.7081L15.9067 14.7818C15.8771 15.0473 15.8476 15.2318 15.8329 15.3273H15.8257L15.162 15.3347L15.0661 14.7081L15 14.686C14.9114 14.6567 14.8231 14.6198 14.7419 14.5829L14.6828 14.5681L14.1963 14.9367C13.9528 14.7155 13.7908 14.546 13.7173 14.443C13.7465 14.3985 13.7981 14.3323 13.8646 14.2439C13.9382 14.1482 13.9972 14.0744 14.0341 14.0301L14.0782 13.971L14.0413 13.9048C13.9897 13.8089 13.9528 13.7205 13.9234 13.6319L13.9013 13.5583L13.2823 13.4699L13.2675 12.8063L13.9088 12.7031L13.931 12.6369C13.9605 12.5483 13.9898 12.4671 14.0415 12.3788L14.0784 12.3122L14.0343 12.2535C13.9529 12.1354 13.8426 11.9954 13.7098 11.8256C13.7612 11.7594 13.8572 11.6562 13.9974 11.5162C14.1594 11.3538 14.2112 11.3321 14.2112 11.3393L14.683 11.7079L14.7494 11.671C14.8304 11.6269 14.9188 11.59 15.0076 11.5607L15.0812 11.5385L15.0884 11.4647C15.1179 11.1992 15.1474 11.0151 15.1696 10.9191L15.833 10.9118L15.929 11.5385L15.9952 11.5607C16.091 11.59 16.172 11.6269 16.2533 11.6638L16.3196 11.6931L16.8061 11.3245C17.0569 11.5607 17.2192 11.7227 17.2853 11.8256C17.2559 11.8701 17.2045 11.9363 17.1379 12.0247C17.0644 12.1205 17.0054 12.1869 16.9685 12.2385L16.9244 12.2974L16.9537 12.3636C17.0054 12.4596 17.0423 12.548 17.0716 12.6439L17.0938 12.7101L17.7056 12.7985L17.7203 13.4622L17.0934 13.5583ZM16.1203 12.5188C15.9509 12.3492 15.7371 12.2607 15.4937 12.2607C15.2504 12.2607 15.0367 12.3491 14.8673 12.5188C14.6978 12.6884 14.6092 12.9022 14.6092 13.1454C14.6092 13.3886 14.6976 13.6024 14.8673 13.7718C15.0367 13.9415 15.2506 14.0301 15.4937 14.0301C15.7373 14.0301 15.9509 13.9417 16.1203 13.7718C16.2899 13.6024 16.3784 13.3886 16.3784 13.1454C16.3784 12.9022 16.2899 12.6884 16.1203 12.5188ZM15.9581 13.6024C15.8255 13.7351 15.6779 13.7939 15.4936 13.7939C15.3092 13.7939 15.1544 13.7277 15.0292 13.6024C14.8965 13.4699 14.8375 13.3221 14.8375 13.138C14.8375 12.9537 14.8965 12.7987 15.0292 12.6736C15.1618 12.5409 15.3092 12.4821 15.4936 12.4821C15.6779 12.4821 15.8327 12.5483 15.9581 12.6736C16.0906 12.8063 16.1497 12.9537 16.1497 13.138C16.1498 13.3223 16.0834 13.4771 15.9581 13.6024Z" fill="#21bf73"/>
</svg>
