<svg width="18" height="18" viewBox="0 0 18 18" fill="none" xmlns="http://www.w3.org/2000/svg">
<g clip-path="url(#clip0)">
<path d="M13.1539 6.40377H18V4.15377C18 2.72224 16.8354 1.55762 15.4039 1.55762H2.59615C1.16462 1.55762 0 2.72224 0 4.15377V13.8461C0 15.2776 1.16462 16.4422 2.59615 16.4422H15.4039C16.8354 16.4422 18 15.2776 18 13.8461V11.5961H13.1539C11.7223 11.5961 10.5577 10.4314 10.5577 8.99991C10.5577 7.56839 11.7223 6.40377 13.1539 6.40377Z" fill="black"/>
<path d="M13.1544 7.44238C12.2955 7.44238 11.5967 8.14115 11.5967 9.00008C11.5967 9.85902 12.2954 10.5578 13.1544 10.5578H18.0005V7.44242H13.1544V7.44238ZM13.8467 9.5193H13.1544C12.8676 9.5193 12.6352 9.28681 12.6352 9.00008C12.6352 8.71335 12.8676 8.48086 13.1544 8.48086H13.8467C14.1334 8.48086 14.3659 8.71335 14.3659 9.00008C14.3659 9.28681 14.1334 9.5193 13.8467 9.5193Z" fill="black"/>
</g>
<defs>
<clipPath id="clip0">
<rect width="18" height="18" fill="white"/>
</clipPath>
</defs>
</svg>
